<svg width="22" height="23" viewBox="0 0 22 23" fill="none" xmlns="http://www.w3.org/2000/svg">
<path opacity="0.4" d="M16.4737 22.75H6.06807C3.0384 22.75 0.573158 20.3099 0.573158 17.3101V11.3149C0.573158 8.31506 3.0384 5.875 6.06807 5.875H16.4737C19.5034 5.875 21.9686 8.31506 21.9686 11.3149V17.3101C21.9686 20.3099 19.5034 22.75 16.4737 22.75" fill="white" fill-opacity="0.2"/>
<path d="M15.4994 9.25C15.0364 9.25 14.6607 8.88588 14.6607 8.43724V5.15151C14.6607 3.345 13.1442 1.87553 11.2809 1.87553C10.4232 1.87553 9.52287 2.2093 8.88204 2.82375C8.24009 3.44037 7.88445 4.26072 7.8811 5.13633V8.43724C7.8811 8.88588 7.50532 9.25 7.04232 9.25C6.57931 9.25 6.20354 8.88588 6.20354 8.43724V5.15151C6.20913 3.81966 6.74147 2.59076 7.70104 1.67071C8.65948 0.748495 9.89864 0.285762 11.2843 0.25C14.069 0.25 16.3382 2.4488 16.3382 5.15151V8.43724C16.3382 8.88588 15.9625 9.25 15.4994 9.25" fill="white" fill-opacity="0.2"/>
</svg>
