<svg width="10" height="17" viewBox="0 0 10 17" fill="none" xmlns="http://www.w3.org/2000/svg">
<path d="M9.27002 2.74639C9.27002 2.47111 9.04261 2.3634 9.00671 2.12402C8.98277 1.95646 8.94686 1.7889 8.91096 1.6333C8.95883 1.53755 8.9708 1.42984 8.94686 1.33409C8.91096 1.09471 8.69552 1.01093 8.57583 0.819433C8.44418 0.615964 8.28858 0.472339 8.16889 0.268871C8.04921 0.0534337 7.80983 -0.0423169 7.57046 0.0175268C7.36699 0.0654017 7.35502 0.101309 7.13959 0.101309C6.99596 0.101309 6.8643 0.161151 6.75659 0.256901C6.58902 0.400526 6.52918 0.603995 6.37359 0.74762C6.17012 0.711714 5.97862 0.795493 5.84696 0.963055C5.6794 1.19046 5.76318 1.14259 5.52381 1.2503C5.2964 1.35802 5.20065 1.6333 5.22459 1.87268C5.23656 2.04024 5.2964 2.19583 5.38018 2.33946C5.30837 2.60277 4.96128 2.60277 4.92537 2.94986C4.90143 3.18924 5.04506 3.40468 5.18868 3.57224C5.32034 3.7039 5.2964 3.77571 5.30837 3.95524C5.20065 3.99114 5.1049 4.06296 5.04506 4.15871C4.92537 4.35021 4.94931 4.57761 5.08096 4.75714C5.17671 4.8888 4.9134 5.0803 4.93734 5.29574C4.7219 5.16408 4.44662 5.19998 4.26709 5.39148C4.1115 5.28377 3.90803 5.25983 3.74047 5.34361C3.78834 5.1162 3.83622 4.8888 3.88409 4.64943C3.94394 4.36218 4.24315 4.25446 4.1115 3.90736C4.01575 3.65602 4.08756 3.40468 4.1115 3.1294C4.12347 2.87805 4.24315 2.53096 4.15937 2.30355C4.08756 2.08812 4.00378 1.87268 3.92 1.64527C3.84818 1.45377 3.81228 1.41787 3.84819 1.22637C3.87212 1.07078 3.82425 0.903212 3.71653 0.795494C3.537 0.615963 3.33353 0.735652 3.17794 0.639902C3.13006 0.400527 2.92659 0.209027 2.67525 0.209027C2.59147 0.209027 2.51966 0.232965 2.44785 0.268871C2.26831 0.364621 2.29225 0.244932 2.10075 0.185088C1.86138 0.113276 1.59806 0.244931 1.50231 0.472337C1.41853 0.651868 1.57413 0.963057 1.34672 0.927151C1.08341 0.879276 0.820098 1.04684 0.760254 1.31015C0.700411 1.53755 0.891909 1.74102 0.808128 1.93252C0.736316 2.11205 0.532848 2.15993 0.461036 2.3634C0.42513 2.48308 0.42513 2.60277 0.461036 2.71049C0.544817 2.96183 0.473004 2.83018 0.305442 3.00971C0.113943 3.22515 0.149848 3.53633 0.329379 3.7398C-0.245119 3.96721 -0.00574497 5.03242 0.568754 5.06833C0.209692 5.24786 0.125912 5.76251 0.496943 5.97795C0.437099 6.16945 0.484973 6.38489 0.628597 6.52851C0.820097 6.70804 1.02357 6.57639 1.13129 6.8038C1.28688 7.15089 0.748285 7.54586 1.26294 7.85704C1.34672 7.90492 1.4305 7.92885 1.52625 7.92885C1.57413 7.92885 1.5861 8.13232 1.622 8.1802C1.72972 8.38367 1.93319 8.45548 2.13666 8.50335C2.29225 8.53926 2.42391 8.41957 2.44785 8.5991C2.45981 8.65895 2.55556 9.06588 2.49572 9.07785C2.30422 9.08982 2.11272 9.11376 1.93319 9.1377C1.57413 9.18557 0.736316 9.34116 0.484973 9.52069C0.0181929 9.83188 0.23363 10.5141 0.269536 10.9809C0.353317 11.9743 0.413162 12.9677 0.61663 13.9372C0.856004 15.0383 1.27491 15.9718 2.47178 16.1514C3.78834 16.3429 5.20065 16.3907 6.50524 16.1633C6.96005 16.0796 7.54652 15.9599 7.84574 15.5649C8.15693 15.158 8.22874 14.5595 8.30055 14.0568C8.44418 13.0874 8.49205 12.1059 8.52796 11.1245C8.55189 10.4902 8.75536 9.53267 8.0133 9.25738C7.6303 9.11376 7.2114 9.07785 6.81643 9.04194C6.91218 8.80257 6.72068 8.63501 6.76855 8.41957C6.98399 8.3717 7.16352 8.21611 7.19943 8.00067C7.2473 7.78523 7.15155 7.56979 6.97202 7.43814C6.97202 7.31845 7.0558 7.2227 7.06777 7.10301C7.6303 7.27058 7.58243 6.61229 7.86968 6.51654C8.08511 6.44473 8.22874 6.24126 8.24071 6.01386C8.25268 5.82236 8.15693 5.78645 8.26464 5.60692C8.36039 5.42739 8.43221 5.4992 8.59977 5.39148C8.7793 5.2718 8.85111 5.04439 8.80324 4.82896C8.75536 4.62549 8.68355 4.67336 8.75536 4.45792C8.86308 4.41005 8.94686 4.32627 8.99474 4.21855C9.11442 3.95524 8.93489 3.76374 8.95883 3.50043C8.98277 3.30893 8.95883 3.21318 9.09049 3.06955C9.22214 2.98577 9.27002 2.86608 9.27002 2.74639C9.27002 2.60277 9.27002 2.91396 9.27002 2.74639Z" fill="white"/>
<path d="M0.688502 10.0359C0.891971 12.3459 0.951816 15.35 2.20853 15.6013C3.45328 15.8527 7.01996 15.9843 7.52264 15.2303C8.02533 14.4643 8.12108 10.4069 8.07321 9.90423C8.14502 9.21004 0.580784 9.36564 0.688502 10.0359Z" fill="#FFC9BA"/>
<path d="M0.783806 11.1963C0.831681 11.8546 0.891524 12.5248 0.987274 13.1352C3.09377 14.0209 6.73226 13.9132 7.95307 13.1352C8.01292 12.453 8.06079 11.711 8.07276 11.1125C6.57667 11.7947 2.2799 11.7349 0.783806 11.1963Z" fill="#96685A"/>
<path d="M8.07341 9.89172V9.87975C8.07341 9.86779 8.07341 9.85582 8.06144 9.84385C7.76222 9.20951 0.569015 9.37707 0.688702 10.0354C0.688702 10.0473 0.688702 10.0593 0.688702 10.0713C1.0358 10.8612 8.13325 11.0168 8.07341 9.89172Z" fill="#FFE5DE"/>
<path d="M1.9449 10.1071C2.3279 9.83186 5.54749 9.50871 6.81617 10.1431C5.10465 10.3705 2.37577 10.3944 1.9449 10.1071Z" fill="#96685A"/>
<path d="M7.64192 9.99943C7.64192 10.0234 7.3068 10.1431 6.72033 10.2388C6.13386 10.3346 5.33195 10.4064 4.4343 10.3944C3.53665 10.3944 2.72277 10.3106 2.14828 10.2029C1.86103 10.1431 1.62165 10.0832 1.47803 10.0234C1.40621 9.98747 1.34637 9.95156 1.31046 9.92762C1.27456 9.89171 1.26259 9.87975 1.26259 9.87975C1.26259 9.87975 1.28653 9.89172 1.32243 9.90368C1.35834 9.91565 1.41818 9.93959 1.49 9.96353C1.64559 10.0114 1.87299 10.0593 2.16024 10.0952C2.73474 10.179 3.53665 10.2388 4.4343 10.2388C5.31999 10.2508 6.13386 10.1909 6.70836 10.1311C7.28286 10.0593 7.62995 9.9755 7.64192 9.99943Z" fill="#A37465"/>
<path d="M3.21343 13.0156C3.20146 13.0156 3.1895 12.9916 3.16556 12.9557C3.15359 12.9318 3.15359 12.9078 3.14162 12.8839C3.12965 12.86 3.10571 12.824 3.09375 12.8001C3.02193 12.6685 2.85437 12.5368 2.63893 12.5129C2.4235 12.4889 2.232 12.5847 2.17215 12.7163C2.14822 12.7403 2.14822 12.7762 2.13625 12.8001C2.12428 12.824 2.12428 12.848 2.12428 12.8719C2.11231 12.9198 2.11231 12.9437 2.10034 12.9437C2.08837 12.9437 2.0764 12.9198 2.06443 12.8719C2.05247 12.848 2.05247 12.8241 2.05247 12.7881C2.05247 12.7522 2.05247 12.7044 2.0764 12.6685C2.10034 12.5727 2.18412 12.4889 2.29184 12.4291C2.39956 12.3692 2.53122 12.3453 2.67484 12.3573C2.95012 12.3812 3.16556 12.5847 3.21343 12.7522C3.2254 12.8001 3.23737 12.836 3.24934 12.86C3.24934 12.8959 3.24934 12.9198 3.24934 12.9437C3.2254 12.9796 3.2254 13.0156 3.21343 13.0156Z" fill="#6B4134"/>
<path d="M5.81069 13.0156C5.79872 13.0156 5.79872 12.9916 5.78675 12.9437C5.78675 12.9198 5.78675 12.8959 5.78675 12.86C5.79872 12.824 5.81069 12.7881 5.82266 12.7522C5.87053 12.5847 6.08597 12.3812 6.36125 12.3573C6.49291 12.3453 6.63653 12.3692 6.74425 12.4291C6.85197 12.4889 6.93575 12.5847 6.95969 12.6685C6.98362 12.7163 6.97165 12.7522 6.98362 12.7881C6.98362 12.8241 6.98362 12.848 6.97165 12.8719C6.95969 12.9198 6.94772 12.9437 6.93575 12.9437C6.92378 12.9437 6.91181 12.9198 6.91181 12.8719C6.91181 12.848 6.91181 12.824 6.89984 12.8001C6.88787 12.7762 6.88787 12.7403 6.86394 12.7163C6.80409 12.5966 6.61259 12.4889 6.39716 12.5129C6.18172 12.5368 6.01416 12.6685 5.94234 12.8001C5.93038 12.836 5.90644 12.86 5.89447 12.8839C5.8825 12.9078 5.87053 12.9318 5.87053 12.9557C5.84659 12.9916 5.82266 13.0156 5.81069 13.0156Z" fill="#6B4134"/>
<path d="M4.99711 12.8001C5.00908 12.8001 5.02105 12.824 5.02105 12.8719C5.02105 12.8959 5.02105 12.9198 5.02105 12.9557C5.02105 12.9916 5.00908 13.0275 4.99711 13.0634C4.98514 13.0993 4.9612 13.1472 4.94924 13.1831C4.91333 13.219 4.88939 13.2669 4.84152 13.3028C4.75774 13.3746 4.62608 13.4225 4.49442 13.4105C4.36277 13.3985 4.25505 13.3387 4.1593 13.2789C4.07552 13.207 4.01567 13.1233 3.99174 13.0515C3.9678 12.9796 3.94386 12.9198 3.94386 12.8719C3.94386 12.824 3.94386 12.8001 3.95583 12.8001C3.97977 12.8001 4.00371 12.8839 4.08749 13.0036C4.1593 13.1113 4.31489 13.243 4.50639 13.2549C4.69789 13.2669 4.84152 13.1352 4.88939 13.0155C4.90136 12.9796 4.91333 12.9557 4.9253 12.9318C4.93727 12.9078 4.93727 12.8839 4.94924 12.86C4.97317 12.824 4.98514 12.8001 4.99711 12.8001Z" fill="#6B4134"/>
<path d="M3.38205 7.34238C2.66393 6.46866 3.77702 4.23051 3.65733 2.57883C3.53764 0.927143 2.30486 0.209021 1.38327 1.88464C0.46168 3.56026 1.23965 7.62963 3.21449 8.38366C3.41796 8.14428 3.38205 7.34238 3.38205 7.34238Z" fill="#8FC745"/>
<path d="M3.19043 10.0234C2.47231 6.8756 3.89658 5.95401 5.16527 5.90614C6.43395 5.85826 7.03239 6.93545 5.7637 10.0234C5.40464 10.1431 3.4298 10.179 3.19043 10.0234Z" fill="#8FC745"/>
<path d="M5.69174 6.25322C6.26624 5.57101 5.4763 3.38073 5.93112 2.2437C6.38593 1.10667 8.02564 -0.545013 8.50439 2.02826C8.98314 4.60154 7.04421 6.9115 6.19443 6.97135C5.84734 6.58835 5.69174 6.25322 5.69174 6.25322Z" fill="#8FC745"/>
<path d="M1.26337 1.40589C1.29927 1.38195 1.39502 1.46573 1.46683 1.58542C1.53865 1.70511 1.58652 1.81283 1.55062 1.83676C1.51471 1.8607 1.41896 1.78889 1.33518 1.6692C1.2514 1.53754 1.22746 1.42983 1.26337 1.40589Z" fill="#BEE38D"/>
<path d="M0.952009 2.49505C0.975946 2.45914 1.08366 2.50702 1.14351 2.61474C1.21532 2.72246 1.21532 2.83017 1.16744 2.84214C1.11957 2.85411 1.0717 2.7823 1.01185 2.69852C0.952009 2.61473 0.916103 2.53096 0.952009 2.49505Z" fill="#BEE38D"/>
<path d="M0.70083 3.33285C0.724767 3.29695 0.796579 3.29695 0.868391 3.33285C0.940204 3.36876 0.988079 3.4286 0.964141 3.47648C0.940204 3.51238 0.868392 3.51238 0.79658 3.47648C0.724768 3.4286 0.676892 3.36876 0.70083 3.33285Z" fill="#BEE38D"/>
<path d="M0.497398 4.21853C0.497398 4.17066 0.629055 4.14672 0.772679 4.15869C0.916304 4.18263 1.02402 4.21853 1.03599 4.25444C1.03599 4.30231 0.904335 4.32625 0.76071 4.31428C0.617085 4.29034 0.497398 4.25444 0.497398 4.21853Z" fill="#BEE38D"/>
<path d="M0.605415 4.5776C0.593447 4.54169 0.653291 4.45791 0.772979 4.37413C0.832822 4.33822 0.904634 4.31429 0.964477 4.31429C1.02432 4.31429 1.06023 4.35019 1.04826 4.37413C1.03629 4.39807 1.01235 4.41004 0.988414 4.43397C0.952508 4.45791 0.904634 4.48185 0.856759 4.51776C0.749041 4.5776 0.629353 4.6135 0.605415 4.5776Z" fill="#BEE38D"/>
<path d="M0.772644 5.54707C0.772644 5.51116 0.880361 5.45132 1.04792 5.46329C1.1317 5.47526 1.21549 5.49919 1.25139 5.55904C1.2873 5.61888 1.2873 5.65479 1.26336 5.66676C1.23942 5.67873 1.21549 5.65479 1.17958 5.64282C1.14367 5.63085 1.0958 5.61888 1.03596 5.61888C0.9043 5.61888 0.772644 5.59495 0.772644 5.54707Z" fill="#BEE38D"/>
<path d="M1.00026 6.16944C0.96435 6.1455 1.01223 6.02582 1.15585 5.96598C1.22766 5.93007 1.31144 5.94204 1.35932 5.96598C1.40719 5.98991 1.41916 6.02582 1.41916 6.03778C1.40719 6.06172 1.38326 6.06172 1.34735 6.07369C1.31144 6.08566 1.27554 6.09763 1.22766 6.1096C1.11994 6.15747 1.02419 6.20535 1.00026 6.16944Z" fill="#BEE38D"/>
<path d="M1.55072 7.4501C1.51481 7.42616 1.56268 7.29451 1.65843 7.16285C1.76615 7.0312 1.87387 6.95938 1.90978 6.98332C1.94568 7.00726 1.88584 7.13891 1.79009 7.2586C1.68237 7.37829 1.58662 7.47404 1.55072 7.4501Z" fill="#BEE38D"/>
<path d="M2.10115 7.98869C2.05328 7.97672 2.05328 7.85703 2.11312 7.73735C2.17297 7.61766 2.26872 7.55782 2.30462 7.58175C2.34053 7.60569 2.30462 7.71341 2.24478 7.80916C2.1969 7.91688 2.14903 7.98869 2.10115 7.98869Z" fill="#BEE38D"/>
<path d="M2.26891 8.02459C2.23301 8.00066 2.25694 7.90491 2.34072 7.83309C2.4245 7.76128 2.53222 7.74931 2.54419 7.79719C2.55616 7.83309 2.50829 7.89294 2.44844 7.95278C2.37663 8.02459 2.30482 8.0605 2.26891 8.02459Z" fill="#BEE38D"/>
<path d="M1.98151 0.65186C2.01742 0.639892 2.1012 0.723674 2.14907 0.85533C2.19695 0.986986 2.18498 1.11864 2.14907 1.13061C2.1012 1.13061 2.05332 1.03486 2.00545 0.915174C1.95757 0.795487 1.9456 0.675798 1.98151 0.65186Z" fill="#BEE38D"/>
<path d="M1.86196 1.83677C1.89787 1.81284 1.98165 1.86071 2.0774 1.95646C2.17315 2.05221 2.20905 2.1719 2.16118 2.19583C2.12527 2.2078 2.05346 2.15993 1.95771 2.06418C1.87393 1.96843 1.82605 1.86071 1.86196 1.83677Z" fill="#BEE38D"/>
<path d="M1.50297 2.38732C1.53888 2.36338 1.61069 2.41126 1.69447 2.4711C1.76628 2.54292 1.82613 2.6267 1.79022 2.65064C1.76628 2.68654 1.67053 2.6626 1.58675 2.57882C1.491 2.51898 1.46706 2.41126 1.50297 2.38732Z" fill="#BEE38D"/>
<path d="M1.55088 2.98577C1.53891 2.96183 1.55088 2.9379 1.57481 2.91396C1.61072 2.89002 1.65859 2.87805 1.70647 2.87805C1.81419 2.89002 1.87403 2.96183 1.85009 2.99774C1.82616 3.03365 1.75434 3.04562 1.68253 3.03365C1.63466 3.03365 1.57481 3.02168 1.55088 2.98577Z" fill="#BEE38D"/>
<path d="M1.37102 3.56027C1.34709 3.52436 1.46677 3.44058 1.6104 3.41664C1.74205 3.39271 1.84977 3.38074 1.87371 3.41664C1.88568 3.44058 1.86174 3.46452 1.82583 3.50043C1.77796 3.53633 1.71811 3.56027 1.6463 3.57224C1.49071 3.59618 1.38299 3.59618 1.37102 3.56027Z" fill="#BEE38D"/>
<path d="M1.49077 4.70926C1.4788 4.67336 1.57455 4.60154 1.70621 4.61351C1.77802 4.61351 1.83786 4.64942 1.87377 4.67336C1.90968 4.70926 1.92165 4.74517 1.90968 4.75714C1.87377 4.79304 1.80196 4.76911 1.70621 4.76911C1.59849 4.75714 1.50274 4.75714 1.49077 4.70926Z" fill="#BEE38D"/>
<path d="M1.63435 5.41541C1.62238 5.40344 1.61041 5.37951 1.63435 5.3436C1.64632 5.30769 1.69419 5.27179 1.74207 5.25982C1.83782 5.22391 1.9216 5.27179 1.90963 5.30769C1.90963 5.35557 1.84979 5.37951 1.78994 5.40344C1.7301 5.42738 1.67026 5.43935 1.63435 5.41541Z" fill="#BEE38D"/>
<path d="M1.74245 5.77448C1.70654 5.76251 1.70654 5.65479 1.79033 5.57101C1.87411 5.48723 1.96985 5.47526 1.98182 5.52313C2.00576 5.55904 1.95789 5.63085 1.89804 5.6907C1.8382 5.73857 1.77836 5.78645 1.74245 5.77448Z" fill="#BEE38D"/>
<path d="M1.84954 6.40882C1.81363 6.39686 1.8256 6.27717 1.88544 6.15748C1.95725 6.03779 2.02907 5.96598 2.07694 5.97795C2.11285 6.00189 2.10088 6.10961 2.02907 6.22929C1.95725 6.34898 1.88544 6.43276 1.84954 6.40882Z" fill="#BEE38D"/>
<path d="M2.63983 7.59372C2.60392 7.61766 2.52014 7.50994 2.50817 7.36632C2.4962 7.22269 2.53211 7.11497 2.57998 7.11497C2.62786 7.11497 2.65179 7.22269 2.66376 7.35435C2.67573 7.47404 2.67573 7.58176 2.63983 7.59372Z" fill="#BEE38D"/>
<path d="M2.71171 0.699736C2.75958 0.711705 2.74761 0.831389 2.72368 0.951077C2.71171 1.07076 2.69974 1.16652 2.66383 1.17849C2.62793 1.19045 2.54415 1.08273 2.56808 0.927141C2.59202 0.771548 2.6758 0.687768 2.71171 0.699736Z" fill="#BEE38D"/>
<path d="M3.4061 1.1306C3.43004 1.16651 3.33429 1.26226 3.22657 1.36998C3.11885 1.4777 3.0231 1.57345 2.9872 1.54951C2.95129 1.52557 2.98719 1.38195 3.11885 1.26226C3.23854 1.13061 3.38216 1.0947 3.4061 1.1306Z" fill="#BEE38D"/>
<path d="M3.72898 2.45913C3.71701 2.50701 3.63323 2.53095 3.50157 2.55489C3.42976 2.56685 3.36991 2.57882 3.32204 2.56685C3.27416 2.55488 3.23826 2.54291 3.23826 2.51898C3.23826 2.4711 3.33401 2.4352 3.46567 2.41126C3.53748 2.39929 3.59732 2.39929 3.65716 2.41126C3.70504 2.42323 3.72898 2.44716 3.72898 2.45913Z" fill="#BEE38D"/>
<path d="M3.50157 3.22513C3.47763 3.26104 3.42976 3.27301 3.36992 3.27301C3.31007 3.27301 3.23826 3.23711 3.23826 3.2012C3.23826 3.15332 3.28613 3.11742 3.38188 3.11742C3.42976 3.11742 3.46566 3.14135 3.4896 3.16529C3.51354 3.17726 3.51354 3.21317 3.50157 3.22513Z" fill="#BEE38D"/>
<path d="M3.68142 4.11083C3.66945 4.1228 3.63354 4.12279 3.59764 4.12279C3.56173 4.12279 3.50189 4.11083 3.44204 4.09886C3.37023 4.08689 3.31039 4.05098 3.27448 4.02704C3.23858 3.99114 3.21464 3.95523 3.22661 3.94326C3.23858 3.91932 3.27448 3.91933 3.31039 3.91933C3.35826 3.91933 3.40614 3.93129 3.47795 3.94326C3.54976 3.95523 3.60961 3.99114 3.65748 4.02704C3.69339 4.06295 3.70536 4.09886 3.68142 4.11083Z" fill="#BEE38D"/>
<path d="M3.25041 5.27179C3.2145 5.29573 3.16663 5.29573 3.10679 5.25982C3.04694 5.22392 3.01104 5.15211 3.04694 5.12817C3.07088 5.09227 3.13072 5.09227 3.20253 5.12817C3.26238 5.17605 3.28632 5.24786 3.25041 5.27179Z" fill="#BEE38D"/>
<path d="M3.23806 5.95401C3.20215 5.97794 3.15428 5.97794 3.09444 5.95401C3.03459 5.93007 2.99869 5.88219 3.01066 5.83432C3.02262 5.79841 3.09444 5.77447 3.16625 5.81038C3.25003 5.84629 3.27397 5.9181 3.23806 5.95401Z" fill="#BEE38D"/>
<path d="M3.41768 6.49261C3.40571 6.52851 3.30996 6.54048 3.1783 6.50458C3.11846 6.48064 3.05861 6.43276 3.02271 6.38489C2.99877 6.33701 3.01074 6.30111 3.02271 6.28914C3.04665 6.27717 3.07058 6.28914 3.09452 6.30111C3.13043 6.31308 3.16633 6.32504 3.21421 6.34898C3.3339 6.38489 3.42965 6.44473 3.41768 6.49261Z" fill="#BEE38D"/>
<path d="M2.83124 1.95646C2.85518 1.99237 2.79533 2.06418 2.74746 2.14796C2.68761 2.23174 2.63974 2.30355 2.59186 2.30355C2.54399 2.30355 2.53202 2.1719 2.6158 2.06418C2.69958 1.94449 2.81927 1.92056 2.83124 1.95646Z" fill="#BEE38D"/>
<path d="M2.99882 2.80622C3.02276 2.84213 2.99882 2.90198 2.96291 2.94985C2.92701 3.00969 2.87913 3.05757 2.83126 3.0456C2.79535 3.03363 2.77141 2.94985 2.83126 2.86607C2.8911 2.78229 2.97488 2.77032 2.99882 2.80622Z" fill="#BEE38D"/>
<path d="M2.91491 3.77569C2.92687 3.82357 2.879 3.85948 2.81915 3.87145C2.75931 3.88342 2.69947 3.85948 2.6875 3.8116C2.67553 3.76373 2.7234 3.72782 2.78325 3.71585C2.84309 3.71585 2.90294 3.73979 2.91491 3.77569Z" fill="#BEE38D"/>
<path d="M2.93898 4.63745C2.92702 4.68532 2.8552 4.70926 2.75945 4.68532C2.6637 4.66138 2.60386 4.5776 2.63977 4.5417C2.6637 4.50579 2.73552 4.50579 2.80733 4.52973C2.87914 4.5417 2.95095 4.58957 2.93898 4.63745Z" fill="#BEE38D"/>
<path d="M2.87925 5.43936C2.85531 5.47527 2.80744 5.4992 2.73563 5.47527C2.66381 5.4633 2.61594 5.41542 2.62791 5.37952C2.63988 5.33164 2.69972 5.3077 2.77153 5.33164C2.84335 5.34361 2.90319 5.40345 2.87925 5.43936Z" fill="#BEE38D"/>
<path d="M2.86732 6.04975C2.86732 6.09762 2.83142 6.13353 2.78354 6.13353C2.73567 6.1455 2.68779 6.12156 2.67582 6.07369C2.66386 6.02581 2.69976 5.9899 2.7596 5.97794C2.81945 5.97794 2.86732 6.01384 2.86732 6.04975Z" fill="#BEE38D"/>
<path d="M3.01104 6.91151C2.98711 6.94742 2.90332 6.94742 2.81954 6.89954C2.72379 6.85167 2.68789 6.76789 2.71182 6.73198C2.73576 6.69607 2.81954 6.72001 2.89136 6.75592C2.97514 6.80379 3.03498 6.87561 3.01104 6.91151Z" fill="#BEE38D"/>
<path d="M2.20877 2.51898C2.24468 2.49504 2.32846 2.56685 2.37634 2.68654C2.42421 2.79426 2.43618 2.89001 2.40027 2.91395C2.36437 2.93788 2.28059 2.86607 2.23271 2.75835C2.18484 2.63866 2.17287 2.54291 2.20877 2.51898Z" fill="#BEE38D"/>
<path d="M2.20905 3.2012C2.24496 3.17727 2.29283 3.1653 2.32874 3.2012C2.36464 3.23711 2.37661 3.29695 2.34071 3.32089C2.3048 3.34483 2.25692 3.3568 2.22102 3.32089C2.18511 3.28499 2.17314 3.22514 2.20905 3.2012Z" fill="#BEE38D"/>
<path d="M2.02929 4.42201C1.99338 4.39807 2.00535 4.30232 2.08913 4.21854C2.17291 4.13476 2.28063 4.13476 2.2926 4.18263C2.30457 4.21854 2.25669 4.27838 2.19685 4.33823C2.12503 4.39807 2.06519 4.44594 2.02929 4.42201Z" fill="#BEE38D"/>
<path d="M2.25695 5.18802C2.20907 5.18802 2.18513 5.0803 2.25695 4.97258C2.31679 4.86486 2.41254 4.82895 2.43648 4.86486C2.47238 4.90077 2.43648 4.97258 2.3886 5.05636C2.34073 5.12817 2.29285 5.18802 2.25695 5.18802Z" fill="#BEE38D"/>
<path d="M2.35242 5.89417C2.31651 5.88221 2.30454 5.81039 2.32848 5.75055C2.35242 5.69071 2.41226 5.64283 2.44817 5.6548C2.48407 5.66677 2.49604 5.73858 2.4721 5.79842C2.44817 5.85827 2.40029 5.90614 2.35242 5.89417Z" fill="#BEE38D"/>
<path d="M2.46029 6.70804C2.41241 6.70804 2.37651 6.62426 2.38847 6.51654C2.40044 6.4567 2.41241 6.40882 2.44832 6.38489C2.47226 6.34898 2.50816 6.34898 2.52013 6.36095C2.55603 6.38489 2.55603 6.4567 2.54407 6.54048C2.5321 6.62426 2.50816 6.70804 2.46029 6.70804Z" fill="#BEE38D"/>
<path d="M2.51987 7.18678C2.48396 7.19875 2.43609 7.16284 2.42412 7.11497C2.42412 7.06709 2.46002 7.03119 2.49593 7.03119C2.54381 7.03119 2.57971 7.0671 2.57971 7.103C2.59168 7.13891 2.56774 7.17481 2.51987 7.18678Z" fill="#BEE38D"/>
<path d="M3.99218 5.77448C4.04005 5.77448 4.07596 5.84629 4.12384 5.9181C4.17171 6.00188 4.20762 6.08566 4.18368 6.1096C4.15974 6.1455 4.05202 6.09763 3.99218 5.98991C3.95627 5.94204 3.94431 5.88219 3.94431 5.83432C3.94431 5.79841 3.96824 5.77448 3.99218 5.77448Z" fill="#BEE38D"/>
<path d="M4.68641 5.69069C4.72231 5.70266 4.73428 5.79841 4.72231 5.90613C4.71034 6.01385 4.68641 6.1096 4.63853 6.1096C4.59066 6.1096 4.55475 6.01385 4.56672 5.89416C4.57869 5.77448 4.6505 5.67873 4.68641 5.69069Z" fill="#BEE38D"/>
<path d="M5.48859 5.73857C5.52449 5.76251 5.48859 5.85826 5.42874 5.94204C5.3689 6.02582 5.32103 6.09763 5.27315 6.08566C5.23724 6.07369 5.22528 5.96597 5.29709 5.85825C5.35693 5.76251 5.45268 5.71463 5.48859 5.73857Z" fill="#BEE38D"/>
<path d="M5.96713 6.14551C5.99107 6.18141 5.9791 6.24125 5.93122 6.27716C5.88335 6.31307 5.8235 6.32503 5.7876 6.28913C5.75169 6.25322 5.77563 6.19338 5.8235 6.15747C5.87138 6.12157 5.93122 6.1096 5.96713 6.14551Z" fill="#BEE38D"/>
<path d="M6.63752 7.05512C6.63752 7.07906 6.60161 7.09103 6.5657 7.103C6.5298 7.11497 6.48192 7.13891 6.41011 7.15088C6.3383 7.16285 6.26649 7.16285 6.21861 7.15088C6.17074 7.13891 6.1468 7.103 6.1468 7.07906C6.15877 7.05513 6.1827 7.04316 6.21861 7.03119C6.25452 7.01922 6.30239 7.00725 6.3742 6.99528C6.43405 6.98331 6.50586 6.97134 6.55373 6.99528C6.61358 7.00725 6.63752 7.03119 6.63752 7.05512Z" fill="#BEE38D"/>
<path d="M6.76889 7.89295C6.75692 7.92885 6.69707 7.96476 6.62526 7.94082C6.55345 7.91689 6.50557 7.85704 6.52951 7.82114C6.55345 7.78523 6.61329 7.77326 6.66117 7.7972C6.72101 7.80917 6.78085 7.85704 6.76889 7.89295Z" fill="#BEE38D"/>
<path d="M6.39787 8.88634C6.36197 8.92225 6.31409 8.92225 6.20637 8.92225C6.1585 8.92225 6.09866 8.91028 6.06275 8.87437C6.02684 8.85043 6.01487 8.81453 6.02684 8.80256C6.03881 8.77862 6.06275 8.77862 6.09866 8.76665C6.13456 8.75469 6.17047 8.75468 6.21834 8.75468C6.26622 8.75468 6.32606 8.76665 6.36197 8.79059C6.39787 8.8265 6.40984 8.8624 6.39787 8.88634Z" fill="#BEE38D"/>
<path d="M6.15842 9.67628C6.13448 9.71219 6.07464 9.71219 5.99085 9.68825C5.90707 9.67628 5.82329 9.60447 5.84723 9.56856C5.87117 9.53265 5.93101 9.52069 6.02676 9.53266C6.07464 9.54462 6.12251 9.56856 6.14645 9.5925C6.15842 9.62841 6.17039 9.65234 6.15842 9.67628Z" fill="#BEE38D"/>
<path d="M5.42831 6.57638C5.46421 6.60032 5.44027 6.6841 5.40437 6.75591C5.36846 6.82772 5.34452 6.88757 5.30862 6.89954C5.28468 6.89954 5.26074 6.88757 5.24877 6.83969C5.23681 6.80379 5.23681 6.74394 5.26074 6.6841C5.30862 6.58835 5.3924 6.55244 5.42831 6.57638Z" fill="#BEE38D"/>
<path d="M5.72761 7.17482C5.75155 7.21073 5.71564 7.27057 5.6558 7.33042C5.58399 7.39026 5.48824 7.39026 5.47627 7.34239C5.4643 7.29451 5.50021 7.24664 5.56005 7.19876C5.6199 7.15089 5.70368 7.13892 5.72761 7.17482Z" fill="#BEE38D"/>
<path d="M5.70411 8.01262C5.72805 8.04853 5.69214 8.12034 5.60836 8.13231C5.52458 8.14428 5.45277 8.0964 5.46473 8.0605C5.4767 8.01262 5.52458 7.98868 5.57245 7.97672C5.6323 7.97672 5.68017 7.97671 5.70411 8.01262Z" fill="#BEE38D"/>
<path d="M5.57233 8.73075C5.59627 8.76666 5.5484 8.83847 5.46462 8.86241C5.38084 8.88635 5.29705 8.85044 5.30902 8.81454C5.30902 8.76666 5.3569 8.74272 5.42871 8.71879C5.48855 8.69485 5.5484 8.69485 5.57233 8.73075Z" fill="#BEE38D"/>
<path d="M5.48832 9.56856C5.50029 9.60446 5.42847 9.67628 5.29682 9.68825C5.16516 9.70021 5.08138 9.6284 5.09335 9.58053C5.11729 9.54462 5.1891 9.53265 5.28485 9.53265C5.3806 9.53265 5.46438 9.53265 5.48832 9.56856Z" fill="#BEE38D"/>
<path d="M4.56693 6.38488C4.5789 6.37291 4.61481 6.36095 4.65071 6.38488C4.68662 6.40882 4.72253 6.44473 4.74646 6.4926C4.79434 6.58835 4.78237 6.66016 4.75843 6.6841C4.72252 6.70804 4.65071 6.6482 4.61481 6.56441C4.56693 6.48063 4.54299 6.42079 4.56693 6.38488Z" fill="#BEE38D"/>
<path d="M4.31523 7.16284C4.3272 7.11496 4.42295 7.10299 4.54264 7.15087C4.65036 7.19874 4.7102 7.27055 4.69823 7.30646C4.6743 7.34237 4.57855 7.3304 4.4828 7.29449C4.37508 7.25859 4.30327 7.21071 4.31523 7.16284Z" fill="#BEE38D"/>
<path d="M4.35131 7.78522C4.35131 7.73734 4.43509 7.7134 4.51887 7.73734C4.60265 7.74931 4.6625 7.78522 4.6625 7.83309C4.6625 7.88097 4.57872 7.91687 4.49493 7.89293C4.39918 7.88097 4.33934 7.83309 4.35131 7.78522Z" fill="#BEE38D"/>
<path d="M4.30334 8.4794C4.29137 8.46743 4.29137 8.43153 4.31531 8.40759C4.33925 8.37168 4.38712 8.34774 4.435 8.33578C4.54271 8.31184 4.61453 8.32381 4.6265 8.37168C4.63846 8.41956 4.56665 8.46743 4.48287 8.49137C4.39909 8.50334 4.32728 8.50334 4.30334 8.4794Z" fill="#BEE38D"/>
<path d="M4.25559 9.28131C4.21969 9.25737 4.26756 9.13768 4.37528 9.0539C4.483 8.97012 4.56678 8.92225 4.60269 8.95815C4.63859 8.98209 4.57875 9.10178 4.483 9.18556C4.37528 9.25737 4.2915 9.30524 4.25559 9.28131Z" fill="#BEE38D"/>
<path d="M3.76506 6.4567C3.80096 6.43276 3.86081 6.46867 3.89671 6.54048C3.93262 6.61229 3.93262 6.67213 3.89671 6.69607C3.86081 6.72001 3.80096 6.6841 3.76506 6.61229C3.72915 6.54048 3.72915 6.48063 3.76506 6.4567Z" fill="#BEE38D"/>
<path d="M3.51341 7.11497C3.52537 7.07907 3.62113 7.07907 3.70491 7.13891C3.78869 7.21072 3.81262 7.29451 3.77672 7.31844C3.74081 7.34238 3.669 7.30647 3.60916 7.2586C3.53734 7.21072 3.48947 7.16285 3.51341 7.11497Z" fill="#BEE38D"/>
<path d="M3.41807 7.90491C3.41807 7.85703 3.50185 7.8331 3.58563 7.869C3.66941 7.90491 3.70532 7.96475 3.68138 8.00066C3.65744 8.03657 3.58563 8.03656 3.52579 8.01263C3.45398 8.00066 3.41807 7.95278 3.41807 7.90491Z" fill="#BEE38D"/>
<path d="M3.2143 8.62303C3.20234 8.61106 3.20233 8.57515 3.23824 8.53925C3.27415 8.50334 3.32202 8.4794 3.38187 8.46744C3.50155 8.45547 3.58534 8.49137 3.58534 8.52728C3.5973 8.57515 3.50155 8.61106 3.4058 8.62303C3.35793 8.635 3.32202 8.635 3.28612 8.635C3.25021 8.64697 3.22627 8.64697 3.2143 8.62303Z" fill="#BEE38D"/>
<path d="M3.29821 9.31722C3.27427 9.28132 3.32215 9.2095 3.40593 9.1736C3.48971 9.13769 3.56152 9.14966 3.58546 9.18557C3.6094 9.22147 3.54955 9.29328 3.47774 9.31722C3.39396 9.35313 3.32214 9.35313 3.29821 9.31722Z" fill="#BEE38D"/>
<path d="M3.28625 9.90369C3.26231 9.86779 3.32215 9.78401 3.4179 9.76007C3.51365 9.72416 3.58546 9.73613 3.6094 9.77204C3.63334 9.80794 3.56153 9.87976 3.47774 9.90369C3.38199 9.92763 3.31018 9.9396 3.28625 9.90369Z" fill="#BEE38D"/>
<path d="M5.44076 5.24785C5.44076 5.19997 5.58438 5.17603 5.73998 5.23588C5.90754 5.28375 5.99132 5.41541 5.95541 5.45131C5.91951 5.48722 5.82376 5.42738 5.68013 5.39147C5.54848 5.33163 5.44076 5.29572 5.44076 5.24785Z" fill="#BEE38D"/>
<path d="M5.48814 4.41004C5.51208 4.37414 5.60783 4.39807 5.71555 4.45792C5.8113 4.51776 5.88311 4.58957 5.87114 4.62548C5.85917 4.66139 5.75145 4.66138 5.64374 4.60154C5.52405 4.52973 5.4642 4.44595 5.48814 4.41004Z" fill="#BEE38D"/>
<path d="M5.44029 2.96183C5.4762 2.93789 5.57194 3.0097 5.67966 3.11742C5.77541 3.22514 5.85919 3.30892 5.84722 3.34482C5.83526 3.3927 5.67966 3.34482 5.57194 3.22514C5.45226 3.10545 5.40438 2.98576 5.44029 2.96183Z" fill="#BEE38D"/>
<path d="M5.7639 1.6692C5.81177 1.6692 5.84768 1.77692 5.90752 1.92055C5.93146 1.99236 5.9554 2.06417 5.9554 2.12402C5.9554 2.18386 5.94343 2.21977 5.91949 2.21977C5.87162 2.21977 5.81177 2.12402 5.75193 1.96842C5.72799 1.89661 5.70405 1.81283 5.71602 1.75299C5.72799 1.70511 5.73996 1.6692 5.7639 1.6692Z" fill="#BEE38D"/>
<path d="M6.30234 1.20242C6.35021 1.21439 6.37415 1.27424 6.36218 1.35802C6.36218 1.4418 6.32628 1.50164 6.2784 1.50164C6.23053 1.50164 6.19462 1.42983 6.20659 1.34605C6.21856 1.26227 6.26643 1.20242 6.30234 1.20242Z" fill="#BEE38D"/>
<path d="M7.17579 0.580052C7.2117 0.603989 7.16382 0.723675 7.11595 0.843362C7.05611 0.963049 7.03217 1.0588 6.98429 1.0588C6.96036 1.0588 6.93642 1.02289 6.93642 0.975018C6.92445 0.927144 6.93642 0.843361 6.97232 0.771549C7.03217 0.627924 7.13989 0.556115 7.17579 0.580052Z" fill="#BEE38D"/>
<path d="M7.76238 0.4843C7.78631 0.520207 7.75041 0.580052 7.7145 0.639896C7.66663 0.69974 7.61875 0.747613 7.57088 0.735644C7.53497 0.723676 7.523 0.627925 7.58285 0.544144C7.64269 0.472332 7.73844 0.448394 7.76238 0.4843Z" fill="#BEE38D"/>
<path d="M8.48062 1.4059C8.49259 1.45377 8.42078 1.50165 8.337 1.53755C8.25322 1.57346 8.19337 1.62134 8.15747 1.5974C8.1455 1.58543 8.13353 1.54952 8.15747 1.51362C8.16944 1.47771 8.21731 1.42983 8.26518 1.39393C8.36093 1.33408 8.46865 1.35802 8.48062 1.4059Z" fill="#BEE38D"/>
<path d="M8.79172 2.73442C8.79172 2.7823 8.73187 2.8182 8.62416 2.86607C8.56431 2.89001 8.50447 2.89001 8.46856 2.89001C8.42069 2.87804 8.39675 2.86608 8.39675 2.84214C8.39675 2.79426 8.46856 2.77033 8.57628 2.72245C8.62416 2.69851 8.684 2.68654 8.73188 2.69851C8.75581 2.69851 8.79172 2.71048 8.79172 2.73442Z" fill="#BEE38D"/>
<path d="M8.61229 4.01507C8.60033 4.02704 8.57639 4.03901 8.54048 4.03901C8.51654 4.03901 8.48064 4.03901 8.43276 4.02704C8.38489 4.01507 8.33701 4.0031 8.30111 3.97916C8.2652 3.95523 8.25323 3.93129 8.2652 3.90735C8.28914 3.87145 8.34898 3.85948 8.4567 3.87145C8.50458 3.88342 8.56442 3.90735 8.58836 3.93129C8.62426 3.9672 8.62426 4.0031 8.61229 4.01507Z" fill="#BEE38D"/>
<path d="M8.37269 4.99652C8.34876 5.00848 8.32482 5.00848 8.30088 4.99652C8.26497 4.98455 8.22907 4.97258 8.19316 4.94864C8.14529 4.9247 8.10938 4.8888 8.08544 4.85289C8.06151 4.81698 8.06151 4.79305 8.07347 4.76911C8.10938 4.74517 8.16922 4.75714 8.26497 4.80501C8.31285 4.82895 8.34876 4.87683 8.37269 4.91273C8.39663 4.94864 8.38466 4.98455 8.37269 4.99652Z" fill="#BEE38D"/>
<path d="M7.75063 6.04975C7.70276 6.04975 7.67882 6.00188 7.64292 5.95401C7.60701 5.90613 7.58307 5.84629 7.60701 5.81038C7.63095 5.77447 7.71473 5.77447 7.77457 5.87022C7.81048 5.9181 7.81048 5.96597 7.79851 6.00188C7.79851 6.03779 7.77457 6.04975 7.75063 6.04975Z" fill="#BEE38D"/>
<path d="M7.25966 6.63622C7.21179 6.63622 7.18785 6.54048 7.13998 6.44473C7.10407 6.33701 7.08013 6.22929 7.12801 6.20535C7.16391 6.19338 7.24769 6.2652 7.29557 6.38488C7.34344 6.51654 7.30754 6.64819 7.25966 6.63622Z" fill="#BEE38D"/>
<path d="M7.77423 1.14257C7.7862 1.17848 7.73832 1.23833 7.69044 1.29817C7.64257 1.35801 7.5947 1.41786 7.54682 1.40589C7.49895 1.40589 7.48698 1.2862 7.57076 1.19045C7.64257 1.10667 7.76226 1.10667 7.77423 1.14257Z" fill="#BEE38D"/>
<path d="M7.88203 2.15993C7.894 2.2078 7.83416 2.25568 7.76234 2.30355C7.67856 2.35143 7.59478 2.36339 7.57084 2.32749C7.54691 2.29158 7.59478 2.21977 7.67856 2.1719C7.76234 2.11205 7.87006 2.12402 7.88203 2.15993Z" fill="#BEE38D"/>
<path d="M7.96563 3.17726C7.98957 3.21316 7.91775 3.29695 7.81004 3.32088C7.69035 3.35679 7.58263 3.30892 7.5946 3.26104C7.60657 3.21317 7.67838 3.18923 7.76216 3.16529C7.85791 3.15332 7.94169 3.14135 7.96563 3.17726Z" fill="#BEE38D"/>
<path d="M7.85805 4.25445C7.84608 4.27838 7.82214 4.27839 7.78623 4.29035C7.75033 4.29035 7.70245 4.30232 7.64261 4.30232C7.58277 4.30232 7.52292 4.29035 7.48702 4.26642C7.45111 4.24248 7.42717 4.21854 7.43914 4.1946C7.45111 4.17067 7.47505 4.1587 7.51095 4.1587C7.54686 4.14673 7.59473 4.14673 7.65458 4.14673C7.71442 4.14673 7.77426 4.1587 7.81017 4.18263C7.85805 4.20657 7.87002 4.24248 7.85805 4.25445Z" fill="#BEE38D"/>
<path d="M7.49927 5.1162C7.48731 5.16407 7.41549 5.18801 7.31974 5.17604C7.22399 5.17604 7.14021 5.14014 7.14021 5.09226C7.14021 5.04439 7.22399 5.00848 7.31974 5.02045C7.42746 5.02045 7.51124 5.06832 7.49927 5.1162Z" fill="#BEE38D"/>
<path d="M7.29579 5.84629C7.27185 5.8822 7.18807 5.85826 7.10428 5.82235C7.0205 5.78645 6.94869 5.73857 6.96066 5.6907C6.97263 5.65479 7.06838 5.63085 7.1761 5.67873C7.25988 5.7266 7.31972 5.81039 7.29579 5.84629Z" fill="#BEE38D"/>
<path d="M6.81681 6.38489C6.7809 6.40883 6.69712 6.36095 6.63728 6.25323C6.56546 6.14551 6.5894 6.02583 6.62531 6.02583C6.67318 6.01386 6.72106 6.08567 6.76893 6.18142C6.81681 6.2652 6.85271 6.36095 6.81681 6.38489Z" fill="#BEE38D"/>
<path d="M6.98464 1.62133C7.02055 1.64527 7.00858 1.74102 6.97267 1.83677C6.93677 1.93252 6.90086 2.00433 6.86496 2.0163C6.81708 2.0163 6.78117 1.90858 6.82905 1.78889C6.86496 1.6692 6.93677 1.60936 6.98464 1.62133Z" fill="#BEE38D"/>
<path d="M6.94841 2.74639C6.97235 2.7823 6.93644 2.84214 6.90054 2.89002C6.86463 2.93789 6.81675 2.9738 6.76888 2.96183C6.721 2.94986 6.70904 2.86608 6.78085 2.7823C6.84069 2.72246 6.92447 2.71049 6.94841 2.74639Z" fill="#BEE38D"/>
<path d="M6.96057 3.4645C6.97253 3.50041 6.93663 3.56025 6.87678 3.58419C6.81694 3.60813 6.7571 3.6201 6.73316 3.58419C6.70922 3.54828 6.73316 3.48844 6.80497 3.44057C6.87678 3.40466 6.9486 3.4286 6.96057 3.4645Z" fill="#BEE38D"/>
<path d="M6.87661 4.18263C6.88858 4.21854 6.85267 4.26641 6.8048 4.27838C6.75692 4.27838 6.72102 4.24248 6.72102 4.20657C6.72102 4.1587 6.75692 4.12279 6.79283 4.12279C6.82873 4.12279 6.85267 4.14672 6.87661 4.18263Z" fill="#BEE38D"/>
<path d="M6.81713 4.91272C6.80516 4.94863 6.74532 4.97257 6.68547 4.9606C6.6376 4.94863 6.58972 4.91273 6.58972 4.87682C6.58972 4.82894 6.64957 4.79304 6.72138 4.81698C6.79319 4.81698 6.8291 4.87682 6.81713 4.91272Z" fill="#BEE38D"/>
<path d="M6.63748 5.48722C6.61354 5.52313 6.56567 5.5351 6.51779 5.5351C6.46992 5.52313 6.42204 5.48722 6.42204 5.45131C6.42204 5.40344 6.46992 5.36753 6.54173 5.3795C6.61354 5.39147 6.66142 5.45132 6.63748 5.48722Z" fill="#BEE38D"/>
<path d="M6.24266 6.19338C6.20675 6.21732 6.14691 6.19338 6.12297 6.12157C6.09903 6.04976 6.12297 6.00188 6.17084 5.98991C6.21872 5.97794 6.25463 6.02582 6.27856 6.0737C6.29053 6.1096 6.27856 6.16944 6.24266 6.19338Z" fill="#BEE38D"/>
<path d="M7.54687 2.10008C7.58278 2.12401 7.55884 2.21977 7.51096 2.31552C7.46309 2.41127 7.40325 2.47111 7.36734 2.45914C7.33143 2.44717 7.31946 2.33945 7.37931 2.2437C7.42718 2.13598 7.51096 2.08811 7.54687 2.10008Z" fill="#BEE38D"/>
<path d="M7.40319 3.14136C7.42713 3.17727 7.42713 3.21317 7.40319 3.24908C7.37925 3.27301 7.31941 3.28498 7.29547 3.24908C7.27153 3.21317 7.25956 3.17727 7.2835 3.14136C7.31941 3.09348 7.37925 3.09348 7.40319 3.14136Z" fill="#BEE38D"/>
<path d="M7.31974 3.94326C7.31974 3.99113 7.2958 4.02704 7.24793 4.01507C7.20005 4.01507 7.17612 3.9672 7.18809 3.91932C7.20005 3.88342 7.23596 3.84751 7.2599 3.85948C7.2958 3.87145 7.31974 3.90735 7.31974 3.94326Z" fill="#BEE38D"/>
<path d="M7.27181 4.63745C7.25984 4.68532 7.21196 4.70926 7.16409 4.68532C7.11622 4.66138 7.09228 4.62548 7.10425 4.58957C7.11622 4.5417 7.16409 4.51776 7.21196 4.54169C7.25984 4.56563 7.28378 4.58957 7.27181 4.63745Z" fill="#BEE38D"/>
<path d="M6.30249 1.94448C6.31446 1.93251 6.35037 1.94447 6.39824 1.98038C6.43415 2.01629 6.47005 2.07613 6.49399 2.14794C6.52989 2.29157 6.51793 2.39929 6.47005 2.41126C6.42218 2.42322 6.3743 2.31551 6.3384 2.19582C6.30249 2.06416 6.27855 1.96841 6.30249 1.94448Z" fill="#BEE38D"/>
<path d="M6.0271 2.96183C6.0271 2.93789 6.06301 2.92592 6.11088 2.92592C6.15876 2.92592 6.2186 2.94986 6.26647 2.99773C6.36222 3.08151 6.39813 3.17726 6.36222 3.2012C6.32632 3.22514 6.24254 3.17726 6.17072 3.11742C6.07497 3.04561 6.0271 2.99773 6.0271 2.96183Z" fill="#BEE38D"/>
<path d="M6.02695 3.64403C6.03892 3.60813 6.11073 3.58419 6.17057 3.63207C6.23041 3.67994 6.24238 3.75175 6.20648 3.77569C6.17057 3.79963 6.1227 3.78766 6.07482 3.76372C6.03891 3.73978 6.00301 3.69191 6.02695 3.64403Z" fill="#BEE38D"/>
<path d="M6.0387 4.41004C6.0387 4.36216 6.11052 4.33823 6.20627 4.33823C6.30202 4.33823 6.37383 4.3861 6.36186 4.42201C6.36186 4.46988 6.29005 4.49382 6.1943 4.49382C6.11051 4.49382 6.0387 4.45791 6.0387 4.41004Z" fill="#BEE38D"/>
<path d="M6.111 4.90075C6.09903 4.88878 6.08706 4.86485 6.09903 4.82894C6.111 4.80501 6.1469 4.7691 6.19478 4.75713C6.29053 4.73319 6.3384 4.79304 6.3384 4.82894C6.32643 4.87682 6.27856 4.90075 6.23068 4.91272C6.19478 4.92469 6.1469 4.93666 6.111 4.90075Z" fill="#BEE38D"/>
<path d="M6.05064 5.42738C6.01474 5.40344 6.03867 5.30769 6.12246 5.23588C6.21821 5.16407 6.31395 5.16406 6.32592 5.21194C6.33789 5.25981 6.27805 5.30769 6.21821 5.36753C6.15836 5.40344 6.08655 5.45132 6.05064 5.42738Z" fill="#BEE38D"/>
<path d="M3.03496 8.88635C3.01102 8.88635 2.97512 8.7547 2.96315 8.53926C2.95118 8.32382 2.95118 8.0246 3.02299 7.70145C3.0948 7.37829 3.20252 7.09104 3.32221 6.91151C3.42993 6.72001 3.54962 6.63623 3.56158 6.6482C3.58552 6.66017 3.50174 6.76789 3.41796 6.95939C3.33418 7.15089 3.23843 7.4142 3.17859 7.72538C3.03496 8.35973 3.08284 8.87438 3.03496 8.88635Z" fill="#BEE38D"/>
<path d="M6.45776 7.67751C6.43382 7.67751 6.43382 7.55783 6.42185 7.3783C6.40988 7.19876 6.38595 6.94742 6.30217 6.70805C6.25429 6.58836 6.19445 6.46867 6.1346 6.37292C6.06279 6.27717 5.99098 6.20536 5.93113 6.14552C5.79948 6.02583 5.69176 5.97796 5.70373 5.96599C5.70373 5.94205 5.83539 5.95402 6.00295 6.06174C6.08673 6.10961 6.17051 6.19339 6.25429 6.28914C6.33807 6.38489 6.40988 6.51655 6.45776 6.6482C6.56548 6.92348 6.56548 7.19876 6.54154 7.3783C6.5176 7.56979 6.4817 7.67751 6.45776 7.67751Z" fill="#BEE38D"/>
</svg>
