<svg width="13" height="17" viewBox="0 0 13 17" fill="none" xmlns="http://www.w3.org/2000/svg">
<path d="M12.0364 5.29093C12.0009 5.1607 11.9062 5.0423 11.7878 4.97126C11.8944 4.84102 11.9417 4.6871 11.8944 4.52135C11.8233 4.20167 11.4918 4.07143 11.1958 4.14247C11.0537 3.89384 10.7341 3.8228 10.4854 3.95304C10.3197 4.03591 10.3078 4.13063 10.1302 4.13063C9.99998 4.13063 9.77503 4.30823 9.69215 4.29639C9.72767 3.95304 9.72767 3.59784 9.68031 3.25449C9.65663 3.10057 9.62111 2.94665 9.56191 2.80458C9.60927 2.65066 9.60927 2.4849 9.53823 2.34282C9.40799 2.10603 9.12384 2.02315 8.8752 2.11787C8.83968 2.10603 8.76865 1.91659 8.73313 1.88107C8.60289 1.72716 8.38977 1.66796 8.20034 1.72716C7.96354 1.79819 8.08194 1.739 7.8925 1.63244C7.75042 1.54956 7.75042 1.51404 7.66755 1.37196C7.76226 0.898371 7.24131 0.898371 7.22947 0.602376C7.21763 0.36558 7.04004 0.176143 6.81508 0.128784C6.74404 0.116944 6.66116 0.116944 6.59013 0.128784C6.31781 0.176143 6.31781 0.247182 6.05733 0.081425C5.72582 -0.131691 5.48903 0.128784 5.20487 0.235342C4.97991 0.318221 4.80232 0.140624 4.55368 0.270862C4.42344 0.3419 4.32873 0.460298 4.28137 0.590536C4.17481 0.839172 4.29321 0.685254 4.06825 0.791812C3.7841 0.92205 3.74858 1.28908 3.59466 1.52588C3.35786 1.47852 3.12107 1.58508 3.02635 1.81003C2.88427 2.12971 3.28682 2.4849 3.03819 2.6625C2.95531 2.7217 2.89611 2.79274 2.84875 2.88746C2.71851 2.91113 2.76587 2.7809 2.69483 2.68618C2.5054 2.43754 2.1502 2.4257 1.92525 2.62698C1.73581 2.25995 1.23854 1.92843 0.954386 2.41386C0.812308 2.6625 0.978065 2.92297 0.788629 3.07689C0.69391 3.14793 0.670231 3.24265 0.599192 3.32553C0.468954 3.32553 0.338717 3.36105 0.232158 3.43209C0.090081 3.53864 0.0190423 3.71624 0.0427219 3.89384C0.0545616 4.02408 0.362396 4.34375 0.220319 4.46215C0.0190423 4.61606 -0.0638363 4.90022 0.0545616 5.12518C0.1256 5.26725 0.539993 5.42117 0.421595 5.61061C0.279518 5.83556 0.291357 6.1434 0.516313 6.32099C0.599192 6.39203 0.71759 6.42755 0.824148 6.43939C0.895187 6.58147 0.800468 6.65251 0.788629 6.80643C0.776789 7.07874 0.966225 7.32738 1.23854 7.3629C1.25038 7.61153 1.64109 7.77729 1.39246 7.90753C0.966225 8.12064 0.824148 8.42848 0.847827 8.89023C0.883347 9.52958 0.883347 10.1689 0.907026 10.8201C0.942546 11.9449 0.966225 13.0815 1.08462 14.2063C1.25038 14.8575 1.20302 15.26 1.87789 15.6389C2.78955 16.148 3.93801 16.2427 4.96807 16.2901C6.23493 16.3493 7.53731 16.3138 8.78049 16.077C9.27776 15.9823 9.85791 15.8875 10.2605 15.556C10.5328 15.3429 10.592 15.0232 10.663 14.7154C10.8524 13.8511 10.8761 12.9394 10.888 12.0633C10.888 11.9331 10.888 11.8502 10.888 11.6371C10.888 11.1635 10.8643 10.6899 10.8406 10.2163C10.8051 9.57694 10.959 8.39296 10.2723 8.03776C10.592 7.91937 10.4973 7.58785 10.7577 7.52865C11.2313 7.4221 11.03 7.04322 11.2195 6.77091C11.3852 6.53411 11.776 6.64067 11.8588 6.23812C11.8944 6.03684 11.7523 5.9658 11.9062 5.82372C12.0246 5.68165 12.0838 5.48037 12.0364 5.29093C12.0009 5.1607 12.0719 5.44485 12.0364 5.29093Z" fill="white"/>
<path d="M5.82002 7.87199C2.4812 7.84831 1.23802 8.2627 1.29722 8.70077C1.35642 9.13884 1.3801 14.5023 1.68793 14.893C2.81271 16.3138 9.77451 15.923 10.0705 15.0351C10.6625 13.2591 10.2836 8.64157 10.1889 8.54685C10.0942 8.45214 9.27724 7.90751 5.82002 7.87199Z" fill="#ABE6FF"/>
<path d="M1.47502 13.342C1.52238 14.1471 1.59342 14.7746 1.68814 14.9048C2.81292 16.3256 9.77471 15.9349 10.0707 15.0469C10.2246 14.597 10.3075 13.9695 10.3549 13.2828C7.40676 14.5496 3.04971 13.9813 1.47502 13.342Z" fill="#96685A"/>
<path d="M10.2363 8.72445C10.2244 8.62973 10.2126 8.57053 10.2007 8.55869C10.106 8.46397 9.27724 7.90751 5.82002 7.87199C2.4812 7.84831 1.23802 8.2627 1.29722 8.70077C1.29722 8.72445 1.29722 8.74813 1.30906 8.78365C1.62873 9.423 3.96117 9.68347 5.97394 9.68347C7.66703 9.68347 9.82187 9.20988 10.2363 8.72445Z" fill="#D9F4FF"/>
<path d="M3.8075 5.77635C2.93136 2.7572 3.9259 1.36011 5.26379 0.74444C6.60169 0.128771 9.47876 1.98762 6.53065 8.90205C5.51243 9.23357 4.61261 8.64158 4.61261 8.64158L3.8075 5.77635Z" fill="#8FC745"/>
<path d="M3.18018 8.81917C1.1319 6.67617 -0.0402426 4.24901 1.21478 3.40839C2.46979 2.56776 4.76671 4.545 4.93247 8.66525C4.75487 9.0678 3.34594 9.11516 3.18018 8.81917Z" fill="#ADD676"/>
<path d="M6.53051 8.75998C5.98588 6.5933 7.28825 2.43753 8.64983 2.55593C10.0114 2.67433 8.86294 7.22081 7.59609 8.72446C7.13433 9.18621 6.47131 9.09149 6.53051 8.75998Z" fill="#ADD676"/>
<path d="M7.62007 8.86654C7.75031 7.32737 9.72755 4.4503 10.8168 4.72261C11.8824 4.99493 11.2312 6.66434 8.57909 8.70078C8.20022 9.05598 7.62007 8.86654 7.62007 8.86654Z" fill="#8FC745"/>
<path d="M2.32765 8.93757C2.74204 8.52317 3.41691 8.87837 3.41691 8.87837C3.77211 8.10878 4.62457 8.64157 4.62457 8.64157C5.21656 8.0851 5.69015 8.3811 5.78487 8.81917C6.22294 8.46397 6.73205 8.90205 6.73205 8.90205C7.17013 8.39294 7.88051 8.81917 7.88051 8.81917C8.5317 8.48765 9.15921 8.54685 9.15921 8.90205C8.85138 9.20988 3.48795 9.44668 2.32765 8.93757Z" fill="#96685A"/>
<path d="M9.27718 8.47583C9.27718 8.47583 9.3127 8.47583 9.36006 8.49951C9.38374 8.51135 9.41926 8.52319 9.45478 8.54687C9.4903 8.57055 9.53765 8.60607 9.54949 8.67711C9.54949 8.75998 9.4903 8.80734 9.4311 8.84286C9.3719 8.87838 9.30086 8.9139 9.22982 8.93758C9.08774 8.99678 8.91015 9.0323 8.72071 9.06782C7.96296 9.2099 6.90922 9.28094 5.74892 9.28094C4.58862 9.28094 3.53488 9.2099 2.77713 9.07966C2.5877 9.04414 2.42194 9.00862 2.26802 8.96126C2.19699 8.93758 2.12595 8.9139 2.06675 8.87838C2.00755 8.84286 1.94835 8.80734 1.92467 8.74815C1.91283 8.71263 1.91283 8.67711 1.93651 8.65343C1.94835 8.62975 1.97203 8.61791 1.99571 8.60607C2.03123 8.58239 2.06675 8.57055 2.09043 8.55871C2.14963 8.53503 2.17331 8.53503 2.17331 8.53503C2.17331 8.53503 2.14963 8.55871 2.10227 8.58239C2.07859 8.59423 2.05491 8.61791 2.01939 8.64159C1.98387 8.66527 1.96019 8.70079 1.98387 8.73631C1.99571 8.77182 2.05491 8.7955 2.10227 8.83102C2.16147 8.8547 2.22066 8.87838 2.2917 8.90206C2.43378 8.93758 2.59954 8.9731 2.78897 8.99678C3.53488 9.10334 4.58862 9.1507 5.74892 9.1507C6.90922 9.1507 7.96296 9.10334 8.70887 8.98494C8.89831 8.94942 9.06406 8.92574 9.20614 8.87838C9.27718 8.8547 9.33638 8.83102 9.39558 8.80734C9.45478 8.78367 9.4903 8.73631 9.4903 8.71263C9.4903 8.67711 9.45478 8.64159 9.4311 8.61791C9.39558 8.59423 9.3719 8.57055 9.34822 8.55871C9.30086 8.49951 9.27718 8.48767 9.27718 8.47583Z" fill="#7EB0C4"/>
<path d="M1.35638 10.5478C1.38006 11.5542 1.42742 12.75 1.48661 13.6498C3.75985 14.9759 8.70889 14.6207 10.3191 13.709C10.4257 12.679 10.4138 11.4239 10.3665 10.4176C8.36553 11.4595 1.81813 11.1635 1.35638 10.5478Z" fill="#F7B76D"/>
<path d="M4.37562 11.8857C4.38746 11.8857 4.41114 12.0278 4.30458 12.229C4.25722 12.3238 4.15066 12.4422 4.02043 12.5132C3.89019 12.5842 3.71259 12.6198 3.535 12.6079C3.3574 12.5961 3.20348 12.5369 3.07324 12.4422C2.95485 12.3474 2.87197 12.229 2.83645 12.1106C2.81277 11.9922 2.82461 11.8975 2.83645 11.8383C2.86013 11.7791 2.87197 11.7554 2.88381 11.7554C2.90749 11.7554 2.87197 11.8975 2.94301 12.0751C2.97853 12.158 3.04956 12.2527 3.15612 12.3238C3.26268 12.3948 3.39292 12.4422 3.54684 12.454C3.68891 12.4658 3.83099 12.4422 3.94939 12.383C4.06779 12.3238 4.15066 12.2527 4.20986 12.1698C4.32826 12.0159 4.35194 11.8857 4.37562 11.8857Z" fill="#B06D2E"/>
<path d="M6.42409 12.1698C6.43593 12.1698 6.43593 12.2054 6.44777 12.2527C6.44777 12.2764 6.44777 12.3119 6.44777 12.3593C6.43593 12.3948 6.43593 12.4421 6.42409 12.4895C6.41225 12.5369 6.37674 12.5842 6.35306 12.6434C6.34122 12.6671 6.31754 12.6908 6.29386 12.7145C6.28202 12.7263 6.27018 12.7381 6.25834 12.75L6.22282 12.7855C6.11626 12.8802 5.96234 12.9394 5.79659 12.9276C5.63083 12.9157 5.48875 12.8447 5.38219 12.7618C5.27563 12.6789 5.2046 12.5724 5.15724 12.4777C5.12172 12.3829 5.09804 12.3119 5.09804 12.2527C5.09804 12.1935 5.09804 12.1698 5.10988 12.1698C5.12172 12.1698 5.13356 12.1935 5.15724 12.2409C5.16908 12.2882 5.21644 12.3593 5.25196 12.4303C5.34667 12.5724 5.53611 12.75 5.79659 12.7737C6.05706 12.7973 6.2465 12.6079 6.3057 12.4421C6.31754 12.4066 6.34122 12.3593 6.35306 12.3356C6.3649 12.3001 6.37674 12.2764 6.37674 12.2409C6.40042 12.2054 6.41225 12.1698 6.42409 12.1698Z" fill="#B06D2E"/>
<path d="M2.91939 12.1106C2.94307 12.1462 2.86019 12.2409 2.71812 12.2882C2.64708 12.3119 2.57604 12.3238 2.51684 12.3119C2.45764 12.3001 2.42212 12.2646 2.4458 12.2409C2.45764 12.2172 2.48132 12.2172 2.51684 12.1935C2.55236 12.1817 2.59972 12.158 2.67076 12.1343C2.77732 12.0988 2.89571 12.0633 2.91939 12.1106Z" fill="#B06D2E"/>
<path d="M3.10898 12.3711C3.13266 12.4066 3.06162 12.5014 2.94322 12.5842C2.82482 12.6671 2.69459 12.6908 2.68275 12.6434C2.67091 12.6079 2.74195 12.5369 2.86034 12.454C2.9669 12.383 3.07346 12.3356 3.10898 12.3711Z" fill="#B06D2E"/>
<path d="M3.12069 12.821C3.09701 12.7855 3.15621 12.7026 3.23908 12.6316C3.32196 12.5605 3.36932 12.5013 3.40484 12.5013C3.42852 12.5013 3.44036 12.5369 3.42852 12.5842C3.41668 12.6316 3.393 12.6908 3.34564 12.7381C3.25092 12.8447 3.14437 12.8565 3.12069 12.821Z" fill="#B06D2E"/>
<path d="M7.25284 11.8857C7.27652 11.8738 7.3002 12.0159 7.41859 12.1698C7.47779 12.2527 7.56067 12.3238 7.67907 12.383C7.79747 12.4422 7.93954 12.4658 8.08162 12.454C8.2237 12.4422 8.36578 12.3948 8.47233 12.3238C8.57889 12.2527 8.64993 12.158 8.68545 12.0751C8.75649 11.8975 8.70913 11.7554 8.74465 11.7554C8.75649 11.7554 8.76833 11.7791 8.79201 11.8383C8.80385 11.8975 8.82753 11.9922 8.79201 12.1106C8.76833 12.229 8.68545 12.3474 8.55521 12.4422C8.43682 12.5369 8.27106 12.5961 8.09346 12.6079C7.91586 12.6198 7.75011 12.5842 7.60803 12.5132C7.47779 12.4422 7.37123 12.3356 7.32388 12.229C7.21732 12.0278 7.241 11.8857 7.25284 11.8857Z" fill="#B06D2E"/>
<path d="M8.72084 12.1106C8.74452 12.0751 8.85108 12.0988 8.98132 12.1462C9.04051 12.1698 9.09971 12.1935 9.13523 12.2054C9.17075 12.2172 9.19443 12.229 9.20627 12.2527C9.21811 12.2646 9.19443 12.3119 9.13523 12.3238C9.07603 12.3356 9.00499 12.3238 8.93396 12.3001C8.78004 12.229 8.69716 12.1462 8.72084 12.1106Z" fill="#B06D2E"/>
<path d="M8.53155 12.3711C8.55523 12.3356 8.67363 12.383 8.78019 12.454C8.89859 12.5369 8.96962 12.6079 8.95778 12.6434C8.94595 12.6908 8.80387 12.6671 8.69731 12.5842C8.57891 12.5014 8.50787 12.4066 8.53155 12.3711Z" fill="#B06D2E"/>
<path d="M8.50799 12.821C8.48431 12.8565 8.37775 12.8329 8.28303 12.7381C8.23568 12.6908 8.20016 12.6316 8.20016 12.5842C8.18832 12.5369 8.212 12.5013 8.22384 12.5013C8.2712 12.5013 8.31855 12.5487 8.38959 12.6316C8.47247 12.7145 8.53167 12.7855 8.50799 12.821Z" fill="#B06D2E"/>
<path d="M1.38028 2.63879C1.40396 2.63879 1.42764 2.67431 1.45132 2.72167C1.475 2.78087 1.52236 2.85191 1.55788 2.93479C1.5934 3.01767 1.62892 3.11239 1.62892 3.18342C1.62892 3.25446 1.61708 3.30182 1.5934 3.30182C1.56972 3.30182 1.54604 3.2663 1.52236 3.21894C1.49868 3.15974 1.45132 3.08871 1.4158 3.00583C1.38028 2.92295 1.34476 2.82823 1.34476 2.75719C1.33292 2.68615 1.3566 2.63879 1.38028 2.63879Z" fill="#BEE38D"/>
<path d="M2.30404 2.95848C2.33956 2.98216 2.31588 3.08872 2.28036 3.19528C2.24484 3.31368 2.20932 3.4084 2.16196 3.4084C2.1146 3.4084 2.07909 3.29 2.12644 3.14792C2.1738 3.01768 2.26852 2.9348 2.30404 2.95848Z" fill="#BEE38D"/>
<path d="M2.9785 3.34919C3.01402 3.37287 2.9785 3.47943 2.9193 3.59783C2.86011 3.71623 2.78907 3.7991 2.74171 3.78726C2.70619 3.77542 2.70619 3.64519 2.77723 3.52679C2.84827 3.39655 2.94298 3.32551 2.9785 3.34919Z" fill="#BEE38D"/>
<path d="M3.57095 4.11877C3.59463 4.15429 3.52359 4.22533 3.46439 4.33189C3.40519 4.42661 3.36968 4.52133 3.33416 4.52133C3.31048 4.52133 3.2868 4.49765 3.2868 4.43845C3.2868 4.39109 3.29864 4.32005 3.33416 4.24901C3.36968 4.17797 3.42887 4.14245 3.47623 4.11877C3.52359 4.09509 3.55911 4.10693 3.57095 4.11877Z" fill="#BEE38D"/>
<path d="M4.07977 4.87652C4.11529 4.91204 4.0561 5.00676 3.97322 5.11332C3.89034 5.20804 3.79562 5.27907 3.7601 5.2554C3.72458 5.23172 3.7601 5.11332 3.85482 5.00676C3.94954 4.9002 4.0561 4.841 4.07977 4.87652Z" fill="#BEE38D"/>
<path d="M4.34011 5.71714C4.37563 5.74082 4.35195 5.8237 4.3046 5.89474C4.2454 5.96578 4.17436 6.0013 4.13884 5.97762C4.10332 5.95394 4.11516 5.87106 4.17436 5.80002C4.23356 5.72898 4.3046 5.69346 4.34011 5.71714Z" fill="#BEE38D"/>
<path d="M4.64789 6.4157C4.67157 6.45122 4.61237 6.52226 4.5295 6.54594C4.44662 6.56962 4.38742 6.55778 4.36374 6.52226C4.3519 6.48674 4.39926 6.42754 4.48214 6.40386C4.56502 6.36834 4.63605 6.38018 4.64789 6.4157Z" fill="#BEE38D"/>
<path d="M4.81382 7.18528C4.8375 7.2208 4.7783 7.29184 4.69542 7.29184C4.61254 7.30368 4.55334 7.25632 4.55334 7.2208C4.55334 7.17344 4.61254 7.14976 4.67174 7.13792C4.74278 7.13792 4.79014 7.14976 4.81382 7.18528Z" fill="#BEE38D"/>
<path d="M4.96785 8.2627C4.96785 8.31006 4.88497 8.34558 4.79025 8.3219C4.69554 8.31006 4.63634 8.23902 4.64818 8.2035C4.66002 8.16798 4.74289 8.15614 4.81393 8.16798C4.89681 8.19166 4.96785 8.22718 4.96785 8.2627Z" fill="#BEE38D"/>
<path d="M1.08414 3.45575C1.10782 3.42023 1.22622 3.45575 1.34462 3.56231C1.46301 3.66886 1.48669 3.81094 1.43933 3.82278C1.40382 3.83462 1.32094 3.76358 1.22622 3.66886C1.1315 3.57415 1.06046 3.49127 1.08414 3.45575Z" fill="#BEE38D"/>
<path d="M1.97217 3.55047C2.00769 3.56231 2.01953 3.64519 2.00769 3.71623C1.99585 3.79911 1.96033 3.85831 1.91297 3.85831C1.86561 3.85831 1.83009 3.77543 1.85377 3.68071C1.86561 3.59783 1.92481 3.53863 1.97217 3.55047Z" fill="#BEE38D"/>
<path d="M2.48112 3.81095C2.51664 3.83463 2.48112 3.94119 2.42192 4.05958C2.37456 4.16614 2.33904 4.26086 2.30352 4.2727C2.27984 4.2727 2.25616 4.24902 2.25616 4.18982C2.24432 4.14246 2.25616 4.07142 2.29168 4.00039C2.35088 3.84647 2.4456 3.78727 2.48112 3.81095Z" fill="#BEE38D"/>
<path d="M2.77723 4.34373C2.81275 4.37925 2.78907 4.43845 2.75355 4.50949C2.71803 4.56869 2.68251 4.61605 2.64699 4.62789C2.62331 4.62789 2.59963 4.60421 2.59963 4.56869C2.58779 4.53317 2.59963 4.48581 2.62331 4.43845C2.67067 4.33189 2.75355 4.30822 2.77723 4.34373Z" fill="#BEE38D"/>
<path d="M3.16811 4.94757C3.20363 4.97125 3.19179 5.05413 3.13259 5.11333C3.07339 5.17253 3.00235 5.19621 2.97867 5.16069C2.94315 5.12517 2.96683 5.05413 3.02603 5.00677C3.07339 4.95941 3.13259 4.92389 3.16811 4.94757Z" fill="#BEE38D"/>
<path d="M3.45225 5.89475C3.46409 5.93027 3.44041 5.98947 3.40489 6.02499C3.36937 6.06051 3.31017 6.08419 3.27465 6.06051C3.23913 6.03683 3.23913 5.96579 3.29833 5.90659C3.35753 5.85923 3.42857 5.85923 3.45225 5.89475Z" fill="#BEE38D"/>
<path d="M3.87865 6.72354C3.89049 6.7709 3.83129 6.81825 3.74841 6.81825C3.66553 6.81825 3.60633 6.78274 3.60633 6.74722C3.60633 6.69986 3.66553 6.66434 3.73657 6.66434C3.81945 6.66434 3.86681 6.68802 3.87865 6.72354Z" fill="#BEE38D"/>
<path d="M4.28116 7.55232C4.293 7.58784 4.22196 7.64704 4.12725 7.64704C4.03253 7.64704 3.97333 7.59968 3.97333 7.55232C3.98517 7.50496 4.04437 7.49312 4.12725 7.49312C4.19828 7.49312 4.26932 7.5168 4.28116 7.55232Z" fill="#BEE38D"/>
<path d="M4.28103 8.25086C4.29286 8.28638 4.19815 8.34558 4.09159 8.3219C3.98503 8.28638 3.92583 8.21534 3.94951 8.17982C3.97319 8.1443 4.05607 8.15614 4.12711 8.16798C4.19815 8.17982 4.26919 8.2035 4.28103 8.25086Z" fill="#BEE38D"/>
<path d="M1.71158 4.11879C1.7471 4.13063 1.75894 4.22535 1.77078 4.34375C1.78262 4.46214 1.7471 4.58054 1.71158 4.58054C1.66422 4.58054 1.6287 4.48582 1.61686 4.35559C1.61686 4.28455 1.61686 4.22535 1.64054 4.17799C1.66422 4.14247 1.6879 4.11879 1.71158 4.11879Z" fill="#BEE38D"/>
<path d="M2.14987 4.94757C2.18539 4.95941 2.19723 5.03045 2.18539 5.11333C2.17355 5.18436 2.13803 5.24356 2.09067 5.24356C2.04331 5.24356 2.00779 5.17252 2.03147 5.07781C2.04331 4.99493 2.10251 4.93573 2.14987 4.94757Z" fill="#BEE38D"/>
<path d="M2.50486 5.65794C2.55222 5.65794 2.58774 5.71714 2.58774 5.78818C2.58774 5.85922 2.56406 5.90658 2.52854 5.91842C2.48118 5.93026 2.43382 5.87106 2.43382 5.80002C2.42198 5.71714 2.4575 5.65794 2.50486 5.65794Z" fill="#BEE38D"/>
<path d="M2.87204 6.1197C2.90756 6.14338 2.9194 6.19074 2.9194 6.22626C2.90756 6.27362 2.88388 6.32098 2.83652 6.32098C2.78917 6.32098 2.75365 6.27362 2.76549 6.20258C2.77733 6.13154 2.84836 6.08418 2.87204 6.1197Z" fill="#BEE38D"/>
<path d="M3.25103 7.25632C3.22735 7.29184 3.15631 7.29184 3.09711 7.23264C3.06159 7.19712 3.04975 7.1616 3.03791 7.12608C3.03791 7.09056 3.04975 7.06688 3.07343 7.06688C3.12079 7.06688 3.15631 7.07872 3.20367 7.12608C3.25103 7.1616 3.27471 7.2208 3.25103 7.25632Z" fill="#BEE38D"/>
<path d="M3.52316 8.10878C3.48764 8.13246 3.4166 8.0851 3.36924 8.00223C3.32189 7.91935 3.32189 7.82463 3.36924 7.81279C3.40476 7.80095 3.46396 7.84831 3.51132 7.93119C3.55868 8.00223 3.57052 8.0851 3.52316 8.10878Z" fill="#BEE38D"/>
<path d="M3.60636 8.5587C3.57084 8.58238 3.52348 8.57054 3.51164 8.53502C3.4998 8.4995 3.51164 8.46398 3.54716 8.4403C3.58268 8.41662 3.63004 8.42846 3.64188 8.46398C3.66556 8.4995 3.64188 8.54686 3.60636 8.5587Z" fill="#BEE38D"/>
<path d="M0.504118 3.82279C0.515958 3.78727 0.646196 3.78727 0.800113 3.83463C0.94219 3.88199 1.06059 3.95303 1.03691 4.00039C1.02507 4.03591 0.894831 4.0359 0.740914 3.98855C0.598837 3.94119 0.492278 3.87015 0.504118 3.82279Z" fill="#BEE38D"/>
<path d="M1.11973 4.97124C1.08421 4.94756 1.10789 4.85284 1.21445 4.80548C1.26181 4.7818 1.321 4.79364 1.35652 4.80548C1.39204 4.81732 1.40388 4.841 1.40388 4.86468C1.39204 4.91204 1.33284 4.92388 1.28548 4.94756C1.22629 4.97124 1.15525 5.00676 1.11973 4.97124Z" fill="#BEE38D"/>
<path d="M1.41566 5.71715C1.38014 5.69347 1.41566 5.59875 1.4867 5.51588C1.55774 5.433 1.64062 5.38564 1.67614 5.42116C1.71166 5.44484 1.67614 5.53956 1.6051 5.62243C1.53406 5.70531 1.45118 5.75267 1.41566 5.71715Z" fill="#BEE38D"/>
<path d="M1.68814 6.30915C1.64078 6.29731 1.65262 6.19075 1.69998 6.09603C1.74734 6.00131 1.80654 5.94212 1.8539 5.95395C1.90125 5.96579 1.90125 6.07235 1.84206 6.16707C1.7947 6.26179 1.7355 6.32099 1.68814 6.30915Z" fill="#BEE38D"/>
<path d="M2.03167 6.84192C1.99615 6.81824 2.00799 6.73536 2.04351 6.65248C2.07903 6.56961 2.12639 6.51041 2.17375 6.51041C2.22111 6.51041 2.23295 6.61696 2.19743 6.71168C2.13823 6.81824 2.06719 6.8656 2.03167 6.84192Z" fill="#BEE38D"/>
<path d="M2.33956 7.51679C2.2922 7.50495 2.2922 7.3984 2.36324 7.30368C2.42244 7.20896 2.50532 7.1616 2.54084 7.18528C2.57636 7.20896 2.55268 7.30368 2.49348 7.38656C2.44612 7.46943 2.38692 7.52863 2.33956 7.51679Z" fill="#BEE38D"/>
<path d="M2.91952 8.25086C2.87216 8.25086 2.83664 8.1443 2.8248 8.01406C2.81296 7.88382 2.83664 7.76543 2.87216 7.76543C2.91952 7.76543 2.96688 7.86014 2.97872 8.00222C2.99056 8.13246 2.95504 8.25086 2.91952 8.25086Z" fill="#BEE38D"/>
<path d="M0.468643 4.91205C0.456803 4.88837 0.468643 4.86469 0.504162 4.84101C0.539682 4.81733 0.598881 4.79366 0.65808 4.79366C0.788317 4.8055 0.859356 4.86469 0.847516 4.91205C0.835676 4.95941 0.740958 4.95941 0.65808 4.94757C0.563361 4.94757 0.492322 4.94757 0.468643 4.91205Z" fill="#BEE38D"/>
<path d="M0.799952 5.95395C0.788113 5.94211 0.788112 5.90659 0.811792 5.87107C0.835472 5.83555 0.894671 5.78819 0.95387 5.76451C1.08411 5.71715 1.17883 5.74083 1.19067 5.77635C1.20251 5.82371 1.10779 5.87107 1.00123 5.90659C0.95387 5.93027 0.90651 5.94211 0.870991 5.95395C0.847311 5.96579 0.823632 5.97763 0.799952 5.95395Z" fill="#BEE38D"/>
<path d="M1.27348 6.88929C1.23796 6.86561 1.2498 6.77089 1.32084 6.68801C1.39188 6.59329 1.49843 6.56961 1.51027 6.61697C1.53395 6.65249 1.49843 6.71169 1.43923 6.79457C1.38004 6.85377 1.32084 6.91297 1.27348 6.88929Z" fill="#BEE38D"/>
<path d="M1.73533 7.37473C1.69981 7.35105 1.71165 7.26817 1.74717 7.18529C1.79453 7.10241 1.85373 7.04321 1.88925 7.05505C1.92477 7.06689 1.93661 7.16161 1.88925 7.25633C1.84189 7.35105 1.77085 7.39841 1.73533 7.37473Z" fill="#BEE38D"/>
<path d="M1.98398 7.77727C1.94846 7.76543 1.93662 7.67071 1.98398 7.576C2.03134 7.48128 2.10238 7.42208 2.1379 7.44576C2.17342 7.46944 2.16158 7.55232 2.12606 7.64703C2.09054 7.71807 2.03134 7.78911 1.98398 7.77727Z" fill="#BEE38D"/>
<path d="M2.30396 8.42846C2.2566 8.41662 2.24476 8.33375 2.28028 8.25087C2.3158 8.15615 2.38684 8.10879 2.42236 8.13247C2.45788 8.15615 2.45788 8.22719 2.42236 8.31007C2.39868 8.36926 2.35132 8.42846 2.30396 8.42846Z" fill="#BEE38D"/>
<path d="M3.46397 1.98762C3.49949 1.96394 3.58237 2.03498 3.66525 2.11786C3.74813 2.21257 3.79549 2.31913 3.75997 2.34281C3.72445 2.36649 3.64157 2.31913 3.54685 2.22441C3.46397 2.1297 3.42845 2.0113 3.46397 1.98762Z" fill="#BEE38D"/>
<path d="M4.28097 1.21803C4.32833 1.20619 4.36385 1.30091 4.38753 1.40747C4.41121 1.50218 4.42305 1.58506 4.38753 1.62058C4.35201 1.64426 4.25729 1.57322 4.23361 1.45483C4.20993 1.32459 4.23361 1.22987 4.28097 1.21803Z" fill="#BEE38D"/>
<path d="M4.82566 0.685239C4.86118 0.708919 4.84934 0.803637 4.84934 0.933875C4.84934 1.06411 4.81382 1.18251 4.76646 1.18251C4.73095 1.18251 4.68359 1.07595 4.68359 0.922035C4.68359 0.850996 4.70727 0.779958 4.74279 0.732598C4.7783 0.697079 4.81382 0.6734 4.82566 0.685239Z" fill="#BEE38D"/>
<path d="M5.82002 0.495802C5.8437 0.531322 5.79634 0.6142 5.74898 0.720758C5.70162 0.827316 5.6661 0.933875 5.61874 0.922035C5.58322 0.922035 5.5477 0.803637 5.6069 0.64972C5.63058 0.578681 5.67794 0.519482 5.7253 0.495802C5.77266 0.472123 5.80818 0.472123 5.82002 0.495802Z" fill="#BEE38D"/>
<path d="M6.76744 0.626036C6.77927 0.673395 6.72008 0.720754 6.64904 0.791793C6.56616 0.874671 6.48328 0.93387 6.44776 0.91019C6.41224 0.886511 6.43592 0.791793 6.53064 0.697074C6.578 0.637875 6.6372 0.614196 6.68456 0.602356C6.73192 0.602356 6.7556 0.614196 6.76744 0.626036Z" fill="#BEE38D"/>
<path d="M7.21748 1.26539C7.22932 1.31275 7.17012 1.34827 7.11092 1.38379C7.05172 1.40747 6.98069 1.41931 6.95701 1.38379C6.93333 1.34827 6.95701 1.27723 7.03988 1.24171C7.1346 1.19435 7.21748 1.21803 7.21748 1.26539Z" fill="#BEE38D"/>
<path d="M7.69115 2.0705C7.70299 2.11786 7.62012 2.16522 7.50172 2.21258C7.38332 2.25994 7.25308 2.2481 7.25308 2.20074C7.25308 2.15338 7.32412 2.10602 7.44252 2.05866C7.56092 2.02314 7.67931 2.02314 7.69115 2.0705Z" fill="#BEE38D"/>
<path d="M7.83289 3.07687C7.85657 3.11239 7.77369 3.19527 7.64345 3.20711C7.51321 3.23079 7.40666 3.17159 7.4185 3.13607C7.43033 3.08871 7.51321 3.07687 7.61977 3.05319C7.71449 3.04135 7.80921 3.04135 7.83289 3.07687Z" fill="#BEE38D"/>
<path d="M6.03312 1.26538C6.04496 1.31274 5.98576 1.3601 5.92656 1.4193C5.85552 1.4785 5.79632 1.52586 5.7608 1.50218C5.72528 1.4785 5.73712 1.38378 5.83184 1.3009C5.91472 1.21802 6.02128 1.21802 6.03312 1.26538Z" fill="#BEE38D"/>
<path d="M6.59016 1.98762C6.602 2.03497 6.5428 2.07049 6.45992 2.10601C6.38888 2.12969 6.31785 2.14153 6.29417 2.10601C6.27049 2.07049 6.31785 1.98762 6.41256 1.96394C6.49544 1.92842 6.57832 1.9521 6.59016 1.98762Z" fill="#BEE38D"/>
<path d="M6.66069 2.95848C6.68437 2.994 6.63701 3.0532 6.56597 3.07688C6.49493 3.10055 6.43573 3.07688 6.42389 3.02952C6.41205 2.98216 6.45941 2.94664 6.51861 2.92296C6.58965 2.91112 6.64885 2.92296 6.66069 2.95848Z" fill="#BEE38D"/>
<path d="M6.708 3.70438C6.708 3.75174 6.67248 3.78726 6.61328 3.78726C6.55408 3.78726 6.51856 3.75174 6.51856 3.70438C6.51856 3.65703 6.55408 3.62151 6.61328 3.62151C6.67248 3.62151 6.708 3.66886 6.708 3.70438Z" fill="#BEE38D"/>
<path d="M6.74368 4.49765C6.72 4.53317 6.6608 4.54501 6.58976 4.50949C6.51873 4.47397 6.48321 4.41477 6.50689 4.37925C6.53057 4.34373 6.58976 4.33189 6.6608 4.36741C6.73184 4.40293 6.76736 4.46213 6.74368 4.49765Z" fill="#BEE38D"/>
<path d="M6.48341 5.58692C6.44789 5.62244 6.38869 5.59876 6.32949 5.5514C6.28213 5.50404 6.25845 5.44484 6.28213 5.40932C6.30581 5.37381 6.37685 5.38564 6.43605 5.433C6.50709 5.48036 6.51893 5.5514 6.48341 5.58692Z" fill="#BEE38D"/>
<path d="M6.30554 6.4157C6.27002 6.45122 6.21082 6.43938 6.16346 6.39202C6.1161 6.3565 6.08058 6.2973 6.10426 6.26178C6.12794 6.22626 6.19898 6.22626 6.25818 6.27362C6.31738 6.30914 6.34106 6.38018 6.30554 6.4157Z" fill="#BEE38D"/>
<path d="M6.24668 7.30367C6.21116 7.32735 6.14012 7.30367 6.09276 7.23263C6.0454 7.16159 6.0454 7.07872 6.08092 7.06688C6.11644 7.0432 6.17564 7.07872 6.223 7.14975C6.27036 7.19711 6.2822 7.26815 6.24668 7.30367Z" fill="#BEE38D"/>
<path d="M6.21111 8.02592C6.17559 8.06144 6.11639 8.03776 6.06903 7.97856C6.02167 7.91936 6.02167 7.83648 6.05719 7.82464C6.09271 7.8128 6.15191 7.83648 6.18743 7.88384C6.22295 7.9312 6.24663 8.00224 6.21111 8.02592Z" fill="#BEE38D"/>
<path d="M5.97401 8.48767C5.95033 8.52319 5.86745 8.51135 5.82009 8.44031C5.77273 8.38111 5.77273 8.29823 5.82009 8.28639C5.85561 8.26271 5.91481 8.29823 5.95033 8.34559C5.98585 8.39295 5.99768 8.45215 5.97401 8.48767Z" fill="#BEE38D"/>
<path d="M5.20469 1.53771C5.24021 1.54955 5.24021 1.65611 5.19285 1.76267C5.14549 1.86922 5.08629 1.94026 5.05077 1.92842C5.00341 1.91658 5.00341 1.81002 5.05077 1.70347C5.09813 1.59691 5.16917 1.52587 5.20469 1.53771Z" fill="#BEE38D"/>
<path d="M5.79632 2.34282C5.80816 2.37834 5.74896 2.44938 5.67792 2.52042C5.60688 2.59145 5.53584 2.66249 5.50032 2.63881C5.4648 2.62697 5.47664 2.50858 5.57136 2.41386C5.66608 2.31914 5.78448 2.3073 5.79632 2.34282Z" fill="#BEE38D"/>
<path d="M5.93863 3.49126C5.93863 3.53862 5.89127 3.57414 5.83208 3.57414C5.77288 3.57414 5.72552 3.53862 5.72552 3.49126C5.72552 3.44391 5.77288 3.40839 5.83208 3.40839C5.89127 3.40839 5.93863 3.44391 5.93863 3.49126Z" fill="#BEE38D"/>
<path d="M5.89126 4.46213C5.85574 4.48581 5.7847 4.43845 5.73734 4.36741C5.68998 4.29637 5.6663 4.22534 5.68998 4.18982C5.71366 4.1543 5.80838 4.18982 5.85574 4.2727C5.92678 4.35557 5.93862 4.43845 5.89126 4.46213Z" fill="#BEE38D"/>
<path d="M5.70187 5.26724C5.66635 5.29092 5.59531 5.23172 5.58347 5.14884C5.55979 5.06596 5.58347 4.99492 5.63083 4.98308C5.67819 4.97124 5.71371 5.03044 5.73739 5.10148C5.74923 5.18436 5.73739 5.24356 5.70187 5.26724Z" fill="#BEE38D"/>
<path d="M5.59551 6.09603C5.54815 6.10787 5.50079 6.03683 5.48895 5.94211C5.47711 5.84739 5.51263 5.76451 5.55999 5.76451C5.60735 5.76451 5.64287 5.83555 5.65471 5.91843C5.66655 6.01315 5.64287 6.08419 5.59551 6.09603Z" fill="#BEE38D"/>
<path d="M5.46505 6.96032C5.41769 6.96032 5.37033 6.87744 5.35849 6.75904C5.33481 6.62881 5.38217 6.52225 5.42953 6.53409C5.47689 6.54593 5.48873 6.62881 5.51241 6.7472C5.52425 6.85376 5.50057 6.96032 5.46505 6.96032Z" fill="#BEE38D"/>
<path d="M5.40608 8.01407C5.35872 8.01407 5.3232 7.90752 5.3232 7.77728C5.3232 7.64704 5.35872 7.54048 5.40608 7.54048C5.45343 7.54048 5.48895 7.64704 5.48895 7.77728C5.47711 7.90752 5.44159 8.01407 5.40608 8.01407Z" fill="#BEE38D"/>
<path d="M5.28738 8.46398C5.24002 8.46398 5.2045 8.42846 5.21634 8.36927C5.21634 8.31007 5.27554 8.27455 5.31106 8.28639C5.34658 8.29823 5.37026 8.34559 5.37026 8.3811C5.35842 8.42846 5.3229 8.46398 5.28738 8.46398Z" fill="#BEE38D"/>
<path d="M4.43471 1.79818C4.43471 1.7745 4.47023 1.76266 4.51759 1.7745C4.56495 1.7745 4.63598 1.81002 4.68334 1.84554C4.80174 1.94025 4.83726 2.04681 4.80174 2.07049C4.76622 2.09417 4.68334 2.03497 4.58862 1.96393C4.50575 1.89289 4.43471 1.8337 4.43471 1.79818Z" fill="#BEE38D"/>
<path d="M4.55359 2.84008C4.56543 2.80456 4.62463 2.78088 4.69567 2.79272C4.76671 2.8164 4.81407 2.8756 4.79039 2.91112C4.76671 2.94664 4.70751 2.95848 4.64831 2.9348C4.58911 2.92296 4.54175 2.88744 4.55359 2.84008Z" fill="#BEE38D"/>
<path d="M4.37565 3.49126C4.37565 3.44391 4.45853 3.40839 4.55325 3.40839C4.64796 3.40839 4.73084 3.44391 4.73084 3.49126C4.73084 3.53862 4.64796 3.57414 4.55325 3.57414C4.45853 3.57414 4.37565 3.53862 4.37565 3.49126Z" fill="#BEE38D"/>
<path d="M4.47048 4.08325C4.45864 4.04773 4.51784 3.98853 4.61256 3.95302C4.70728 3.9175 4.80199 3.94118 4.80199 3.98853C4.80199 4.03589 4.7428 4.07141 4.65992 4.10693C4.57704 4.13061 4.49416 4.13061 4.47048 4.08325Z" fill="#BEE38D"/>
<path d="M4.43493 4.73445C4.42309 4.72261 4.43493 4.68709 4.47045 4.65157C4.50597 4.61605 4.56517 4.58053 4.63621 4.55685C4.76644 4.52133 4.873 4.52133 4.89668 4.55685C4.92036 4.59237 4.8138 4.66341 4.68356 4.71077C4.55333 4.74629 4.45861 4.76997 4.43493 4.73445Z" fill="#BEE38D"/>
<path d="M4.51759 5.53955C4.48207 5.52771 4.50575 5.3738 4.61231 5.23172C4.71887 5.08964 4.84911 5.03044 4.87279 5.06596C4.89647 5.10148 4.82543 5.20804 4.73071 5.32644C4.63599 5.45668 4.55311 5.56323 4.51759 5.53955Z" fill="#BEE38D"/>
<path d="M4.52958 6.15521C4.5059 6.1197 4.49406 6.07234 4.51774 6.04866C4.52958 6.02498 4.5651 6.0013 4.61246 6.0013C4.63614 6.0013 4.65982 6.01314 4.65982 6.03682C4.67166 6.0605 4.67166 6.09602 4.64798 6.11969C4.6243 6.17889 4.5651 6.19073 4.52958 6.15521Z" fill="#BEE38D"/>
<path d="M3.6416 2.56776C3.62976 2.53224 3.72448 2.44937 3.87839 2.47304C3.94943 2.48488 4.02047 2.50856 4.05599 2.54408C4.09151 2.5796 4.10335 2.61512 4.07967 2.62696C4.04415 2.66248 3.97311 2.62696 3.86655 2.62696C3.76 2.60328 3.66528 2.60328 3.6416 2.56776Z" fill="#BEE38D"/>
<path d="M3.2868 3.07688C3.2868 3.02952 3.38151 3.00584 3.49991 3.01768C3.60647 3.04136 3.67751 3.07688 3.68935 3.1124C3.68935 3.15976 3.59463 3.19528 3.47623 3.1716C3.36968 3.15976 3.29864 3.12424 3.2868 3.07688Z" fill="#BEE38D"/>
<path d="M3.58277 3.78726C3.57093 3.75174 3.60645 3.69254 3.66564 3.6807C3.72484 3.66886 3.78404 3.70438 3.78404 3.7399C3.78404 3.78726 3.74852 3.82278 3.70116 3.83461C3.6538 3.84645 3.60645 3.82278 3.58277 3.78726Z" fill="#BEE38D"/>
<path d="M3.75988 4.43845C3.7362 4.40293 3.75988 4.34374 3.81908 4.30822C3.86644 4.2727 3.92564 4.26086 3.96116 4.28454C3.99668 4.32006 3.973 4.37925 3.9138 4.42661C3.8546 4.47397 3.78356 4.47397 3.75988 4.43845Z" fill="#BEE38D"/>
<path d="M4.96772 3.57415C4.94404 3.53863 4.97956 3.46759 5.0506 3.43208C5.12164 3.39656 5.20452 3.4084 5.20452 3.45575C5.21636 3.49127 5.18084 3.53863 5.12164 3.57415C5.06244 3.59783 4.9914 3.59783 4.96772 3.57415Z" fill="#BEE38D"/>
<path d="M4.99123 4.23718C4.95571 4.2135 4.97939 4.13062 5.02675 4.07142C5.08595 4.01222 5.14515 3.9767 5.18067 4.00038C5.21619 4.02406 5.19251 4.10694 5.14515 4.16614C5.08595 4.23718 5.02675 4.26086 4.99123 4.23718Z" fill="#BEE38D"/>
<path d="M5.12186 4.94756C5.08634 4.92388 5.09818 4.841 5.14554 4.76996C5.18106 4.69892 5.24025 4.65156 5.28761 4.6634C5.32313 4.67524 5.33497 4.75812 5.28761 4.841C5.24025 4.93572 5.15738 4.98308 5.12186 4.94756Z" fill="#BEE38D"/>
<path d="M8.37744 2.18889C8.41296 2.21257 8.41296 2.29545 8.40112 2.39017C8.38928 2.49673 8.3656 2.57961 8.31825 2.57961C8.27089 2.57961 8.23537 2.49673 8.24721 2.36649C8.25905 2.24809 8.34192 2.16522 8.37744 2.18889Z" fill="#BEE38D"/>
<path d="M9.13537 2.56777C9.17089 2.60329 9.12354 2.68617 9.0525 2.78088C8.98146 2.8756 8.89858 2.94664 8.86306 2.92296C8.82754 2.89928 8.85122 2.79272 8.9341 2.68617C9.00514 2.57961 9.09986 2.53225 9.13537 2.56777Z" fill="#BEE38D"/>
<path d="M9.19468 3.57415C9.18284 3.60967 9.13548 3.64519 9.06445 3.68071C8.99341 3.71623 8.89869 3.71623 8.88685 3.68071C8.87501 3.64519 8.92237 3.58599 9.00525 3.53863C9.05261 3.51495 9.09997 3.51495 9.14732 3.52679C9.18284 3.52679 9.19468 3.55047 9.19468 3.57415Z" fill="#BEE38D"/>
<path d="M9.17095 4.26085C9.18279 4.29637 9.13544 4.35557 9.05256 4.39109C8.96968 4.42661 8.8868 4.40293 8.87496 4.35557C8.86312 4.30821 8.92232 4.27269 8.99336 4.23717C9.07624 4.21349 9.15911 4.22533 9.17095 4.26085Z" fill="#BEE38D"/>
<path d="M8.95757 5.14883C8.93389 5.18435 8.88653 5.19619 8.82733 5.19619C8.76813 5.19619 8.70893 5.16067 8.70893 5.11331C8.70893 5.06595 8.76813 5.03043 8.85101 5.04227C8.92205 5.04227 8.98125 5.11331 8.95757 5.14883Z" fill="#BEE38D"/>
<path d="M8.78028 5.97763C8.76844 6.01315 8.6974 6.02499 8.62636 6.00131C8.55532 5.97763 8.49612 5.93027 8.50796 5.89475C8.5198 5.84739 8.59084 5.82371 8.67372 5.84739C8.74476 5.88291 8.79212 5.94211 8.78028 5.97763Z" fill="#BEE38D"/>
<path d="M8.42521 6.72354C8.40153 6.75906 8.34233 6.7709 8.28313 6.73538C8.22393 6.69986 8.20025 6.64066 8.22393 6.60514C8.24761 6.56962 8.30681 6.56962 8.36601 6.5933C8.41337 6.62882 8.43705 6.68802 8.42521 6.72354Z" fill="#BEE38D"/>
<path d="M8.12893 7.37472C8.10525 7.41024 8.04605 7.42208 7.97501 7.3984C7.90397 7.37472 7.84478 7.31552 7.86845 7.28C7.89213 7.24448 7.95133 7.23264 8.02237 7.25632C8.09341 7.28 8.15261 7.3392 8.12893 7.37472Z" fill="#BEE38D"/>
<path d="M7.89209 8.04959C7.86841 8.08511 7.79738 8.08511 7.72634 8.04959C7.6553 8.01407 7.60794 7.95487 7.61978 7.91935C7.63162 7.88383 7.7145 7.87199 7.79738 7.90751C7.86841 7.94303 7.91577 8.01407 7.89209 8.04959Z" fill="#BEE38D"/>
<path d="M7.51327 8.70077C7.47775 8.72445 7.40671 8.67709 7.32384 8.59421C7.24096 8.51133 7.20544 8.40478 7.24096 8.3811C7.27648 8.35742 7.34752 8.40478 7.43039 8.48765C7.51327 8.57053 7.54879 8.67709 7.51327 8.70077Z" fill="#BEE38D"/>
<path d="M8.66195 3.1716C8.68563 3.20712 8.61459 3.29 8.53171 3.39656C8.44883 3.49128 8.36596 3.57416 8.33044 3.55048C8.29492 3.5268 8.3186 3.4084 8.42515 3.29C8.50803 3.18344 8.63827 3.13608 8.66195 3.1716Z" fill="#BEE38D"/>
<path d="M8.60275 4.08326C8.60275 4.13062 8.55539 4.16614 8.48435 4.20166C8.42515 4.23718 8.36595 4.26086 8.3186 4.23718C8.28308 4.2135 8.30676 4.11878 8.40147 4.05958C8.50803 4.01222 8.59091 4.0359 8.60275 4.08326Z" fill="#BEE38D"/>
<path d="M8.42505 4.93572C8.43689 4.98308 8.40137 5.0186 8.33033 5.04228C8.25929 5.05412 8.2001 5.0186 8.2001 4.98308C8.2001 4.93572 8.24745 4.9002 8.29481 4.88836C8.35401 4.86468 8.41321 4.88836 8.42505 4.93572Z" fill="#BEE38D"/>
<path d="M8.22391 5.59875C8.22391 5.64611 8.17655 5.68163 8.11735 5.68163C8.05815 5.68163 8.0108 5.64611 8.0108 5.59875C8.0108 5.55139 8.05815 5.51587 8.11735 5.51587C8.17655 5.52771 8.22391 5.56323 8.22391 5.59875Z" fill="#BEE38D"/>
<path d="M8.06959 6.11971C8.04591 6.15523 7.97487 6.14339 7.91567 6.13155C7.84463 6.11971 7.78543 6.09603 7.77359 6.06051C7.76175 6.02499 7.84463 5.96579 7.93935 5.97763C8.04591 6.00131 8.09327 6.08419 8.06959 6.11971Z" fill="#BEE38D"/>
<path d="M7.89234 6.72352C7.86866 6.75904 7.79762 6.7472 7.72658 6.72352C7.65554 6.69984 7.59634 6.66432 7.59634 6.61696C7.59634 6.56961 7.67922 6.53409 7.77394 6.56961C7.86866 6.61696 7.91602 6.69984 7.89234 6.72352Z" fill="#BEE38D"/>
<path d="M7.75028 7.30368C7.7266 7.3392 7.6674 7.35104 7.59636 7.31552C7.52532 7.28 7.48981 7.2208 7.51349 7.18528C7.53717 7.14976 7.59636 7.14976 7.6674 7.17344C7.7266 7.19712 7.77396 7.25632 7.75028 7.30368Z" fill="#BEE38D"/>
<path d="M7.19373 7.63519C7.15821 7.64703 7.11085 7.62335 7.08717 7.58783C7.06349 7.55232 7.07533 7.50496 7.11085 7.48128C7.14637 7.4576 7.19373 7.46944 7.22925 7.5168C7.26477 7.576 7.24109 7.62335 7.19373 7.63519Z" fill="#BEE38D"/>
<path d="M6.88583 8.4995C6.83847 8.4995 6.80295 8.42846 6.80295 8.33374C6.79111 8.23902 6.82663 8.1443 6.87399 8.1443C6.92135 8.1443 6.95687 8.21534 6.95687 8.31006C6.95687 8.41662 6.92135 8.4995 6.88583 8.4995Z" fill="#BEE38D"/>
<path d="M7.37101 3.51496C7.40652 3.49128 7.4894 3.55048 7.5486 3.64519C7.61964 3.73991 7.65516 3.82279 7.61964 3.85831C7.59596 3.89383 7.4894 3.84647 7.41836 3.73991C7.35917 3.63335 7.33549 3.53864 7.37101 3.51496Z" fill="#BEE38D"/>
<path d="M7.03964 4.16613C7.06332 4.13061 7.13436 4.14245 7.20539 4.20165C7.26459 4.26085 7.27643 4.34373 7.24091 4.3674C7.20539 4.39108 7.1462 4.36741 7.09884 4.32005C7.03964 4.26085 7.01596 4.20165 7.03964 4.16613Z" fill="#BEE38D"/>
<path d="M6.82665 5.08964C6.85033 5.05412 6.92137 5.05412 6.98057 5.08964C7.03977 5.12516 7.06345 5.1962 7.03977 5.23172C7.01609 5.26724 6.94505 5.26724 6.88585 5.21988C6.83849 5.18436 6.80297 5.12516 6.82665 5.08964Z" fill="#BEE38D"/>
<path d="M6.58969 5.91842C6.60153 5.8829 6.68441 5.87106 6.75545 5.8829C6.83833 5.89474 6.89753 5.93026 6.89753 5.97762C6.89753 6.02498 6.82649 6.0605 6.71993 6.03682C6.62521 6.02498 6.56601 5.95394 6.58969 5.91842Z" fill="#BEE38D"/>
<path d="M6.30576 6.7117C6.29392 6.67618 6.36496 6.5933 6.4952 6.55778C6.62543 6.51042 6.74383 6.54594 6.74383 6.5933C6.74383 6.64066 6.66095 6.67618 6.54255 6.7117C6.436 6.73538 6.32944 6.74722 6.30576 6.7117Z" fill="#BEE38D"/>
<path d="M6.32935 7.42207C6.29383 7.39839 6.36487 7.26815 6.50695 7.18527C6.64902 7.09055 6.7911 7.09055 6.80294 7.12607C6.81478 7.17343 6.70822 7.23263 6.58982 7.31551C6.47143 7.38655 6.36487 7.44575 6.32935 7.42207Z" fill="#BEE38D"/>
<path d="M6.24644 8.14431C6.21093 8.13247 6.22277 8.00223 6.31748 7.90752C6.4122 7.8128 6.51876 7.78912 6.54244 7.82464C6.56612 7.86016 6.50692 7.94304 6.42404 8.01407C6.353 8.09695 6.2938 8.16799 6.24644 8.14431Z" fill="#BEE38D"/>
<path d="M7.65511 4.34373C7.65511 4.29637 7.74983 4.28453 7.85639 4.30821C7.95111 4.33189 8.02215 4.37925 8.01031 4.42661C8.01031 4.47397 7.91559 4.48581 7.80903 4.46213C7.71431 4.42661 7.64328 4.37925 7.65511 4.34373Z" fill="#BEE38D"/>
<path d="M7.33559 5.08964C7.35926 5.05412 7.4303 5.0778 7.47766 5.137C7.52502 5.1962 7.51318 5.26724 7.47766 5.29092C7.44214 5.3146 7.38294 5.27908 7.34742 5.23172C7.32375 5.18436 7.31191 5.12516 7.33559 5.08964Z" fill="#BEE38D"/>
<path d="M6.94477 6.13155C6.92109 6.11971 6.92109 6.08419 6.95661 6.04867C6.99213 6.01315 7.05133 5.97763 7.12237 5.96579C7.19341 5.95395 7.24077 5.95395 7.27629 5.95395C7.31181 5.95395 7.34732 5.96579 7.35916 5.98947C7.371 6.01315 7.34732 6.03683 7.31181 6.06051C7.27629 6.08419 7.21709 6.10787 7.15789 6.11971C7.11053 6.13155 7.06317 6.14339 7.02765 6.14339C6.99213 6.14339 6.95661 6.15523 6.94477 6.13155Z" fill="#BEE38D"/>
<path d="M7.00405 6.68801C6.98037 6.67617 6.96853 6.65249 6.98037 6.60513C6.99221 6.55777 7.01589 6.51041 7.06325 6.46305C7.11061 6.42753 7.1698 6.40385 7.20532 6.40385C7.25268 6.40385 7.27636 6.41569 7.27636 6.43937C7.27636 6.48673 7.21716 6.52225 7.15796 6.58145C7.09877 6.64065 7.03957 6.69985 7.00405 6.68801Z" fill="#BEE38D"/>
<path d="M6.86221 7.36288C6.82669 7.3392 6.85037 7.23264 6.94509 7.14976C7.03981 7.05505 7.14637 7.03137 7.15821 7.06689C7.18189 7.10241 7.12269 7.18528 7.05165 7.25632C6.98061 7.32736 6.89773 7.38656 6.86221 7.36288Z" fill="#BEE38D"/>
<path d="M9.58533 4.75812C9.62085 4.76996 9.63269 4.9002 9.63269 5.06596C9.63269 5.23171 9.60901 5.37379 9.56165 5.37379C9.51429 5.37379 9.47878 5.24355 9.47878 5.06596C9.47878 4.88836 9.54981 4.74628 9.58533 4.75812Z" fill="#BEE38D"/>
<path d="M10.1536 4.61605C10.1891 4.63973 10.1654 4.72261 10.1299 4.80549C10.0944 4.88837 10.0589 4.94756 10.0234 4.94756C9.97599 4.94756 9.94047 4.84101 9.98783 4.73445C10.0352 4.63973 10.1299 4.59237 10.1536 4.61605Z" fill="#BEE38D"/>
<path d="M10.7933 4.37926C10.8169 4.41478 10.7577 4.5095 10.6985 4.60422C10.6393 4.69893 10.6038 4.79365 10.5565 4.79365C10.5328 4.79365 10.5091 4.76997 10.5091 4.71077C10.5091 4.66342 10.5209 4.58054 10.5565 4.52134C10.6512 4.3911 10.7696 4.34374 10.7933 4.37926Z" fill="#BEE38D"/>
<path d="M11.444 4.63973C11.4558 4.68709 11.3848 4.73445 11.3019 4.79365C11.219 4.84101 11.148 4.88837 11.1125 4.86469C11.0769 4.84101 11.1125 4.73445 11.219 4.66341C11.3256 4.58053 11.4321 4.59237 11.444 4.63973Z" fill="#BEE38D"/>
<path d="M11.5743 5.42115C11.5861 5.45667 11.5388 5.51587 11.4559 5.51587C11.3848 5.51587 11.3375 5.48035 11.3375 5.44483C11.3375 5.39747 11.3967 5.36195 11.4559 5.36195C11.5151 5.36195 11.5624 5.38563 11.5743 5.42115Z" fill="#BEE38D"/>
<path d="M11.3847 6.13154C11.3847 6.1789 11.3019 6.21442 11.2071 6.21442C11.1124 6.21442 11.0295 6.1789 11.0295 6.13154C11.0295 6.08418 11.1124 6.04866 11.2071 6.04866C11.3019 6.04866 11.3847 6.09602 11.3847 6.13154Z" fill="#BEE38D"/>
<path d="M10.6864 7.01953C10.6627 7.05505 10.6153 7.06689 10.568 7.04321C10.5206 7.03137 10.4733 6.97217 10.4969 6.93665C10.5088 6.90113 10.568 6.87745 10.6272 6.90113C10.6864 6.92481 10.7219 6.98401 10.6864 7.01953Z" fill="#BEE38D"/>
<path d="M10.1178 7.576C10.0823 7.61152 10.0113 7.58784 9.96393 7.52864C9.91657 7.46944 9.90473 7.41024 9.94025 7.37472C9.97577 7.3392 10.0468 7.36288 10.0942 7.42208C10.1415 7.48128 10.1534 7.54048 10.1178 7.576Z" fill="#BEE38D"/>
<path d="M9.52632 8.08511C9.4908 8.10879 9.4316 8.08511 9.39608 8.07327C9.36056 8.04959 9.3132 8.01407 9.3132 7.96671C9.3132 7.94303 9.32504 7.91935 9.36056 7.91935C9.39608 7.90751 9.4316 7.90751 9.47896 7.93119C9.55 7.97855 9.56184 8.07327 9.52632 8.08511Z" fill="#BEE38D"/>
<path d="M9.05235 8.60606C9.02867 8.64158 8.95763 8.62974 8.92211 8.54686C8.89843 8.46398 8.93395 8.40478 8.98131 8.41662C9.02867 8.41662 9.05235 8.46398 9.07603 8.4995C9.07603 8.52318 9.08787 8.57054 9.05235 8.60606Z" fill="#BEE38D"/>
<path d="M10.8523 4.94756C10.876 4.98308 10.8049 5.0778 10.7221 5.17251C10.6274 5.26723 10.5326 5.35011 10.4971 5.32643C10.4616 5.30275 10.4971 5.18435 10.6037 5.06596C10.6984 4.9594 10.8286 4.91204 10.8523 4.94756Z" fill="#BEE38D"/>
<path d="M10.8878 5.64611C10.8878 5.69347 10.8286 5.72899 10.7457 5.76451C10.6628 5.78819 10.5681 5.77635 10.5681 5.72899C10.5562 5.68163 10.6154 5.63427 10.6983 5.61059C10.793 5.57507 10.8878 5.59875 10.8878 5.64611Z" fill="#BEE38D"/>
<path d="M10.5091 6.33281C10.4855 6.36833 10.4381 6.38017 10.3789 6.36833C10.3197 6.35649 10.2723 6.32097 10.2723 6.27361C10.2723 6.22626 10.3315 6.19074 10.4144 6.21442C10.4973 6.22626 10.5447 6.29729 10.5091 6.33281Z" fill="#BEE38D"/>
<path d="M10.0947 6.8064C10.0947 6.85376 10.0236 6.88928 9.94076 6.87744C9.84605 6.87744 9.77501 6.8064 9.79869 6.75904C9.82237 6.72353 9.88157 6.71169 9.9526 6.71169C10.0355 6.73536 10.0947 6.75904 10.0947 6.8064Z" fill="#BEE38D"/>
<path d="M9.70362 7.3392C9.69178 7.37471 9.62074 7.39839 9.53786 7.39839C9.45498 7.38655 9.37211 7.33919 9.38395 7.30368C9.39579 7.25632 9.46682 7.24448 9.5497 7.24448C9.64442 7.24448 9.71546 7.29184 9.70362 7.3392Z" fill="#BEE38D"/>
<path d="M9.07596 7.872C9.04044 7.90752 8.99308 7.89568 8.95756 7.86016C8.92204 7.82464 8.92204 7.7536 8.95756 7.72992C8.99308 7.71808 9.04044 7.71808 9.07596 7.7536C9.09964 7.78912 9.09964 7.83648 9.07596 7.872Z" fill="#BEE38D"/>
<path d="M8.57893 8.3811C8.55525 8.41662 8.48421 8.40478 8.41317 8.36926C8.35397 8.33374 8.30661 8.28639 8.31845 8.25087C8.31845 8.20351 8.41317 8.19167 8.49605 8.23903C8.57893 8.28639 8.60261 8.34558 8.57893 8.3811Z" fill="#BEE38D"/>
<path d="M9.84581 5.17253C9.89317 5.16069 9.95237 5.2554 9.97605 5.3738C9.99973 5.4922 9.99972 5.58692 9.96421 5.6106C9.92869 5.63428 9.84581 5.53956 9.82213 5.40932C9.78661 5.27908 9.79845 5.18437 9.84581 5.17253Z" fill="#BEE38D"/>
<path d="M9.28914 5.80003C9.32466 5.76451 9.40754 5.82371 9.44306 5.94211C9.47858 6.04867 9.44306 6.13155 9.40754 6.14339C9.36018 6.15523 9.32466 6.07235 9.30098 5.98947C9.2773 5.89475 9.25362 5.83555 9.28914 5.80003Z" fill="#BEE38D"/>
<path d="M8.85093 6.4157C8.87461 6.38018 8.95749 6.39202 9.01668 6.45122C9.07588 6.51042 9.09956 6.58146 9.06404 6.60514C9.02852 6.64066 8.95749 6.61698 8.91013 6.55778C8.86277 6.51042 8.82725 6.45122 8.85093 6.4157Z" fill="#BEE38D"/>
<path d="M8.48415 6.9485C8.49599 6.91298 8.57887 6.90114 8.66175 6.91298C8.74463 6.92482 8.81566 6.96034 8.81566 7.0077C8.81566 7.05506 8.73279 7.09058 8.62623 7.0669C8.53151 7.05506 8.46047 6.98402 8.48415 6.9485Z" fill="#BEE38D"/>
<path d="M8.12922 7.77728C8.0937 7.74176 8.1529 7.65888 8.25945 7.64704C8.36601 7.62336 8.43705 7.68256 8.42521 7.71808C8.41337 7.76544 8.35417 7.77728 8.28313 7.78912C8.21209 7.80096 8.15289 7.80096 8.12922 7.77728Z" fill="#BEE38D"/>
<path d="M10.2365 5.70531C10.2365 5.75267 10.1891 5.78819 10.1299 5.82371C10.0707 5.85923 10.0115 5.88291 9.97598 5.85923C9.94046 5.83555 9.9523 5.74083 10.047 5.69347C10.1417 5.63427 10.2365 5.65795 10.2365 5.70531Z" fill="#BEE38D"/>
<path d="M9.82193 6.45122C9.79825 6.48674 9.7509 6.49858 9.6917 6.52226C9.62066 6.54594 9.54962 6.54594 9.52594 6.51042C9.50226 6.4749 9.54962 6.40386 9.64434 6.36834C9.6917 6.3565 9.7509 6.3565 9.78641 6.38018C9.82193 6.40386 9.83377 6.42754 9.82193 6.45122Z" fill="#BEE38D"/>
<path d="M9.37237 6.94849C9.33685 6.97217 9.30133 6.98401 9.27765 6.98401C9.26581 6.97217 9.23029 6.94849 9.21845 6.91297C9.20661 6.88929 9.21845 6.86561 9.23029 6.85377C9.25397 6.84193 9.27765 6.83009 9.31317 6.83009C9.38421 6.84193 9.40789 6.91297 9.37237 6.94849Z" fill="#BEE38D"/>
<path d="M9.08838 7.51679C9.08838 7.56415 9.0055 7.59967 8.92262 7.56415C8.83974 7.52863 8.79238 7.44575 8.8279 7.42207C8.86342 7.39839 8.91078 7.39839 8.98182 7.42207C9.04102 7.43391 9.08838 7.46943 9.08838 7.51679Z" fill="#BEE38D"/>
</svg>
