<svg width="11" height="17" viewBox="0 0 11 17" fill="none" xmlns="http://www.w3.org/2000/svg">
<path d="M10.789 3.99635C10.7201 3.75507 10.6282 3.85847 10.6856 3.59421C10.7201 3.44485 10.6856 3.29548 10.5937 3.1691C10.5018 3.04271 10.3524 2.97377 10.203 2.97377C10.1226 2.97377 10.1571 2.82441 10.1341 2.74398C9.97325 2.14652 9.26089 2.29589 9.12302 2.81292C8.92769 2.67504 9.12302 2.29589 8.75535 2.14652C8.3647 1.99716 8.68641 1.7329 8.70939 1.44566C8.74386 1.04352 8.33023 1.05501 8.2613 0.81373C8.16938 0.469042 7.79022 0.365634 7.49149 0.514999C7.42255 -0.128418 6.66424 0.0554144 6.46892 0.503509C6.28508 0.273717 6.00933 0.342655 5.79103 0.250738C5.53826 0.147332 5.26251 0.273718 5.14761 0.514999C4.88335 0.308186 4.49271 0.446061 4.3893 0.76777C4.36632 0.848197 4.35483 0.917135 4.36632 0.997562C4.2744 1.02054 4.19398 1.05501 4.12504 1.12395C3.99865 1.23884 3.9412 1.42268 3.97567 1.59502C3.80333 1.36523 4.04461 1.00905 3.67694 0.802239C3.47013 0.687343 3.7229 0.204781 3.27481 0.0669055C3.12544 0.020947 2.97608 0.0554159 2.84969 0.124353C2.57394 0.273718 2.79224 0.135843 2.56245 0.0669055C2.27521 -0.105439 1.9535 0.0783951 1.81563 0.354146C1.32158 -0.139907 0.90795 0.549468 0.988377 0.997562C0.724116 0.951604 0.448365 1.12395 0.402407 1.3997C0.356449 1.64098 0.701137 1.90524 0.666668 2.02014C0.344959 2.0661 -0.0112188 2.27291 0.000270842 2.64058C0.000270842 2.80143 0.0921877 2.96229 0.241553 3.04271C0.413897 3.14612 0.425386 3.35293 0.620709 3.45634C0.402407 3.66315 0.333469 4.01933 0.563261 4.24912C0.747095 4.43295 0.712626 4.74317 1.03434 4.8236C0.620709 5.44404 1.37902 5.74277 1.8501 5.45553C1.76967 5.8232 2.07989 6.16788 2.45905 6.06448C2.64288 6.01852 2.66586 6.07597 2.8382 6.07597C2.94161 6.07597 3.02204 6.05299 3.11395 5.99554C3.19438 6.07597 3.26332 6.17937 3.36672 6.23682C3.66545 6.43215 3.21736 6.88024 3.34375 7.19046C3.41268 7.37429 3.58503 7.3628 3.55056 7.54664C3.51609 7.75345 3.6195 7.96026 3.80333 8.05218C3.65396 8.20154 3.14842 8.16708 2.93012 8.20154C2.68884 8.23601 2.44756 8.28197 2.21776 8.35091C1.94201 8.43134 1.63179 8.53474 1.43647 8.75305C1.20668 8.99433 1.27562 9.3505 1.27562 9.64923C1.28711 11.1888 1.14923 12.8204 1.44796 14.337C1.80414 16.1179 3.48162 16.6234 5.11314 16.6924C6.75616 16.7613 9.07706 16.6694 9.6975 14.8081C9.85835 14.3255 9.89282 13.82 9.90431 13.3259C9.9158 12.4642 9.9158 11.591 9.86984 10.7178C9.83537 10.1433 9.85835 9.4654 9.62856 8.92539C9.3643 8.30495 8.37619 8.22452 7.80171 8.15559C7.93959 7.86835 8.04299 8.00622 8.29576 7.89132C8.46811 7.8109 8.53705 7.53515 8.70939 7.52366C9.01961 7.51217 9.08855 7.24791 9.28387 7.07556C9.38728 6.98365 9.49068 6.88024 9.5826 6.77683C9.70899 6.82279 9.85835 6.82279 9.98474 6.76534C10.226 6.65045 10.3179 6.3747 10.2375 6.12193C10.1686 5.91511 10.4443 5.58191 10.5477 5.39808C10.6741 5.1568 10.5018 4.96148 10.5362 4.73168C10.5477 4.45593 10.8924 4.35253 10.789 3.99635C10.766 3.89294 10.8694 4.2721 10.789 3.99635ZM4.14802 1.88226C4.11355 1.93971 4.09057 1.98567 4.0561 2.04312C4.07908 1.96269 4.07908 1.88226 4.06759 1.79035C4.10206 1.82481 4.12504 1.85928 4.14802 1.88226C4.12504 1.93971 4.12504 1.85928 4.14802 1.88226Z" fill="white"/>
<path d="M4.15939 3.824C3.21725 3.54825 3.69981 2.5027 3.21725 1.57204C2.73468 0.641383 1.30997 1.07799 1.11465 2.18099C0.919325 3.28399 1.95339 6.24831 4.10195 5.20276C4.35472 4.63977 4.15939 3.824 4.15939 3.824Z" fill="#8FC745"/>
<path d="M5.58447 8.52327C3.68868 8.46582 1.71247 8.75306 1.71247 9.17817C1.71247 9.60329 1.71247 13.0502 1.82737 13.9464C1.94226 14.8425 2.20652 16.2673 5.59596 16.2673C8.44538 16.2673 9.37604 15.4745 9.4105 13.5212C9.44497 11.568 9.36455 9.1437 9.07731 8.98285C8.4224 8.62667 7.46876 8.58071 5.58447 8.52327Z" fill="#22B573"/>
<path d="M1.72407 9.47688C1.72407 9.84455 1.72407 10.4535 1.73556 11.1199C3.75773 11.6829 8.02037 11.5105 9.41061 11.0395C9.38763 10.3846 9.34167 9.82157 9.27274 9.44241C6.60715 10.2237 2.81558 9.98242 1.72407 9.47688Z" fill="#F7B76D"/>
<path d="M9.0888 8.98285C8.4224 8.63816 7.46876 8.58071 5.58447 8.52327C3.68868 8.46582 1.71247 8.75306 1.71247 9.17817V9.18966C2.09163 9.44243 4.12529 9.69521 5.56149 9.72967C7.04365 9.76414 8.90496 9.53435 9.18071 9.13222C9.15773 9.05179 9.12326 8.99434 9.0888 8.98285Z" fill="#47C98E"/>
<path d="M8.61783 9.86754C8.52591 9.91349 7.82505 10.9935 7.82505 10.9935C7.82505 10.9935 6.77949 10.1203 6.60715 10.1778C6.4348 10.2352 5.53862 11.2233 5.53862 11.2233C5.53862 11.2233 4.55051 10.2582 4.45859 10.2927C4.36668 10.3271 3.43602 11.2003 3.43602 11.2003C3.43602 11.2003 2.5743 10.0169 2.47089 10.0169C2.37898 10.0169 1.99982 10.3271 1.72407 10.5799C1.72407 10.7522 1.72407 10.9246 1.72407 11.1084C1.74705 11.1084 1.75854 11.1199 1.78152 11.1199C2.04578 10.8901 2.31004 10.6718 2.34451 10.6948C2.37898 10.7178 2.58579 11.0625 2.74664 11.3037C3.1258 11.3612 3.55091 11.3957 3.98752 11.4186C4.18284 11.1888 4.41263 10.9016 4.41263 10.9016L4.81477 11.4416C5.25138 11.4531 5.68798 11.4416 6.1131 11.4301C6.35438 11.1659 6.67609 10.7637 6.67609 10.7637L7.2161 11.3612C7.57228 11.3267 7.91696 11.2922 8.22718 11.2578L8.62932 10.511L8.9855 11.1199C9.14635 11.0854 9.28423 11.051 9.41061 11.005C9.41061 10.8786 9.39912 10.7522 9.38763 10.6373C9.19231 10.3386 8.67528 9.83307 8.61783 9.86754Z" fill="#FFC9BA"/>
<path d="M3.61968 9.29307C4.49289 8.82199 4.8146 8.89093 5.00992 8.99434C5.20525 9.09774 6.20484 9.15519 6.67592 8.90242C7.12401 8.86795 7.85935 9.31605 7.85935 9.31605C7.00912 9.67222 4.17118 9.58031 3.61968 9.29307Z" fill="#7B5943"/>
<path d="M4.94078 9.0403C3.56202 6.70791 3.73437 2.45675 4.99822 1.60652C6.26208 0.767782 7.98552 1.03204 8.15787 2.15802C8.33021 3.28401 8.10042 5.11085 7.98552 6.06449C7.87063 7.01813 7.15827 8.73008 6.54932 9.05179C5.89441 9.35052 5.12461 9.24711 4.94078 9.0403Z" fill="#8FC745"/>
<path d="M9.81238 3.54825C8.99662 2.92781 8.89321 3.95039 8.60597 4.8236C8.31873 5.69681 7.96256 5.78872 7.49148 6.07596C7.02041 6.3632 6.917 7.1445 7.5834 7.32833C8.23831 7.51216 9.37578 6.58151 9.77791 5.65085C10.18 4.72019 10.1686 3.824 9.81238 3.54825Z" fill="#8FC745"/>
<path d="M4.05644 4.91552C4.05644 4.91552 4.02197 4.99594 3.88409 5.05339C3.75771 5.11084 3.5394 5.13382 3.29812 5.07637C3.24067 5.06488 3.17174 5.05339 3.11429 5.03041C3.04535 5.00743 2.97641 4.98445 2.90747 4.96148C2.7696 4.90403 2.63172 4.8236 2.50534 4.7087C2.37895 4.59381 2.27555 4.45593 2.18363 4.29508C2.09171 4.13422 2.02278 3.96188 1.96533 3.78954C1.85043 3.43336 1.78149 3.08867 1.70107 2.77845C1.63213 2.46823 1.59766 2.1695 1.63213 1.91673C1.65511 1.66396 1.75851 1.46864 1.86192 1.37672C1.8849 1.35374 1.91937 1.33076 1.94235 1.31927C1.96533 1.30778 1.98831 1.29629 1.9998 1.2848C2.03426 1.27331 2.05724 1.26182 2.05724 1.27331C2.05724 1.27331 2.04575 1.29629 2.02278 1.31927C2.01129 1.33076 1.98831 1.34225 1.97682 1.35374C1.95384 1.37672 1.94235 1.38821 1.91937 1.41119C1.83894 1.50311 1.75851 1.68694 1.74702 1.91673C1.73554 2.14652 1.77 2.43376 1.85043 2.73249C1.93086 3.04271 2.01129 3.3874 2.11469 3.73209C2.17214 3.90443 2.24108 4.06529 2.32151 4.21465C2.40193 4.36402 2.50534 4.4904 2.60875 4.59381C2.71215 4.69722 2.83854 4.77764 2.96492 4.83509C3.02237 4.85807 3.09131 4.88105 3.14876 4.90403C3.2062 4.92701 3.27514 4.9385 3.33259 4.94999C3.56238 5.00744 3.75771 5.00743 3.8726 4.97297C3.9875 4.96148 4.04495 4.90403 4.05644 4.91552Z" fill="#BEE38D"/>
<path d="M3.53888 4.39849C3.53888 4.40998 3.48144 4.39849 3.4125 4.34104C3.33207 4.29508 3.24015 4.20316 3.14824 4.06529C3.05632 3.92741 2.97589 3.75507 2.91844 3.55975C2.84951 3.36442 2.80355 3.13463 2.7461 2.91633C2.71163 2.80143 2.68865 2.69803 2.64269 2.59462C2.59674 2.49121 2.56227 2.38781 2.5278 2.29589C2.45886 2.10057 2.38992 1.92822 2.37843 1.75588C2.37843 1.59502 2.4129 1.46864 2.4129 1.38821C2.4129 1.30779 2.40141 1.26183 2.4129 1.25034C2.42439 1.25034 2.45886 1.28481 2.47035 1.37672C2.49333 1.46864 2.48184 1.59502 2.48184 1.74439C2.49333 1.88226 2.56227 2.05461 2.64269 2.23844C2.68865 2.33036 2.72312 2.43377 2.76908 2.53717C2.81504 2.64058 2.84951 2.75547 2.87249 2.87037C2.92993 3.10016 2.97589 3.31847 3.03334 3.51379C3.09079 3.70911 3.15973 3.86997 3.22866 4.00784C3.37803 4.28359 3.55037 4.37551 3.53888 4.39849Z" fill="#BEE38D"/>
<path d="M4.05636 5.90363C4.0104 5.91512 3.907 5.29468 3.91849 4.53637C3.92998 4.15721 3.95296 3.81252 4.0104 3.55975C4.06785 3.30698 4.14828 3.16911 4.17126 3.1806C4.19424 3.19209 4.13679 3.32996 4.11381 3.57124C4.09083 3.81253 4.07934 4.15721 4.06785 4.52488C4.05636 5.29468 4.09083 5.90363 4.05636 5.90363Z" fill="#BEE38D"/>
<path d="M7.83613 7.37429C7.83613 7.38578 7.80166 7.39727 7.73273 7.43174C7.69826 7.44323 7.6523 7.44323 7.59485 7.45472C7.5374 7.45472 7.47995 7.45472 7.41102 7.43174C7.27314 7.39727 7.13527 7.27089 7.06633 7.09854C6.99739 6.9262 6.97441 6.71938 7.04335 6.52406C7.06633 6.42066 7.12378 6.32874 7.18122 6.24831C7.23867 6.17937 7.30761 6.11044 7.37655 6.05299C7.51442 5.94958 7.6523 5.88064 7.76719 5.8232C7.99699 5.71979 8.12337 5.62787 8.13486 5.65085C8.14635 5.66234 8.04294 5.78873 7.82464 5.91511C7.72124 5.98405 7.59485 6.05299 7.47995 6.15639C7.42251 6.20235 7.36506 6.27129 7.30761 6.32874C7.26165 6.39768 7.21569 6.46661 7.19271 6.54704C7.13527 6.70789 7.15824 6.89173 7.2042 7.0296C7.25016 7.16748 7.35357 7.27089 7.45697 7.30535C7.50293 7.32833 7.56038 7.33982 7.60634 7.35131C7.6523 7.35131 7.69826 7.3628 7.72123 7.35131C7.79017 7.3628 7.82464 7.3628 7.83613 7.37429Z" fill="#BEE38D"/>
<path d="M5.38882 9.22412C5.37733 9.22412 5.29691 9.1322 5.1935 8.93688C5.09009 8.74156 4.99818 8.43134 4.96371 8.0292C4.94073 7.83388 4.94073 7.61558 4.94073 7.38578C4.94073 7.15599 4.92924 6.91471 4.92924 6.65045C4.92924 6.13342 4.91775 5.57043 4.91775 4.97297C4.91775 4.37551 4.88328 3.81252 4.90626 3.29548C4.91775 3.03122 4.94073 2.78994 4.98669 2.56015C5.03265 2.33036 5.11307 2.12355 5.21648 1.9512C5.4118 1.59502 5.67606 1.3997 5.8599 1.27332C6.04373 1.15842 6.15863 1.11246 6.17012 1.12395C6.18161 1.13544 6.06671 1.19289 5.89437 1.33076C5.72202 1.45715 5.48074 1.67545 5.3084 2.00865C5.21648 2.18099 5.14754 2.37632 5.11307 2.59462C5.0786 2.81292 5.05563 3.0542 5.04414 3.31846C5.02116 3.8355 5.06711 4.39849 5.06711 4.99595C5.06711 5.59341 5.06711 6.1564 5.06711 6.67343C5.06711 6.9262 5.06711 7.17897 5.06711 7.40876C5.06711 7.63855 5.06711 7.84537 5.0786 8.04069C5.10158 8.43134 5.17052 8.73007 5.26244 8.92539C5.33138 9.10922 5.40031 9.21263 5.38882 9.22412Z" fill="#BEE38D"/>
<path d="M6.17043 9.15519C6.17043 9.15519 6.14745 9.1437 6.10149 9.10923C6.09 9.08625 6.06702 9.06327 6.04404 9.01731C6.03255 8.98285 6.00957 8.93689 5.99808 8.89093C5.94063 8.68411 5.94063 8.38539 5.96361 8.01772C5.9751 7.83389 5.99808 7.63856 6.00957 7.43175C6.02106 7.22494 6.02106 6.99514 6.00957 6.75386C5.99808 6.2713 5.96361 5.74278 5.98659 5.17979C6.04404 4.0653 6.25085 3.07719 6.21638 2.34185C6.21638 2.15802 6.23936 1.98568 6.26234 1.8478C6.29681 1.69844 6.34277 1.58354 6.40022 1.49162C6.45767 1.39971 6.51511 1.34226 6.56107 1.31928C6.60703 1.28481 6.63001 1.27332 6.6415 1.28481C6.65299 1.2963 6.54958 1.35375 6.44618 1.52609C6.35426 1.69844 6.3083 1.98568 6.31979 2.35334C6.38873 3.08868 6.19341 4.08827 6.13596 5.19128C6.11298 5.74278 6.14745 6.2713 6.14745 6.75386C6.14745 6.99514 6.14745 7.22494 6.12447 7.44324C6.10149 7.66154 6.07851 7.85686 6.05553 8.0407C6.00957 8.39688 5.99808 8.6956 6.04404 8.89093C6.05553 8.93689 6.06702 8.98285 6.07851 9.01731C6.09 9.05178 6.10149 9.07476 6.11298 9.10923C6.15894 9.12072 6.17043 9.1437 6.17043 9.15519Z" fill="#BEE38D"/>
<path d="M7.23869 6.07597C7.2272 6.07597 7.25018 6.00703 7.26167 5.89214C7.27316 5.77724 7.28465 5.6049 7.28465 5.3866C7.29614 4.96148 7.26167 4.36402 7.30763 3.69762C7.33061 3.36443 7.36508 3.05421 7.37657 2.77846C7.38806 2.49122 7.37657 2.24993 7.33061 2.03163C7.25018 1.61801 7.10082 1.38821 7.1238 1.36523C7.13529 1.36523 7.16976 1.41119 7.23869 1.5146C7.29614 1.61801 7.37657 1.77886 7.43402 1.99716C7.49146 2.21547 7.51444 2.47973 7.51444 2.76697C7.51444 3.05421 7.47997 3.37592 7.457 3.69762C7.42253 4.35253 7.43402 4.94999 7.38806 5.3866C7.36508 5.6049 7.35359 5.77724 7.31912 5.90363C7.28465 6.01852 7.25018 6.07597 7.23869 6.07597Z" fill="#BEE38D"/>
<path d="M6.60703 8.87944C6.58405 8.86795 6.63001 8.78752 6.68745 8.66113C6.7449 8.53475 6.81384 8.36241 6.8598 8.15559C6.91725 7.94878 6.95171 7.75346 6.99767 7.61558C7.03214 7.47771 7.0781 7.39728 7.08959 7.39728C7.11257 7.39728 7.11257 7.4892 7.10108 7.63856C7.08959 7.77644 7.06661 7.98325 7.00916 8.19006C6.95171 8.40836 6.87129 8.5922 6.77937 8.71858C6.69894 8.83348 6.63 8.89093 6.60703 8.87944Z" fill="#BEE38D"/>
<path d="M1.4711 0.675857C1.51706 0.664368 1.57451 0.779265 1.59748 0.91714C1.60897 0.986077 1.62046 1.04353 1.63195 1.08948C1.64344 1.13544 1.64344 1.16991 1.63195 1.1814C1.62046 1.19289 1.57451 1.1814 1.54004 1.14693C1.50557 1.10097 1.4711 1.03204 1.44812 0.963098C1.42514 0.802243 1.43663 0.687347 1.4711 0.675857Z" fill="#BEE38D"/>
<path d="M2.33271 0.480534C2.36718 0.503513 2.35569 0.606919 2.3442 0.733305C2.33271 0.859691 2.3442 0.963098 2.29824 0.986078C2.26377 1.00906 2.18334 0.894159 2.18334 0.733305C2.20632 0.560961 2.29824 0.457555 2.33271 0.480534Z" fill="#BEE38D"/>
<path d="M3.16022 0.537989C3.1832 0.572458 3.13724 0.652886 3.0683 0.756293C2.99936 0.84821 2.94192 0.928636 2.90745 0.917147C2.86149 0.905657 2.86149 0.779272 2.9534 0.664376C3.03383 0.54948 3.13724 0.503521 3.16022 0.537989Z" fill="#BEE38D"/>
<path d="M3.48194 1.23885C3.49343 1.28481 3.43598 1.34226 3.34406 1.4112C3.2981 1.44566 3.25214 1.48013 3.20619 1.49162C3.16023 1.50311 3.12576 1.49162 3.12576 1.48013C3.11427 1.44566 3.16023 1.37673 3.25214 1.2963C3.2981 1.26183 3.35555 1.22736 3.40151 1.21587C3.44747 1.20438 3.47045 1.21587 3.48194 1.23885Z" fill="#BEE38D"/>
<path d="M3.61935 1.89375C3.61935 1.91673 3.60786 1.93971 3.58488 1.96269C3.5619 1.98567 3.53892 2.00865 3.49296 2.04312C3.42402 2.11206 3.32062 2.14652 3.29764 2.11205C3.27466 2.07759 3.30913 2.00865 3.38955 1.92822C3.43551 1.89375 3.49296 1.87077 3.53892 1.85928C3.59637 1.85928 3.61935 1.88226 3.61935 1.89375Z" fill="#BEE38D"/>
<path d="M3.7803 2.67505C3.79178 2.72101 3.72285 2.76697 3.61944 2.8359C3.51603 2.90484 3.40114 2.91633 3.38965 2.88186C3.37816 2.84739 3.43561 2.77846 3.53901 2.70952C3.65391 2.62909 3.76881 2.62909 3.7803 2.67505Z" fill="#BEE38D"/>
<path d="M3.84932 3.38741C3.88379 3.41039 3.86081 3.52528 3.7574 3.60571C3.65399 3.68614 3.5391 3.68614 3.52761 3.65167C3.51612 3.60571 3.58506 3.55975 3.66548 3.49082C3.74591 3.42188 3.81485 3.36443 3.84932 3.38741Z" fill="#BEE38D"/>
<path d="M1.19515 1.75588C1.16068 1.76737 1.09174 1.7329 0.988335 1.66396C0.884929 1.59502 0.827481 1.49161 0.86195 1.46864C0.896418 1.44566 0.976846 1.46864 1.08025 1.54906C1.12621 1.58353 1.17217 1.62949 1.19515 1.67545C1.21813 1.70992 1.21813 1.74439 1.19515 1.75588Z" fill="#BEE38D"/>
<path d="M1.06889 2.54867C1.06889 2.59462 0.93101 2.6176 0.758666 2.62909C0.678239 2.64058 0.609301 2.64058 0.563343 2.65207C0.517384 2.65207 0.482916 2.66356 0.459936 2.65207C0.448447 2.64058 0.459936 2.59462 0.517384 2.54867C0.574832 2.5142 0.65526 2.47973 0.747176 2.47973C0.93101 2.45675 1.06889 2.50271 1.06889 2.54867Z" fill="#BEE38D"/>
<path d="M1.24123 3.0657C1.21825 3.10017 1.13783 3.10017 1.01144 3.10017C0.896545 3.10017 0.781649 3.05421 0.793139 3.00825C0.804628 2.97378 0.896545 2.93932 1.02293 2.93932C1.09187 2.93932 1.14932 2.96229 1.18379 2.98527C1.22974 3.00825 1.25272 3.04272 1.24123 3.0657Z" fill="#BEE38D"/>
<path d="M0.896358 3.93891C0.873378 3.93891 0.861889 3.89295 0.896358 3.8355C0.930826 3.77805 0.999764 3.73209 1.08019 3.70912C1.16062 3.68614 1.24105 3.68614 1.29849 3.69763C1.35594 3.70912 1.37892 3.74358 1.37892 3.76656C1.35594 3.80103 1.26402 3.80103 1.13764 3.84699C1.08019 3.86997 1.02274 3.89295 0.988274 3.90444C0.942316 3.92742 0.919337 3.93891 0.896358 3.93891Z" fill="#BEE38D"/>
<path d="M1.13781 4.38701C1.10334 4.36403 1.16079 4.23764 1.25271 4.11126C1.34462 3.98487 1.41356 3.88147 1.45952 3.90445C1.49399 3.91594 1.47101 4.0653 1.37909 4.20318C1.28718 4.32956 1.17228 4.40999 1.13781 4.38701Z" fill="#BEE38D"/>
<path d="M1.37895 5.15681C1.35597 5.12234 1.47087 4.97298 1.67768 4.8351C1.78109 4.76617 1.8845 4.72021 1.97641 4.70872C2.06833 4.69723 2.12578 4.7317 2.11429 4.75468C2.1028 4.77766 2.06833 4.77766 2.01088 4.81212C1.95343 4.84659 1.86152 4.89255 1.7696 4.96149C1.57428 5.08787 1.41342 5.19128 1.37895 5.15681Z" fill="#BEE38D"/>
<path d="M2.29821 5.61639C2.26375 5.59341 2.29821 5.46703 2.39013 5.34064C2.47056 5.21425 2.57396 5.13383 2.60843 5.15681C2.6429 5.17978 2.60843 5.30617 2.51652 5.43256C2.43609 5.55894 2.34417 5.63937 2.29821 5.61639Z" fill="#BEE38D"/>
<path d="M2.83824 5.61638C2.79228 5.61638 2.78079 5.52447 2.79228 5.43255C2.81526 5.34063 2.83824 5.28318 2.87271 5.2717C2.91867 5.26021 2.95314 5.35212 2.94165 5.45553C2.91867 5.55894 2.87271 5.61638 2.83824 5.61638Z" fill="#BEE38D"/>
<path d="M3.49304 5.68532C3.45858 5.69681 3.38964 5.62787 3.3207 5.53596C3.26325 5.44404 3.21729 5.36361 3.24027 5.32914C3.26325 5.29467 3.37815 5.34063 3.44709 5.45553C3.52751 5.55894 3.539 5.67383 3.49304 5.68532Z" fill="#BEE38D"/>
<path d="M4.86028 0.894165C4.90624 0.882675 4.97518 1.04353 5.03263 1.23885C5.09007 1.43418 5.09007 1.61801 5.05561 1.6295C5.00965 1.64099 4.94071 1.48013 4.88326 1.28481C4.82581 1.08949 4.81432 0.905655 4.86028 0.894165Z" fill="#BEE38D"/>
<path d="M4.4238 1.49162C4.4238 1.46864 4.45827 1.45715 4.50422 1.45715C4.55018 1.45715 4.61912 1.48013 4.67657 1.52609C4.73402 1.57205 4.76849 1.64099 4.77998 1.68695C4.77998 1.74439 4.76849 1.76737 4.74551 1.76737C4.69955 1.76737 4.66508 1.69844 4.58465 1.64099C4.50423 1.57205 4.4238 1.53758 4.4238 1.49162Z" fill="#BEE38D"/>
<path d="M3.83771 2.51419C3.86069 2.47972 3.9641 2.5027 4.07899 2.57164C4.13644 2.6061 4.1824 2.65206 4.20538 2.69802C4.22836 2.74398 4.22836 2.77845 4.21687 2.78994C4.1824 2.81292 4.10197 2.76696 3.99857 2.69802C3.89516 2.64057 3.81473 2.54866 3.83771 2.51419Z" fill="#BEE38D"/>
<path d="M5.60717 0.687347C5.65313 0.687347 5.6876 0.779264 5.71058 0.905649C5.73356 1.03203 5.71058 1.15842 5.66462 1.15842C5.61866 1.15842 5.58419 1.0665 5.56122 0.940118C5.53824 0.813733 5.56121 0.687347 5.60717 0.687347Z" fill="#BEE38D"/>
<path d="M6.11292 0.790759C6.14738 0.825228 6.11292 0.894166 6.06696 0.951614C6.04398 0.986083 6.03249 1.00906 6.00951 1.02055C5.98653 1.04353 5.97504 1.05502 5.95206 1.05502C5.92908 1.05502 5.9061 1.03204 5.9061 0.997572C5.89461 0.963103 5.9061 0.905655 5.94057 0.859697C5.99802 0.77927 6.07845 0.76778 6.11292 0.790759Z" fill="#BEE38D"/>
<path d="M7.03195 0.549469C7.06642 0.572448 7.04344 0.698833 7.00897 0.859688C6.9745 1.02054 6.92854 1.15842 6.89407 1.14693C6.84812 1.14693 6.82514 0.997563 6.85961 0.825218C6.89407 0.652874 6.99748 0.526489 7.03195 0.549469Z" fill="#BEE38D"/>
<path d="M7.8134 0.940115C7.83638 0.974584 7.75595 1.05501 7.68701 1.13544C7.61808 1.21587 7.58361 1.2848 7.53765 1.2848C7.51467 1.2848 7.50318 1.25033 7.50318 1.20438C7.50318 1.15842 7.52616 1.08948 7.57212 1.03203C7.68701 0.917136 7.80191 0.894157 7.8134 0.940115Z" fill="#BEE38D"/>
<path d="M8.2497 1.3997C8.27268 1.43416 8.22672 1.51459 8.14629 1.57204C8.06586 1.62949 7.97395 1.65247 7.95097 1.618C7.92799 1.58353 7.97395 1.5031 8.05437 1.44566C8.1348 1.37672 8.22672 1.36523 8.2497 1.3997Z" fill="#BEE38D"/>
<path d="M8.61733 2.6176C8.62882 2.65207 8.52541 2.72101 8.38754 2.75548C8.24966 2.78995 8.12328 2.76697 8.12328 2.72101C8.12328 2.67505 8.22668 2.64058 8.35307 2.60611C8.49094 2.57164 8.61733 2.57164 8.61733 2.6176Z" fill="#BEE38D"/>
<path d="M8.47966 3.93891C8.45668 3.97338 8.36476 3.96189 8.26136 3.9504C8.15795 3.93891 8.05454 3.91593 8.05454 3.86997C8.04306 3.82401 8.14646 3.77805 8.28434 3.80103C8.42221 3.81252 8.50264 3.90444 8.47966 3.93891Z" fill="#BEE38D"/>
<path d="M8.37633 3.37591C8.37633 3.42187 8.30739 3.45634 8.21547 3.46783C8.12356 3.47932 8.04313 3.45634 8.04313 3.41038C8.04313 3.36442 8.11207 3.32995 8.20398 3.31846C8.2959 3.30697 8.37633 3.32995 8.37633 3.37591Z" fill="#BEE38D"/>
<path d="M4.56183 5.8232C4.56183 5.86916 4.35502 5.91512 4.09076 5.92661C3.82649 5.92661 3.61968 5.89214 3.61968 5.85767C3.61968 5.81171 3.83798 5.78874 4.09076 5.77725C4.34353 5.76576 4.55034 5.77725 4.56183 5.8232Z" fill="#BEE38D"/>
<path d="M4.45809 6.59301C4.46958 6.61599 4.43511 6.65046 4.36617 6.69642C4.29723 6.74238 4.20532 6.78833 4.1134 6.83429C4.00999 6.88025 3.92956 6.92621 3.87212 6.96068C3.81467 6.99515 3.79169 7.02961 3.76871 7.02961C3.74573 7.02961 3.74573 6.96068 3.79169 6.89174C3.83765 6.8228 3.92956 6.75386 4.04446 6.69642C4.14787 6.63897 4.25127 6.61599 4.3317 6.59301C4.40064 6.58152 4.4466 6.57003 4.45809 6.59301Z" fill="#BEE38D"/>
<path d="M4.29751 6.42065C4.29751 6.46661 4.20559 6.48959 4.10219 6.50108C3.99878 6.51257 3.90686 6.50108 3.89537 6.45512C3.88388 6.40916 3.9758 6.3632 4.0907 6.35171C4.20559 6.34022 4.29751 6.37469 4.29751 6.42065Z" fill="#BEE38D"/>
<path d="M3.99883 7.63855C3.97585 7.60409 4.07926 7.48919 4.22862 7.39727C4.38948 7.31684 4.51586 7.2594 4.53884 7.29387C4.56182 7.32833 4.45842 7.44323 4.30905 7.53515C4.15969 7.61558 4.02181 7.67302 3.99883 7.63855Z" fill="#BEE38D"/>
<path d="M4.04448 8.52326C4.0215 8.48879 4.11342 8.3624 4.27427 8.24751C4.3547 8.19006 4.42364 8.1441 4.49257 8.12112C4.52704 8.10963 4.55002 8.09814 4.573 8.10963C4.58449 8.10963 4.59598 8.10963 4.60747 8.12112C4.60747 8.13261 4.60747 8.13261 4.60747 8.1441C4.60747 8.15559 4.59598 8.15559 4.59598 8.16708C4.58449 8.17857 4.573 8.20155 4.55002 8.22453C4.50406 8.27049 4.44662 8.32793 4.36619 8.38538C4.20533 8.4773 4.06746 8.54624 4.04448 8.52326Z" fill="#BEE38D"/>
<path d="M9.18064 3.6172C9.14617 3.64018 9.03128 3.55975 8.90489 3.44486C8.78999 3.31847 8.70957 3.19209 8.74404 3.15762C8.7785 3.12315 8.8934 3.20358 9.01979 3.32996C9.14617 3.46784 9.21511 3.59422 9.18064 3.6172Z" fill="#BEE38D"/>
<path d="M9.61699 3.29549C9.57103 3.29549 9.53657 3.18059 9.55955 3.05421C9.57103 2.91633 9.61699 2.82442 9.66295 2.82442C9.70891 2.82442 9.73189 2.93931 9.70891 3.0657C9.68593 3.19208 9.65146 3.284 9.61699 3.29549Z" fill="#BEE38D"/>
<path d="M10.2262 3.44486C10.2606 3.46784 10.2147 3.58273 10.1227 3.67465C10.0308 3.76656 9.92742 3.81252 9.89295 3.78954C9.85849 3.75508 9.91593 3.66316 10.0078 3.57124C10.1113 3.47933 10.2032 3.42188 10.2262 3.44486Z" fill="#BEE38D"/>
<path d="M7.42269 6.88025C7.4112 6.88025 7.43418 6.8228 7.50312 6.73088C7.57206 6.65046 7.68695 6.53556 7.83632 6.43215C7.98568 6.31726 8.15802 6.20236 8.31888 6.01853C8.47973 5.84618 8.60612 5.61639 8.70953 5.36362C8.75548 5.23723 8.80144 5.11085 8.83591 4.98446C8.87038 4.85808 8.89336 4.73169 8.92783 4.6168C8.98528 4.37551 9.05421 4.1687 9.13464 3.99636C9.20358 3.82401 9.27252 3.68614 9.36443 3.60571C9.38741 3.58273 9.41039 3.57124 9.43337 3.57124C9.45635 3.57124 9.47933 3.57124 9.49082 3.58273C9.5138 3.60571 9.52529 3.6172 9.5138 3.6172C9.50231 3.62869 9.45635 3.57124 9.38741 3.64018C9.32996 3.70912 9.27252 3.84699 9.21507 4.01934C9.15762 4.19168 9.10017 4.39849 9.05421 4.63977C9.01975 4.75467 9.00826 4.88106 8.9623 5.01893C8.92783 5.14532 8.88187 5.28319 8.83591 5.42107C8.7325 5.68533 8.58314 5.9381 8.4108 6.12193C8.23845 6.30577 8.04313 6.43215 7.88227 6.52407C7.72142 6.61599 7.60652 6.7079 7.53759 6.77684C7.46865 6.83429 7.43418 6.88025 7.42269 6.88025Z" fill="#BEE38D"/>
<path d="M10.3411 4.12274C10.3526 4.15721 10.2377 4.23764 10.0884 4.32955C9.939 4.42147 9.78963 4.46743 9.76666 4.42147C9.75517 4.387 9.85857 4.29509 10.0079 4.19168C10.1803 4.09976 10.3296 4.07678 10.3411 4.12274Z" fill="#BEE38D"/>
<path d="M10.1115 5.19127C10.1 5.22574 10.0081 5.24872 9.88169 5.24872C9.7553 5.24872 9.65189 5.21425 9.65189 5.16829C9.65189 5.12233 9.7553 5.09935 9.88169 5.09935C10.0196 5.09935 10.123 5.14531 10.1115 5.19127Z" fill="#BEE38D"/>
<path d="M9.87003 5.68533C9.84705 5.69682 9.82407 5.69682 9.8011 5.69682C9.77812 5.69682 9.74365 5.69682 9.69769 5.68533C9.65173 5.68533 9.60577 5.67384 9.5713 5.65086C9.53683 5.62788 9.52534 5.6049 9.52534 5.59341C9.53683 5.55894 9.60577 5.53596 9.70918 5.53596C9.76663 5.54745 9.82407 5.57043 9.84705 5.6049C9.89301 5.63937 9.88152 5.68533 9.87003 5.68533Z" fill="#BEE38D"/>
<path d="M9.76662 6.36321C9.73215 6.38618 9.65172 6.34023 9.5713 6.2598C9.49087 6.16788 9.46789 6.06448 9.50236 6.0415C9.53683 6.01852 9.60576 6.07597 9.68619 6.15639C9.76662 6.23682 9.80109 6.32874 9.76662 6.36321Z" fill="#BEE38D"/>
<path d="M8.67483 7.08706C8.62887 7.08706 8.60589 6.97216 8.5944 6.85727C8.5944 6.79982 8.58291 6.75386 8.58291 6.71939C8.58291 6.68493 8.57142 6.66195 8.58291 6.63897C8.5944 6.62748 8.62887 6.62748 8.67483 6.66195C8.7093 6.69641 8.74377 6.76535 8.74377 6.83429C8.75526 6.99514 8.7093 7.08706 8.67483 7.08706Z" fill="#BEE38D"/>
<path d="M8.05434 7.50068C8.01987 7.48919 8.00838 7.39727 8.04285 7.29387C8.07731 7.19046 8.11178 7.12152 8.14625 7.12152C8.19221 7.12152 8.21519 7.22493 8.18072 7.33982C8.15774 7.44323 8.10029 7.51217 8.05434 7.50068Z" fill="#BEE38D"/>
<path d="M7.80158 7.52367C7.76711 7.51218 7.74413 7.43175 7.7786 7.32834C7.80158 7.28238 7.82456 7.23643 7.85903 7.21345C7.8935 7.19047 7.92797 7.19047 7.93946 7.21345C7.96244 7.24792 7.93946 7.30536 7.91648 7.38579C7.8935 7.46622 7.83605 7.53516 7.80158 7.52367Z" fill="#BEE38D"/>
<path d="M8.33038 5.17978C8.33038 5.22574 8.18101 5.23723 8.03165 5.17978C7.88228 5.13382 7.77888 5.06489 7.79037 5.01893C7.80186 4.97297 7.93973 4.98446 8.07761 5.03042C8.22697 5.08786 8.33038 5.14531 8.33038 5.17978Z" fill="#BEE38D"/>
<path d="M8.50282 4.68573C8.47984 4.72019 8.39941 4.72019 8.33047 4.65126C8.296 4.61679 8.27303 4.57083 8.27303 4.53636C8.27303 4.50189 8.28452 4.47891 8.30749 4.46742C8.35345 4.46742 8.38792 4.4904 8.43388 4.54785C8.49133 4.59381 8.5258 4.63977 8.50282 4.68573Z" fill="#BEE38D"/>
<path d="M8.68634 4.31806C8.65188 4.34104 8.59443 4.30657 8.54847 4.24913C8.52549 4.22615 8.514 4.19168 8.514 4.1687C8.514 4.15721 8.514 4.15721 8.514 4.15721V4.14572C8.514 4.13423 8.514 4.13423 8.514 4.12274C8.514 4.11125 8.52549 4.09976 8.53698 4.08827C8.54847 4.08827 8.54847 4.08827 8.55996 4.08827C8.57145 4.08827 8.57145 4.08827 8.58294 4.09976C8.61741 4.11125 8.64039 4.13423 8.67485 4.1687C8.72081 4.22615 8.7323 4.29508 8.68634 4.31806Z" fill="#BEE38D"/>
<path d="M9.0195 3.74358C8.98503 3.74358 8.9161 3.66315 8.84716 3.53677C8.81269 3.47932 8.77822 3.41038 8.76673 3.36442C8.75524 3.31846 8.75524 3.27251 8.77822 3.27251C8.81269 3.26102 8.89312 3.32995 8.97355 3.46783C9.00801 3.53677 9.03099 3.6057 9.04248 3.65166C9.05397 3.70911 9.03099 3.74358 9.0195 3.74358Z" fill="#BEE38D"/>
<path d="M4.88366 4.45594C4.88366 4.50189 4.7343 4.50189 4.59642 4.45594C4.45855 4.40998 4.34365 4.37551 4.34365 4.34104C4.34365 4.31806 4.37812 4.29508 4.43557 4.29508C4.49302 4.28359 4.56195 4.29508 4.64238 4.31806C4.79175 4.36402 4.89515 4.40998 4.88366 4.45594Z" fill="#BEE38D"/>
<path d="M4.92921 4.01934C4.92921 4.0653 4.84878 4.08828 4.76836 4.04232C4.69942 4.00785 4.66495 3.9504 4.67644 3.91593C4.69942 3.88146 4.76836 3.88146 4.82581 3.90444C4.89474 3.93891 4.9407 3.98487 4.92921 4.01934Z" fill="#BEE38D"/>
<path d="M5.0215 3.30698C4.98703 3.31847 4.91809 3.23804 4.84916 3.14613C4.81469 3.10017 4.79171 3.0657 4.76873 3.03123C4.75724 3.01974 4.75724 3.00825 4.74575 3.00825C4.73426 2.99676 4.72277 2.99676 4.72277 2.98527C4.72277 2.97378 4.72277 2.96229 4.73426 2.9508C4.74575 2.93931 4.78022 2.92782 4.81469 2.93931C4.87214 2.9508 4.92958 3.00825 4.97554 3.0657C5.04448 3.16911 5.05597 3.29549 5.0215 3.30698Z" fill="#BEE38D"/>
<path d="M6.20496 2.5142C6.18198 2.5142 6.17049 2.49122 6.14751 2.46824C6.12453 2.44526 6.10155 2.3993 6.07858 2.36483C6.02113 2.28441 5.97517 2.19249 6.00964 2.15802C6.04411 2.13504 6.12453 2.16951 6.20496 2.27292C6.23943 2.33036 6.26241 2.3993 6.25092 2.44526C6.25092 2.49122 6.22794 2.5142 6.20496 2.5142Z" fill="#BEE38D"/>
<path d="M6.00952 3.55975C5.97505 3.58273 5.9176 3.55975 5.86016 3.51379C5.80271 3.46783 5.76824 3.3874 5.80271 3.36443C5.83718 3.34145 5.89463 3.35294 5.96356 3.39889C6.0325 3.45634 6.04399 3.53677 6.00952 3.55975Z" fill="#BEE38D"/>
<path d="M6.08954 4.1572C6.06656 4.19167 5.99762 4.20316 5.9172 4.18018C5.87124 4.16869 5.83677 4.13422 5.81379 4.09975C5.79081 4.06528 5.79081 4.0423 5.8023 4.03081C5.83677 4.00784 5.89422 4.00784 5.96316 4.03081C6.04358 4.05379 6.11252 4.11124 6.08954 4.1572Z" fill="#BEE38D"/>
<path d="M6.07836 5.83468C6.05538 5.86915 5.98644 5.86915 5.88304 5.86915C5.77963 5.86915 5.68771 5.84617 5.68771 5.80021C5.68771 5.75426 5.76814 5.71979 5.88304 5.71979C5.94048 5.71979 5.99793 5.73128 6.0324 5.75426C6.07836 5.78873 6.08985 5.8117 6.07836 5.83468Z" fill="#BEE38D"/>
<path d="M6.0555 6.57003C6.04401 6.59301 6.02103 6.6045 5.99805 6.61599C5.97507 6.62748 5.9406 6.63897 5.89464 6.65046C5.80272 6.67344 5.71081 6.66195 5.69932 6.61599C5.69932 6.57003 5.75677 6.52407 5.84868 6.50109C5.89464 6.4896 5.95209 6.4896 5.99805 6.51258C6.04401 6.51258 6.0555 6.54705 6.0555 6.57003Z" fill="#BEE38D"/>
<path d="M6.05533 7.156C6.0898 7.17898 6.05533 7.2594 5.9749 7.30536C5.92894 7.32834 5.88299 7.33983 5.84852 7.32834C5.81405 7.31685 5.79107 7.30536 5.79107 7.28238C5.79107 7.23642 5.83703 7.21345 5.89448 7.17898C5.95192 7.14451 6.02086 7.12153 6.05533 7.156Z" fill="#BEE38D"/>
<path d="M5.99791 7.71899C6.03237 7.74197 6.03237 7.81091 5.96344 7.84538C5.90599 7.87985 5.84854 7.83389 5.84854 7.79942C5.84854 7.75346 5.87152 7.71899 5.8945 7.7075C5.91748 7.68452 5.95195 7.69601 5.99791 7.71899Z" fill="#BEE38D"/>
<path d="M7.64071 2.16951C7.66369 2.20398 7.62922 2.26143 7.58327 2.33036C7.53731 2.3993 7.46837 2.45675 7.4339 2.43377C7.39943 2.41079 7.39943 2.33036 7.45688 2.23845C7.47986 2.19249 7.52582 2.15802 7.56029 2.14653C7.60625 2.14653 7.62922 2.15802 7.64071 2.16951Z" fill="#BEE38D"/>
<path d="M7.73297 3.14613C7.75595 3.1806 7.70999 3.24954 7.65255 3.30698C7.58361 3.37592 7.51467 3.41039 7.4802 3.38741C7.44573 3.36443 7.46871 3.27251 7.54914 3.20358C7.61808 3.12315 7.70999 3.11166 7.73297 3.14613Z" fill="#BEE38D"/>
<path d="M7.72119 4.11125C7.73268 4.15721 7.69821 4.20317 7.64076 4.23764C7.58331 4.27211 7.51438 4.2836 7.4914 4.24913C7.46842 4.21466 7.50289 4.15721 7.56034 4.11125C7.62927 4.05381 7.7097 4.0653 7.72119 4.11125Z" fill="#BEE38D"/>
<path d="M7.64112 4.85808C7.62963 4.90403 7.58367 4.92701 7.51473 4.91552C7.44579 4.91552 7.39983 4.88105 7.39983 4.8351C7.39983 4.78914 7.45728 4.75467 7.52622 4.76616C7.60665 4.76616 7.6526 4.81212 7.64112 4.85808Z" fill="#BEE38D"/>
<path d="M7.68664 5.74277C7.67515 5.77724 7.59473 5.80022 7.50281 5.78873C7.45685 5.77724 7.3994 5.75426 7.37642 5.73128C7.34195 5.7083 7.34196 5.67383 7.35344 5.66234C7.37642 5.62787 7.44536 5.62787 7.53728 5.63936C7.61771 5.65085 7.69813 5.7083 7.68664 5.74277Z" fill="#BEE38D"/>
<path d="M2.8956 12.8204C2.88411 12.8204 2.88411 12.7859 2.88411 12.7285C2.88411 12.7055 2.88411 12.6595 2.88411 12.625C2.8956 12.5906 2.90709 12.5446 2.91858 12.4872C2.93007 12.4412 2.96454 12.3838 2.98752 12.3263C2.99901 12.3033 3.02198 12.2689 3.04496 12.2459C3.06794 12.2229 3.07943 12.1884 3.1139 12.1655C3.21731 12.0621 3.36667 11.9816 3.53902 11.9816C3.71136 11.9816 3.86073 12.0391 3.97562 12.1195C4.09052 12.1999 4.17095 12.3033 4.2169 12.3953C4.26286 12.4872 4.29733 12.5676 4.29733 12.625C4.30882 12.6825 4.30882 12.717 4.29733 12.717C4.28584 12.717 4.26286 12.694 4.23988 12.648C4.2169 12.6021 4.17095 12.5331 4.12499 12.4642C4.06754 12.3953 3.9986 12.3033 3.89519 12.2459C3.79179 12.1884 3.67689 12.1425 3.53902 12.1425C3.41263 12.1425 3.28625 12.1999 3.20582 12.2804C3.18284 12.2918 3.15986 12.3148 3.14837 12.3378C3.13688 12.3608 3.1139 12.3838 3.10241 12.3953C3.07943 12.4412 3.04496 12.4872 3.03347 12.5216C3.02198 12.5676 2.99901 12.6021 2.98752 12.6365C2.97603 12.671 2.96454 12.7055 2.96454 12.7285C2.93007 12.7974 2.90709 12.8204 2.8956 12.8204Z" fill="#0E8550"/>
<path d="M8.28417 12.8204C8.27268 12.8204 8.26119 12.7974 8.23821 12.7399C8.22672 12.717 8.22672 12.6825 8.21523 12.648C8.20374 12.6135 8.18076 12.5791 8.16927 12.5331C8.15778 12.4872 8.12331 12.4527 8.10033 12.4067C8.08884 12.3838 8.06586 12.3608 8.05437 12.3493C8.04289 12.3263 8.01991 12.3033 7.99693 12.2918C7.9165 12.2114 7.79011 12.154 7.66373 12.154C7.53734 12.154 7.41096 12.1999 7.30755 12.2574C7.20414 12.3148 7.13521 12.4067 7.07776 12.4757C7.0318 12.5561 6.98584 12.6135 6.96286 12.6595C6.93988 12.7055 6.9169 12.7284 6.90541 12.7284C6.89392 12.7284 6.89392 12.694 6.90541 12.6365C6.9169 12.5791 6.93988 12.4987 6.98584 12.4067C7.04329 12.3148 7.11223 12.2114 7.22712 12.131C7.34202 12.0506 7.49138 11.9816 7.66373 11.9931C7.83607 11.9931 7.98544 12.0735 8.08884 12.1769C8.11182 12.1999 8.1348 12.2229 8.15778 12.2574C8.18076 12.2803 8.19225 12.3148 8.21523 12.3378C8.23821 12.3952 8.27268 12.4412 8.28417 12.4987C8.29566 12.5446 8.30715 12.5906 8.31864 12.6365C8.31864 12.6825 8.31864 12.717 8.31864 12.7399C8.29566 12.7859 8.29566 12.8204 8.28417 12.8204Z" fill="#0E8550"/>
<path d="M5.952 12.4642C5.97498 12.4642 5.98647 12.5676 5.97498 12.74C5.96349 12.8204 5.952 12.9238 5.89455 13.0272C5.87157 13.0846 5.8371 13.1306 5.77965 13.188C5.72221 13.234 5.65327 13.28 5.57284 13.28C5.49241 13.28 5.41199 13.2455 5.36603 13.211C5.30858 13.1651 5.27411 13.1191 5.23964 13.0732C5.17071 12.9697 5.14773 12.8778 5.12475 12.7859C5.09028 12.6136 5.11326 12.5102 5.13624 12.5102C5.15922 12.5102 5.1822 12.6136 5.22815 12.7514C5.25113 12.8204 5.29709 12.9123 5.35454 12.9812C5.41199 13.0617 5.49241 13.1306 5.58433 13.1191C5.66476 13.1191 5.74519 13.0502 5.79114 12.9583C5.8371 12.8778 5.86008 12.7859 5.88306 12.7055C5.90604 12.5676 5.92902 12.4642 5.952 12.4642Z" fill="#0E8550"/>
<path d="M8.27271 9.00582C8.27271 9.00582 8.29569 8.99433 8.34165 9.00582C8.36463 9.00582 8.38761 9.01731 8.42208 9.0288C8.43357 9.0288 8.45655 9.04029 8.47953 9.05178C8.5025 9.06327 8.52548 9.08625 8.53697 9.10923C8.54846 9.13221 8.53697 9.16668 8.51399 9.18966C8.5025 9.20115 8.49101 9.21264 8.47953 9.22413C8.46804 9.23561 8.45655 9.2471 8.44506 9.2471C8.3991 9.28157 8.34165 9.30455 8.2842 9.32753C8.16931 9.37349 8.03143 9.40796 7.88207 9.43094C7.28461 9.54583 6.44586 9.5803 5.51521 9.56881C4.59604 9.54583 3.7573 9.46541 3.15984 9.32753C3.01047 9.29306 2.8726 9.25859 2.7577 9.21263C2.70025 9.18966 2.64281 9.16668 2.59685 9.1437C2.55089 9.12072 2.50493 9.09774 2.47046 9.05178C2.45897 9.0288 2.43599 9.00582 2.44748 8.98284C2.44748 8.95986 2.47046 8.94837 2.48195 8.93689C2.49344 8.9254 2.51642 8.91391 2.52791 8.91391C2.5394 8.91391 2.55089 8.90242 2.56238 8.90242C2.60834 8.89093 2.63132 8.89093 2.63132 8.90242C2.63132 8.90242 2.60834 8.91391 2.57387 8.93689C2.56238 8.93689 2.55089 8.94837 2.5394 8.94837C2.52791 8.94837 2.51642 8.95986 2.51642 8.97135C2.50493 8.98284 2.50493 8.98284 2.49344 8.99433C2.49344 9.00582 2.50493 9.01731 2.51642 9.0288C2.5394 9.04029 2.57387 9.06327 2.61983 9.08625C2.66579 9.10923 2.72323 9.12072 2.76919 9.13221C2.88409 9.16668 3.01047 9.18966 3.15984 9.21263C3.74581 9.31604 4.58455 9.38498 5.49223 9.40796C6.4114 9.43094 7.23865 9.40796 7.83611 9.31604C7.98547 9.29306 8.11186 9.27008 8.22675 9.23561C8.33016 9.20115 8.44506 9.15519 8.43357 9.10923C8.42208 9.08625 8.3991 9.07476 8.37612 9.05178C8.35314 9.04029 8.31867 9.0288 8.30718 9.01731C8.29569 9.01731 8.27271 9.00582 8.27271 9.00582Z" fill="#0E8550"/>
</svg>
