<svg width="207" height="328" viewBox="0 0 207 328" fill="none" xmlns="http://www.w3.org/2000/svg">
<path d="M206.252 78.9905C204.889 74.2214 203.073 76.2653 204.208 71.042C204.889 68.0897 204.208 65.1374 202.391 62.6393C200.574 60.1412 197.622 58.7786 194.67 58.7786C193.08 58.7786 193.761 55.8263 193.307 54.2366C190.128 42.4274 176.048 45.3798 173.322 55.5992C169.462 52.874 173.322 45.3797 166.055 42.4274C158.334 39.4752 164.693 34.2519 165.147 28.5744C165.828 20.6259 157.653 20.853 156.29 16.0839C154.473 9.27092 146.979 7.22701 141.074 10.1793C139.712 -2.53828 124.723 1.0953 120.862 9.95219C117.229 5.4102 111.778 6.7728 107.464 4.956C102.467 2.91211 97.017 5.41021 94.746 10.1793C89.5227 6.09151 81.8013 8.8167 79.7574 15.1755C79.3032 16.7652 79.0761 18.1278 79.3032 19.7175C77.4864 20.1717 75.8967 20.853 74.5341 22.2156C72.036 24.4866 70.9005 28.1202 71.5818 31.5267C68.1753 26.9847 72.9444 19.9446 65.6772 15.8568C61.5894 13.5858 66.5856 4.04763 57.7287 1.32243C54.7765 0.414032 51.8242 1.09533 49.3261 2.45793C43.8757 5.41022 48.1906 2.68503 43.6486 1.32243C37.9711 -2.08406 31.6123 1.54953 28.8871 6.99992C19.1218 -2.76536 10.9462 10.8606 12.5359 19.7175C7.31263 18.8091 1.86224 22.2156 0.95384 27.666C0.0454419 32.4351 6.85843 37.6584 6.17713 39.9294C-0.181657 40.8378 -7.22175 44.9256 -6.99465 52.1927C-6.99465 55.3721 -5.17785 58.5515 -2.22555 60.1412C1.18094 62.1851 1.40804 66.2729 5.26873 68.3168C0.953841 72.4046 -0.408757 79.4447 4.13324 83.9867C7.76683 87.6203 7.08553 93.752 13.4443 95.3417C5.26873 107.605 20.2573 113.51 29.5684 107.832C27.9787 115.099 34.1104 121.912 41.6047 119.868C45.2383 118.96 45.6925 120.096 49.099 120.096C51.1429 120.096 52.7326 119.641 54.5494 118.506C56.1391 120.096 57.5016 122.139 59.5455 123.275C65.4501 127.136 56.5933 135.993 59.0913 142.124C60.4539 145.758 63.8604 145.531 63.1791 149.164C62.4978 153.252 64.5417 157.34 68.1753 159.157C65.223 162.109 55.2307 161.428 50.9158 162.109C46.1467 162.79 41.3776 163.699 36.8356 165.061C31.3852 166.651 25.2535 168.695 21.3928 173.01C16.8508 177.779 18.2134 184.819 18.2134 190.724C18.4405 221.155 15.7153 253.403 21.6199 283.38C28.66 318.581 61.8165 328.573 94.0647 329.936C126.54 331.298 172.414 329.481 184.677 292.691C187.857 283.153 188.538 273.161 188.765 263.395C188.992 246.363 188.992 229.103 188.084 211.844C187.403 200.489 187.857 187.09 183.315 176.416C178.092 164.153 158.561 162.563 147.206 161.201C149.931 155.523 151.975 158.248 156.971 155.977C160.378 154.388 161.74 148.937 165.147 148.71C171.279 148.483 172.641 143.26 176.502 139.853C178.546 138.036 180.59 135.993 182.406 133.949C184.905 134.857 187.857 134.857 190.355 133.722C195.124 131.451 196.941 126 195.351 121.004C193.989 116.916 199.439 110.33 201.483 106.697C203.981 101.928 200.574 98.0669 201.256 93.5249C201.483 88.0745 208.296 86.0306 206.252 78.9905C207.842 84.4409 205.798 76.9466 206.252 78.9905ZM74.9883 37.2042C74.307 38.3396 73.8528 39.2481 73.1715 40.3836C73.6257 38.7939 73.6257 37.2042 73.3986 35.3874C74.0799 36.0687 74.5341 36.75 74.9883 37.2042C74.5341 36.75 74.5341 38.3396 74.9883 37.2042Z" fill="url(#paint0_linear)" fill-opacity="0.14"/>
<path d="M75.2228 75.5838C56.6006 70.1334 66.1388 49.4673 56.6006 31.0723C47.0624 12.6772 18.9021 21.307 15.0414 43.1085C11.1807 64.9101 31.6197 123.502 74.0873 102.836C79.0835 91.7079 75.2228 75.5838 75.2228 75.5838Z" fill="#8FC745"/>
<path d="M103.388 168.468C65.9163 167.332 26.8551 173.01 26.8551 181.412C26.8551 189.815 26.8551 257.945 29.1261 275.659C31.3971 293.372 36.6204 321.533 103.615 321.533C159.936 321.533 178.331 305.863 179.012 267.256C179.693 228.649 178.103 180.731 172.426 177.552C159.481 170.512 140.632 169.603 103.388 168.468Z" fill="#22B573"/>
<path d="M27.0858 187.317C27.0858 194.584 27.0858 206.62 27.3129 219.792C67.2825 230.92 151.536 227.513 179.015 218.202C178.561 205.258 177.653 194.13 176.29 186.636C123.603 202.078 48.6603 197.309 27.0858 187.317Z" fill="#F7B76D"/>
<path d="M172.653 177.552C159.481 170.739 140.632 169.603 103.388 168.468C65.9163 167.332 26.8551 173.01 26.8551 181.412V181.639C34.3494 186.636 74.5461 191.632 102.934 192.313C132.229 192.994 169.02 188.452 174.47 180.504C174.016 178.914 173.334 177.779 172.653 177.552Z" fill="#47C98E"/>
<path d="M163.346 195.038C161.529 195.947 147.676 217.294 147.676 217.294C147.676 217.294 127.01 200.034 123.603 201.17C120.197 202.305 102.483 221.836 102.483 221.836C102.483 221.836 82.9523 202.76 81.1356 203.441C79.3188 204.122 60.9237 221.382 60.9237 221.382C60.9237 221.382 43.8912 197.991 41.8473 197.991C40.0305 197.991 32.5362 204.122 27.0858 209.118C27.0858 212.525 27.0858 215.931 27.0858 219.565C27.54 219.565 27.7671 219.792 28.2213 219.792C33.4446 215.25 38.6679 210.935 39.3492 211.389C40.0305 211.844 44.1183 218.657 47.2977 223.426C54.792 224.561 63.1947 225.242 71.8245 225.697C75.6852 221.155 80.2272 215.477 80.2272 215.477L88.1756 226.151C96.8054 226.378 105.435 226.151 113.838 225.924C118.607 220.7 124.966 212.752 124.966 212.752L135.639 224.561C142.68 223.88 149.493 223.199 155.624 222.517L163.573 207.756L170.613 219.792C173.792 219.111 176.517 218.429 179.015 217.521C179.015 215.023 178.788 212.525 178.561 210.254C174.701 204.349 164.481 194.357 163.346 195.038Z" fill="#FFC9BA"/>
<path d="M64.5526 183.683C81.8121 174.372 88.1709 175.735 92.0316 177.779C95.8923 179.823 115.65 180.958 124.961 175.962C133.818 175.281 148.352 184.137 148.352 184.137C131.547 191.178 75.4533 189.361 64.5526 183.683Z" fill="#7B5943"/>
<path d="M90.6555 178.687C63.4035 132.586 66.81 48.5592 91.791 31.7538C116.772 15.1755 150.837 20.3988 154.243 42.6546C157.65 64.9104 153.108 101.019 150.837 119.868C148.566 138.718 134.486 172.556 122.449 178.914C109.505 184.819 94.2891 182.775 90.6555 178.687Z" fill="#8FC745"/>
<path d="M186.957 70.1333C170.833 57.87 168.789 78.0818 163.111 95.3414C157.434 112.601 150.394 114.418 141.083 120.095C131.772 125.773 129.728 141.216 142.899 144.849C155.844 148.483 178.327 130.088 186.275 111.693C194.224 93.2975 193.997 75.5837 186.957 70.1333Z" fill="#8FC745"/>
<path d="M73.1872 97.1583C73.1872 97.1583 72.5059 98.748 69.7807 99.8835C67.2826 101.019 62.9677 101.473 58.1986 100.338C57.0631 100.111 55.7005 99.8835 54.565 99.4293C53.2024 98.9751 51.8398 98.5209 50.4772 98.0667C47.752 96.9312 45.0268 95.3415 42.5287 93.0705C40.0306 90.7995 37.9867 88.0743 36.17 84.8949C34.3532 81.7155 32.9906 78.309 31.8551 74.9025C29.5841 67.8624 28.2215 61.0494 26.6318 54.9178C25.2692 48.7861 24.5879 42.8815 25.2692 37.8853C25.7234 32.8891 27.7673 29.0284 29.8112 27.2116C30.2654 26.7574 30.9467 26.3032 31.4009 26.0761C31.8551 25.849 32.3093 25.6219 32.5364 25.3948C33.2177 25.1677 33.6719 24.9406 33.6719 25.1677C33.6719 25.1677 33.4448 25.6219 32.9906 26.0761C32.7635 26.3032 32.3093 26.5303 32.0822 26.7574C31.628 27.2116 31.4009 27.4387 30.9467 27.8929C29.357 29.7097 27.7673 33.3433 27.5402 37.8853C27.3131 42.4273 27.9944 48.1048 29.5841 54.0094C31.1738 60.1411 32.7635 66.954 34.8074 73.767C35.9429 77.1735 37.3055 80.3529 38.8951 83.3052C40.4848 86.2575 42.5287 88.7556 44.5726 90.7995C46.6165 92.8434 49.1146 94.4331 51.6127 95.5686C52.7482 96.0228 54.1108 96.477 55.2463 96.9312C56.3818 97.3854 57.7444 97.6125 58.8799 97.8396C63.4219 98.9751 67.2826 98.9751 69.5536 98.2938C71.8246 98.0667 72.9601 96.9312 73.1872 97.1583Z" fill="#BEE38D"/>
<path d="M62.9565 86.939C62.9565 87.1661 61.821 86.939 60.4584 85.8035C58.8687 84.8951 57.0519 83.0783 55.2351 80.3531C53.4183 77.6279 51.8286 74.2214 50.6932 70.3607C49.3306 66.5 48.4222 61.958 47.2867 57.6431C46.6054 55.3721 46.1512 53.3283 45.2428 51.2844C44.3344 49.2405 43.6531 47.1966 42.9718 45.3798C41.6092 41.5191 40.2466 38.1126 40.0195 34.7061C40.0195 31.5267 40.7008 29.0286 40.7008 27.4389C40.7008 25.8492 40.4737 24.9408 40.7008 24.7137C40.9279 24.7137 41.6092 25.395 41.8363 27.2118C42.2905 29.0286 42.0634 31.5267 42.0634 34.479C42.2905 37.2042 43.6531 40.6107 45.2428 44.2443C46.1512 46.0611 46.8325 48.105 47.7409 50.1489C48.6493 52.1928 49.3306 54.4637 49.7848 56.7347C50.9203 61.2767 51.8286 65.5916 52.9641 69.4523C54.0996 73.313 55.4622 76.4924 56.8248 79.2176C59.7771 84.668 63.1836 86.4848 62.9565 86.939Z" fill="#BEE38D"/>
<path d="M73.1843 116.689C72.2759 116.916 70.232 104.653 70.4591 89.6642C70.6862 82.1699 71.1404 75.3569 72.2759 70.3607C73.4114 65.3645 75.0011 62.6393 75.4553 62.8664C75.9095 63.0935 74.774 65.8187 74.3198 70.5878C73.8656 75.3569 73.6385 82.1699 73.4114 89.4371C73.1843 104.653 73.8656 116.689 73.1843 116.689Z" fill="#BEE38D"/>
<path d="M147.89 145.758C147.89 145.985 147.209 146.212 145.846 146.893C145.165 147.12 144.257 147.12 143.121 147.347C141.986 147.347 140.85 147.347 139.488 146.893C136.762 146.212 134.037 143.714 132.675 140.307C131.312 136.901 130.858 132.813 132.22 128.952C132.675 126.908 133.81 125.092 134.946 123.502C136.081 122.139 137.444 120.777 138.806 119.641C141.531 117.597 144.257 116.235 146.528 115.099C151.07 113.055 153.568 111.239 153.795 111.693C154.022 111.92 151.978 114.418 147.663 116.916C145.619 118.279 143.121 119.641 140.85 121.685C139.715 122.594 138.579 123.956 137.444 125.092C136.535 126.454 135.627 127.817 135.173 129.407C134.037 132.586 134.491 136.22 135.4 138.945C136.308 141.67 138.352 143.714 140.396 144.395C141.304 144.849 142.44 145.076 143.348 145.304C144.257 145.304 145.165 145.531 145.619 145.304C146.982 145.531 147.663 145.531 147.89 145.758Z" fill="#BEE38D"/>
<path d="M99.515 182.321C99.2879 182.321 97.6982 180.504 95.6543 176.643C93.6104 172.782 91.7936 166.651 91.1123 158.702C90.6581 154.842 90.6581 150.527 90.6581 145.985C90.6581 141.443 90.431 136.674 90.431 131.45C90.431 121.231 90.2039 110.103 90.2039 98.2938C90.2039 86.4846 89.5226 75.3567 89.9768 65.1372C90.2039 59.914 90.6581 55.1449 91.5665 50.6029C92.4749 46.0609 94.0646 41.9731 96.1085 38.5666C99.9692 31.5265 105.192 27.6658 108.826 25.1677C112.46 22.8967 114.731 21.9883 114.958 22.2154C115.185 22.4425 112.914 23.578 109.507 26.3032C106.101 28.8013 101.332 33.1162 97.9253 39.7021C96.1085 43.1086 94.7459 46.9693 94.0646 51.2842C93.3833 55.5991 92.9291 60.3682 92.702 65.5914C92.2478 75.8109 93.1562 86.9388 93.1562 98.748C93.1562 110.557 93.1562 121.685 93.1562 131.905C93.1562 136.901 93.1562 141.897 93.1562 146.439C93.1562 150.981 93.1562 155.069 93.3833 158.929C93.8375 166.651 95.2001 172.555 97.0169 176.416C98.3795 180.05 99.7421 182.094 99.515 182.321Z" fill="#BEE38D"/>
<path d="M114.959 180.958C114.959 180.958 114.505 180.731 113.597 180.05C113.37 179.595 112.915 179.141 112.461 178.233C112.234 177.552 111.78 176.643 111.553 175.735C110.417 171.647 110.417 165.742 110.872 158.475C111.099 154.842 111.553 150.981 111.78 146.893C112.007 142.805 112.007 138.263 111.78 133.494C111.553 123.956 110.871 113.509 111.326 102.382C112.461 80.3529 116.549 60.8223 115.868 46.288C115.868 42.6544 116.322 39.2479 116.776 36.5227C117.457 33.5704 118.366 31.2994 119.501 29.4826C120.637 27.6658 121.772 26.5303 122.681 26.0761C123.589 25.3948 124.043 25.1677 124.27 25.3948C124.497 25.6219 122.454 26.7574 120.41 30.1639C118.593 33.5704 117.684 39.2479 117.912 46.5151C119.274 61.0495 115.413 80.8071 114.278 102.609C113.824 113.509 114.505 123.956 114.505 133.494C114.505 138.263 114.505 142.805 114.051 147.12C113.597 151.435 113.142 155.296 112.688 158.929C111.78 165.969 111.553 171.874 112.461 175.735C112.688 176.643 112.915 177.552 113.142 178.233C113.37 178.914 113.597 179.368 113.824 180.05C114.732 180.277 114.959 180.731 114.959 180.958Z" fill="#BEE38D"/>
<path d="M136.069 120.095C135.842 120.095 136.296 118.733 136.524 116.462C136.751 114.191 136.978 110.784 136.978 106.469C137.205 98.0668 136.524 86.2576 137.432 73.0858C137.886 66.4999 138.567 60.3682 138.795 54.9178C139.022 49.2403 138.795 44.4713 137.886 40.1564C136.296 31.9808 133.344 27.4388 133.798 26.9846C134.025 26.9846 134.707 27.893 136.069 29.9369C137.205 31.9808 138.795 35.1602 139.93 39.4751C141.065 43.7899 141.52 49.0133 141.52 54.6908C141.52 60.3682 140.838 66.727 140.384 73.0858C139.703 86.0305 139.93 97.8397 139.022 106.469C138.567 110.784 138.34 114.191 137.659 116.689C136.978 118.96 136.296 120.095 136.069 120.095Z" fill="#BEE38D"/>
<path d="M123.602 175.508C123.148 175.281 124.056 173.691 125.191 171.193C126.327 168.695 127.69 165.288 128.598 161.2C129.733 157.113 130.415 153.252 131.323 150.527C132.004 147.801 132.913 146.212 133.14 146.212C133.594 146.212 133.594 148.029 133.367 150.981C133.14 153.706 132.686 157.794 131.55 161.882C130.415 166.197 128.825 169.83 127.008 172.328C125.419 174.599 124.056 175.735 123.602 175.508Z" fill="#BEE38D"/>
<path d="M22.0827 13.3586C22.9911 13.1315 24.1266 15.4025 24.5808 18.1277C24.8079 19.4903 25.035 20.6258 25.2621 21.5342C25.4892 22.4426 25.4892 23.1239 25.2621 23.351C25.035 23.5781 24.1266 23.351 23.4453 22.6697C22.764 21.7613 22.0827 20.3987 21.6285 19.0361C21.1743 15.8567 21.4014 13.5857 22.0827 13.3586Z" fill="#BEE38D"/>
<path d="M39.1108 9.49791C39.7921 9.95211 39.565 11.996 39.3379 14.4941C39.1108 16.9922 39.3379 19.0361 38.4295 19.4903C37.7482 19.9445 36.1585 17.6735 36.1585 14.4941C36.6127 11.0876 38.4295 9.04371 39.1108 9.49791Z" fill="#BEE38D"/>
<path d="M55.4553 10.6334C55.9095 11.3147 55.0012 12.9044 53.6386 14.9483C52.276 16.7651 51.1405 18.3548 50.4592 18.1277C49.5508 17.9006 49.5508 15.4025 51.3676 13.1315C52.9573 10.8605 55.0012 9.95209 55.4553 10.6334Z" fill="#BEE38D"/>
<path d="M61.8211 24.4866C62.0482 25.395 60.9127 26.5305 59.096 27.893C58.1876 28.5743 57.2792 29.2556 56.3708 29.4827C55.4624 29.7098 54.7811 29.4827 54.7811 29.2556C54.554 28.5743 55.4624 27.2117 57.2792 25.6221C58.1876 24.9408 59.3231 24.2595 60.2315 24.0324C61.1398 23.8053 61.594 24.0324 61.8211 24.4866Z" fill="#BEE38D"/>
<path d="M64.5464 37.4312C64.5464 37.8854 64.3193 38.3397 63.8651 38.7939C63.4109 39.2481 62.9567 39.7022 62.0483 40.3835C60.6857 41.7461 58.6418 42.4274 58.1876 41.7461C57.7334 41.0648 58.4147 39.7022 60.0044 38.1126C60.9128 37.4313 62.0483 36.977 62.9567 36.7499C64.0922 36.7499 64.5464 37.2041 64.5464 37.4312Z" fill="#BEE38D"/>
<path d="M67.7272 52.874C67.9543 53.7824 66.5917 54.6907 64.5478 56.0533C62.5039 57.4159 60.2329 57.6431 60.0058 56.9618C59.7787 56.2805 60.9142 54.9179 62.9581 53.5553C65.2291 51.9656 67.5001 51.9656 67.7272 52.874Z" fill="#BEE38D"/>
<path d="M69.0848 66.9542C69.7661 67.4084 69.3119 69.6794 67.268 71.2691C65.2241 72.8588 62.9531 72.8588 62.726 72.1775C62.4989 71.2691 63.8615 70.3607 65.4512 68.9981C67.0409 67.6355 68.4035 66.5 69.0848 66.9542Z" fill="#BEE38D"/>
<path d="M16.6138 34.706C15.9325 34.9331 14.5699 34.2518 12.526 32.8892C10.4821 31.5266 9.34665 29.4827 10.0279 29.0285C10.7092 28.5743 12.2989 29.0285 14.3428 30.6182C15.2512 31.2995 16.1596 32.2079 16.6138 33.1163C17.068 33.7976 17.068 34.4789 16.6138 34.706Z" fill="#BEE38D"/>
<path d="M14.1286 50.3759C14.1286 51.2843 11.4034 51.7385 7.99687 51.9656C6.40718 52.1927 5.04458 52.1927 4.13618 52.4198C3.22778 52.4198 2.54648 52.6469 2.09228 52.4198C1.86518 52.1927 2.09228 51.2843 3.22778 50.3759C4.36328 49.6946 5.95298 49.0133 7.76977 49.0133C11.4034 48.5591 14.1286 49.4675 14.1286 50.3759Z" fill="#BEE38D"/>
<path d="M17.5247 60.5954C17.0705 61.2767 15.4808 61.2767 12.9827 61.2767C10.7117 61.2767 8.44069 60.3683 8.66779 59.4599C8.89489 58.7786 10.7117 58.0973 13.2098 58.0973C14.5724 58.0973 15.7079 58.5515 16.3892 59.0057C17.2976 59.4599 17.7518 60.1412 17.5247 60.5954Z" fill="#BEE38D"/>
<path d="M10.7232 77.8549C10.269 77.8549 10.0419 76.9465 10.7232 75.811C11.4045 74.6755 12.7671 73.7672 14.3568 73.313C15.9465 72.8588 17.5362 72.8587 18.6717 73.0858C19.8072 73.3129 20.2614 73.9943 20.2614 74.4485C19.8072 75.1298 17.9904 75.1297 15.4923 76.0381C14.3568 76.4923 13.2213 76.9465 12.54 77.1736C11.6316 77.6278 11.1774 77.8549 10.7232 77.8549Z" fill="#BEE38D"/>
<path d="M15.4945 86.7118C14.8132 86.2576 15.9487 83.7595 17.7655 81.2614C19.5823 78.7633 20.9449 76.7194 21.8533 77.1736C22.5346 77.4007 22.0804 80.353 20.2636 83.0782C18.4468 85.5763 16.1758 87.166 15.4945 86.7118Z" fill="#BEE38D"/>
<path d="M20.2531 101.927C19.7989 101.246 22.0698 98.2939 26.1576 95.5687C28.2015 94.2061 30.2454 93.2977 32.0622 93.0706C33.879 92.8435 35.0145 93.5248 34.7874 93.979C34.5603 94.4332 33.879 94.4332 32.7435 95.1145C31.608 95.7958 29.7912 96.7042 27.9744 98.0668C24.1137 100.565 20.9344 102.609 20.2531 101.927Z" fill="#BEE38D"/>
<path d="M38.4254 111.011C37.7441 110.557 38.4254 108.059 40.2422 105.561C41.8319 103.063 43.8758 101.473 44.5571 101.927C45.2384 102.382 44.5571 104.88 42.7403 107.378C41.1506 109.876 39.3338 111.466 38.4254 111.011Z" fill="#BEE38D"/>
<path d="M49.0982 111.011C48.1898 111.011 47.9627 109.195 48.1898 107.378C48.644 105.561 49.0982 104.425 49.7795 104.198C50.6879 103.971 51.3692 105.788 51.1421 107.832C50.6879 109.876 49.7795 111.011 49.0982 111.011Z" fill="#BEE38D"/>
<path d="M62.045 112.374C61.3637 112.601 60.0011 111.238 58.6385 109.422C57.503 107.605 56.5946 106.015 57.0488 105.334C57.503 104.653 59.774 105.561 61.1366 107.832C62.7263 109.876 62.9534 112.147 62.045 112.374Z" fill="#BEE38D"/>
<path d="M89.0675 17.6734C89.9759 17.4463 91.3385 20.6257 92.474 24.4864C93.6095 28.3471 93.6095 31.9807 92.9282 32.2078C92.0198 32.4349 90.6572 29.2555 89.5217 25.3948C88.3862 21.5341 88.1591 17.9005 89.0675 17.6734Z" fill="#BEE38D"/>
<path d="M80.4391 29.4827C80.4391 29.0285 81.1204 28.8014 82.0288 28.8014C82.9372 28.8014 84.2998 29.2556 85.4353 30.164C86.5708 31.0724 87.2521 32.435 87.4792 33.3434C87.4792 34.4789 87.2521 34.9331 86.7979 34.9331C85.8895 34.9331 85.2082 33.5705 83.6185 32.435C82.0288 31.0724 80.4391 30.3911 80.4391 29.4827Z" fill="#BEE38D"/>
<path d="M68.8581 49.6946C69.3123 49.0133 71.3562 49.4675 73.6272 50.8301C74.7627 51.5114 75.6711 52.4198 76.1253 53.3282C76.5795 54.2366 76.5795 54.9179 76.3524 55.145C75.6711 55.5992 74.0814 54.6908 72.0375 53.3282C69.9936 52.1927 68.4039 50.3759 68.8581 49.6946Z" fill="#BEE38D"/>
<path d="M103.839 13.5857C104.747 13.5857 105.429 15.4025 105.883 17.9006C106.337 20.3987 105.883 22.8968 104.974 22.8968C104.066 22.8968 103.385 21.08 102.931 18.5819C102.476 16.0838 102.931 13.5857 103.839 13.5857Z" fill="#BEE38D"/>
<path d="M113.836 15.6297C114.517 16.311 113.836 17.6736 112.928 18.8091C112.473 19.4904 112.246 19.9446 111.792 20.1717C111.338 20.6259 111.111 20.853 110.657 20.853C110.202 20.853 109.748 20.3988 109.748 19.7175C109.521 19.0362 109.748 17.9007 110.429 16.9923C111.565 15.4026 113.155 15.1755 113.836 15.6297Z" fill="#BEE38D"/>
<path d="M131.986 10.8604C132.667 11.3146 132.213 13.8127 131.532 16.9921C130.85 20.1715 129.942 22.8967 129.261 22.6696C128.352 22.6696 127.898 19.7173 128.579 16.3108C129.261 12.9043 131.304 10.4062 131.986 10.8604Z" fill="#BEE38D"/>
<path d="M147.432 18.5818C147.886 19.2631 146.296 20.8528 144.934 22.4425C143.571 24.0322 142.89 25.3948 141.981 25.3948C141.527 25.3948 141.3 24.7135 141.3 23.8051C141.3 22.8967 141.754 21.5341 142.663 20.3986C144.934 18.1276 147.205 17.6734 147.432 18.5818Z" fill="#BEE38D"/>
<path d="M156.065 27.6658C156.519 28.3471 155.611 29.9367 154.021 31.0722C152.431 32.2077 150.615 32.662 150.16 31.9807C149.706 31.2994 150.615 29.7097 152.204 28.5742C153.794 27.2116 155.611 26.9845 156.065 27.6658Z" fill="#BEE38D"/>
<path d="M163.322 51.7385C163.549 52.4198 161.505 53.7824 158.78 54.4637C156.055 55.145 153.556 54.6908 153.556 53.7824C153.556 52.874 155.6 52.1927 158.098 51.5114C160.824 50.8301 163.322 50.8301 163.322 51.7385Z" fill="#BEE38D"/>
<path d="M160.605 77.8548C160.151 78.5361 158.334 78.309 156.29 78.0819C154.246 77.8548 152.202 77.4006 152.202 76.4922C151.975 75.5838 154.019 74.6754 156.744 75.1296C159.47 75.3567 161.059 77.1735 160.605 77.8548Z" fill="#BEE38D"/>
<path d="M158.559 66.727C158.559 67.6354 157.196 68.3167 155.38 68.5438C153.563 68.7709 151.973 68.3167 151.973 67.4083C151.973 66.4999 153.336 65.8186 155.152 65.5915C156.969 65.3644 158.559 65.8186 158.559 66.727Z" fill="#BEE38D"/>
<path d="M83.1747 115.099C83.1747 116.008 79.0869 116.916 73.8636 117.143C68.6404 117.143 64.5526 116.462 64.5526 115.781C64.5526 114.872 68.8675 114.418 73.8636 114.191C78.8598 113.964 82.9476 114.191 83.1747 115.099Z" fill="#BEE38D"/>
<path d="M81.1228 130.315C81.3499 130.769 80.6686 131.451 79.306 132.359C77.9434 133.267 76.1266 134.176 74.3098 135.084C72.2659 135.993 70.6762 136.901 69.5407 137.582C68.4052 138.264 67.951 138.945 67.4968 138.945C67.0426 138.945 67.0426 137.582 67.951 136.22C68.8594 134.857 70.6762 133.494 72.9472 132.359C74.9911 131.223 77.035 130.769 78.6247 130.315C79.9873 130.088 80.8957 129.861 81.1228 130.315Z" fill="#BEE38D"/>
<path d="M77.9441 126.908C77.9441 127.817 76.1274 128.271 74.0835 128.498C72.0396 128.725 70.2228 128.498 69.9957 127.59C69.7686 126.681 71.5854 125.773 73.8563 125.546C76.1273 125.319 77.9441 126 77.9441 126.908Z" fill="#BEE38D"/>
<path d="M72.0492 150.981C71.595 150.3 73.6389 148.029 76.5912 146.212C79.7706 144.622 82.2687 143.487 82.7229 144.168C83.1771 144.849 81.1332 147.12 78.1809 148.937C75.2286 150.527 72.5034 151.662 72.0492 150.981Z" fill="#BEE38D"/>
<path d="M72.9407 168.468C72.4865 167.786 74.3033 165.288 77.4827 163.017C79.0724 161.882 80.435 160.973 81.7976 160.519C82.4789 160.292 82.9331 160.065 83.3873 160.292C83.6144 160.292 83.8415 160.292 84.0686 160.519C84.0686 160.746 84.0686 160.746 84.0686 160.973C84.0686 161.2 83.8415 161.201 83.8415 161.428C83.6144 161.655 83.3873 162.109 82.9331 162.563C82.0247 163.472 80.8892 164.607 79.2995 165.742C76.1201 167.559 73.3949 168.922 72.9407 168.468Z" fill="#BEE38D"/>
<path d="M174.468 71.4962C173.786 71.9504 171.515 70.3607 169.017 68.0897C166.746 65.5916 165.157 63.0935 165.838 62.4122C166.519 61.7309 168.79 63.3206 171.288 65.8187C173.786 68.5439 175.149 71.042 174.468 71.4962Z" fill="#BEE38D"/>
<path d="M183.095 65.1372C182.186 65.1372 181.505 62.8662 181.959 60.3681C182.186 57.6429 183.095 55.8261 184.003 55.8261C184.912 55.8261 185.366 58.0971 184.912 60.5952C184.457 63.0933 183.776 64.9101 183.095 65.1372Z" fill="#BEE38D"/>
<path d="M195.126 68.0897C195.807 68.5439 194.899 70.8149 193.082 72.6317C191.265 74.4485 189.221 75.3569 188.54 74.9027C187.859 74.2214 188.994 72.4046 190.811 70.5878C192.855 68.771 194.672 67.6355 195.126 68.0897Z" fill="#BEE38D"/>
<path d="M139.713 135.992C139.486 135.992 139.94 134.857 141.303 133.04C142.665 131.45 144.936 129.179 147.889 127.135C150.841 124.864 154.247 122.593 157.427 118.96C160.606 115.553 163.104 111.011 165.148 106.015C166.056 103.517 166.965 101.019 167.646 98.5209C168.327 96.0228 168.782 93.5247 169.463 91.2537C170.598 86.4846 171.961 82.3968 173.551 78.9903C174.913 75.5838 176.276 72.8586 178.093 71.2689C178.547 70.8147 179.001 70.5876 179.455 70.5876C179.91 70.5876 180.364 70.5876 180.591 70.8147C181.045 71.2689 181.272 71.496 181.045 71.496C180.818 71.7231 179.91 70.5876 178.547 71.9502C177.411 73.3128 176.276 76.038 175.14 79.4445C174.005 82.851 172.869 86.9388 171.961 91.7079C171.28 93.9789 171.053 96.477 170.144 99.2022C169.463 101.7 168.555 104.425 167.646 107.151C165.602 112.374 162.65 117.37 159.243 121.004C155.837 124.637 151.976 127.135 148.797 128.952C145.618 130.769 143.347 132.586 141.984 133.948C140.621 135.084 139.94 135.992 139.713 135.992Z" fill="#BEE38D"/>
<path d="M197.396 81.4884C197.623 82.1697 195.352 83.7594 192.4 85.5762C189.447 87.393 186.495 88.3014 186.041 87.393C185.814 86.7117 187.858 84.8949 190.81 82.851C194.216 81.0342 197.169 80.58 197.396 81.4884Z" fill="#BEE38D"/>
<path d="M192.867 102.609C192.64 103.29 190.823 103.744 188.325 103.744C185.827 103.744 183.783 103.063 183.783 102.154C183.783 101.246 185.827 100.792 188.325 100.792C191.05 100.792 193.094 101.7 192.867 102.609Z" fill="#BEE38D"/>
<path d="M188.088 112.374C187.634 112.601 187.18 112.601 186.725 112.601C186.271 112.601 185.59 112.601 184.682 112.374C183.773 112.374 182.865 112.147 182.183 111.693C181.502 111.238 181.275 110.784 181.275 110.557C181.502 109.876 182.865 109.422 184.909 109.422C186.044 109.649 187.18 110.103 187.634 110.784C188.542 111.466 188.315 112.374 188.088 112.374Z" fill="#BEE38D"/>
<path d="M186.051 125.773C185.37 126.227 183.78 125.319 182.191 123.729C180.601 121.912 180.147 119.868 180.828 119.414C181.509 118.96 182.872 120.095 184.462 121.685C186.051 123.275 186.733 125.092 186.051 125.773Z" fill="#BEE38D"/>
<path d="M164.469 140.08C163.56 140.08 163.106 137.809 162.879 135.538C162.879 134.403 162.652 133.494 162.652 132.813C162.652 132.132 162.425 131.677 162.652 131.223C162.879 130.996 163.56 130.996 164.469 131.677C165.15 132.359 165.831 133.721 165.831 135.084C166.058 138.263 165.15 140.08 164.469 140.08Z" fill="#BEE38D"/>
<path d="M152.206 148.256C151.525 148.029 151.297 146.212 151.979 144.168C152.66 142.124 153.341 140.761 154.023 140.761C154.931 140.761 155.385 142.805 154.704 145.076C154.25 147.12 153.114 148.483 152.206 148.256Z" fill="#BEE38D"/>
<path d="M147.206 148.71C146.525 148.483 146.071 146.893 146.752 144.849C147.206 143.941 147.661 143.033 148.342 142.578C149.023 142.124 149.705 142.124 149.932 142.578C150.386 143.26 149.932 144.395 149.477 145.985C149.023 147.575 147.888 148.937 147.206 148.71Z" fill="#BEE38D"/>
<path d="M157.664 102.382C157.664 103.29 154.712 103.517 151.76 102.382C148.807 101.473 146.763 100.111 146.991 99.2022C147.218 98.2938 149.943 98.521 152.668 99.4294C155.62 100.565 157.664 101.7 157.664 102.382Z" fill="#BEE38D"/>
<path d="M161.072 92.6164C160.618 93.2977 159.028 93.2977 157.665 91.9351C156.984 91.2538 156.53 90.3454 156.53 89.6641C156.53 88.9828 156.757 88.5286 157.211 88.3015C158.12 88.3015 158.801 88.7557 159.709 89.8912C160.845 90.7996 161.526 91.708 161.072 92.6164Z" fill="#BEE38D"/>
<path d="M164.685 85.3492C164.004 85.8034 162.868 85.1221 161.96 83.9866C161.505 83.5324 161.278 82.8511 161.278 82.3969C161.278 82.1698 161.278 82.1698 161.278 82.1698V81.9427C161.278 81.7156 161.278 81.7156 161.278 81.4885C161.278 81.2614 161.505 81.0343 161.733 80.8072C161.96 80.8072 161.96 80.8072 162.187 80.8072C162.414 80.8072 162.414 80.8072 162.641 81.0343C163.322 81.2614 163.776 81.7156 164.458 82.3969C165.366 83.5324 165.593 84.895 164.685 85.3492Z" fill="#BEE38D"/>
<path d="M171.288 73.9943C170.606 73.9943 169.244 72.4046 167.881 69.9065C167.2 68.771 166.518 67.4084 166.291 66.5C166.064 65.5916 166.064 64.6832 166.518 64.6832C167.2 64.4561 168.789 65.8187 170.379 68.5439C171.06 69.9065 171.515 71.2691 171.742 72.1775C171.969 73.313 171.515 73.9943 171.288 73.9943Z" fill="#BEE38D"/>
<path d="M89.5293 88.0745C89.5293 88.9829 86.577 88.9829 83.8518 88.0745C81.1266 87.1661 78.8557 86.4848 78.8557 85.8035C78.8557 85.3493 79.5369 84.8951 80.6724 84.8951C81.8079 84.668 83.1706 84.8951 84.7602 85.3493C87.7125 86.2577 89.7564 87.1661 89.5293 88.0745Z" fill="#BEE38D"/>
<path d="M90.4389 79.4446C90.4389 80.353 88.8492 80.8072 87.2595 79.8988C85.8969 79.2175 85.2156 78.082 85.4427 77.4007C85.8969 76.7194 87.2595 76.7194 88.395 77.1736C89.7576 77.8549 90.666 78.7633 90.4389 79.4446Z" fill="#BEE38D"/>
<path d="M92.2495 65.3643C91.5682 65.5914 90.2056 64.0017 88.843 62.1849C88.1617 61.2765 87.7075 60.5952 87.2533 59.9139C87.0262 59.6868 87.0262 59.4597 86.7991 59.4597C86.572 59.2326 86.3449 59.2326 86.3449 59.0055C86.3449 58.7784 86.3449 58.5513 86.572 58.3242C86.7991 58.0971 87.4804 57.8701 88.1617 58.0972C89.2972 58.3243 90.4327 59.4597 91.3411 60.5952C92.7037 62.6391 92.9308 65.1372 92.2495 65.3643Z" fill="#BEE38D"/>
<path d="M115.649 49.6944C115.195 49.6944 114.967 49.2402 114.513 48.786C114.059 48.3318 113.605 47.4235 113.151 46.7422C112.015 45.1525 111.107 43.3357 111.788 42.6544C112.469 42.2002 114.059 42.8815 115.649 44.9254C116.33 46.0609 116.784 47.4235 116.557 48.3319C116.557 49.2403 116.103 49.6944 115.649 49.6944Z" fill="#BEE38D"/>
<path d="M111.782 70.3606C111.101 70.8148 109.966 70.3606 108.83 69.4522C107.695 68.5438 107.013 66.9541 107.695 66.4999C108.376 66.0457 109.511 66.2728 110.874 67.1812C112.237 68.3167 112.464 69.9064 111.782 70.3606Z" fill="#BEE38D"/>
<path d="M113.367 82.1697C112.912 82.851 111.55 83.0781 109.96 82.6239C109.052 82.3968 108.37 81.7155 107.916 81.0343C107.462 80.353 107.462 79.8988 107.689 79.6717C108.37 79.2175 109.506 79.2175 110.869 79.6717C112.458 80.1259 113.821 81.2614 113.367 82.1697Z" fill="#BEE38D"/>
<path d="M113.138 115.326C112.684 116.008 111.321 116.008 109.278 116.008C107.234 116.008 105.417 115.553 105.417 114.645C105.417 113.737 107.007 113.055 109.278 113.055C110.413 113.055 111.549 113.282 112.23 113.737C113.138 114.418 113.365 114.872 113.138 115.326Z" fill="#BEE38D"/>
<path d="M112.688 129.861C112.461 130.315 112.006 130.542 111.552 130.769C111.098 130.996 110.417 131.223 109.508 131.45C107.692 131.905 105.875 131.678 105.648 130.769C105.648 129.861 106.783 128.952 108.6 128.498C109.508 128.271 110.644 128.271 111.552 128.725C112.461 128.725 112.688 129.407 112.688 129.861Z" fill="#BEE38D"/>
<path d="M112.687 141.443C113.368 141.897 112.687 143.487 111.097 144.395C110.189 144.849 109.28 145.076 108.599 144.849C107.918 144.622 107.464 144.395 107.464 143.941C107.464 143.032 108.372 142.578 109.508 141.897C110.643 141.216 112.006 140.761 112.687 141.443Z" fill="#BEE38D"/>
<path d="M111.554 152.571C112.236 153.025 112.236 154.388 110.872 155.07C109.736 155.752 108.601 154.843 108.601 154.161C108.601 153.252 109.055 152.571 109.509 152.344C109.964 151.889 110.645 152.116 111.554 152.571Z" fill="#BEE38D"/>
<path d="M144.018 42.8816C144.472 43.5629 143.791 44.6984 142.883 46.061C141.974 47.4236 140.612 48.5591 139.93 48.1049C139.249 47.6507 139.249 46.061 140.385 44.2442C140.839 43.3358 141.747 42.6545 142.429 42.4274C143.337 42.4274 143.791 42.6545 144.018 42.8816Z" fill="#BEE38D"/>
<path d="M145.849 62.185C146.304 62.8663 145.395 64.2289 144.26 65.3644C142.897 66.727 141.534 67.4083 140.853 66.9541C140.172 66.4999 140.626 64.6831 142.216 63.3205C143.578 61.7308 145.395 61.5037 145.849 62.185Z" fill="#BEE38D"/>
<path d="M145.618 81.2615C145.845 82.1699 145.164 83.0782 144.028 83.7595C142.893 84.4408 141.53 84.6679 141.076 83.9866C140.622 83.3053 141.303 82.1699 142.439 81.2615C143.801 80.126 145.391 80.3531 145.618 81.2615Z" fill="#BEE38D"/>
<path d="M144.043 96.0229C143.816 96.9313 142.907 97.3855 141.545 97.1584C140.182 97.1584 139.274 96.4771 139.274 95.5687C139.274 94.6603 140.409 93.979 141.772 94.2061C143.362 94.2061 144.27 95.1145 144.043 96.0229Z" fill="#BEE38D"/>
<path d="M144.933 113.509C144.706 114.191 143.116 114.645 141.3 114.418C140.391 114.191 139.256 113.737 138.801 113.282C138.12 112.828 138.12 112.147 138.347 111.92C138.801 111.238 140.164 111.238 141.981 111.466C143.571 111.693 145.16 112.828 144.933 113.509Z" fill="#BEE38D"/>
<path d="M50.2254 253.403C49.9983 253.403 49.9983 252.721 49.9983 251.586C49.9983 251.132 49.9983 250.223 49.9983 249.542C50.2254 248.861 50.4525 247.952 50.6796 246.817C50.9067 245.908 51.588 244.773 52.0422 243.637C52.2693 243.183 52.7235 242.502 53.1777 242.048C53.6319 241.594 53.859 240.912 54.5403 240.458C56.5842 238.414 59.5365 236.824 62.943 236.824C66.3495 236.824 69.3018 237.96 71.5728 239.55C73.8438 241.139 75.4335 243.183 76.3419 245C77.2503 246.817 77.9316 248.407 77.9316 249.542C78.1587 250.678 78.1587 251.359 77.9316 251.359C77.7045 251.359 77.2503 250.905 76.7961 249.996C76.3419 249.088 75.4335 247.725 74.5251 246.363C73.3896 245 72.027 243.183 69.9831 242.048C67.9392 240.912 65.6682 240.004 62.943 240.004C60.4449 240.004 57.9468 241.139 56.3571 242.729C55.9029 242.956 55.4487 243.41 55.2216 243.865C54.9945 244.319 54.5403 244.773 54.3132 245C53.859 245.908 53.1777 246.817 52.9506 247.498C52.7235 248.407 52.2693 249.088 52.0422 249.769C51.8151 250.45 51.588 251.132 51.588 251.586C50.9067 252.949 50.4525 253.403 50.2254 253.403Z" fill="#0E8550"/>
<path d="M156.734 253.403C156.507 253.403 156.28 252.949 155.826 251.813C155.599 251.359 155.599 250.678 155.371 249.996C155.144 249.315 154.69 248.634 154.463 247.725C154.236 246.817 153.555 246.136 153.1 245.227C152.873 244.773 152.419 244.319 152.192 244.092C151.965 243.638 151.511 243.183 151.057 242.956C149.467 241.367 146.969 240.231 144.471 240.231C141.973 240.231 139.474 241.14 137.431 242.275C135.387 243.411 134.024 245.227 132.889 246.59C131.98 248.18 131.072 249.315 130.618 250.224C130.163 251.132 129.709 251.586 129.482 251.586C129.255 251.586 129.255 250.905 129.482 249.769C129.709 248.634 130.163 247.044 131.072 245.227C132.207 243.411 133.57 241.367 135.841 239.777C138.112 238.187 141.064 236.825 144.471 237.052C147.877 237.052 150.829 238.641 152.873 240.685C153.328 241.14 153.782 241.594 154.236 242.275C154.69 242.729 154.917 243.411 155.371 243.865C155.826 245 156.507 245.909 156.734 247.044C156.961 247.953 157.188 248.861 157.415 249.769C157.415 250.678 157.415 251.359 157.415 251.813C156.961 252.722 156.961 253.403 156.734 253.403Z" fill="#0E8550"/>
<path d="M110.648 246.363C111.102 246.363 111.329 248.407 111.102 251.813C110.875 253.403 110.648 255.447 109.513 257.491C109.058 258.626 108.377 259.535 107.242 260.67C106.106 261.579 104.743 262.487 103.154 262.487C101.564 262.487 99.9744 261.806 99.066 261.124C97.9305 260.216 97.2492 259.308 96.5679 258.399C95.2053 256.355 94.7511 254.538 94.2969 252.722C93.6156 249.315 94.0698 247.271 94.524 247.271C94.9782 247.271 95.4324 249.315 96.3408 252.04C96.795 253.403 97.7034 255.22 98.8389 256.582C99.9744 258.172 101.564 259.535 103.381 259.308C104.971 259.308 106.56 257.945 107.469 256.128C108.377 254.538 108.831 252.722 109.285 251.132C109.74 248.407 110.194 246.363 110.648 246.363Z" fill="#0E8550"/>
<path d="M156.514 178.006C156.514 178.006 156.968 177.779 157.877 178.006C158.331 178.006 158.785 178.233 159.466 178.46C159.693 178.46 160.148 178.687 160.602 178.914C161.056 179.141 161.51 179.596 161.737 180.05C161.964 180.504 161.737 181.185 161.283 181.639C161.056 181.867 160.829 182.094 160.602 182.321C160.375 182.548 160.148 182.775 159.921 182.775C159.012 183.456 157.877 183.91 156.741 184.365C154.47 185.273 151.745 185.954 148.793 186.409C136.983 188.68 120.405 189.361 102.01 189.134C83.8422 188.68 67.2639 187.09 55.4547 184.365C52.5024 183.683 49.7772 183.002 47.5062 182.094C46.3707 181.639 45.2352 181.185 44.3268 180.731C43.4184 180.277 42.51 179.823 41.8287 178.914C41.6016 178.46 41.1474 178.006 41.3745 177.552C41.3745 177.097 41.8287 176.87 42.0558 176.643C42.2829 176.416 42.7371 176.189 42.9642 176.189C43.1913 176.189 43.4184 175.962 43.6455 175.962C44.5539 175.735 45.0081 175.735 45.0081 175.962C45.0081 175.962 44.5539 176.189 43.8726 176.643C43.6455 176.643 43.4184 176.87 43.1913 176.87C42.9642 176.87 42.7371 177.097 42.7371 177.325C42.51 177.552 42.51 177.552 42.2829 177.779C42.2829 178.006 42.51 178.233 42.7371 178.46C43.1913 178.687 43.8726 179.141 44.781 179.596C45.6894 180.05 46.8249 180.277 47.7333 180.504C50.0043 181.185 52.5024 181.639 55.4547 182.094C67.0368 184.138 83.6151 185.5 101.556 185.954C119.724 186.409 136.075 185.954 147.884 184.138C150.837 183.683 153.335 183.229 155.606 182.548C157.65 181.867 159.921 180.958 159.693 180.05C159.466 179.596 159.012 179.368 158.558 178.914C158.104 178.687 157.422 178.46 157.195 178.233C156.968 178.233 156.514 178.006 156.514 178.006Z" fill="#0E8550"/>
<defs>
<linearGradient id="paint0_linear" x1="99.9339" y1="0" x2="99.9339" y2="330.236" gradientUnits="userSpaceOnUse">
<stop stop-color="white"/>
<stop offset="1" stop-color="white" stop-opacity="0"/>
</linearGradient>
</defs>
</svg>
