<svg width="267" height="338" viewBox="0 0 267 338" fill="none" xmlns="http://www.w3.org/2000/svg">
<g clip-path="url(#clip0)">
<path d="M260.887 31.9697C257.709 21.964 241.327 12.9344 233.014 22.4521C232.036 18.7914 231.058 18.3033 230.813 14.3986C230.569 10.738 228.368 7.32137 224.945 5.61307C220.544 3.41668 212.475 0.976242 207.585 6.87093e-05C199.516 -1.22015 197.071 5.61306 193.893 11.2261C192.181 14.3986 191.203 17.8152 191.203 21.4759C191.203 26.8448 192.67 29.2853 190.714 34.1661C186.069 23.4282 176.533 30.5055 169.198 31.9697C159.907 33.9221 162.352 29.5293 158.439 22.4521C154.283 14.8867 147.192 8.78563 138.635 6.83328C133.5 5.61306 128.61 7.56541 124.209 5.12498C120.297 2.92859 115.406 3.41667 111.983 6.10115C109.049 8.54158 107.827 12.4463 108.316 16.1069C108.805 20.9878 109.783 23.4282 109.783 28.5531C109.783 37.0947 112.961 45.1481 117.852 51.9813C121.275 56.6181 120.541 64.1835 124.209 69.5524C122.497 73.7012 118.341 74.9214 116.874 79.5582C115.651 83.2188 120.297 89.808 119.808 91.0282C112.717 88.8318 104.404 79.3141 97.3131 88.5878C95.1125 82.4867 91.934 76.6297 88.0219 71.2607C86.0658 68.8203 84.1098 66.3799 81.9092 63.9394C77.0191 58.8145 77.9972 59.7907 79.7087 53.2015C81.4202 46.8564 81.1757 40.2672 78.4862 34.1661C79.7087 27.577 74.5741 21.4759 67.9724 21.4759C58.4367 21.4759 42.5439 15.3748 40.3433 30.0174C39.8543 32.7019 41.0768 35.1423 40.5878 37.5827C37.6537 39.5351 35.6977 42.7076 35.4532 46.1243C33.0081 47.1004 31.0521 49.0528 29.8296 51.4932C27.3845 57.1062 29.5851 55.6419 23.4724 57.5943C18.5823 59.0586 15.1592 63.4513 15.6483 68.5762C10.0246 68.0882 4.6455 71.9929 3.91199 77.8499C3.17847 83.7069 -1.46713 87.6116 -0.000101537 94.4448C0.97792 98.8376 5.37902 105.915 9.78012 107.623C14.9147 109.576 20.0493 106.159 25.184 105.427C27.629 106.891 30.8076 107.135 33.4972 106.403C39.8543 104.695 37.8982 102.986 43.5219 107.379C46.7004 110.064 52.8131 113.236 53.5466 116.653C54.7691 122.266 60.3928 125.682 66.0164 124.706C64.0603 128.123 64.3048 132.272 66.5054 135.444C70.173 140.813 66.5054 141.301 65.0384 146.67C63.8158 150.819 65.0384 155.456 68.7059 158.14C71.8845 160.581 66.9944 165.705 68.7059 170.586C69.9285 174.247 73.107 176.687 76.7746 177.42C75.7966 182.3 71.64 182.056 67.9724 185.229C64.5493 188.157 62.8378 191.818 63.8158 201.092C64.5494 207.193 65.2829 213.538 66.0164 219.639C67.2389 229.645 68.7059 239.651 69.9285 249.656C73.107 271.864 74.8186 296.757 82.6428 317.989C86.7994 329.215 109.538 330.923 118.585 332.387C130.81 334.095 143.28 335.072 155.505 334.095C171.154 332.875 187.536 328.97 199.272 317.744C206.363 310.911 206.363 297.001 207.83 287.727C212.72 258.442 221.522 201.58 220.299 194.259C219.566 189.866 216.876 186.205 213.209 183.765C205.14 178.152 194.137 176.443 184.602 174.735C188.025 168.39 192.181 162.533 196.093 156.432C197.316 155.456 199.516 150.819 200.25 150.575C205.385 149.355 208.808 144.718 208.808 139.349C208.808 133.492 215.654 130.563 214.431 122.998C213.453 117.385 211.986 115.921 212.964 109.82C213.942 104.207 214.431 98.8376 214.676 93.2246C214.92 88.8318 216.143 85.9033 216.632 81.7546C220.544 81.0225 223.478 78.0939 224.945 74.4333C232.036 72.2369 241.816 71.7488 241.571 61.499C241.327 54.1777 249.885 58.3264 254.041 53.2015C257.953 48.0766 264.555 39.047 260.887 31.9697C260.887 31.9697 262.11 34.4102 260.887 31.9697Z" fill="url(#paint0_linear)" fill-opacity="0.14"/>
<path d="M53.3018 59.3029C44.7441 36.6069 54.7689 27.3332 64.3046 32.4581C73.8403 37.5831 74.3293 52.7137 62.104 64.9159C55.7469 65.648 53.3018 59.3029 53.3018 59.3029Z" fill="#8FC745"/>
<path d="M39.8542 87.612C25.4283 75.6539 8.06846 83.2192 10.0245 92.4929C11.9805 101.766 43.2773 90.5405 43.2773 90.5405L39.8542 87.612Z" fill="#8FC745"/>
<path d="M137.656 181.324C97.5574 181.324 72.8623 189.866 72.8623 194.747C72.8623 199.627 84.8431 295.781 91.9338 314.572C95.1123 319.697 168.953 337.268 193.648 309.447C196.827 303.346 209.785 206.705 210.763 196.455C211.741 186.205 171.643 181.324 137.656 181.324Z" fill="#F7B76D"/>
<path d="M210.764 196.699C211.253 192.55 204.406 189.134 194.137 186.693L163.574 200.604C169.442 205.485 194.382 231.841 204.651 242.823C207.585 220.859 210.275 200.848 210.764 196.699Z" fill="#96685A"/>
<path d="M119.318 315.304L114.917 321.893C139.612 326.286 177.266 327.75 193.404 309.447C194.626 306.762 197.805 288.215 200.983 266.739L119.318 315.304Z" fill="#ABE6FF"/>
<path d="M79.464 237.455L77.7524 232.818C81.909 263.323 87.5327 303.102 91.9338 314.328C93.4008 316.769 111.494 322.138 132.766 323.846L79.464 237.455Z" fill="#96685A"/>
<path d="M106.115 199.383C92.6673 200.36 80.442 196.455 73.3513 193.526C73.1068 194.014 72.8623 194.503 72.8623 194.747C72.8623 197.187 75.5519 220.127 79.2195 245.752L106.115 199.383Z" fill="#FFE5DE"/>
<path d="M209.296 193.282C202.206 185.473 167.486 181.324 137.656 181.324C97.5574 181.324 72.8623 189.866 72.8623 194.747V194.991C78.975 199.871 103.67 203.288 144.258 204.508C171.398 204.996 211.252 198.407 209.296 193.282Z" fill="#FFC98C"/>
<path d="M146.214 58.0827C123.964 58.0827 111.494 22.9405 126.165 17.0834C140.835 11.2264 153.305 26.3571 152.327 36.851C151.349 47.3448 153.794 55.3983 153.794 55.3983L146.214 58.0827Z" fill="#8FC745"/>
<path d="M190.47 52.2251C199.027 35.3861 227.146 29.285 231.791 44.1717C236.437 59.0583 225.678 72.4807 197.805 63.207C191.203 58.8143 190.47 52.2251 190.47 52.2251Z" fill="#8FC745"/>
<path d="M209.052 38.8029C194.382 23.1842 201.961 10.982 210.519 11.7141C219.077 12.4463 228.613 23.6723 215.165 38.3149C211.008 40.9993 209.052 38.8029 209.052 38.8029Z" fill="#ADD676"/>
<path d="M229.591 45.3927C237.659 27.3335 249.151 27.3335 251.596 34.8988C254.041 42.4642 239.615 50.5176 229.591 49.7855C229.591 48.5652 229.591 45.3927 229.591 45.3927Z" fill="#ADD676"/>
<path d="M135.456 123.487C136.19 107.624 122.742 82.4876 139.368 63.6963C155.994 44.905 179.956 29.5302 195.849 53.6905C211.742 77.8508 204.651 127.148 185.335 154.968C166.019 182.789 165.53 193.771 165.53 193.771C165.53 193.771 149.393 195.968 147.437 194.748C145.481 193.527 135.456 123.487 135.456 123.487Z" fill="#ADD676"/>
<path d="M105.137 192.062C65.0382 170.099 71.8844 94.6892 111.25 99.326C150.615 103.963 170.665 173.759 151.593 194.747C135.7 199.14 113.695 198.652 105.137 192.062Z" fill="#8FC745"/>
<path d="M91.6892 107.135C88.0216 70.5286 52.3238 45.8802 36.431 66.6239C20.5381 87.3676 75.5518 122.51 86.7991 113.236C92.1782 108.355 91.6892 107.135 91.6892 107.135Z" fill="#ADD676"/>
<path d="M95.3568 246.729C95.8458 246.729 96.0903 248.925 97.8019 251.853C99.5134 254.782 103.181 257.955 108.316 258.443C110.761 258.687 113.206 258.443 115.162 257.467C117.118 256.49 118.34 255.27 119.074 253.806C120.541 250.877 120.052 248.437 120.541 248.437C120.785 248.437 121.03 248.925 121.274 249.901C121.519 250.877 121.763 252.586 121.03 254.538C120.296 256.49 118.585 258.687 116.14 259.907C113.695 261.127 110.761 261.859 107.582 261.371C104.404 261.127 101.714 259.907 99.5134 258.199C97.3129 256.49 96.0903 254.294 95.3568 252.586C94.3788 249.169 95.1123 246.729 95.3568 246.729Z" fill="#D4780F"/>
<path d="M191.937 246.729C192.181 246.729 192.915 249.169 191.448 252.83C190.714 254.782 189.492 256.734 187.291 258.443C185.09 260.151 182.401 261.371 179.222 261.615C176.044 261.859 173.11 261.371 170.665 260.151C168.22 258.931 166.508 256.734 165.774 254.782C165.041 252.83 165.285 251.121 165.53 250.145C165.774 249.169 166.019 248.681 166.263 248.681C166.752 248.681 166.263 251.121 167.731 254.05C168.464 255.514 169.931 256.734 171.643 257.711C173.599 258.687 176.044 258.931 178.489 258.687C183.623 258.199 187.291 255.026 189.003 252.098C191.203 248.925 191.448 246.729 191.937 246.729Z" fill="#D4780F"/>
<path d="M151.104 253.805C151.593 253.805 151.838 255.758 151.593 258.686C151.593 259.418 151.593 260.394 151.104 261.127C150.86 262.103 150.615 263.079 150.126 264.055C149.637 265.031 148.904 266.007 147.926 266.984C147.437 267.472 146.948 267.96 146.214 268.204L145.236 268.692C144.747 268.692 144.503 268.692 144.014 268.692C143.28 268.692 142.547 268.448 141.813 268.204C141.08 267.96 140.591 267.472 140.102 267.228C139.613 266.74 139.124 266.496 138.635 266.007C138.146 265.519 137.901 265.031 137.656 264.543C136.434 262.591 135.945 260.883 135.7 259.418C135.7 258.686 135.456 257.954 135.456 257.222C135.456 256.49 135.456 256.002 135.456 255.758C135.456 254.781 135.7 254.537 135.945 254.293C136.189 254.293 136.434 254.781 136.678 255.514C136.923 256.002 136.923 256.49 137.167 256.978C137.412 257.466 137.656 258.198 137.901 258.686C138.39 259.906 139.124 261.371 140.102 262.835C141.08 264.299 142.547 265.275 144.014 265.275C145.481 265.275 146.703 264.055 147.437 262.591C147.926 261.859 148.17 261.127 148.415 260.394C148.659 259.662 148.904 258.93 149.148 258.198C150.126 255.758 150.615 253.805 151.104 253.805Z" fill="#D4780F"/>
<path d="M94.1342 196.699C100.491 192.794 105.871 191.086 111.25 192.794C116.629 194.502 122.008 195.235 122.008 195.235C128.854 191.574 132.277 193.77 134.967 195.235C144.991 190.842 154.038 194.502 154.038 194.502C163.329 188.645 184.112 191.33 189.98 196.455C171.398 202.068 105.626 199.139 94.1342 196.699Z" fill="#96685A"/>
<path d="M192.426 190.599C192.426 190.599 192.915 190.599 193.648 190.599C194.137 190.599 194.626 190.843 195.115 191.087C195.36 191.087 195.604 191.331 196.093 191.575C196.582 191.819 197.071 192.063 197.316 192.307C197.805 192.551 198.049 193.039 198.049 193.771C198.049 194.259 197.56 194.748 197.071 195.236C195.849 195.968 194.871 196.212 193.648 196.456C191.448 196.944 188.758 197.432 186.069 197.92C174.821 199.384 159.173 200.116 141.813 200.361C124.453 200.605 108.805 199.872 97.5575 198.164C94.6235 197.676 92.1784 197.188 89.9779 196.7C88.7553 196.456 87.7773 196.212 86.5548 195.724C85.3323 195.236 84.3542 194.503 84.5987 193.527C85.0877 192.795 85.8213 192.307 86.5548 192.063C87.2883 191.819 87.7773 191.819 88.2663 191.575C88.9998 191.575 89.4888 191.575 89.4888 191.575C89.4888 191.575 88.9998 191.819 88.2663 192.307C87.5328 192.795 86.5548 192.795 86.0658 193.527C86.0658 193.771 86.3103 194.015 86.5548 194.015C86.7993 194.015 87.0438 194.259 87.2883 194.259C87.7773 194.503 88.9998 194.748 89.9779 194.748C92.1784 194.992 94.6235 195.48 97.5575 195.724C108.805 196.7 124.453 197.188 141.569 196.944C158.684 196.7 174.332 196.456 185.58 195.48C188.269 195.236 190.959 194.992 193.159 194.503C194.137 194.259 195.36 194.015 195.604 193.771C195.849 193.771 196.093 193.527 196.338 193.283C196.338 193.039 196.338 192.795 196.093 192.551C195.849 192.307 195.36 192.063 194.871 191.819C194.382 191.575 193.893 191.331 193.404 191.087C192.67 190.843 192.426 190.599 192.426 190.599Z" fill="#D4780F"/>
<path d="M105.626 94.4452C106.604 94.4452 107.338 97.1297 107.338 100.79C107.338 104.451 106.849 107.135 105.871 107.135C104.893 107.135 104.159 104.451 104.159 100.79C104.159 97.1297 104.648 94.4452 105.626 94.4452Z" fill="#BEE38D"/>
<path d="M122.252 102.011C122.986 102.499 122.008 104.695 120.785 106.891C119.563 109.088 118.585 111.04 117.851 110.796C116.873 110.796 116.629 107.868 118.096 105.183C119.563 102.743 121.763 101.523 122.252 102.011Z" fill="#BEE38D"/>
<path d="M137.412 116.654C137.901 117.386 136.678 119.094 135.211 120.558C133.744 122.023 133.011 123.243 132.033 123.243C131.544 123.243 131.299 122.511 131.299 121.535C131.299 120.558 131.788 119.338 132.766 118.362C134.722 116.41 136.923 116.166 137.412 116.654Z" fill="#BEE38D"/>
<path d="M147.192 134.956C147.192 135.444 146.703 135.932 146.214 136.42C145.48 136.909 144.747 137.397 143.524 138.129C142.302 138.617 141.079 139.105 139.857 138.861C138.879 138.861 138.145 138.373 138.145 137.885C138.145 137.397 138.634 137.153 139.368 136.664C140.101 136.176 140.835 135.688 142.057 135.2C143.28 134.712 144.502 134.224 145.48 134.224C146.458 134.224 147.192 134.712 147.192 134.956Z" fill="#BEE38D"/>
<path d="M151.593 150.087C152.082 150.819 150.615 152.283 148.415 153.259C146.214 154.235 144.013 153.747 143.769 152.771C143.769 151.795 145.236 151.063 147.192 150.087C149.393 149.598 151.349 149.354 151.593 150.087Z" fill="#BEE38D"/>
<path d="M156.483 170.83C156.483 171.806 154.772 172.539 152.571 172.295C150.371 172.295 148.659 171.318 148.659 170.342C148.904 169.366 150.615 169.122 152.571 169.122C154.772 169.366 156.483 169.854 156.483 170.83Z" fill="#BEE38D"/>
<path d="M93.401 111.04C93.89 111.284 94.1345 111.773 94.379 112.505C94.868 113.237 95.357 114.213 96.0905 115.433C96.8241 116.653 97.3131 117.874 97.5576 119.094C97.8021 120.07 97.5576 120.802 97.3131 121.046C96.5796 121.29 94.868 119.826 93.401 117.142C92.6675 115.921 92.1785 114.213 92.1785 112.993C92.1785 111.529 92.912 110.796 93.401 111.04Z" fill="#BEE38D"/>
<path d="M110.516 119.093C111.25 119.581 111.494 120.802 111.005 122.266C110.516 123.486 109.783 124.462 109.049 124.462C108.071 124.462 107.338 122.754 108.071 121.29C108.56 119.581 109.783 118.849 110.516 119.093Z" fill="#BEE38D"/>
<path d="M123.475 130.076C123.964 130.808 123.475 132.516 122.008 134.468C121.274 135.445 120.296 136.421 119.563 136.665C118.585 137.153 118.096 136.909 117.851 136.665C117.362 135.933 118.34 134.468 119.563 132.516C120.785 130.808 122.986 129.588 123.475 130.076Z" fill="#BEE38D"/>
<path d="M130.81 148.379C131.299 149.111 130.077 150.331 128.61 150.819C127.143 151.307 125.92 151.063 125.431 150.331C124.942 149.599 126.165 148.135 127.632 147.891C129.099 147.402 130.321 147.647 130.81 148.379Z" fill="#BEE38D"/>
<path d="M139.857 166.682C139.613 167.658 137.901 167.902 135.7 168.39C133.5 168.634 131.299 168.39 131.299 167.414C131.299 166.438 132.766 165.462 135.211 165.218C137.901 164.974 140.102 165.95 139.857 166.682Z" fill="#BEE38D"/>
<path d="M141.079 185.473C141.079 186.449 140.101 187.181 138.634 186.693C137.412 186.449 136.678 185.473 136.923 184.497C137.167 183.765 138.39 183.277 139.368 183.521C140.346 184.009 141.079 184.497 141.079 185.473Z" fill="#BEE38D"/>
<path d="M82.3983 117.629C82.8873 116.897 85.0879 117.629 86.7994 119.337C88.5109 120.801 89.7334 122.266 89.4889 122.998C89.2444 123.73 86.7994 123.486 84.8433 121.778C82.8873 120.069 81.9093 118.361 82.3983 117.629Z" fill="#BEE38D"/>
<path d="M96.5793 139.105C96.3348 138.373 97.3128 136.908 99.2689 136.664C101.225 136.42 102.936 137.397 102.692 138.373C102.447 139.349 101.225 139.593 99.7579 139.837C98.5353 140.081 97.0683 140.081 96.5793 139.105Z" fill="#BEE38D"/>
<path d="M100.981 152.527C100.492 151.795 101.714 150.087 103.426 148.867C105.382 147.403 107.338 146.914 107.827 147.647C108.316 148.379 107.093 150.087 105.382 151.307C103.67 152.527 101.714 153.26 100.981 152.527Z" fill="#BEE38D"/>
<path d="M108.56 165.462C107.827 164.974 108.071 163.022 109.538 161.557C111.005 160.093 112.961 159.849 113.45 160.581C113.939 161.313 112.961 162.778 111.739 163.754C110.516 165.218 109.294 165.95 108.56 165.462Z" fill="#BEE38D"/>
<path d="M112.472 179.372C111.739 178.884 111.739 177.175 113.206 175.223C113.939 174.247 114.917 173.515 115.895 173.515C116.629 173.271 117.362 173.515 117.607 174.003C117.851 174.735 116.873 175.955 115.895 177.419C114.673 178.64 113.45 179.86 112.472 179.372Z" fill="#BEE38D"/>
<path d="M122.008 190.843C121.275 190.599 120.786 189.622 121.03 188.402C121.275 187.426 122.253 186.694 123.231 187.182C123.964 187.426 124.453 188.402 124.209 189.622C123.964 190.843 122.742 191.087 122.008 190.843Z" fill="#BEE38D"/>
<path d="M74.5738 129.832C74.5738 129.1 77.2633 128.124 80.4419 128.368C83.865 128.612 86.31 130.564 85.821 131.296C85.5765 132.272 83.1314 131.784 80.1974 131.54C77.2633 131.296 74.5738 130.808 74.5738 129.832Z" fill="#BEE38D"/>
<path d="M74.5738 150.575C74.3293 150.331 74.0848 149.599 74.5738 148.867C75.0628 148.135 76.0408 147.159 77.2634 146.915C79.9529 146.426 81.6645 147.647 81.4199 148.379C81.1754 149.355 79.4639 149.599 77.9969 150.087C77.2634 150.331 76.5298 150.331 76.0408 150.575C75.5518 150.819 75.0628 150.819 74.5738 150.575Z" fill="#BEE38D"/>
<path d="M77.997 167.659C77.7524 167.414 77.7524 166.438 78.7305 165.218C79.464 163.998 80.931 162.29 82.8871 161.069C86.5547 158.385 89.9777 157.409 90.4668 158.141C90.9558 158.873 88.2662 161.313 84.8431 163.754C81.1755 165.706 78.7305 168.147 77.997 167.659Z" fill="#BEE38D"/>
<path d="M86.5548 181.081C85.8213 180.593 86.3103 178.396 88.0219 176.444C89.7334 174.492 91.6895 173.516 92.423 174.248C93.1565 174.98 92.1785 176.688 90.4669 178.64C88.7554 180.105 87.2884 181.325 86.5548 181.081Z" fill="#BEE38D"/>
<path d="M96.3349 190.354C95.6013 189.866 96.0904 187.914 97.5574 185.962C99.0244 184.009 100.98 183.277 101.714 183.765C102.447 184.497 101.469 186.206 100.247 187.914C98.5354 189.622 97.0684 190.842 96.3349 190.354Z" fill="#BEE38D"/>
<path d="M39.6097 55.3982C40.5878 55.1542 41.5658 56.3744 42.7883 58.5708C43.2773 59.547 43.7663 60.7672 43.7663 61.7433C43.7663 62.7195 43.5218 63.2076 43.0328 63.4516C42.0548 63.6957 41.0768 62.4755 39.8542 60.2791C39.3652 59.3029 38.8762 58.0827 38.8762 57.1065C38.8762 56.1304 39.1207 55.3982 39.6097 55.3982Z" fill="#BEE38D"/>
<path d="M55.9917 56.8619C56.9697 56.8619 57.7032 58.5702 57.7032 60.5226C57.7032 62.4749 56.9697 64.1832 55.9917 64.1832C55.0137 64.1832 54.2802 62.4749 54.2802 60.5226C54.2802 58.5702 55.0137 56.8619 55.9917 56.8619Z" fill="#BEE38D"/>
<path d="M72.1289 68.333C72.6179 69.0651 71.6399 70.7734 70.1729 72.4817C68.4613 74.19 66.7498 75.1662 66.0163 74.4341C65.2827 73.946 66.0163 71.7496 67.7278 70.0413C69.6839 68.333 71.6399 67.6009 72.1289 68.333Z" fill="#BEE38D"/>
<path d="M79.2195 80.5349C79.464 81.5111 78.4859 82.4872 77.0189 83.4634C75.7964 84.4396 74.0849 85.1717 73.3513 84.6836C72.8623 83.9515 73.3513 82.4872 75.0629 81.023C76.7744 79.5587 78.975 79.8028 79.2195 80.5349Z" fill="#BEE38D"/>
<path d="M87.2881 90.2964C87.5326 91.2726 85.8211 92.2487 83.865 92.4928C81.909 92.7368 80.1974 92.4928 79.9529 91.5166C79.7084 90.5404 81.42 89.5643 83.376 89.3202C85.332 89.0762 87.0436 89.5643 87.2881 90.2964Z" fill="#BEE38D"/>
<path d="M92.6673 102.987C92.9118 103.719 91.4447 104.939 89.4887 104.939C87.5326 104.939 86.3101 103.963 86.3101 102.987C86.5546 102.011 87.7772 101.767 89.4887 101.767C90.9557 101.522 92.4228 102.011 92.6673 102.987Z" fill="#BEE38D"/>
<path d="M49.879 64.6717C50.857 64.6717 51.5905 66.136 51.5905 68.0883C51.835 70.0407 51.1015 71.749 50.1235 71.749C49.1455 71.749 48.412 70.2847 48.412 68.3324C48.1674 66.38 48.901 64.6717 49.879 64.6717Z" fill="#BEE38D"/>
<path d="M62.3486 76.1414C63.0822 76.8736 62.5931 78.0938 62.1041 79.314C61.6151 80.2902 60.8816 81.5104 59.9036 81.5104C59.4146 81.5104 58.9256 81.2664 58.9256 80.5342C58.6811 79.8021 58.6811 78.8259 59.1701 77.8497C60.1481 75.8974 61.8596 75.4093 62.3486 76.1414Z" fill="#BEE38D"/>
<path d="M69.4393 87.3685C69.9283 88.1006 69.1948 89.3208 68.2167 90.053C67.2387 90.7851 66.0162 90.7851 65.2827 90.297C64.5491 89.8089 65.0382 88.1006 66.2607 87.3685C67.4832 86.6364 68.9503 86.8804 69.4393 87.3685Z" fill="#BEE38D"/>
<path d="M81.6646 102.498C81.4201 103.475 79.953 103.719 78.2415 103.719C76.2855 103.719 74.8184 102.986 74.8184 102.01C74.8184 101.034 76.2855 100.302 78.2415 100.546C80.1975 100.546 81.6646 101.766 81.6646 102.498Z" fill="#BEE38D"/>
<path d="M25.6727 67.8441C25.6727 66.8679 28.6068 66.1358 32.2743 66.6239C35.9419 67.112 38.6315 69.0643 38.1425 69.7965C37.6535 70.5286 34.9639 70.2845 31.7853 69.7965C28.6068 69.5524 25.6727 68.8203 25.6727 67.8441Z" fill="#BEE38D"/>
<path d="M39.6098 78.5829C39.6098 77.6067 41.5659 76.8746 44.2554 77.6067C46.7005 78.3388 47.923 80.2912 47.434 81.0233C46.945 81.7554 45.2335 81.2673 43.2774 80.7793C41.3214 80.0471 39.6098 79.559 39.6098 78.5829Z" fill="#BEE38D"/>
<path d="M49.8789 94.4454C49.3899 94.2014 49.1454 93.7133 49.1454 92.9812C49.1454 92.249 49.6344 91.0288 50.857 90.5407C52.0795 89.8086 53.302 90.0527 53.791 90.2967C54.5245 90.5407 54.769 91.0288 54.769 91.5169C54.5245 92.4931 53.0575 92.7371 52.5685 93.2252C51.5905 93.7133 50.6124 94.6895 49.8789 94.4454Z" fill="#BEE38D"/>
<path d="M54.7691 104.451C54.0356 103.963 54.7691 102.255 56.2361 100.547C57.7032 98.8384 59.4147 98.1063 60.1482 98.8384C60.8817 99.5706 60.1482 101.279 58.6812 102.743C57.2141 104.207 55.2581 105.184 54.7691 104.451Z" fill="#BEE38D"/>
<path d="M63.5711 115.188C62.8376 114.944 63.0821 112.504 64.7937 110.796C66.5052 109.087 68.4612 108.355 68.9503 109.087C69.4393 109.819 68.4612 111.528 67.2387 112.992C65.7717 114.456 64.5491 115.432 63.5711 115.188Z" fill="#BEE38D"/>
<path d="M75.7966 117.874C75.063 117.63 74.8185 115.922 75.3075 114.213C75.7966 112.749 76.5301 111.285 77.2636 111.285C78.2416 111.285 78.9751 112.993 78.2416 114.945C77.9971 117.142 76.7746 118.362 75.7966 117.874Z" fill="#BEE38D"/>
<path d="M131.788 60.5229C132.522 60.2788 133.989 61.7431 136.189 63.2073C138.145 64.9156 140.101 66.624 139.612 67.3561C139.123 68.0882 136.678 67.6001 134.233 65.6478C133.011 64.6716 132.033 63.4514 131.788 62.4752C131.299 61.499 131.299 60.7669 131.788 60.5229Z" fill="#BEE38D"/>
<path d="M148.904 50.5173C149.882 50.7614 150.126 52.4697 150.86 54.178C151.593 56.1303 152.082 58.0827 151.349 58.5708C150.615 59.0589 148.659 57.8387 147.926 55.1542C147.437 53.934 147.437 52.4697 147.681 51.7376C147.926 50.7614 148.415 50.5173 148.904 50.5173Z" fill="#BEE38D"/>
<path d="M162.352 42.2194C163.33 42.4634 163.574 43.9277 163.574 45.636C163.574 47.3443 162.841 49.0526 161.863 49.0526C160.885 49.0526 160.151 47.5883 160.396 45.3919C160.396 43.6836 161.374 42.2194 162.352 42.2194Z" fill="#BEE38D"/>
<path d="M181.423 37.8268C182.156 38.3149 181.667 40.5113 180.2 42.7076C178.978 44.904 177.755 46.3683 176.777 46.3683C176.044 46.3683 176.044 43.6838 177.511 41.2434C178.978 38.8029 180.689 37.5827 181.423 37.8268Z" fill="#BEE38D"/>
<path d="M197.316 48.0772C197.56 48.8094 196.093 50.0296 193.893 51.0057C191.692 51.9819 189.247 51.7379 189.247 50.7617C189.247 49.7855 190.714 49.0534 192.67 48.0772C194.871 47.101 197.071 47.101 197.316 48.0772Z" fill="#BEE38D"/>
<path d="M203.918 67.6001C203.918 68.5763 202.45 69.3084 200.494 69.0644C198.538 69.0644 196.827 68.0882 197.071 67.112C197.316 66.1358 198.783 65.8918 200.494 65.8918C202.206 65.8918 203.918 66.6239 203.918 67.6001Z" fill="#BEE38D"/>
<path d="M206.362 81.2664C205.629 81.7545 204.895 81.7545 203.917 81.5105C203.184 81.2664 202.206 80.7783 201.717 80.0462C201.472 79.3141 202.695 78.0939 204.406 78.3379C205.384 78.582 206.118 79.0701 206.362 79.8022C206.851 80.5343 206.607 81.2664 206.362 81.2664Z" fill="#BEE38D"/>
<path d="M204.162 102.987C203.428 103.719 202.206 103.231 200.983 102.254C199.761 101.278 199.027 100.058 199.272 99.326C199.516 98.5939 201.472 98.5938 202.939 99.57C204.406 100.79 204.895 102.254 204.162 102.987Z" fill="#BEE38D"/>
<path d="M203.917 127.635C203.428 127.635 203.184 127.147 202.695 126.415C202.206 125.682 201.717 124.95 200.983 123.974C200.25 122.998 199.516 122.022 199.027 121.046C198.538 120.069 198.538 119.337 199.027 119.093C199.761 118.605 201.472 119.581 203.428 122.022C204.406 123.242 204.895 124.706 204.895 125.926C204.651 127.147 204.162 127.879 203.917 127.635Z" fill="#BEE38D"/>
<path d="M198.049 141.057C197.071 141.301 196.093 140.325 195.604 138.861C195.115 137.396 195.115 136.176 195.849 135.688C196.582 135.2 197.805 136.176 198.538 137.641C199.272 139.349 199.027 141.057 198.049 141.057Z" fill="#BEE38D"/>
<path d="M189.98 148.868C189.247 149.112 188.024 148.135 186.802 146.671C185.824 144.963 185.335 143.255 186.313 142.767C187.046 142.278 188.513 143.255 189.491 144.963C190.714 146.671 190.714 148.624 189.98 148.868Z" fill="#BEE38D"/>
<path d="M180.934 161.07C179.956 161.07 179.467 159.605 178.733 158.141C178.244 156.677 177.511 155.457 178 154.724C178.244 154.48 178.978 154.236 179.711 154.724C180.445 154.968 181.178 155.945 181.667 157.165C182.645 159.361 181.912 161.07 180.934 161.07Z" fill="#BEE38D"/>
<path d="M175.31 170.831C174.577 171.075 173.599 170.343 173.11 169.366C172.865 168.146 173.11 167.17 174.088 166.926C174.821 166.682 175.799 167.414 176.288 168.39C176.777 169.366 176.044 170.587 175.31 170.831Z" fill="#BEE38D"/>
<path d="M166.019 185.961C165.041 185.961 164.063 184.741 163.574 182.544C163.085 180.348 163.818 178.396 164.797 178.64C165.775 178.64 166.508 180.104 166.753 182.056C167.242 184.009 166.753 185.717 166.019 185.961Z" fill="#BEE38D"/>
<path d="M134.233 84.9281C133.744 85.6602 132.033 85.6602 130.077 85.1721C127.876 84.684 126.409 83.4638 126.654 82.4876C126.898 81.7555 128.854 81.2674 131.055 81.9995C133.011 82.7317 134.478 84.1959 134.233 84.9281Z" fill="#BEE38D"/>
<path d="M135.7 95.1767C135.7 96.1529 134.233 96.885 132.277 96.885C130.321 96.885 128.854 96.1529 128.854 95.1767C128.854 94.2005 130.321 93.4684 132.277 93.4684C134.233 93.4684 135.7 94.4446 135.7 95.1767Z" fill="#BEE38D"/>
<path d="M134.478 105.671C134.722 106.403 133.255 107.623 131.299 107.623C129.343 107.623 128.121 106.647 128.121 105.671C128.365 104.695 129.588 104.451 131.299 104.451C133.011 104.451 134.233 104.939 134.478 105.671Z" fill="#BEE38D"/>
<path d="M182.645 49.5413C183.379 50.2734 182.401 51.9817 181.423 53.446C180.2 54.9103 179.222 56.1305 178.244 56.1305C177.266 55.8864 177.266 53.69 178.733 51.7377C180.2 49.7854 181.912 49.0532 182.645 49.5413Z" fill="#BEE38D"/>
<path d="M188.024 65.8917C188.513 66.6239 187.78 68.0881 186.313 69.3083C184.846 70.5285 183.379 71.0166 182.645 70.2845C181.912 69.5524 182.645 68.0881 184.112 66.6238C185.579 65.6477 187.291 65.1596 188.024 65.8917Z" fill="#BEE38D"/>
<path d="M189.247 94.6896C189.002 95.4217 187.291 95.6658 185.579 95.1777C183.623 94.6896 182.156 93.9575 182.401 92.9813C182.645 92.0051 184.112 91.5171 186.313 92.0051C188.024 92.7373 189.491 93.9575 189.247 94.6896Z" fill="#BEE38D"/>
<path d="M183.379 113.969C183.379 114.701 182.156 115.677 179.956 114.945C178.978 114.457 178.244 113.481 178.244 112.748C178.244 112.016 178.489 111.528 178.978 111.528C179.467 111.528 179.956 111.528 180.2 111.772C180.689 111.772 180.934 112.016 181.423 112.016C182.156 112.26 183.379 112.992 183.379 113.969Z" fill="#BEE38D"/>
<path d="M178.244 132.272C177.755 133.004 176.533 133.249 175.31 133.004C174.088 132.76 173.11 132.272 172.865 131.54C172.621 130.808 174.088 129.588 175.799 129.832C177.755 130.076 178.489 131.54 178.244 132.272Z" fill="#BEE38D"/>
<path d="M174.821 145.938C174.088 146.426 173.11 146.182 172.376 145.45C171.643 144.718 171.398 143.985 171.643 143.009C171.887 142.033 173.599 142.033 174.577 143.009C175.555 144.229 175.555 145.694 174.821 145.938Z" fill="#BEE38D"/>
<path d="M166.263 160.337C165.285 160.337 164.796 159.117 164.307 157.897C163.818 156.432 163.818 155.456 164.307 154.724C164.796 153.992 166.752 154.968 167.241 156.921C167.975 158.629 167.241 160.337 166.263 160.337Z" fill="#BEE38D"/>
<path d="M193.648 112.749C193.403 112.993 192.914 113.237 192.425 113.237C192.181 113.481 191.936 113.481 191.692 113.725C191.203 113.725 189.98 114.213 189.247 113.725C189.002 113.481 188.758 112.993 189.002 112.505C189.247 112.017 189.736 111.285 190.714 110.797C191.692 110.553 192.914 111.041 193.403 111.529C194.137 111.773 193.892 112.505 193.648 112.749Z" fill="#BEE38D"/>
<path d="M194.871 131.296C194.626 132.028 192.426 132.028 190.225 130.808C188.025 129.832 186.558 128.368 187.047 127.635C187.536 126.903 189.492 126.903 191.692 128.124C193.648 129.1 195.115 130.564 194.871 131.296Z" fill="#BEE38D"/>
<path d="M162.351 55.6427C163.085 55.1546 164.796 55.8867 165.285 58.0831C166.019 60.0355 165.041 61.9878 164.307 61.7438C163.329 61.7438 162.84 60.5236 162.351 59.0593C161.862 57.8391 161.618 56.3748 162.351 55.6427Z" fill="#BEE38D"/>
<path d="M148.415 65.8924C149.148 65.4043 150.86 66.1364 152.082 68.0888C153.305 70.0411 153.305 72.2375 152.571 72.4816C151.593 72.7256 150.615 71.5054 149.393 70.0411C148.17 68.3328 147.681 66.3805 148.415 65.8924Z" fill="#BEE38D"/>
<path d="M143.525 77.6063C143.525 76.6301 144.992 75.898 146.703 76.6301C148.415 77.3622 149.148 79.0705 148.415 79.5586C147.681 80.0467 146.703 80.0467 145.481 79.5586C144.503 79.3146 143.525 78.5824 143.525 77.6063Z" fill="#BEE38D"/>
<path d="M143.035 90.7841C143.524 90.0519 144.747 89.8079 145.969 90.0519C147.192 90.296 148.414 91.0281 148.414 92.0043C148.414 92.9804 146.947 93.7126 145.236 93.2245C143.524 92.7364 142.546 91.5162 143.035 90.7841Z" fill="#BEE38D"/>
<path d="M144.747 109.82C144.502 109.088 145.969 107.623 148.17 107.379C150.371 107.135 151.838 107.623 152.082 108.6C152.327 109.576 150.615 110.552 148.659 110.552C146.703 110.796 144.991 110.796 144.747 109.82Z" fill="#BEE38D"/>
<path d="M145.481 128.855C144.992 128.123 145.481 126.414 147.192 124.706C148.904 122.998 151.349 122.754 151.593 123.486C151.838 124.218 150.86 125.682 149.393 127.147C147.926 128.611 146.214 129.587 145.481 128.855Z" fill="#BEE38D"/>
<path d="M162.596 73.2133C162.596 72.2371 164.552 71.9931 166.263 72.9692C167.975 74.1895 168.219 75.8978 167.486 76.3858C166.752 76.8739 165.53 76.3858 164.552 75.6537C163.574 74.9216 162.596 74.1895 162.596 73.2133Z" fill="#BEE38D"/>
<path d="M157.461 88.3446C157.706 87.6125 158.684 86.8804 159.662 87.6125C160.151 88.1006 160.395 88.5887 160.395 89.0768C160.395 89.5649 159.906 89.8089 159.662 90.053C158.928 90.297 157.95 90.297 157.95 90.297C157.461 90.0529 156.972 89.0768 157.461 88.3446Z" fill="#BEE38D"/>
<path d="M155.261 106.648C155.994 106.16 157.217 106.404 158.439 106.648C159.662 106.892 160.884 107.38 161.129 108.356C161.373 109.088 159.906 110.308 157.706 109.82C156.728 109.576 155.75 108.844 155.505 108.112C155.016 107.38 155.016 106.892 155.261 106.648Z" fill="#BEE38D"/>
<path d="M157.462 126.171C156.728 125.683 156.973 124.218 158.195 123.486C159.418 122.754 160.885 122.998 161.129 123.73C161.374 124.706 160.885 125.439 160.151 126.171C159.173 126.659 157.951 126.659 157.462 126.171Z" fill="#BEE38D"/>
<path d="M156.239 145.694C155.505 145.206 155.994 143.498 156.972 142.034C157.95 140.569 159.662 139.837 160.395 140.325C161.129 140.813 160.64 142.522 159.662 143.986C158.439 145.45 156.972 146.182 156.239 145.694Z" fill="#BEE38D"/>
<path d="M172.132 85.4161C172.621 86.1482 172.376 87.1244 171.398 88.1005C170.665 88.8327 169.442 89.3208 168.708 88.8327C167.975 88.3446 167.975 86.8803 168.953 85.9042C170.176 84.6839 171.643 84.6839 172.132 85.4161Z" fill="#BEE38D"/>
<path d="M172.132 103.23C171.643 103.474 171.398 103.474 170.909 103.718C170.909 103.718 170.665 103.718 170.665 103.962V104.45C170.42 104.45 169.198 104.695 168.708 103.962C168.219 103.474 167.975 102.01 169.931 101.278C170.42 101.034 170.909 101.034 171.398 101.278C171.887 101.522 172.132 101.766 172.376 102.01C172.621 102.742 172.376 103.23 172.132 103.23Z" fill="#BEE38D"/>
<path d="M168.708 126.171C168.219 126.903 166.508 126.659 165.53 124.706C164.552 122.754 165.53 121.046 166.263 121.29C167.241 121.29 167.73 122.51 168.219 123.242C168.708 124.218 169.197 125.438 168.708 126.171Z" fill="#BEE38D"/>
<path d="M118.585 13.4226C119.318 13.1785 120.541 14.3987 121.763 16.3511C122.741 18.3034 123.23 20.4998 122.252 20.7439C121.519 20.9879 120.052 20.0117 118.829 17.8154C117.851 15.863 117.851 13.6666 118.585 13.4226Z" fill="#BEE38D"/>
<path d="M133.255 17.5715C133.989 18.0596 134.233 19.2798 134.478 20.7441C134.722 22.2083 134.967 23.6726 134.478 24.1607C133.744 24.6488 132.033 23.9166 131.299 21.4762C131.055 20.256 131.299 19.2798 131.788 18.5477C132.277 17.5715 133.011 17.3275 133.255 17.5715Z" fill="#BEE38D"/>
<path d="M145.481 23.9166C146.214 24.6488 145.481 26.113 144.258 27.3332C142.791 28.5534 141.08 29.0415 140.591 28.3094C140.102 27.5773 140.835 26.113 142.058 24.8928C143.28 23.9166 144.992 23.4285 145.481 23.9166Z" fill="#BEE38D"/>
<path d="M151.593 31.2376C151.838 31.9698 150.86 33.19 149.393 33.9221C147.926 34.6542 146.214 34.4102 145.97 33.6781C145.481 32.9459 146.459 31.7257 148.17 30.9936C149.637 30.5055 151.349 30.5055 151.593 31.2376Z" fill="#BEE38D"/>
<path d="M154.527 44.4159C154.772 45.148 153.305 46.3682 151.349 46.1242C150.371 45.8802 149.393 45.3921 148.904 44.6599C148.415 43.9278 148.415 43.4397 148.904 43.1957C149.637 42.7076 150.615 42.7076 151.838 42.9517C153.06 42.9517 154.283 43.4397 154.527 44.4159Z" fill="#BEE38D"/>
<path d="M128.365 27.5768C129.343 27.5768 130.077 28.553 130.077 29.7732C130.077 30.9934 129.343 31.9696 128.365 31.9696C127.387 31.9696 126.654 30.9934 126.654 29.7732C126.654 28.553 127.632 27.5768 128.365 27.5768Z" fill="#BEE38D"/>
<path d="M141.813 33.4343C142.302 34.1664 141.813 35.3866 141.324 36.1188C140.835 36.8509 139.857 37.583 138.879 37.583C137.901 37.339 137.657 35.8747 138.635 34.4105C139.857 32.7022 141.324 32.7022 141.813 33.4343Z" fill="#BEE38D"/>
<path d="M146.703 43.4404C146.947 44.1725 145.969 45.3927 144.258 45.8808C142.546 46.3689 141.079 45.8808 140.835 44.9046C140.59 43.9285 141.813 43.1963 143.28 42.7082C144.991 42.4642 146.458 42.7082 146.703 43.4404Z" fill="#BEE38D"/>
<path d="M121.03 37.8278C120.786 36.8516 122.253 35.8755 124.453 36.1195C126.409 36.3635 127.632 37.8278 127.143 38.5599C126.654 39.2921 125.431 39.5361 123.964 39.2921C122.497 39.2921 121.275 38.804 121.03 37.8278Z" fill="#BEE38D"/>
<path d="M127.631 48.3212C126.898 47.8331 127.142 46.3689 128.854 45.6368C130.566 45.1487 131.788 45.8808 131.544 46.857C131.544 47.8331 130.566 48.3212 129.832 48.8093C129.343 48.8093 128.365 49.0533 127.631 48.3212Z" fill="#BEE38D"/>
<path d="M129.588 58.0821C128.854 57.594 129.099 55.6417 130.81 53.4453C131.544 52.4691 132.766 51.737 133.744 51.493C134.722 51.2489 135.211 51.493 135.456 51.981C135.7 52.9572 134.478 53.9334 133.5 55.6417C132.033 57.35 130.321 58.8142 129.588 58.0821Z" fill="#BEE38D"/>
<path d="M200.25 37.3388C200.983 36.8507 202.45 38.0709 203.428 40.0233C204.406 41.9756 204.162 43.928 203.428 44.172C202.695 44.4161 201.472 43.1958 200.494 41.2435C199.761 39.7792 199.272 37.8269 200.25 37.3388Z" fill="#BEE38D"/>
<path d="M221.277 35.875C222.011 36.3631 221.766 38.3155 220.544 40.0238C219.321 41.7321 218.099 42.7082 217.121 42.4642C216.387 41.9761 216.387 40.0238 217.854 38.3155C219.077 36.3631 220.544 35.3869 221.277 35.875Z" fill="#BEE38D"/>
<path d="M230.324 43.4405C230.324 44.4167 229.101 45.1488 227.634 45.881C225.923 46.3691 224.456 46.6131 223.967 45.881C223.478 45.1488 224.456 43.6846 226.656 42.9525C228.368 42.2203 230.079 42.7084 230.324 43.4405Z" fill="#BEE38D"/>
<path d="M231.302 63.2082C230.813 63.9404 229.591 63.6963 228.613 62.9642C227.635 62.2321 227.39 61.0119 228.124 60.2797C228.613 59.5476 229.835 59.7916 230.813 60.5238C231.791 61.2559 231.791 62.4761 231.302 63.2082Z" fill="#BEE38D"/>
<path d="M213.942 72.4813C213.208 72.2373 212.719 70.773 212.719 69.3087C212.719 67.6004 213.453 66.3802 214.431 66.3802C215.409 66.3802 216.142 67.8445 215.898 69.5528C215.898 71.2611 214.92 72.7254 213.942 72.4813Z" fill="#BEE38D"/>
<path d="M205.14 46.8566C206.118 46.6126 206.851 46.8566 207.34 47.8328C207.829 48.5649 207.585 49.7852 206.851 50.2732C206.118 50.7613 205.14 50.5173 204.651 49.5411C203.917 48.3209 204.162 47.1007 205.14 46.8566Z" fill="#BEE38D"/>
<path d="M220.055 46.3684C220.544 47.1005 219.321 48.5648 217.854 49.785C216.632 51.0052 215.654 51.9814 214.676 51.7373C214.187 51.4933 213.942 51.0052 214.187 50.2731C214.187 49.5409 214.92 48.3207 215.654 47.5886C217.61 45.6362 219.81 45.6362 220.055 46.3684Z" fill="#BEE38D"/>
<path d="M227.39 51.7371C227.879 52.4692 227.145 53.9335 225.678 54.9096C224.211 55.8858 222.5 56.1299 222.011 55.3977C221.522 54.6656 222.255 53.2013 223.722 52.2252C225.189 51.249 226.901 51.005 227.39 51.7371Z" fill="#BEE38D"/>
<path d="M210.03 58.571C209.786 58.571 209.541 58.571 209.297 58.571C209.297 58.571 209.297 58.571 209.052 58.571C208.808 58.571 208.808 58.571 208.563 58.815C208.563 58.815 208.563 58.815 208.319 58.815C208.319 58.571 208.319 57.8389 209.052 57.3508C209.786 56.6187 210.519 56.3746 210.764 56.8627C211.008 57.1067 211.008 57.5948 210.764 58.0829C210.764 58.571 210.275 58.571 210.03 58.571Z" fill="#BEE38D"/>
<path d="M205.873 9.76222C206.851 9.51818 207.585 10.9824 208.318 12.4467C208.807 13.911 209.296 15.1312 208.807 15.8633C208.318 16.5954 206.362 15.8633 205.384 13.6669C204.406 11.7146 204.895 10.0063 205.873 9.76222Z" fill="#BEE38D"/>
<path d="M221.033 14.6436C221.522 15.3757 221.033 16.596 219.81 17.5721C218.588 18.5483 217.365 18.7924 216.632 18.3043C215.898 17.5721 216.387 16.1079 217.854 15.1317C218.832 14.1555 220.299 13.9115 221.033 14.6436Z" fill="#BEE38D"/>
<path d="M223.722 25.1367C223.967 26.1128 223.233 26.845 222.255 27.3331C221.277 27.5771 220.055 27.3331 219.81 26.3569C219.566 25.6248 220.299 24.6486 221.277 24.1605C222.5 23.9165 223.478 24.4045 223.722 25.1367Z" fill="#BEE38D"/>
<path d="M212.72 23.1843C212.964 23.9165 212.475 24.8926 211.253 25.1367C210.03 25.1367 209.541 24.4045 209.541 23.6724C209.541 22.6962 210.275 21.9641 211.008 21.9641C211.742 21.9641 212.475 22.4522 212.72 23.1843Z" fill="#BEE38D"/>
<path d="M242.549 28.0661C243.283 28.5542 243.038 30.2625 242.549 31.7267C242.06 33.191 241.571 34.4112 240.838 34.6553C240.349 34.6553 239.86 34.4112 239.615 33.6791C239.371 32.947 239.126 31.9708 239.615 30.7506C240.104 28.5542 241.816 27.578 242.549 28.0661Z" fill="#BEE38D"/>
<path d="M252.329 37.0953C252.085 37.8274 251.107 38.3155 250.129 38.8036C248.906 39.2917 247.684 39.2917 247.195 38.5596C246.706 37.8274 247.195 36.3632 249.151 35.6311C250.129 35.387 251.107 35.387 251.596 35.6311C252.085 36.1191 252.329 36.6072 252.329 37.0953Z" fill="#BEE38D"/>
<path d="M246.217 47.1011C245.728 47.8332 244.016 47.5892 242.549 46.369C241.082 45.3928 240.104 43.6845 240.593 42.9524C241.082 42.2202 242.794 42.4643 244.261 43.6845C245.972 44.9047 246.706 46.613 246.217 47.1011Z" fill="#BEE38D"/>
<path d="M51.346 29.7737C52.324 29.7737 52.813 31.238 53.5466 32.9463C54.0356 34.6546 54.5246 36.1188 53.7911 36.851C53.0575 37.3391 51.346 36.3629 50.368 34.1665C49.6345 31.7261 50.6125 29.7737 51.346 29.7737Z" fill="#BEE38D"/>
<path d="M68.9504 31.726C69.4394 32.4581 68.7059 33.9224 67.2389 35.1426C66.0164 36.3628 64.7939 37.095 64.0603 36.8509C63.5713 36.6069 63.3268 36.1188 63.5713 35.3867C63.8158 34.6545 64.3048 33.6783 65.0384 32.9462C66.7499 31.482 68.4614 30.9939 68.9504 31.726Z" fill="#BEE38D"/>
<path d="M58.6811 39.7799C59.4146 40.268 59.4146 41.4882 59.4146 41.9763C59.1701 42.7085 58.6811 43.4406 57.9476 43.6846C57.2141 43.9287 55.9915 42.9525 56.236 41.2442C56.7251 39.7799 57.9476 39.2919 58.6811 39.7799Z" fill="#BEE38D"/>
<path d="M69.6838 43.1963C69.9283 44.1725 68.7058 44.9046 67.7278 45.6367C66.5053 46.3689 65.5272 46.6129 64.7937 46.3689C64.3047 46.1248 64.3047 45.6367 64.3047 44.9046C64.5492 44.1725 65.0382 43.4404 66.0163 42.9523C67.9723 41.732 69.6838 42.2201 69.6838 43.1963Z" fill="#BEE38D"/>
<path d="M68.217 55.3981C68.217 56.3743 66.0164 56.6183 63.5714 55.8862C61.3708 54.91 59.9038 53.4458 60.3928 52.7136C60.8818 51.9815 62.8378 52.2255 64.7939 52.9577C66.7499 53.4458 68.217 54.4219 68.217 55.3981Z" fill="#BEE38D"/>
<path d="M51.1015 48.3204C50.857 49.0525 49.3899 49.2965 47.9229 48.8084C46.4559 48.3204 45.4778 47.1001 45.7224 46.124C46.2114 45.3918 47.4339 45.1478 48.9009 45.6359C50.368 46.368 51.346 47.5882 51.1015 48.3204Z" fill="#BEE38D"/>
<path d="M20.0493 83.4631C19.8048 84.1952 17.6043 84.1952 15.8927 82.731C13.9367 81.2667 13.6922 79.0703 14.4257 78.5822C15.1592 78.0941 16.6263 79.0703 17.8488 80.2905C19.3158 81.2667 20.5383 82.4869 20.0493 83.4631Z" fill="#BEE38D"/>
<path d="M29.0961 84.684C28.1181 84.684 27.3846 83.4637 26.4065 81.7554C25.673 80.0471 25.4285 78.3388 26.162 77.8507C26.8955 77.3627 28.3626 78.5829 29.3406 80.5352C30.3186 82.4876 29.8296 84.4399 29.0961 84.684Z" fill="#BEE38D"/>
<path d="M13.4475 98.3498C12.714 98.1058 12.714 95.6654 14.67 93.469C16.3815 91.2726 18.8266 90.7845 19.3156 91.5166C19.8046 92.2488 18.5821 93.9571 17.1151 95.6654C15.648 97.3737 14.4255 98.8379 13.4475 98.3498Z" fill="#BEE38D"/>
<path d="M25.4285 90.2971C24.6949 90.0531 23.9614 88.8329 25.184 87.8567C25.673 87.3686 26.4065 87.3686 26.8955 87.6127C27.3845 87.8567 27.629 88.3448 27.629 88.5888C27.629 89.0769 27.3845 89.321 27.3845 89.809C27.3845 90.0531 27.3845 90.2971 27.3845 90.2971C27.14 90.2971 26.162 90.5412 25.4285 90.2971Z" fill="#BEE38D"/>
<path d="M30.3184 96.8851C29.5849 96.397 29.8294 94.9327 30.3184 93.4685C30.8074 92.0042 31.7855 91.028 32.7635 91.028C33.7415 91.2721 33.986 92.7363 33.2525 94.6887C32.519 96.641 30.8074 97.3731 30.3184 96.8851Z" fill="#BEE38D"/>
</g>
<defs>
<linearGradient id="paint0_linear" x1="130.838" y1="-0.142914" x2="130.838" y2="334.483" gradientUnits="userSpaceOnUse">
<stop stop-color="white"/>
<stop offset="1" stop-color="white" stop-opacity="0"/>
</linearGradient>
<clipPath id="clip0">
<rect width="267" height="338" fill="white"/>
</clipPath>
</defs>
</svg>
