<svg width="49" height="66" viewBox="0 0 49 66" fill="none" xmlns="http://www.w3.org/2000/svg">
<g clip-path="url(#clip0)">
<path d="M47.9625 21.1617C47.821 20.6397 47.4437 20.1652 46.9721 19.8806C47.3965 19.3586 47.5852 18.7418 47.3966 18.0775C47.1136 16.7964 45.7931 16.2745 44.6141 16.5592C44.0481 15.5628 42.7748 15.2781 41.7844 15.8C41.1242 16.1322 41.077 16.5118 40.3696 16.5118C39.8508 16.5118 38.9548 17.2235 38.6247 17.176C38.7661 15.8 38.7661 14.3766 38.5775 13.0006C38.4832 12.3838 38.3417 11.767 38.1059 11.1976C38.2945 10.5808 38.2945 9.91651 38.0116 9.34713C37.4928 8.39818 36.3609 8.06604 35.3706 8.44562C35.2291 8.39817 34.9461 7.63901 34.8046 7.49667C34.2859 6.87984 33.437 6.6426 32.6824 6.87984C31.7392 7.16453 32.2108 6.92729 31.4562 6.50026C30.8903 6.16813 30.8903 6.02578 30.5602 5.45641C30.9375 3.55849 28.8624 3.55849 28.8152 2.3723C28.7681 1.42334 28.0607 0.664172 27.1646 0.47438C26.8816 0.426932 26.5515 0.426932 26.2685 0.47438C25.1839 0.664172 25.1839 0.948859 24.1463 0.284589C22.8258 -0.569473 21.8826 0.47438 20.7507 0.901411C19.8547 1.23355 19.1473 0.521828 18.1569 1.04375C17.6381 1.32844 17.2608 1.80292 17.0722 2.32485C16.6478 3.32125 17.1194 2.70443 16.2233 3.13146C15.0915 3.65339 14.95 5.12427 14.3369 6.07323C13.3937 5.88344 12.4505 6.31047 12.0732 7.21198C11.5072 8.49307 13.1107 9.91651 12.1203 10.6282C11.7902 10.8655 11.5544 11.1502 11.3658 11.5297C10.847 11.6246 11.0356 11.1027 10.7527 10.7231C9.9981 9.72672 8.58327 9.67927 7.68722 10.4859C6.93265 9.015 4.9519 7.68646 3.82004 9.63182C3.25411 10.6282 3.91436 11.6721 3.15979 12.2889C2.7825 12.5736 2.68818 12.9532 2.40522 13.2853C1.88645 13.2853 1.36768 13.4276 0.943237 13.7598C0.377308 14.1868 0.0943436 14.8985 0.188665 15.6103C0.235826 16.1322 1.462 17.4133 0.896076 17.8877C0.0943436 18.5046 -0.235781 19.6433 0.235826 20.5448C0.51879 21.1142 2.16942 21.731 1.69781 22.4902C1.13188 23.3917 1.17904 24.6253 2.07509 25.3371C2.40522 25.6218 2.87683 25.7641 3.30127 25.8115C3.58424 26.3809 3.20695 26.6656 3.15979 27.2824C3.11263 28.3737 3.8672 29.3701 4.9519 29.5125C4.99906 30.5089 6.55536 31.1732 5.56499 31.6951C3.8672 32.5491 3.30127 33.7828 3.39559 35.6333C3.53708 38.1954 3.53708 40.7576 3.6314 43.3673C3.77288 47.8748 3.8672 52.4298 4.33881 56.9373C4.99906 59.547 4.81042 61.1602 7.49858 62.6785C11.13 64.7188 15.7045 65.0984 19.8075 65.2882C24.8537 65.5254 30.0414 65.3831 34.9933 64.4341C36.974 64.0545 39.2849 63.6749 40.8884 62.3464C41.9731 61.4923 42.2089 60.2113 42.4918 58.9776C43.2464 55.5139 43.3407 51.8604 43.3879 48.3493C43.3879 47.8274 43.3879 47.4952 43.3879 46.6412C43.3879 44.7432 43.2936 42.8453 43.1992 40.9474C43.0578 38.3852 43.6709 33.6404 40.9355 32.217C42.2089 31.7425 41.8316 30.414 42.8691 30.1767C44.7556 29.7497 43.9538 28.2314 44.7084 27.1401C45.3686 26.1911 46.9249 26.6182 47.2551 25.0049C47.3965 24.1983 46.8306 23.9136 47.4437 23.3443C47.9625 22.7274 48.1511 21.9208 47.9625 21.1617C47.821 20.6397 48.104 21.7785 47.9625 21.1617Z" fill="white"/>
<path d="M23.203 31.5051C9.90371 31.4102 4.95183 33.0709 5.18764 34.8265C5.42344 36.5821 5.51776 58.0759 6.74394 59.6417C11.2242 65.3355 38.9547 63.7697 40.1337 60.2111C42.4918 53.0939 40.9826 34.5892 40.6054 34.2097C40.2281 33.8301 36.974 31.6475 23.203 31.5051Z" fill="#ABE6FF"/>
<path d="M5.89508 53.4262C6.08372 56.6527 6.36669 59.1674 6.74397 59.6893C11.2242 65.3831 38.9548 63.8173 40.1338 60.2587C40.7469 58.4557 41.077 55.9409 41.2656 53.189C29.5226 58.2659 12.1675 55.9884 5.89508 53.4262Z" fill="#96685A"/>
<path d="M40.794 34.9214C40.7468 34.5418 40.6997 34.3046 40.6525 34.2571C40.2752 33.8775 36.974 31.6475 23.203 31.5051C9.90371 31.4102 4.95183 33.0709 5.18764 34.8265C5.18764 34.9214 5.18764 35.0163 5.2348 35.1586C6.50814 37.7208 15.7988 38.7647 23.8161 38.7647C30.5601 38.7647 39.1434 36.8667 40.794 34.9214Z" fill="#D9F4FF"/>
<path d="M15.1857 23.107C11.6958 11.0078 15.6573 5.40891 20.9393 2.94162C26.2213 0.474327 37.7286 7.92364 26.0327 35.6332C21.9769 36.9143 18.3927 34.5894 18.3927 34.5894L15.1857 23.107Z" fill="#8FC745"/>
<path d="M12.6862 35.301C4.52744 26.7129 -0.141469 16.9861 4.85757 13.6173C9.85661 10.2485 19.0058 18.1723 19.666 34.6842C18.9586 36.2974 13.3465 36.4872 12.6862 35.301Z" fill="#ADD676"/>
<path d="M26.0327 35.0638C23.8633 26.3808 29.051 9.72659 34.4745 10.2011C39.8979 10.6755 35.3233 28.8955 30.2772 34.9214C28.4379 36.7719 25.7969 36.3923 26.0327 35.0638Z" fill="#ADD676"/>
<path d="M30.3716 35.4906C30.8903 29.3224 38.7662 17.7925 43.105 18.8838C47.3494 19.9751 44.7556 26.6653 34.1916 34.8263C32.6824 36.2498 30.3716 35.4906 30.3716 35.4906Z" fill="#8FC745"/>
<path d="M9.29061 35.7752C10.9412 34.1145 13.6294 35.538 13.6294 35.538C15.0442 32.4539 18.4398 34.589 18.4398 34.589C20.7978 32.359 22.6843 33.5452 23.0615 35.3007C24.8065 33.8773 26.8344 35.6329 26.8344 35.6329C28.5794 33.5926 31.409 35.3007 31.409 35.3007C34.0028 33.9722 36.5024 34.2094 36.5024 35.6329C35.3233 36.8665 13.9124 37.8155 9.29061 35.7752Z" fill="#96685A"/>
<path d="M36.974 33.9247C36.974 33.9247 37.1154 33.9247 37.3041 34.0196C37.3984 34.067 37.5399 34.1145 37.6814 34.2094C37.8228 34.3043 38.0115 34.4466 38.0587 34.7313C38.0587 35.0635 37.8228 35.2532 37.587 35.3956C37.3512 35.5379 37.0683 35.6803 36.7853 35.7752C36.2194 36.0124 35.512 36.1548 34.7574 36.2971C31.7391 36.8665 27.5418 37.1512 22.9201 37.1512C18.2983 37.1512 14.101 36.8665 11.0827 36.3445C10.3281 36.2022 9.66789 36.0599 9.05481 35.8701C8.77184 35.7752 8.48888 35.6803 8.25307 35.5379C8.01727 35.3956 7.78147 35.2532 7.68714 35.016C7.63998 34.8737 7.63998 34.7313 7.7343 34.6364C7.78147 34.5415 7.87579 34.4941 7.97011 34.4466C8.11159 34.3517 8.25307 34.3043 8.34739 34.2568C8.5832 34.1619 8.67752 34.1619 8.67752 34.1619C8.67752 34.1619 8.5832 34.2568 8.39455 34.3517C8.30023 34.3992 8.20591 34.4941 8.06443 34.589C7.92295 34.6839 7.82863 34.8262 7.92295 34.9686C7.97011 35.1109 8.20591 35.2058 8.39455 35.3481C8.63036 35.443 8.86616 35.5379 9.14913 35.6328C9.71506 35.7752 10.3753 35.9175 11.1299 36.0124C14.101 36.4394 18.2983 36.6292 22.9201 36.6292C27.5418 36.6292 31.7391 36.4394 34.7102 35.965C35.4648 35.8226 36.1251 35.7277 36.691 35.5379C36.974 35.443 37.2098 35.3481 37.4456 35.2532C37.6814 35.1584 37.8228 34.9686 37.8228 34.8737C37.8228 34.7313 37.6814 34.589 37.587 34.4941C37.4456 34.3992 37.3512 34.3043 37.2569 34.2568C37.0683 34.0196 36.974 33.9722 36.974 33.9247Z" fill="#7EB0C4"/>
<path d="M5.4706 42.2286C5.56493 46.2617 5.75357 51.0539 5.98937 54.6599C15.0442 59.9741 34.7574 58.5506 41.1713 54.8972C41.5957 50.7692 41.5486 45.7397 41.3599 41.7067C33.3426 45.8821 7.26271 44.6959 5.4706 42.2286Z" fill="#F7B76D"/>
<path d="M5.4706 42.2286C5.56493 46.2617 5.75357 51.0539 5.98937 54.6599C15.0442 59.9741 34.7574 58.5506 41.1713 54.8972C41.5957 50.7692 41.5486 45.7397 41.3599 41.7067C33.3426 45.8821 7.26271 44.6959 5.4706 42.2286Z" fill="url(#paint0_radial)"/>
<path d="M17.4495 47.59C17.4966 47.59 17.591 48.1594 17.1665 48.966C16.9779 49.3456 16.5534 49.82 16.0347 50.1047C15.5159 50.3894 14.8085 50.5318 14.1011 50.4843C13.3937 50.4369 12.7806 50.1996 12.2618 49.82C11.7902 49.4405 11.4601 48.966 11.3186 48.4915C11.2243 48.017 11.2714 47.6374 11.3186 47.4002C11.4129 47.1629 11.4601 47.0681 11.5072 47.0681C11.6016 47.0681 11.4601 47.6374 11.743 48.3492C11.8845 48.6813 12.1675 49.0609 12.5919 49.3456C13.0164 49.6302 13.5351 49.82 14.1482 49.8675C14.7142 49.9149 15.2801 49.82 15.7517 49.5828C16.2233 49.3456 16.5534 49.0609 16.7892 48.7287C17.2608 48.1119 17.3552 47.59 17.4495 47.59Z" fill="#B06D2E"/>
<path d="M25.6083 48.7285C25.6554 48.7285 25.6554 48.8708 25.7026 49.0606C25.7026 49.1555 25.7026 49.2979 25.7026 49.4876C25.6554 49.63 25.6554 49.8198 25.6083 50.0096C25.5611 50.1994 25.4196 50.3892 25.3253 50.6264C25.2781 50.7213 25.1838 50.8162 25.0895 50.9111C25.0423 50.9585 24.9952 51.006 24.948 51.0534L24.8065 51.1958C24.3821 51.5754 23.769 51.8126 23.1088 51.7651C22.4485 51.7177 21.8826 51.433 21.4581 51.1009C21.0337 50.7687 20.7507 50.3417 20.5621 49.9621C20.4206 49.5825 20.3263 49.2979 20.3263 49.0606C20.3263 48.8234 20.3263 48.7285 20.3734 48.7285C20.4206 48.7285 20.4678 48.8234 20.5621 49.0132C20.6092 49.203 20.7979 49.4876 20.9394 49.7723C21.3166 50.3417 22.0712 51.0534 23.1088 51.1483C24.1463 51.2432 24.9009 50.4841 25.1367 49.8198C25.1838 49.6774 25.2781 49.4876 25.3253 49.3927C25.3725 49.2504 25.4196 49.1555 25.4196 49.0132C25.514 48.8708 25.5611 48.7285 25.6083 48.7285Z" fill="#B06D2E"/>
<path d="M11.6488 48.4917C11.7431 48.634 11.413 49.0136 10.847 49.2034C10.5641 49.2983 10.2811 49.3457 10.0453 49.2983C9.80951 49.2508 9.66803 49.1085 9.76235 49.0136C9.80951 48.9187 9.90383 48.9187 10.0453 48.8238C10.1868 48.7764 10.3754 48.6815 10.6584 48.5866C11.0828 48.4442 11.5545 48.3019 11.6488 48.4917Z" fill="#B06D2E"/>
<path d="M12.4032 49.5354C12.4975 49.6777 12.2146 50.0573 11.743 50.3894C11.2714 50.7216 10.7526 50.8165 10.7054 50.6267C10.6583 50.4843 10.9412 50.1996 11.4128 49.8675C11.8373 49.5828 12.2617 49.393 12.4032 49.5354Z" fill="#B06D2E"/>
<path d="M12.4505 51.3384C12.3561 51.1961 12.5919 50.8639 12.9221 50.5793C13.2522 50.2946 13.4408 50.0573 13.5823 50.0573C13.6766 50.0573 13.7238 50.1997 13.6766 50.3895C13.6295 50.5792 13.5352 50.8165 13.3465 51.0063C12.9692 51.4333 12.5448 51.4808 12.4505 51.3384Z" fill="#B06D2E"/>
<path d="M28.9567 47.59C29.051 47.5425 29.1454 48.1119 29.617 48.7287C29.8528 49.0609 30.1829 49.3456 30.6545 49.5828C31.1261 49.82 31.6921 49.9149 32.258 49.8675C32.8239 49.82 33.3898 49.6302 33.8143 49.3456C34.2387 49.0609 34.5217 48.6813 34.6632 48.3492C34.9461 47.6374 34.7575 47.0681 34.899 47.0681C34.9461 47.0681 34.9933 47.1629 35.0876 47.4002C35.1348 47.6374 35.2291 48.017 35.0876 48.4915C34.9933 48.966 34.6632 49.4405 34.1444 49.82C33.6728 50.1996 33.0126 50.4369 32.3051 50.4843C31.5977 50.5318 30.9375 50.3894 30.3715 50.1047C29.8528 49.82 29.4283 49.393 29.2397 48.966C28.8152 48.1594 28.8624 47.59 28.9567 47.59Z" fill="#B06D2E"/>
<path d="M34.7574 48.4916C34.8517 48.3492 35.2762 48.4441 35.7949 48.6339C36.0307 48.7288 36.2665 48.8237 36.408 48.8712C36.5495 48.9186 36.6438 48.9661 36.691 49.0609C36.7381 49.1084 36.6438 49.2982 36.408 49.3456C36.1722 49.3931 35.8893 49.3456 35.6063 49.2507C34.9932 48.9661 34.6631 48.6339 34.7574 48.4916Z" fill="#B06D2E"/>
<path d="M34.0029 49.5354C34.0972 49.393 34.5688 49.5828 34.9932 49.8675C35.4649 50.1996 35.7478 50.4843 35.7007 50.6267C35.6535 50.8165 35.0876 50.7216 34.6631 50.3894C34.1915 50.0573 33.9085 49.6777 34.0029 49.5354Z" fill="#B06D2E"/>
<path d="M33.9085 51.3384C33.8142 51.4808 33.3898 51.3859 33.0125 51.0063C32.8238 50.8165 32.6824 50.5793 32.6824 50.3895C32.6352 50.1997 32.7295 50.0573 32.7767 50.0573C32.9653 50.0573 33.154 50.2471 33.4369 50.5793C33.767 50.9114 34.0028 51.1961 33.9085 51.3384Z" fill="#B06D2E"/>
<path d="M5.51779 10.533C5.61211 10.533 5.70643 10.6754 5.80075 10.8651C5.89507 11.1024 6.08372 11.3871 6.2252 11.7192C6.36668 12.0513 6.50816 12.4309 6.50816 12.7156C6.50816 13.0003 6.461 13.1901 6.36668 13.1901C6.27236 13.1901 6.17804 13.0477 6.08372 12.858C5.98939 12.6207 5.80075 12.336 5.65927 12.0039C5.51779 11.6718 5.3763 11.2922 5.3763 11.0075C5.3763 10.7228 5.42347 10.533 5.51779 10.533Z" fill="#BEE38D"/>
<path d="M9.19637 11.8139C9.33785 11.9088 9.24353 12.3358 9.10204 12.7629C8.96056 13.2373 8.81908 13.6169 8.63044 13.6169C8.44179 13.6169 8.30031 13.1425 8.48895 12.5731C8.6776 12.0512 9.05488 11.719 9.19637 11.8139Z" fill="#BEE38D"/>
<path d="M11.8845 13.3797C12.0259 13.4746 11.8845 13.9016 11.6487 14.3761C11.4128 14.8506 11.1299 15.1827 10.9412 15.1353C10.7998 15.0879 10.7998 14.5659 11.0827 14.0914C11.3657 13.5695 11.743 13.2848 11.8845 13.3797Z" fill="#BEE38D"/>
<path d="M14.2425 16.4641C14.3369 16.6064 14.0539 16.8911 13.8181 17.3182C13.5823 17.6977 13.4408 18.0773 13.2993 18.0773C13.205 18.0773 13.1107 17.9824 13.1107 17.7452C13.1107 17.5554 13.1578 17.2707 13.2993 16.986C13.4408 16.7013 13.6766 16.559 13.8652 16.4641C14.0539 16.3692 14.1954 16.4167 14.2425 16.4641Z" fill="#BEE38D"/>
<path d="M16.2705 19.5007C16.412 19.643 16.1762 20.0226 15.8461 20.4496C15.516 20.8292 15.1387 21.1139 14.9972 21.019C14.8557 20.9241 14.9972 20.4496 15.3745 20.0226C15.7518 19.5956 16.1762 19.3583 16.2705 19.5007Z" fill="#BEE38D"/>
<path d="M17.3079 22.8698C17.4494 22.9647 17.355 23.2968 17.1664 23.5815C16.9306 23.8662 16.6476 24.0086 16.5062 23.9137C16.3647 23.8188 16.4118 23.4866 16.6476 23.2019C16.8834 22.9173 17.1664 22.7749 17.3079 22.8698Z" fill="#BEE38D"/>
<path d="M18.5813 25.6691C18.6756 25.8114 18.4398 26.0961 18.1097 26.191C17.7796 26.2859 17.5438 26.2384 17.4494 26.0961C17.4023 25.9538 17.5909 25.7165 17.921 25.6216C18.204 25.4793 18.487 25.5267 18.5813 25.6691Z" fill="#BEE38D"/>
<path d="M19.1944 28.7531C19.2887 28.8954 19.0529 29.1801 18.7228 29.1801C18.3926 29.2276 18.1568 29.0378 18.1568 28.8954C18.1568 28.7056 18.3926 28.6107 18.6284 28.5633C18.9114 28.5633 19.1 28.6107 19.1944 28.7531Z" fill="#BEE38D"/>
<path d="M19.8075 33.0706C19.8075 33.2604 19.4774 33.4027 19.1001 33.3078C18.7228 33.2604 18.487 32.9757 18.5342 32.8333C18.5813 32.691 18.9115 32.6436 19.1944 32.691C19.5717 32.7859 19.8075 32.9282 19.8075 33.0706Z" fill="#BEE38D"/>
<path d="M4.33876 13.8071C4.43308 13.6648 4.90469 13.8071 5.3763 14.2342C5.84791 14.6612 5.94223 15.2306 5.75358 15.278C5.6121 15.3255 5.28198 15.0408 4.90469 14.6612C4.5274 14.2816 4.24444 13.9495 4.33876 13.8071Z" fill="#BEE38D"/>
<path d="M7.87589 14.1869C8.01737 14.2343 8.06453 14.5665 8.01737 14.8512C7.97021 15.1833 7.82873 15.4205 7.64009 15.4205C7.45144 15.4205 7.30996 15.0884 7.40428 14.7088C7.45144 14.3767 7.73441 14.1394 7.87589 14.1869Z" fill="#BEE38D"/>
<path d="M9.90377 15.2304C10.0452 15.3253 9.90377 15.7524 9.66796 16.2268C9.47932 16.6539 9.33784 17.0334 9.19636 17.0809C9.10203 17.0809 9.00771 16.986 9.00771 16.7488C8.96055 16.559 9.00771 16.2743 9.1492 15.9896C9.385 15.3728 9.76228 15.1355 9.90377 15.2304Z" fill="#BEE38D"/>
<path d="M11.0828 17.3657C11.2243 17.508 11.13 17.7452 10.9885 18.0299C10.847 18.2672 10.7055 18.457 10.5641 18.5044C10.4697 18.5044 10.3754 18.4095 10.3754 18.2672C10.3283 18.1248 10.3754 17.935 10.4697 17.7452C10.6584 17.3182 10.9885 17.2233 11.0828 17.3657Z" fill="#BEE38D"/>
<path d="M12.6862 19.7855C12.8277 19.8804 12.7805 20.2125 12.5447 20.4497C12.3089 20.687 12.026 20.7819 11.9316 20.6395C11.7902 20.4972 11.8845 20.2125 12.1203 20.0227C12.2618 19.8329 12.5447 19.6906 12.6862 19.7855Z" fill="#BEE38D"/>
<path d="M13.7709 23.5812C13.8181 23.7235 13.7238 23.9607 13.5823 24.1031C13.4408 24.2454 13.205 24.3403 13.0635 24.2454C12.922 24.1505 12.922 23.8658 13.1578 23.6286C13.3936 23.4388 13.6766 23.4388 13.7709 23.5812Z" fill="#BEE38D"/>
<path d="M15.5159 26.9029C15.563 27.0927 15.3272 27.2824 14.9971 27.2824C14.667 27.2824 14.4312 27.1401 14.4312 26.9978C14.4312 26.808 14.667 26.6656 14.9499 26.6656C15.2329 26.6656 15.4215 26.7605 15.5159 26.9029Z" fill="#BEE38D"/>
<path d="M17.0722 30.2239C17.1193 30.3662 16.8364 30.6034 16.4591 30.6034C16.0818 30.6034 15.846 30.4136 15.846 30.2239C15.8931 30.0341 16.1289 29.9866 16.4591 29.9866C16.742 29.9866 17.025 30.0815 17.0722 30.2239Z" fill="#BEE38D"/>
<path d="M17.0722 33.0231C17.1193 33.1655 16.742 33.4027 16.3176 33.3078C15.8932 33.1655 15.6573 32.8808 15.7517 32.7384C15.846 32.5961 16.1761 32.6435 16.4591 32.691C16.742 32.7384 17.025 32.8333 17.0722 33.0231Z" fill="#BEE38D"/>
<path d="M6.83825 16.464C6.97974 16.5115 7.0269 16.8911 7.07406 17.3655C7.12122 17.84 6.97974 18.3145 6.83825 18.3145C6.64961 18.3145 6.50813 17.9349 6.46097 17.413C6.46097 17.1283 6.46097 16.8911 6.55529 16.7013C6.64961 16.5589 6.74393 16.464 6.83825 16.464Z" fill="#BEE38D"/>
<path d="M8.58333 19.7857C8.72482 19.8331 8.77198 20.1178 8.72482 20.45C8.67766 20.7346 8.53617 20.9719 8.34753 20.9719C8.15889 20.9719 8.0174 20.6872 8.11173 20.3076C8.15889 19.9755 8.44185 19.7382 8.58333 19.7857Z" fill="#BEE38D"/>
<path d="M9.99812 22.6324C10.1868 22.6324 10.3282 22.8697 10.3282 23.1544C10.3282 23.4391 10.2339 23.6288 10.0924 23.6763C9.9038 23.7237 9.71516 23.4865 9.71516 23.2018C9.668 22.8697 9.80948 22.6324 9.99812 22.6324Z" fill="#BEE38D"/>
<path d="M11.5072 24.4828C11.6487 24.5777 11.6959 24.7675 11.6959 24.9098C11.6487 25.0996 11.5544 25.2894 11.3657 25.2894C11.1771 25.2894 11.0356 25.0996 11.0828 24.8149C11.0828 24.5302 11.3657 24.3404 11.5072 24.4828Z" fill="#BEE38D"/>
<path d="M12.9692 29.0377C12.8749 29.18 12.5919 29.18 12.3561 28.9428C12.2147 28.8005 12.1675 28.6581 12.1203 28.5158C12.1203 28.3734 12.1675 28.2785 12.2618 28.2785C12.4505 28.2785 12.5919 28.326 12.7806 28.5158C12.9692 28.6581 13.0636 28.8954 12.9692 29.0377Z" fill="#BEE38D"/>
<path d="M14.101 32.4539C13.9595 32.5488 13.6766 32.359 13.4879 32.0269C13.2993 31.6948 13.2993 31.3152 13.4879 31.2677C13.6294 31.2203 13.8652 31.4101 14.0539 31.7422C14.1953 32.0269 14.2425 32.359 14.101 32.4539Z" fill="#BEE38D"/>
<path d="M14.384 34.2569C14.2425 34.3518 14.0539 34.3044 14.0067 34.162C13.9596 34.0197 14.0067 33.8773 14.1482 33.7824C14.2897 33.6876 14.4784 33.735 14.5255 33.8773C14.6198 34.0197 14.5255 34.2095 14.384 34.2569Z" fill="#BEE38D"/>
<path d="M2.07501 15.2782C2.12217 15.1358 2.64094 15.1358 3.25403 15.3256C3.81996 15.5154 4.29156 15.8001 4.19724 15.9899C4.15008 16.1322 3.63131 16.1322 3.01823 15.9424C2.40514 15.7526 1.98069 15.4679 2.07501 15.2782Z" fill="#BEE38D"/>
<path d="M4.48026 19.8804C4.33878 19.7855 4.4331 19.4059 4.85755 19.2161C5.04619 19.1212 5.282 19.1687 5.42348 19.2161C5.56496 19.2636 5.61212 19.3585 5.61212 19.4534C5.56496 19.6432 5.32916 19.6906 5.14051 19.7855C4.90471 19.8804 4.62175 20.0227 4.48026 19.8804Z" fill="#BEE38D"/>
<path d="M5.65925 22.8695C5.51777 22.7746 5.65925 22.395 5.94221 22.0629C6.22518 21.7307 6.5553 21.5409 6.69678 21.6833C6.83827 21.7782 6.69678 22.1578 6.41382 22.4899C6.13086 22.822 5.80073 23.0118 5.65925 22.8695Z" fill="#BEE38D"/>
<path d="M6.79115 25.242C6.60251 25.1946 6.64967 24.7676 6.83831 24.388C7.02695 24.0084 7.26276 23.7712 7.4514 23.8186C7.64004 23.866 7.64004 24.2931 7.40424 24.6727C7.16844 25.0522 6.93263 25.2895 6.79115 25.242Z" fill="#BEE38D"/>
<path d="M8.11167 27.3774C7.97019 27.2825 8.01735 26.9504 8.15883 26.6182C8.30031 26.2861 8.48896 26.0488 8.6776 26.0488C8.86624 26.0488 8.9134 26.4759 8.77192 26.8555C8.53612 27.2825 8.25315 27.4723 8.11167 27.3774Z" fill="#BEE38D"/>
<path d="M9.38502 30.0812C9.19638 30.0338 9.19638 29.6067 9.47934 29.2272C9.71515 28.8476 10.0453 28.6578 10.1868 28.7527C10.3282 28.8476 10.2339 29.2272 9.99811 29.5593C9.76231 29.8914 9.5265 30.1287 9.38502 30.0812Z" fill="#BEE38D"/>
<path d="M11.6486 33.0233C11.4599 33.0233 11.3185 32.5962 11.2713 32.0743C11.2241 31.5524 11.3185 31.0779 11.4599 31.0779C11.6486 31.0779 11.8372 31.4575 11.8844 32.0269C11.9316 32.5488 11.7901 33.0233 11.6486 33.0233Z" fill="#BEE38D"/>
<path d="M1.88641 19.6435C1.83925 19.5486 1.88641 19.4537 2.0279 19.3588C2.16938 19.2639 2.40518 19.169 2.64099 19.169C3.15975 19.2165 3.44272 19.4537 3.39556 19.6435C3.3484 19.8333 2.97111 19.8333 2.64099 19.7858C2.2637 19.7858 1.98074 19.7858 1.88641 19.6435Z" fill="#BEE38D"/>
<path d="M3.25409 23.8184C3.20693 23.771 3.20693 23.6287 3.30125 23.4863C3.39557 23.344 3.63138 23.1542 3.86718 23.0593C4.38595 22.8695 4.76324 22.9644 4.8104 23.1067C4.85756 23.2965 4.48027 23.4863 4.05582 23.6287C3.86718 23.7236 3.67854 23.771 3.53706 23.8184C3.39557 23.8659 3.30125 23.9133 3.25409 23.8184Z" fill="#BEE38D"/>
<path d="M5.14055 27.5669C4.99907 27.472 5.04623 27.0924 5.32919 26.7603C5.61216 26.3807 6.0366 26.2858 6.08376 26.4756C6.17809 26.618 6.0366 26.8552 5.8008 27.1873C5.565 27.4246 5.28203 27.6618 5.14055 27.5669Z" fill="#BEE38D"/>
<path d="M6.93261 29.5122C6.79113 29.4173 6.83829 29.0852 6.97977 28.7531C7.16841 28.4209 7.40422 28.1837 7.5457 28.2312C7.68718 28.2786 7.73434 28.6582 7.5457 29.0378C7.35706 29.4173 7.07409 29.6071 6.93261 29.5122Z" fill="#BEE38D"/>
<path d="M7.97013 31.1253C7.82865 31.0778 7.78149 30.6982 7.97013 30.3186C8.15878 29.939 8.44174 29.7018 8.58322 29.7967C8.72471 29.8916 8.67754 30.2237 8.53606 30.6033C8.34742 30.888 8.11162 31.1727 7.97013 31.1253Z" fill="#BEE38D"/>
<path d="M9.19638 33.7352C9.00774 33.6877 8.96058 33.3556 9.10206 33.0235C9.24354 32.6439 9.52651 32.4541 9.66799 32.549C9.80947 32.6439 9.80947 32.9286 9.66799 33.2607C9.57367 33.4979 9.38503 33.7352 9.19638 33.7352Z" fill="#BEE38D"/>
<path d="M13.8653 7.92352C14.0067 7.82862 14.3369 8.11331 14.667 8.44545C14.9971 8.82503 15.1858 9.25206 15.0443 9.34696C14.9028 9.44185 14.5727 9.25206 14.1954 8.87248C13.8181 8.49289 13.6766 8.01842 13.8653 7.92352Z" fill="#BEE38D"/>
<path d="M17.0722 4.83937C17.2608 4.79192 17.4023 5.17151 17.4966 5.59854C17.5909 5.97812 17.6381 6.31026 17.4966 6.4526C17.3551 6.5475 16.9779 6.26281 16.8835 5.78833C16.7892 5.2664 16.8835 4.88682 17.0722 4.83937Z" fill="#BEE38D"/>
<path d="M19.2887 2.70397C19.383 2.84632 19.3359 3.17845 19.3359 3.70038C19.3359 4.22231 19.1944 4.69678 19.0057 4.69678C18.8642 4.69678 18.6756 4.26975 18.6756 3.65293C18.6756 3.36824 18.7699 3.08356 18.9114 2.89377C19.0529 2.75142 19.1944 2.65653 19.2887 2.70397Z" fill="#BEE38D"/>
<path d="M23.2031 1.94507C23.2974 2.08742 23.1087 2.41955 22.9201 2.84658C22.7315 3.27361 22.59 3.70064 22.4013 3.6532C22.2599 3.6532 22.1184 3.17872 22.3542 2.5619C22.4485 2.27721 22.6371 2.03997 22.8258 1.94507C23.0144 1.85018 23.1559 1.85018 23.2031 1.94507Z" fill="#BEE38D"/>
<path d="M26.9759 2.46688C27.0231 2.65667 26.7873 2.84646 26.5043 3.13115C26.2214 3.41584 25.8912 3.65307 25.7498 3.55818C25.6083 3.46328 25.7026 3.0837 26.0799 2.70412C26.2685 2.51433 26.5043 2.41943 26.693 2.37198C26.8345 2.37198 26.9288 2.41943 26.9759 2.46688Z" fill="#BEE38D"/>
<path d="M28.768 5.02927C28.8152 5.21906 28.5793 5.36141 28.3435 5.50375C28.1077 5.59865 27.8248 5.64609 27.7305 5.50375C27.6361 5.36141 27.7305 5.07672 28.0606 4.93437C28.4379 4.74458 28.768 4.83948 28.768 5.02927Z" fill="#BEE38D"/>
<path d="M30.6544 8.25572C30.7015 8.44551 30.3714 8.6353 29.8998 8.82509C29.4282 9.01488 28.9094 8.96744 28.9094 8.77764C28.9094 8.58785 29.1924 8.39806 29.664 8.20827C30.1356 8.06592 30.6072 8.06592 30.6544 8.25572Z" fill="#BEE38D"/>
<path d="M31.2204 12.2885C31.3147 12.4309 30.9846 12.763 30.4658 12.8104C29.9471 12.9053 29.5226 12.6681 29.5698 12.5258C29.6169 12.336 29.9471 12.2885 30.3715 12.1936C30.7488 12.1462 31.1261 12.1462 31.2204 12.2885Z" fill="#BEE38D"/>
<path d="M24.0519 5.02912C24.0991 5.21891 23.8633 5.40871 23.6275 5.64595C23.3445 5.88318 23.1087 6.07298 22.9673 5.97808C22.8258 5.88319 22.8729 5.5036 23.2502 5.17147C23.5803 4.83933 24.0048 4.83933 24.0519 5.02912Z" fill="#BEE38D"/>
<path d="M26.2685 7.92366C26.3156 8.11345 26.0798 8.25579 25.7497 8.39814C25.4667 8.49303 25.1838 8.54048 25.0895 8.39814C24.9951 8.25579 25.1838 7.92366 25.5611 7.82876C25.8912 7.68642 26.2213 7.78132 26.2685 7.92366Z" fill="#BEE38D"/>
<path d="M26.5986 11.8144C26.6929 11.9568 26.5043 12.194 26.2213 12.2889C25.9383 12.3838 25.7025 12.2889 25.6554 12.0991C25.6082 11.9093 25.7969 11.767 26.0327 11.6721C26.2685 11.6246 26.5043 11.6721 26.5986 11.8144Z" fill="#BEE38D"/>
<path d="M26.7401 14.8034C26.7401 14.9932 26.5986 15.1355 26.3628 15.1355C26.127 15.1355 25.9855 14.9932 25.9855 14.8034C25.9855 14.6136 26.127 14.4712 26.3628 14.4712C26.5986 14.4712 26.7401 14.661 26.7401 14.8034Z" fill="#BEE38D"/>
<path d="M26.8817 17.9824C26.7873 18.1247 26.5515 18.1722 26.2686 18.0298C25.9856 17.8875 25.8441 17.6503 25.9384 17.5079C26.0328 17.3656 26.2686 17.3181 26.5515 17.4605C26.8345 17.6028 26.976 17.84 26.8817 17.9824Z" fill="#BEE38D"/>
<path d="M25.8913 22.3477C25.7498 22.49 25.514 22.3951 25.2782 22.2053C25.0896 22.0155 24.9952 21.7783 25.0896 21.636C25.1839 21.4936 25.4668 21.5411 25.7026 21.7309C25.9385 21.9207 25.9856 22.2053 25.8913 22.3477Z" fill="#BEE38D"/>
<path d="M25.1838 25.6686C25.0423 25.811 24.8065 25.7635 24.6178 25.5738C24.4292 25.4314 24.2877 25.1942 24.382 25.0518C24.4763 24.9095 24.7593 24.9095 24.9951 25.0993C25.2309 25.2416 25.2781 25.5263 25.1838 25.6686Z" fill="#BEE38D"/>
<path d="M24.948 29.2277C24.8066 29.3226 24.5236 29.2277 24.3349 28.943C24.1463 28.6583 24.1463 28.3262 24.2878 28.2787C24.4293 28.1838 24.6651 28.3262 24.8537 28.6109C24.9952 28.8007 25.0424 29.0853 24.948 29.2277Z" fill="#BEE38D"/>
<path d="M24.7594 32.1219C24.6179 32.2642 24.3821 32.1693 24.1935 31.9321C24.0049 31.6949 24.0049 31.3627 24.1463 31.3153C24.2878 31.2678 24.5236 31.3627 24.6651 31.5525C24.8066 31.7423 24.9009 32.027 24.7594 32.1219Z" fill="#BEE38D"/>
<path d="M23.8162 33.9727C23.7219 34.1151 23.3917 34.0676 23.2031 33.7829C23.0144 33.5457 23.0144 33.2135 23.2031 33.1661C23.3446 33.0712 23.5804 33.2135 23.7219 33.4033C23.8633 33.5931 23.9105 33.8304 23.8162 33.9727Z" fill="#BEE38D"/>
<path d="M20.7507 6.12089C20.8922 6.16833 20.8922 6.59536 20.7035 7.0224C20.5149 7.44943 20.2791 7.73411 20.1376 7.68667C19.949 7.63922 19.949 7.21219 20.1376 6.78516C20.3263 6.35813 20.6092 6.07344 20.7507 6.12089Z" fill="#BEE38D"/>
<path d="M23.1088 9.34714C23.156 9.48948 22.9202 9.77417 22.6372 10.0589C22.3542 10.3435 22.0713 10.6282 21.9298 10.5333C21.7883 10.4859 21.8355 10.0114 22.2127 9.63183C22.59 9.25224 23.0616 9.2048 23.1088 9.34714Z" fill="#BEE38D"/>
<path d="M23.6747 13.9493C23.6747 14.1391 23.486 14.2815 23.2502 14.2815C23.0144 14.2815 22.8258 14.1391 22.8258 13.9493C22.8258 13.7596 23.0144 13.6172 23.2502 13.6172C23.486 13.6172 23.6747 13.7596 23.6747 13.9493Z" fill="#BEE38D"/>
<path d="M23.5333 17.8403C23.3918 17.9352 23.1088 17.7454 22.9202 17.4607C22.7315 17.176 22.6372 16.8914 22.7315 16.749C22.8258 16.6067 23.2031 16.749 23.3918 17.0812C23.6276 17.4133 23.6747 17.7454 23.5333 17.8403Z" fill="#BEE38D"/>
<path d="M22.7314 21.0667C22.5899 21.1616 22.3069 20.9244 22.2598 20.5922C22.1654 20.2601 22.2597 19.9754 22.4484 19.928C22.637 19.8805 22.7785 20.1178 22.8728 20.4024C22.92 20.7346 22.8728 20.9718 22.7314 21.0667Z" fill="#BEE38D"/>
<path d="M22.3542 24.3881C22.1656 24.4356 21.977 24.1509 21.9298 23.7713C21.8826 23.3917 22.0241 23.0596 22.2128 23.0596C22.4014 23.0596 22.5429 23.3443 22.59 23.6764C22.59 24.056 22.4957 24.3407 22.3542 24.3881Z" fill="#BEE38D"/>
<path d="M21.7883 27.8519C21.5996 27.8519 21.411 27.5198 21.3638 27.0453C21.2695 26.5233 21.4581 26.0963 21.6468 26.1438C21.8354 26.1912 21.8826 26.5233 21.9769 26.9978C22.0241 27.4249 21.9769 27.8519 21.7883 27.8519Z" fill="#BEE38D"/>
<path d="M21.5525 32.0749C21.3638 32.0749 21.2224 31.6479 21.2224 31.1259C21.2224 30.604 21.3638 30.177 21.5525 30.177C21.7411 30.177 21.8826 30.604 21.8826 31.1259C21.8354 31.6479 21.694 32.0749 21.5525 32.0749Z" fill="#BEE38D"/>
<path d="M21.0808 33.8774C20.8922 33.8774 20.7507 33.735 20.7979 33.4978C20.7979 33.2605 21.0337 33.1182 21.1751 33.1656C21.3166 33.2131 21.4109 33.4029 21.4109 33.5452C21.3638 33.735 21.2695 33.8774 21.0808 33.8774Z" fill="#BEE38D"/>
<path d="M17.6853 7.16427C17.6853 7.06937 17.8268 7.02192 18.0155 7.06937C18.2041 7.06937 18.4871 7.21172 18.6757 7.35406C19.1473 7.73364 19.2888 8.16067 19.1473 8.25557C19.0058 8.35046 18.6757 8.11323 18.2984 7.82854C17.9683 7.54385 17.6853 7.30661 17.6853 7.16427Z" fill="#BEE38D"/>
<path d="M18.1568 11.3398C18.204 11.1975 18.4398 11.1026 18.7227 11.15C19.0057 11.2449 19.1944 11.4821 19.1 11.6245C19.0057 11.7668 18.7699 11.8143 18.5341 11.7194C18.2983 11.6719 18.1097 11.5296 18.1568 11.3398Z" fill="#BEE38D"/>
<path d="M17.4495 13.9493C17.4495 13.7596 17.7796 13.6172 18.1569 13.6172C18.5342 13.6172 18.8643 13.7596 18.8643 13.9493C18.8643 14.1391 18.5342 14.2815 18.1569 14.2815C17.7796 14.2815 17.4495 14.1391 17.4495 13.9493Z" fill="#BEE38D"/>
<path d="M17.8739 16.3219C17.8267 16.1796 18.0625 15.9423 18.4398 15.8C18.8171 15.6576 19.1944 15.7525 19.1944 15.9423C19.1944 16.1321 18.9586 16.2744 18.6284 16.4168C18.2512 16.5117 17.921 16.5117 17.8739 16.3219Z" fill="#BEE38D"/>
<path d="M17.6852 18.9314C17.638 18.8839 17.6852 18.7416 17.8266 18.5992C17.9681 18.4569 18.2039 18.3146 18.4869 18.2197C19.0057 18.0773 19.4301 18.0773 19.5244 18.2197C19.6188 18.362 19.1943 18.6467 18.6755 18.8365C18.2039 18.9788 17.8266 19.0737 17.6852 18.9314Z" fill="#BEE38D"/>
<path d="M18.0154 22.1578C17.8739 22.1104 17.9682 21.4936 18.3926 20.9242C18.8171 20.3548 19.3359 20.1176 19.4302 20.2599C19.5245 20.4023 19.2415 20.8293 18.8643 21.3038C18.487 21.8257 18.1568 22.2527 18.0154 22.1578Z" fill="#BEE38D"/>
<path d="M18.1097 24.6254C18.0154 24.483 17.9682 24.2933 18.0626 24.1984C18.1097 24.1035 18.2512 24.0086 18.4399 24.0086C18.5342 24.0086 18.6285 24.056 18.6285 24.1509C18.6757 24.2458 18.6757 24.3881 18.5813 24.483C18.4399 24.7203 18.204 24.7677 18.1097 24.6254Z" fill="#BEE38D"/>
<path d="M14.5727 10.2482C14.5256 10.1058 14.9028 9.7737 15.5159 9.8686C15.7989 9.91605 16.0819 10.0109 16.2233 10.1533C16.3648 10.2956 16.412 10.438 16.3177 10.4854C16.1762 10.6278 15.8932 10.4854 15.4688 10.4854C14.9972 10.3905 14.6199 10.3905 14.5727 10.2482Z" fill="#BEE38D"/>
<path d="M13.1578 12.2888C13.1578 12.099 13.535 12.0041 14.0067 12.0516C14.4311 12.1465 14.7141 12.2888 14.7612 12.4312C14.7612 12.6209 14.3839 12.7633 13.9123 12.6684C13.4407 12.6209 13.1578 12.4786 13.1578 12.2888Z" fill="#BEE38D"/>
<path d="M14.3368 15.1355C14.2896 14.9932 14.4311 14.7559 14.6669 14.7085C14.9027 14.661 15.1385 14.8034 15.1385 14.9457C15.1385 15.1355 14.997 15.2779 14.8084 15.3253C14.5726 15.3727 14.3839 15.2779 14.3368 15.1355Z" fill="#BEE38D"/>
<path d="M15.0443 17.7453C14.95 17.6029 15.0443 17.3657 15.2801 17.2233C15.4687 17.081 15.7045 17.0335 15.846 17.1284C15.9875 17.2708 15.8932 17.508 15.6574 17.6978C15.3744 17.8876 15.0915 17.8876 15.0443 17.7453Z" fill="#BEE38D"/>
<path d="M19.8075 14.2816C19.7132 14.1392 19.8546 13.8545 20.1376 13.7122C20.4206 13.5699 20.7507 13.6173 20.7507 13.8071C20.7979 13.9494 20.6564 14.1392 20.4206 14.2816C20.1848 14.3765 19.9018 14.3765 19.8075 14.2816Z" fill="#BEE38D"/>
<path d="M19.9018 16.9387C19.7603 16.8438 19.8547 16.5117 20.0433 16.2744C20.2791 16.0372 20.5149 15.8949 20.6564 15.9898C20.7979 16.0847 20.7035 16.4168 20.5149 16.654C20.2791 16.9387 20.0433 17.0336 19.9018 16.9387Z" fill="#BEE38D"/>
<path d="M20.4677 19.7857C20.3262 19.6908 20.3734 19.3586 20.562 19.0739C20.7035 18.7892 20.9393 18.5995 21.128 18.6469C21.2695 18.6943 21.3166 19.0265 21.128 19.3586C20.8922 19.7382 20.562 19.928 20.4677 19.7857Z" fill="#BEE38D"/>
<path d="M33.4369 8.73044C33.5784 8.82534 33.5784 9.15747 33.5313 9.53706C33.4841 9.96409 33.3898 10.2962 33.2011 10.2962C33.0125 10.2962 32.871 9.96409 32.9182 9.44216C32.9182 8.96768 33.2483 8.63554 33.4369 8.73044Z" fill="#BEE38D"/>
<path d="M36.408 10.2488C36.5495 10.3911 36.3608 10.7233 36.0779 11.1029C35.7949 11.4824 35.4648 11.7671 35.3233 11.6722C35.1818 11.5773 35.2761 11.1503 35.6062 10.7233C35.8892 10.2963 36.2665 10.1065 36.408 10.2488Z" fill="#BEE38D"/>
<path d="M36.6438 14.2815C36.5967 14.4239 36.408 14.5662 36.1251 14.7085C35.8421 14.8509 35.4648 14.8509 35.4176 14.7085C35.3705 14.5662 35.5591 14.329 35.8893 14.1392C36.0779 14.0443 36.2665 14.0443 36.4552 14.0917C36.5967 14.0917 36.6438 14.1866 36.6438 14.2815Z" fill="#BEE38D"/>
<path d="M36.5495 17.0334C36.5966 17.1758 36.408 17.413 36.0779 17.5554C35.7477 17.6977 35.4176 17.6028 35.3705 17.413C35.3233 17.2232 35.5591 17.0809 35.8421 16.9385C36.1722 16.8437 36.5023 16.8911 36.5495 17.0334Z" fill="#BEE38D"/>
<path d="M35.7006 20.592C35.6063 20.7343 35.4176 20.7817 35.1818 20.7817C34.946 20.7817 34.7102 20.6394 34.7102 20.4496C34.7102 20.2598 34.946 20.1175 35.2762 20.1649C35.5591 20.1649 35.7949 20.4496 35.7006 20.592Z" fill="#BEE38D"/>
<path d="M34.9934 23.9135C34.9462 24.0559 34.6632 24.1033 34.3803 24.0084C34.0973 23.9135 33.8615 23.7237 33.9087 23.5814C33.9558 23.3916 34.2388 23.2967 34.5689 23.3916C34.8519 23.5339 35.0405 23.7712 34.9934 23.9135Z" fill="#BEE38D"/>
<path d="M33.5784 26.9029C33.4841 27.0452 33.2483 27.0926 33.0125 26.9503C32.7767 26.808 32.6824 26.5707 32.7767 26.4284C32.871 26.286 33.1068 26.286 33.3426 26.3809C33.5313 26.5233 33.6256 26.7605 33.5784 26.9029Z" fill="#BEE38D"/>
<path d="M32.3994 29.5123C32.305 29.6546 32.0692 29.7021 31.7863 29.6072C31.5033 29.5123 31.2675 29.2751 31.3618 29.1327C31.4561 28.9904 31.6919 28.9429 31.9749 29.0378C32.2579 29.1327 32.4937 29.37 32.3994 29.5123Z" fill="#BEE38D"/>
<path d="M31.4562 32.2167C31.3619 32.359 31.0789 32.359 30.7959 32.2167C30.513 32.0743 30.3243 31.8371 30.3715 31.6947C30.4187 31.5524 30.7488 31.5049 31.0789 31.6473C31.3619 31.7896 31.5505 32.0743 31.4562 32.2167Z" fill="#BEE38D"/>
<path d="M29.947 34.8263C29.8055 34.9212 29.5226 34.7314 29.1924 34.3993C28.8623 34.0672 28.7208 33.6401 28.8623 33.5452C29.0038 33.4503 29.2868 33.6401 29.6169 33.9723C29.947 34.3044 30.0885 34.7314 29.947 34.8263Z" fill="#BEE38D"/>
<path d="M34.5216 12.6685C34.616 12.8108 34.333 13.143 34.0029 13.57C33.6727 13.9496 33.3426 14.2817 33.2011 14.1868C33.0596 14.0919 33.154 13.6174 33.5784 13.143C33.9557 12.7159 34.4273 12.5261 34.5216 12.6685Z" fill="#BEE38D"/>
<path d="M34.2859 16.322C34.2859 16.5118 34.0973 16.6541 33.8143 16.7965C33.5785 16.9388 33.3427 17.0337 33.1541 16.9388C33.0126 16.8439 33.1069 16.4644 33.4842 16.2271C33.9086 16.0373 34.2859 16.1322 34.2859 16.322Z" fill="#BEE38D"/>
<path d="M33.5784 19.7382C33.6256 19.928 33.4841 20.0704 33.2011 20.1653C32.9182 20.2127 32.6824 20.0704 32.6824 19.928C32.6824 19.7382 32.871 19.5959 33.0596 19.5484C33.2954 19.4535 33.5313 19.5484 33.5784 19.7382Z" fill="#BEE38D"/>
<path d="M32.7768 22.3948C32.7768 22.5846 32.5881 22.7269 32.3523 22.7269C32.1165 22.7269 31.9279 22.5846 31.9279 22.3948C31.9279 22.205 32.1165 22.0627 32.3523 22.0627C32.5881 22.1101 32.7768 22.2525 32.7768 22.3948Z" fill="#BEE38D"/>
<path d="M32.1636 24.4825C32.0693 24.6249 31.7863 24.5774 31.5505 24.53C31.2676 24.4825 31.0318 24.3876 30.9846 24.2453C30.9375 24.1029 31.2676 23.8657 31.6449 23.9131C32.0693 24.008 32.258 24.3402 32.1636 24.4825Z" fill="#BEE38D"/>
<path d="M31.4562 26.9028C31.3619 27.0451 31.0789 26.9977 30.796 26.9028C30.513 26.8079 30.2772 26.6656 30.2772 26.4758C30.2772 26.286 30.6073 26.1436 30.9846 26.286C31.3619 26.4758 31.5505 26.8079 31.4562 26.9028Z" fill="#BEE38D"/>
<path d="M30.8903 29.2276C30.7959 29.3699 30.5601 29.4174 30.2772 29.275C29.9942 29.1327 29.8527 28.8954 29.947 28.7531C30.0414 28.6107 30.2772 28.6107 30.5601 28.7056C30.7959 28.8005 30.9846 29.0378 30.8903 29.2276Z" fill="#BEE38D"/>
<path d="M28.7208 30.5559C28.5794 30.6034 28.3907 30.5085 28.2964 30.3661C28.2021 30.2238 28.2492 30.034 28.3907 29.9391C28.5322 29.8442 28.7208 29.8917 28.8623 30.0814C28.9566 30.3187 28.8623 30.5085 28.7208 30.5559Z" fill="#BEE38D"/>
<path d="M27.4476 34.0199C27.2589 34.0199 27.1174 33.7352 27.1174 33.3557C27.0703 32.9761 27.2118 32.5965 27.4004 32.5965C27.5891 32.5965 27.7305 32.8812 27.7305 33.2608C27.7305 33.6878 27.6362 34.0199 27.4476 34.0199Z" fill="#BEE38D"/>
<path d="M29.4283 14.044C29.5698 13.9491 29.8999 14.1863 30.1357 14.5659C30.4187 14.9455 30.5601 15.2776 30.4187 15.4199C30.3243 15.5623 29.8999 15.3725 29.6169 14.9455C29.334 14.5184 29.2868 14.1388 29.4283 14.044Z" fill="#BEE38D"/>
<path d="M28.0605 16.6539C28.1549 16.5115 28.4378 16.559 28.7208 16.7962C28.9566 17.0335 29.0038 17.3656 28.8623 17.4605C28.7208 17.5554 28.485 17.4605 28.2963 17.2707C28.0605 17.0335 27.9662 16.7962 28.0605 16.6539Z" fill="#BEE38D"/>
<path d="M27.2117 20.3547C27.306 20.2124 27.589 20.2124 27.8248 20.3547C28.0606 20.4971 28.1549 20.7818 28.0606 20.9241C27.9663 21.0664 27.6833 21.0664 27.4475 20.8766C27.2589 20.7343 27.1174 20.4971 27.2117 20.3547Z" fill="#BEE38D"/>
<path d="M26.2685 23.6763C26.3156 23.5339 26.6458 23.4865 26.9287 23.5339C27.2589 23.5814 27.4947 23.7237 27.4947 23.9135C27.4947 24.1033 27.2117 24.2457 26.7872 24.1508C26.41 24.1033 26.1742 23.8186 26.2685 23.6763Z" fill="#BEE38D"/>
<path d="M25.1838 26.8555C25.1367 26.7131 25.4196 26.381 25.9384 26.2387C26.4572 26.0489 26.9288 26.1912 26.9288 26.381C26.9288 26.5708 26.5987 26.7131 26.1271 26.8555C25.6555 26.9504 25.231 26.9978 25.1838 26.8555Z" fill="#BEE38D"/>
<path d="M25.231 29.7022C25.0895 29.6073 25.3725 29.0854 25.9384 28.7533C26.5043 28.3737 27.0703 28.3737 27.1174 28.516C27.1646 28.7058 26.7401 28.9431 26.2685 29.2752C25.7969 29.5599 25.3725 29.7971 25.231 29.7022Z" fill="#BEE38D"/>
<path d="M24.9481 32.5967C24.8066 32.5492 24.8538 32.0273 25.231 31.6477C25.6083 31.2681 26.0328 31.1732 26.1271 31.3156C26.2214 31.4579 25.9856 31.7901 25.6555 32.0747C25.3254 32.4069 25.0896 32.6916 24.9481 32.5967Z" fill="#BEE38D"/>
<path d="M30.513 17.3655C30.513 17.1757 30.8903 17.1283 31.3147 17.2232C31.692 17.3181 31.975 17.5079 31.9278 17.6977C31.9278 17.8875 31.5505 17.9349 31.1261 17.84C30.7488 17.6977 30.4658 17.5079 30.513 17.3655Z" fill="#BEE38D"/>
<path d="M29.2396 20.3544C29.3339 20.2121 29.6169 20.3069 29.8055 20.5442C29.9942 20.7814 29.947 21.0661 29.8055 21.161C29.664 21.2559 29.4282 21.1136 29.2868 20.9238C29.1924 20.734 29.1453 20.4967 29.2396 20.3544Z" fill="#BEE38D"/>
<path d="M27.6833 24.5303C27.6361 24.4829 27.6361 24.3405 27.7304 24.1507C27.8719 24.0084 28.1077 23.8661 28.3907 23.8186C28.6736 23.7712 28.8623 23.7712 29.0038 23.7712C29.1452 23.7712 29.2867 23.8186 29.3339 23.9135C29.381 24.0084 29.2867 24.1033 29.1452 24.1982C29.0038 24.2931 28.768 24.388 28.5322 24.4354C28.3435 24.4829 28.1549 24.5303 28.0134 24.5303C27.8719 24.5778 27.7304 24.6252 27.6833 24.5303Z" fill="#BEE38D"/>
<path d="M27.9192 26.7604C27.8249 26.713 27.7778 26.6181 27.8249 26.4283C27.8721 26.2385 27.9664 26.0487 28.1551 25.8589C28.3437 25.7166 28.5795 25.6217 28.721 25.6217C28.9096 25.6217 29.0039 25.6691 29.0039 25.764C29.0039 25.9538 28.7681 26.0962 28.5323 26.3334C28.2965 26.5707 28.0607 26.8079 27.9192 26.7604Z" fill="#BEE38D"/>
<path d="M27.3533 29.4647C27.2118 29.3698 27.3061 28.9428 27.6834 28.6107C28.0607 28.2311 28.4852 28.1362 28.5323 28.2785C28.6266 28.4209 28.3908 28.753 28.1079 29.0377C27.8249 29.3224 27.4948 29.5596 27.3533 29.4647Z" fill="#BEE38D"/>
<path d="M38.2002 19.0265C38.3416 19.074 38.3888 19.5959 38.3888 20.2602C38.3888 20.9245 38.2945 21.4938 38.1058 21.4938C37.9172 21.4938 37.7757 20.9719 37.7757 20.2602C37.7757 19.5485 38.0587 18.9791 38.2002 19.0265Z" fill="#BEE38D"/>
<path d="M40.5111 18.4572C40.6526 18.5521 40.5582 18.8842 40.4168 19.2163C40.2753 19.5485 40.1338 19.7857 39.9923 19.7857C39.8037 19.7857 39.6622 19.3587 39.8508 18.9317C39.9923 18.5521 40.3696 18.3623 40.5111 18.4572Z" fill="#BEE38D"/>
<path d="M43.0106 17.508C43.1049 17.6504 42.8691 18.03 42.6333 18.4096C42.3975 18.7891 42.256 19.1687 42.0674 19.1687C41.973 19.1687 41.8787 19.0738 41.8787 18.8366C41.8787 18.6468 41.9259 18.3147 42.0674 18.0774C42.4446 17.5555 42.9163 17.3657 43.0106 17.508Z" fill="#BEE38D"/>
<path d="M45.6044 18.5523C45.6516 18.7421 45.3686 18.9318 45.0385 19.1691C44.7084 19.3589 44.4254 19.5487 44.2839 19.4538C44.1424 19.3589 44.2839 18.9318 44.7084 18.6472C45.1328 18.315 45.5573 18.3625 45.6044 18.5523Z" fill="#BEE38D"/>
<path d="M46.1705 21.6833C46.2176 21.8256 46.029 22.0629 45.6988 22.0629C45.4159 22.0629 45.2272 21.9205 45.2272 21.7782C45.2272 21.5884 45.463 21.446 45.6988 21.446C45.8875 21.446 46.0761 21.5409 46.1705 21.6833Z" fill="#BEE38D"/>
<path d="M45.3686 24.5302C45.3686 24.72 45.0384 24.8623 44.6612 24.8623C44.2839 24.8623 43.9538 24.72 43.9538 24.5302C43.9538 24.3404 44.2839 24.198 44.6612 24.198C45.0384 24.198 45.3686 24.3878 45.3686 24.5302Z" fill="#BEE38D"/>
<path d="M42.6333 28.089C42.539 28.2313 42.3504 28.2788 42.1617 28.1839C41.9731 28.1364 41.7845 27.8992 41.8788 27.7569C41.9259 27.6145 42.1617 27.5196 42.3975 27.6145C42.5862 27.7094 42.7277 27.9467 42.6333 28.089Z" fill="#BEE38D"/>
<path d="M40.3224 30.3191C40.1809 30.4614 39.898 30.3665 39.7093 30.1293C39.5207 29.8921 39.4735 29.6548 39.615 29.5125C39.7565 29.3701 40.0395 29.465 40.2281 29.7023C40.4167 29.9395 40.4639 30.1768 40.3224 30.3191Z" fill="#BEE38D"/>
<path d="M37.9643 32.3591C37.8228 32.454 37.587 32.3591 37.4456 32.3117C37.3041 32.2168 37.1154 32.0744 37.1154 31.8847C37.1154 31.7898 37.1626 31.6949 37.3041 31.6949C37.4456 31.6474 37.587 31.6474 37.7757 31.7423C38.0586 31.9321 38.1058 32.3117 37.9643 32.3591Z" fill="#BEE38D"/>
<path d="M36.0779 34.4472C35.9836 34.5895 35.7006 34.5421 35.5591 34.2099C35.4648 33.8778 35.6063 33.6406 35.7949 33.688C35.9836 33.688 36.0779 33.8778 36.1722 34.0201C36.1722 34.115 36.2194 34.3048 36.0779 34.4472Z" fill="#BEE38D"/>
<path d="M43.2464 19.7852C43.3407 19.9276 43.0577 20.3072 42.7276 20.6867C42.3503 21.0663 41.973 21.3985 41.8316 21.3036C41.6901 21.2087 41.8316 20.7342 42.256 20.2597C42.6333 19.8327 43.1521 19.6429 43.2464 19.7852Z" fill="#BEE38D"/>
<path d="M43.3879 22.5849C43.3879 22.7747 43.1521 22.917 42.8219 23.0594C42.4918 23.1543 42.1145 23.1068 42.1145 22.917C42.0674 22.7272 42.3032 22.5374 42.6333 22.4425C43.0577 22.3002 43.3879 22.3951 43.3879 22.5849Z" fill="#BEE38D"/>
<path d="M41.9258 25.3369C41.8315 25.4793 41.6429 25.5267 41.4071 25.4793C41.1713 25.4318 40.9826 25.2895 40.9826 25.0997C40.9826 24.9099 41.2184 24.7675 41.5485 24.8624C41.8315 24.9099 42.0202 25.1946 41.9258 25.3369Z" fill="#BEE38D"/>
<path d="M40.2752 27.2348C40.2752 27.4246 39.9923 27.5669 39.6621 27.5195C39.2848 27.5195 39.0019 27.2348 39.0962 27.045C39.1905 26.9027 39.4263 26.8552 39.7093 26.8552C39.9923 26.9501 40.2752 27.045 40.2752 27.2348Z" fill="#BEE38D"/>
<path d="M38.6718 29.3702C38.6246 29.5125 38.3417 29.6074 38.0115 29.6074C37.6814 29.56 37.3513 29.3702 37.3984 29.2278C37.4456 29.038 37.7286 28.9906 38.0587 28.9906C38.436 28.9906 38.719 29.1804 38.6718 29.3702Z" fill="#BEE38D"/>
<path d="M36.1723 31.505C36.0308 31.6474 35.8422 31.5999 35.7007 31.4576C35.5592 31.3152 35.5592 31.0305 35.7007 30.9356C35.8422 30.8882 36.0308 30.8882 36.1723 31.0305C36.2666 31.1729 36.2666 31.3627 36.1723 31.505Z" fill="#BEE38D"/>
<path d="M34.1915 33.5453C34.0972 33.6877 33.8142 33.6402 33.5313 33.4979C33.2955 33.3555 33.1068 33.1657 33.154 33.0234C33.154 32.8336 33.5313 32.7862 33.8614 32.9759C34.1915 33.1657 34.2858 33.403 34.1915 33.5453Z" fill="#BEE38D"/>
<path d="M39.2377 20.6871C39.4263 20.6396 39.6621 21.0192 39.7565 21.4937C39.8508 21.9682 39.8508 22.3478 39.7093 22.4427C39.5678 22.5376 39.2377 22.158 39.1434 21.636C39.0491 21.1141 39.0491 20.7345 39.2377 20.6871Z" fill="#BEE38D"/>
<path d="M37.0212 23.2016C37.1627 23.0593 37.4928 23.2965 37.6343 23.771C37.7757 24.198 37.6343 24.5302 37.4928 24.5776C37.3041 24.6251 37.1627 24.2929 37.0683 23.9608C36.974 23.5812 36.8797 23.344 37.0212 23.2016Z" fill="#BEE38D"/>
<path d="M35.3234 25.6691C35.4177 25.5267 35.7478 25.5742 35.9836 25.8114C36.2194 26.0487 36.3138 26.3334 36.1723 26.4283C36.0308 26.5706 35.7478 26.4757 35.5592 26.2385C35.3234 26.0487 35.1819 25.8114 35.3234 25.6691Z" fill="#BEE38D"/>
<path d="M33.8143 27.8043C33.8615 27.6619 34.1916 27.6145 34.5217 27.6619C34.8519 27.7094 35.1348 27.8517 35.1348 28.0415C35.1348 28.2313 34.8047 28.3736 34.3802 28.2787C34.003 28.2313 33.72 27.9466 33.8143 27.8043Z" fill="#BEE38D"/>
<path d="M32.3995 31.1254C32.258 30.9831 32.4938 30.651 32.9182 30.6035C33.3427 30.5086 33.6256 30.7459 33.5785 30.8882C33.5313 31.078 33.2955 31.1254 33.0125 31.1729C32.7296 31.2203 32.4938 31.2203 32.3995 31.1254Z" fill="#BEE38D"/>
<path d="M40.794 22.8221C40.794 23.0119 40.6053 23.1543 40.3695 23.2966C40.1337 23.439 39.8979 23.5338 39.7564 23.439C39.615 23.3441 39.6621 22.9645 40.0394 22.7747C40.4167 22.5374 40.794 22.6323 40.794 22.8221Z" fill="#BEE38D"/>
<path d="M39.1433 25.8116C39.049 25.9539 38.8603 26.0013 38.6245 26.0962C38.3416 26.1911 38.0586 26.1911 37.9643 26.0488C37.87 25.9064 38.0586 25.6218 38.4359 25.4794C38.6245 25.432 38.8603 25.432 39.0018 25.5269C39.1433 25.6218 39.1905 25.7167 39.1433 25.8116Z" fill="#BEE38D"/>
<path d="M37.3512 27.8042C37.2097 27.8991 37.0682 27.9465 36.9739 27.9465C36.9268 27.8991 36.7853 27.8042 36.7381 27.6618C36.691 27.5669 36.7381 27.472 36.7853 27.4246C36.8796 27.3771 36.9739 27.3297 37.1154 27.3297C37.4455 27.3771 37.4927 27.6618 37.3512 27.8042Z" fill="#BEE38D"/>
<path d="M36.2665 30.0817C36.2665 30.2715 35.9364 30.4139 35.6063 30.2715C35.2762 30.1292 35.0875 29.797 35.229 29.7021C35.3705 29.6072 35.5591 29.6072 35.8421 29.7021C36.0307 29.7496 36.2194 29.8919 36.2665 30.0817Z" fill="#BEE38D"/>
</g>
<defs>
<radialGradient id="paint0_radial" cx="0" cy="0" r="1" gradientUnits="userSpaceOnUse" gradientTransform="translate(12.4813 49.9714) rotate(29.5346) scale(9.56344 8.02913)">
<stop stop-color="#FF9900"/>
<stop offset="1" stop-color="#FF9900" stop-opacity="0"/>
</radialGradient>
<clipPath id="clip0">
<rect width="49" height="66" fill="white"/>
</clipPath>
</defs>
</svg>
