<svg width="55" height="68" viewBox="0 0 55 68" fill="none" xmlns="http://www.w3.org/2000/svg">
<path d="M54.7409 6.46053C54.0861 4.44754 50.7116 2.63093 48.9991 4.54573C48.7977 3.80927 48.5962 3.71108 48.5458 2.92552C48.4955 2.18905 48.0422 1.50169 47.337 1.15801C46.4304 0.71613 44.7684 0.225156 43.761 0.0287657C42.0989 -0.216722 41.5953 1.15801 40.9405 2.28725C40.588 2.92552 40.3865 3.61288 40.3865 4.34934C40.3865 5.42949 40.6887 5.92046 40.2858 6.90241C39.3288 4.74212 37.3645 6.16595 35.8535 6.46053C33.9396 6.85331 34.4433 5.96956 33.6374 4.54573C32.7812 3.02371 31.3206 1.79627 29.5577 1.40349C28.5 1.15801 27.4927 1.55079 26.5861 1.05981C25.7803 0.617935 24.7729 0.71613 24.0678 1.2562C23.4634 1.74718 23.2116 2.53274 23.3123 3.2692C23.413 4.25115 23.6145 4.74212 23.6145 5.77317C23.6145 7.49158 24.2693 9.1118 25.2766 10.4865C25.9817 11.4194 25.8306 12.9414 26.5861 14.0215C26.2336 14.8562 25.3773 15.1017 25.0751 16.0345C24.8233 16.771 25.7803 18.0966 25.6795 18.3421C24.2189 17.9002 22.5064 15.9854 21.0458 17.8511C20.5925 16.6237 19.9378 15.4454 19.1319 14.3652C18.729 13.8743 18.326 13.3833 17.8727 12.8923C16.8654 11.8613 17.0669 12.0576 17.4195 10.732C17.772 9.45548 17.7216 8.12985 17.1676 6.90241C17.4195 5.57678 16.3618 4.34934 15.0019 4.34934C13.0376 4.34934 9.76377 3.12191 9.31047 6.06775C9.20974 6.60783 9.46157 7.0988 9.36084 7.58978C8.75644 7.98256 8.35351 8.62082 8.30315 9.30819C7.79948 9.50458 7.39655 9.89736 7.14472 10.3883C6.64106 11.5176 7.09436 11.223 5.8352 11.6158C4.82787 11.9104 4.12274 12.7941 4.22348 13.8252C3.06505 13.727 1.95699 14.5125 1.80589 15.6909C1.65479 16.8692 0.697835 17.6548 1.00003 19.0295C1.2015 19.9132 2.10809 21.3371 3.01469 21.6807C4.07238 22.0735 5.13007 21.3862 6.18776 21.2389C6.69143 21.5335 7.34619 21.5826 7.90022 21.4353C9.20974 21.0916 8.80681 20.7479 9.96524 21.6317C10.62 22.1717 11.8792 22.81 12.0303 23.4974C12.2821 24.6266 13.4405 25.314 14.5989 25.1176C14.196 25.8049 14.2464 26.6396 14.6997 27.2779C15.4552 28.358 14.6997 28.4562 14.3975 29.5363C14.1456 30.371 14.3975 31.3039 15.153 31.8439C15.8077 32.3349 14.8004 33.3659 15.153 34.3479C15.4048 35.0844 16.0596 35.5753 16.8151 35.7226C16.6136 36.7046 15.7574 36.6555 15.0019 37.2937C14.2967 37.8829 13.9442 38.6194 14.1456 40.4851C14.2967 41.7125 14.4478 42.9891 14.5989 44.2165C14.8508 46.2295 15.153 48.2425 15.4048 50.2555C16.0596 54.7233 16.4121 59.7313 18.0238 64.0028C18.8801 66.2613 23.5641 66.6049 25.4277 66.8995C27.946 67.2432 30.5147 67.4396 33.033 67.2432C36.2565 66.9977 39.631 66.2122 42.0486 63.9537C43.5092 62.5789 43.5092 59.7804 43.8114 57.9147C44.8187 52.023 46.6319 40.5833 46.3801 39.1103C46.229 38.2266 45.6749 37.4901 44.9195 36.9992C43.2574 35.8699 40.9909 35.5262 39.0266 35.1826C39.7317 33.906 40.588 32.7277 41.3938 31.5002C41.6456 31.3039 42.0989 30.371 42.25 30.3219C43.3077 30.0764 44.0129 29.1436 44.0129 28.0634C44.0129 26.8851 45.4231 26.2959 45.1713 24.7739C44.9698 23.6446 44.6676 23.3501 44.8691 22.1226C45.0706 20.9934 45.1713 19.9132 45.2217 18.784C45.272 17.9002 45.5239 17.3111 45.6246 16.4764C46.4304 16.3291 47.0348 15.74 47.337 15.0035C48.7977 14.5616 50.8123 14.4634 50.762 12.4013C50.7116 10.9284 52.4744 11.7631 53.3306 10.732C54.1365 9.70097 55.4964 7.88436 54.7409 6.46053Z" fill="white"/>
<path d="M11.9797 11.9602C10.2169 7.39414 12.2819 5.52843 14.2462 6.55948C16.2104 7.59053 16.3112 10.6346 13.7929 13.0894C12.4833 13.2367 11.9797 11.9602 11.9797 11.9602Z" fill="#8FC745"/>
<path d="M9.20985 17.6555C6.23824 15.2497 2.66223 16.7718 3.06516 18.6375C3.46809 20.5032 9.91498 18.2447 9.91498 18.2447L9.20985 17.6555Z" fill="#8FC745"/>
<path d="M29.3561 36.5089C21.096 36.5089 16.009 38.2273 16.009 39.2092C16.009 40.1912 18.477 59.5356 19.9376 63.3161C20.5923 64.3471 35.803 67.8822 40.89 62.285C41.5447 61.0576 44.2141 41.615 44.4156 39.5529C44.6171 37.4908 36.357 36.5089 29.3561 36.5089Z" fill="#F7B76D"/>
<path d="M44.4157 39.6021C44.5165 38.7674 43.1062 38.08 40.9908 37.5891L34.695 40.3876C35.9038 41.3696 41.0412 46.6721 43.1566 48.8815C43.761 44.4627 44.315 40.4367 44.4157 39.6021Z" fill="#96685A"/>
<path d="M25.5787 63.4633L24.6721 64.789C29.7591 65.6727 37.5155 65.9673 40.8396 62.285C41.0915 61.7449 41.7462 58.0135 42.401 53.6929L25.5787 63.4633Z" fill="#ABE6FF"/>
<path d="M17.369 47.8014L17.0164 46.8686C17.8726 53.0057 19.031 61.0086 19.9376 63.2671C20.2398 63.7581 23.9669 64.8382 28.3488 65.1819L17.369 47.8014Z" fill="#96685A"/>
<path d="M22.8588 40.1421C20.0887 40.3385 17.5704 39.5529 16.1097 38.9637C16.0594 39.0619 16.009 39.1601 16.009 39.2092C16.009 39.7002 16.563 44.3154 17.3185 49.4706L22.8588 40.1421Z" fill="#FFE5DE"/>
<path d="M44.1134 38.9146C42.6528 37.3435 35.5008 36.5089 29.3561 36.5089C21.096 36.5089 16.009 38.2273 16.009 39.2092V39.2583C17.2682 40.2403 22.3552 40.9276 30.716 41.1731C36.3066 41.2713 44.5163 39.9457 44.1134 38.9146Z" fill="#FFC98C"/>
<path d="M31.1194 11.7147C26.536 11.7147 23.9674 4.64468 26.9893 3.46634C30.0113 2.288 32.58 5.33205 32.3785 7.44324C32.1771 9.55443 32.6807 11.1746 32.6807 11.1746L31.1194 11.7147Z" fill="#8FC745"/>
<path d="M40.2354 10.5363C41.9982 7.14853 47.7903 5.9211 48.7473 8.91604C49.7043 11.911 47.4881 14.6114 41.7464 12.7456C40.3865 11.8619 40.2354 10.5363 40.2354 10.5363Z" fill="#8FC745"/>
<path d="M44.0635 7.83595C41.0415 4.69371 42.6028 2.23883 44.3657 2.38613C46.1285 2.53342 48.0928 4.7919 45.3226 7.73775C44.4664 8.27782 44.0635 7.83595 44.0635 7.83595Z" fill="#ADD676"/>
<path d="M48.294 9.16169C49.9561 5.52848 52.3233 5.52848 52.8269 7.0505C53.3306 8.57252 50.359 10.1927 48.294 10.0454C48.294 9.79996 48.294 9.16169 48.294 9.16169Z" fill="#ADD676"/>
<path d="M28.9033 24.8729C29.0544 21.6816 26.2843 16.6246 29.7092 12.8441C33.1341 9.06357 38.07 5.97043 41.3438 10.8311C44.6176 15.6917 43.157 25.6094 39.1781 31.2065C35.1991 36.8036 35.0984 39.013 35.0984 39.013C35.0984 39.013 31.7742 39.4549 31.3713 39.2094C30.9684 38.9639 28.9033 24.8729 28.9033 24.8729Z" fill="#ADD676"/>
<path d="M22.6579 38.6692C14.3978 34.2504 15.808 19.0793 23.917 20.0122C32.026 20.945 36.156 34.9869 32.2275 39.2093C28.9536 40.093 24.4207 39.9948 22.6579 38.6692Z" fill="#8FC745"/>
<path d="M19.8875 21.5833C19.132 14.2186 11.7785 9.25978 8.50471 13.4331C5.2309 17.6064 16.5633 24.6764 18.8802 22.8107C19.9882 21.8287 19.8875 21.5833 19.8875 21.5833Z" fill="#ADD676"/>
<path d="M20.643 49.6671C20.7437 49.6671 20.7941 50.109 21.1467 50.6982C21.4992 51.2874 22.2547 51.9256 23.3124 52.0238C23.8161 52.0729 24.3198 52.0238 24.7227 51.8274C25.1256 51.631 25.3775 51.3856 25.5286 51.091C25.8307 50.5018 25.73 50.0108 25.8307 50.0108C25.8811 50.0108 25.9315 50.109 25.9818 50.3054C26.0322 50.5018 26.0826 50.8455 25.9315 51.2383C25.7804 51.631 25.4278 52.0729 24.9242 52.3184C24.4205 52.5639 23.8161 52.7112 23.1613 52.613C22.5066 52.5639 21.9525 52.3184 21.4992 51.9747C21.0459 51.631 20.7941 51.1892 20.643 50.8455C20.4416 50.1581 20.5926 49.6671 20.643 49.6671Z" fill="#D4780F"/>
<path d="M40.5376 49.6671C40.5879 49.6671 40.739 50.1581 40.4368 50.8946C40.2857 51.2874 40.0339 51.6801 39.5806 52.0238C39.1273 52.3675 38.5733 52.613 37.9185 52.6621C37.2638 52.7112 36.6594 52.613 36.1557 52.3675C35.652 52.122 35.2995 51.6801 35.1484 51.2874C34.9973 50.8946 35.0476 50.5509 35.098 50.3545C35.1484 50.1581 35.1987 50.0599 35.2491 50.0599C35.3498 50.0599 35.2491 50.5509 35.5513 51.1401C35.7024 51.4347 36.0046 51.6801 36.3572 51.8765C36.7601 52.0729 37.2638 52.122 37.7674 52.0729C38.8251 51.9747 39.5806 51.3365 39.9332 50.7473C40.3865 50.109 40.4368 49.6671 40.5376 49.6671Z" fill="#D4780F"/>
<path d="M32.1264 51.0909C32.2271 51.0909 32.2775 51.4836 32.2271 52.0728C32.2271 52.2201 32.2271 52.4165 32.1264 52.5638C32.076 52.7602 32.0257 52.9566 31.9249 53.153C31.8242 53.3493 31.6731 53.5457 31.4716 53.7421C31.3709 53.8403 31.2702 53.9385 31.1191 53.9876L30.9176 54.0858C30.8169 54.0858 30.7665 54.0858 30.6658 54.0858C30.5147 54.0858 30.3636 54.0367 30.2125 53.9876C30.0614 53.9385 29.9606 53.8403 29.8599 53.7912C29.7592 53.693 29.6584 53.6439 29.5577 53.5457C29.457 53.4475 29.4066 53.3493 29.3562 53.2512C29.1044 52.8584 29.0037 52.5147 28.9533 52.2201C28.9533 52.0728 28.903 51.9255 28.903 51.7782C28.903 51.6309 28.903 51.5327 28.903 51.4836C28.903 51.2873 28.9533 51.2382 29.0037 51.1891C29.0541 51.1891 29.1044 51.2873 29.1548 51.4345C29.2052 51.5327 29.2051 51.6309 29.2555 51.7291C29.3059 51.8273 29.3563 51.9746 29.4066 52.0728C29.5073 52.3183 29.6584 52.6129 29.8599 52.9075C30.0614 53.2021 30.3636 53.3984 30.6658 53.3984C30.968 53.3984 31.2198 53.153 31.3709 52.8584C31.4716 52.7111 31.522 52.5638 31.5724 52.4165C31.6227 52.2692 31.6731 52.1219 31.7235 51.9746C31.9249 51.4836 32.0257 51.0909 32.1264 51.0909Z" fill="#D4780F"/>
<path d="M20.3909 39.602C21.7004 38.8164 22.8085 38.4727 23.9165 38.8164C25.0246 39.1601 26.1327 39.3074 26.1327 39.3074C27.5429 38.5709 28.248 39.0128 28.8021 39.3074C30.8671 38.4236 32.7306 39.1601 32.7306 39.1601C34.6446 37.9817 38.9257 38.5218 40.1345 39.5529C36.3067 40.6821 22.7581 40.093 20.3909 39.602Z" fill="#96685A"/>
<path d="M40.6386 38.3748C40.6386 38.3748 40.7394 38.3748 40.8905 38.3748C40.9912 38.3748 41.0919 38.4239 41.1927 38.4729C41.243 38.4729 41.2934 38.522 41.3941 38.5711C41.4949 38.6202 41.5956 38.6693 41.646 38.7184C41.7467 38.7675 41.7971 38.8657 41.7971 39.013C41.7971 39.1112 41.6963 39.2094 41.5956 39.3076C41.3438 39.4549 41.1423 39.504 40.8905 39.5531C40.4372 39.6513 39.8832 39.7495 39.3291 39.8477C37.0123 40.1423 33.7888 40.2896 30.2128 40.3387C26.6368 40.3878 23.4134 40.2405 21.0965 39.8968C20.4921 39.7986 19.9885 39.7004 19.5352 39.6022C19.2833 39.5531 19.0819 39.504 18.83 39.4058C18.5782 39.3076 18.3767 39.1603 18.4271 38.9639C18.5278 38.8166 18.6789 38.7184 18.83 38.6693C18.9811 38.6202 19.0819 38.6202 19.1826 38.5711C19.3337 38.5711 19.4344 38.5711 19.4344 38.5711C19.4344 38.5711 19.3337 38.6202 19.1826 38.7184C19.0315 38.8166 18.83 38.8166 18.7293 38.9639C18.7293 39.013 18.7797 39.0621 18.83 39.0621C18.8804 39.0621 18.9308 39.1112 18.9811 39.1112C19.0819 39.1603 19.3337 39.2094 19.5352 39.2094C19.9885 39.2585 20.4921 39.3567 21.0965 39.4058C23.4134 39.6022 26.6368 39.7004 30.1625 39.6513C33.6881 39.6022 36.9115 39.5531 39.2284 39.3567C39.7824 39.3076 40.3364 39.2585 40.7897 39.1603C40.9912 39.1112 41.243 39.0621 41.2934 39.013C41.3438 39.013 41.3941 38.9639 41.4445 38.9148C41.4445 38.8657 41.4445 38.8166 41.3941 38.7675C41.3438 38.7184 41.243 38.6693 41.1423 38.6202C41.0416 38.5711 40.9408 38.522 40.8401 38.4729C40.689 38.4239 40.6386 38.3748 40.6386 38.3748Z" fill="#D4780F"/>
<path d="M22.7582 19.0303C22.9596 19.0303 23.1107 19.5703 23.1107 20.3068C23.1107 21.0433 23.01 21.5833 22.8085 21.5833C22.6071 21.5833 22.456 21.0433 22.456 20.3068C22.456 19.5703 22.5567 19.0303 22.7582 19.0303Z" fill="#BEE38D"/>
<path d="M26.183 20.5523C26.3341 20.6505 26.1327 21.0924 25.8808 21.5342C25.629 21.9761 25.4275 22.3689 25.2764 22.3198C25.075 22.3198 25.0246 21.7306 25.3268 21.1906C25.629 20.6996 26.0823 20.4541 26.183 20.5523Z" fill="#BEE38D"/>
<path d="M29.3059 23.4982C29.4067 23.6455 29.1548 23.9892 28.8526 24.2838C28.5504 24.5784 28.3993 24.8239 28.1979 24.8239C28.0971 24.8239 28.0468 24.6766 28.0468 24.4802C28.0468 24.2838 28.1475 24.0383 28.349 23.8419C28.7519 23.4491 29.2052 23.4 29.3059 23.4982Z" fill="#BEE38D"/>
<path d="M31.3204 27.1804C31.3204 27.2786 31.2196 27.3768 31.1189 27.475C30.9678 27.5732 30.8167 27.6714 30.5649 27.8186C30.313 27.9168 30.0612 28.015 29.8094 27.9659C29.6079 27.9659 29.4568 27.8677 29.4568 27.7695C29.4568 27.6714 29.5575 27.6223 29.7086 27.5241C29.8597 27.4259 30.0108 27.3277 30.2627 27.2295C30.5145 27.1313 30.7663 27.0331 30.9678 27.0331C31.1693 27.0331 31.3204 27.1313 31.3204 27.1804Z" fill="#BEE38D"/>
<path d="M32.227 30.2244C32.3278 30.3717 32.0256 30.6662 31.5723 30.8626C31.119 31.059 30.6657 30.9608 30.6153 30.7644C30.6153 30.5681 30.9175 30.4208 31.3205 30.2244C31.7737 30.1262 32.1767 30.0771 32.227 30.2244Z" fill="#BEE38D"/>
<path d="M33.2344 34.3977C33.2344 34.5941 32.8818 34.7414 32.4285 34.6923C31.9752 34.6923 31.6227 34.4959 31.6227 34.2995C31.673 34.1031 32.0256 34.054 32.4285 34.054C32.8818 34.1031 33.2344 34.2013 33.2344 34.3977Z" fill="#BEE38D"/>
<path d="M20.2401 22.3689C20.3408 22.418 20.3911 22.5162 20.4415 22.6635C20.5422 22.8108 20.643 23.0072 20.7941 23.2527C20.9452 23.4982 21.0459 23.7437 21.0963 23.9892C21.1466 24.1855 21.0963 24.3328 21.0459 24.3819C20.8948 24.431 20.5422 24.1364 20.2401 23.5964C20.089 23.3509 19.9882 23.0072 19.9882 22.7617C19.9882 22.4671 20.1393 22.3198 20.2401 22.3689Z" fill="#BEE38D"/>
<path d="M23.7655 23.9891C23.9165 24.0873 23.9669 24.3327 23.8662 24.6273C23.7655 24.8728 23.6144 25.0692 23.4633 25.0692C23.2618 25.0692 23.1107 24.7255 23.2618 24.4309C23.3625 24.0873 23.6144 23.94 23.7655 23.9891Z" fill="#BEE38D"/>
<path d="M26.4352 26.1985C26.5359 26.3458 26.4352 26.6895 26.133 27.0823C25.9819 27.2787 25.7804 27.4751 25.6293 27.5242C25.4278 27.6223 25.3271 27.5732 25.2767 27.5242C25.176 27.3769 25.3775 27.0823 25.6293 26.6895C25.8811 26.3458 26.3344 26.1003 26.4352 26.1985Z" fill="#BEE38D"/>
<path d="M27.9463 29.8808C28.047 30.0281 27.7952 30.2735 27.493 30.3717C27.1908 30.4699 26.9389 30.4208 26.8382 30.2735C26.7375 30.1262 26.9893 29.8317 27.2915 29.7826C27.5937 29.6844 27.8455 29.7335 27.9463 29.8808Z" fill="#BEE38D"/>
<path d="M29.8096 33.5631C29.7592 33.7595 29.4067 33.8086 28.9534 33.9068C28.5001 33.9559 28.0468 33.9068 28.0468 33.7104C28.0468 33.514 28.349 33.3176 28.8526 33.2685C29.4067 33.2194 29.86 33.4158 29.8096 33.5631Z" fill="#BEE38D"/>
<path d="M30.0613 37.3435C30.0613 37.5399 29.8598 37.6872 29.5576 37.589C29.3058 37.5399 29.1547 37.3435 29.2051 37.1471C29.2554 36.9998 29.5073 36.9016 29.7087 36.9507C29.9102 37.0489 30.0613 37.1471 30.0613 37.3435Z" fill="#BEE38D"/>
<path d="M17.9738 23.6944C18.0745 23.5471 18.5278 23.6944 18.8804 24.0381C19.2329 24.3327 19.4848 24.6273 19.4344 24.7746C19.384 24.9218 18.8804 24.8728 18.4775 24.5291C18.0745 24.1854 17.8731 23.8417 17.9738 23.6944Z" fill="#BEE38D"/>
<path d="M20.8947 28.015C20.8444 27.8677 21.0458 27.5732 21.4488 27.5241C21.8517 27.475 22.2043 27.6713 22.1539 27.8677C22.1035 28.0641 21.8517 28.1132 21.5495 28.1623C21.2977 28.2114 20.9955 28.2114 20.8947 28.015Z" fill="#BEE38D"/>
<path d="M21.8014 30.7154C21.7006 30.5681 21.9525 30.2245 22.305 29.979C22.708 29.6844 23.1109 29.5862 23.2116 29.7335C23.3124 29.8808 23.0605 30.2245 22.708 30.47C22.3554 30.7154 21.9525 30.8627 21.8014 30.7154Z" fill="#BEE38D"/>
<path d="M23.3631 33.3177C23.212 33.2195 23.2624 32.8267 23.5646 32.5321C23.8668 32.2375 24.2697 32.1884 24.3704 32.3357C24.4712 32.483 24.2697 32.7776 24.0179 32.974C23.766 33.2686 23.5142 33.4159 23.3631 33.3177Z" fill="#BEE38D"/>
<path d="M24.1688 36.116C24.0177 36.0179 24.0177 35.6742 24.3199 35.2814C24.471 35.085 24.6725 34.9377 24.874 34.9377C25.0251 34.8886 25.1762 34.9377 25.2265 35.0359C25.2769 35.1832 25.0754 35.4287 24.874 35.7233C24.6221 35.9688 24.3703 36.2142 24.1688 36.116Z" fill="#BEE38D"/>
<path d="M26.1331 38.4238C25.982 38.3747 25.8812 38.1783 25.9316 37.9328C25.982 37.7365 26.1834 37.5892 26.3849 37.6874C26.536 37.7365 26.6367 37.9328 26.5864 38.1783C26.536 38.4238 26.2842 38.4729 26.1331 38.4238Z" fill="#BEE38D"/>
<path d="M16.3617 26.1495C16.3617 26.0022 16.9157 25.8058 17.5705 25.8549C18.2756 25.904 18.7792 26.2968 18.6785 26.4441C18.6281 26.6405 18.1245 26.5423 17.5201 26.4932C16.9157 26.4441 16.3617 26.3459 16.3617 26.1495Z" fill="#BEE38D"/>
<path d="M16.3618 30.3227C16.3114 30.2736 16.2611 30.1263 16.3618 29.979C16.4625 29.8317 16.664 29.6353 16.9158 29.5862C17.4699 29.488 17.8224 29.7335 17.7721 29.8808C17.7217 30.0772 17.3691 30.1263 17.0669 30.2245C16.9158 30.2736 16.7647 30.2736 16.664 30.3227C16.5633 30.3718 16.4625 30.3718 16.3618 30.3227Z" fill="#BEE38D"/>
<path d="M17.0672 33.7596C17.0169 33.7105 17.0169 33.5141 17.2183 33.2686C17.3694 33.0231 17.6716 32.6794 18.0746 32.4339C18.83 31.8939 19.5352 31.6975 19.6359 31.8448C19.7366 31.992 19.1826 32.483 18.4775 32.974C17.722 33.3668 17.2183 33.8577 17.0672 33.7596Z" fill="#BEE38D"/>
<path d="M18.83 36.4599C18.6789 36.3617 18.7796 35.9198 19.1322 35.5271C19.4848 35.1343 19.8877 34.9379 20.0388 35.0852C20.1899 35.2325 19.9884 35.5762 19.6359 35.9689C19.2833 36.2635 18.9811 36.509 18.83 36.4599Z" fill="#BEE38D"/>
<path d="M20.8443 38.3256C20.6932 38.2274 20.7939 37.8346 21.0961 37.4418C21.3983 37.049 21.8012 36.9018 21.9523 36.9999C22.1034 37.1472 21.902 37.4909 21.6502 37.8346C21.2976 38.1783 20.9954 38.4238 20.8443 38.3256Z" fill="#BEE38D"/>
<path d="M9.1594 11.1746C9.36086 11.1255 9.56233 11.371 9.81416 11.8129C9.91489 12.0093 10.0156 12.2548 10.0156 12.4512C10.0156 12.6476 9.96526 12.7458 9.86453 12.7949C9.66306 12.844 9.4616 12.5985 9.20977 12.1566C9.10903 11.9602 9.0083 11.7147 9.0083 11.5183C9.0083 11.3219 9.05867 11.1746 9.1594 11.1746Z" fill="#BEE38D"/>
<path d="M12.534 11.4691C12.7355 11.4691 12.8866 11.8128 12.8866 12.2056C12.8866 12.5984 12.7355 12.942 12.534 12.942C12.3325 12.942 12.1814 12.5984 12.1814 12.2056C12.1814 11.8128 12.3325 11.4691 12.534 11.4691Z" fill="#BEE38D"/>
<path d="M15.8583 13.7769C15.9591 13.9242 15.7576 14.2679 15.4554 14.6116C15.1028 14.9552 14.7503 15.1516 14.5992 15.0043C14.4481 14.9061 14.5992 14.4643 14.9517 14.1206C15.3547 13.7769 15.7576 13.6296 15.8583 13.7769Z" fill="#BEE38D"/>
<path d="M17.3191 16.2317C17.3694 16.4281 17.168 16.6245 16.8658 16.8209C16.6139 17.0173 16.2614 17.1646 16.1103 17.0664C16.0095 16.9191 16.1103 16.6245 16.4628 16.3299C16.8154 16.0353 17.2687 16.0844 17.3191 16.2317Z" fill="#BEE38D"/>
<path d="M18.981 18.1956C19.0313 18.392 18.6788 18.5884 18.2759 18.6375C17.8729 18.6865 17.5204 18.6375 17.47 18.4411C17.4196 18.2447 17.7722 18.0483 18.1751 17.9992C18.578 17.9501 18.9306 18.0483 18.981 18.1956Z" fill="#BEE38D"/>
<path d="M20.0888 20.7487C20.1392 20.896 19.837 21.1414 19.434 21.1414C19.0311 21.1414 18.7793 20.9451 18.7793 20.7487C18.8296 20.5523 19.0815 20.5032 19.434 20.5032C19.7362 20.4541 20.0384 20.5523 20.0888 20.7487Z" fill="#BEE38D"/>
<path d="M11.275 13.0403C11.4765 13.0403 11.6276 13.3349 11.6276 13.7277C11.678 14.1205 11.5269 14.4641 11.3254 14.4641C11.1239 14.4641 10.9728 14.1696 10.9728 13.7768C10.9225 13.384 11.0736 13.0403 11.275 13.0403Z" fill="#BEE38D"/>
<path d="M13.8433 15.3478C13.9944 15.4951 13.8937 15.7406 13.793 15.9861C13.6922 16.1825 13.5411 16.428 13.3397 16.428C13.2389 16.428 13.1382 16.3789 13.1382 16.2316C13.0878 16.0843 13.0878 15.8879 13.1886 15.6915C13.39 15.2987 13.7426 15.2005 13.8433 15.3478Z" fill="#BEE38D"/>
<path d="M15.304 17.6065C15.4048 17.7538 15.2537 17.9993 15.0522 18.1466C14.8507 18.2939 14.5989 18.2939 14.4478 18.1957C14.2967 18.0975 14.3974 17.7538 14.6493 17.6065C14.9011 17.4592 15.2033 17.5083 15.304 17.6065Z" fill="#BEE38D"/>
<path d="M17.8223 20.6504C17.7719 20.8468 17.4697 20.8959 17.1172 20.8959C16.7142 20.8959 16.412 20.7486 16.412 20.5522C16.412 20.3558 16.7142 20.2085 17.1172 20.2576C17.5201 20.2576 17.8223 20.5031 17.8223 20.6504Z" fill="#BEE38D"/>
<path d="M6.28833 13.6785C6.28833 13.4822 6.89273 13.3349 7.64822 13.4331C8.40371 13.5313 8.95774 13.924 8.85701 14.0713C8.75628 14.2186 8.20225 14.1695 7.54749 14.0713C6.89273 14.0222 6.28833 13.8749 6.28833 13.6785Z" fill="#BEE38D"/>
<path d="M9.15945 15.839C9.15945 15.6426 9.56238 15.4953 10.1164 15.6426C10.6201 15.7899 10.8719 16.1827 10.7712 16.33C10.6704 16.4773 10.3179 16.3791 9.91495 16.2809C9.51202 16.1336 9.15945 16.0354 9.15945 15.839Z" fill="#BEE38D"/>
<path d="M11.2747 19.0303C11.174 18.9812 11.1236 18.883 11.1236 18.7357C11.1236 18.5884 11.2244 18.3429 11.4762 18.2447C11.728 18.0974 11.9799 18.1465 12.0806 18.1956C12.2317 18.2447 12.2821 18.3429 12.2821 18.4411C12.2317 18.6375 11.9295 18.6866 11.8288 18.7848C11.6273 18.883 11.4258 19.0794 11.2747 19.0303Z" fill="#BEE38D"/>
<path d="M12.2819 21.0433C12.1308 20.9451 12.2819 20.6015 12.5841 20.2578C12.8863 19.9141 13.2389 19.7668 13.39 19.9141C13.5411 20.0614 13.39 20.4051 13.0878 20.6997C12.7856 20.9942 12.3827 21.1906 12.2819 21.0433Z" fill="#BEE38D"/>
<path d="M14.0956 23.2034C13.9445 23.1543 13.9949 22.6634 14.3474 22.3197C14.7 21.976 15.1029 21.8287 15.2037 21.976C15.3044 22.1233 15.1029 22.467 14.8511 22.7616C14.5489 23.0561 14.2971 23.2525 14.0956 23.2034Z" fill="#BEE38D"/>
<path d="M16.6139 23.7437C16.4628 23.6946 16.4124 23.3509 16.5132 23.0072C16.6139 22.7127 16.765 22.4181 16.9161 22.4181C17.1176 22.4181 17.2687 22.7618 17.1176 23.1545C17.0672 23.5964 16.8154 23.8419 16.6139 23.7437Z" fill="#BEE38D"/>
<path d="M28.1473 12.2056C28.2984 12.1565 28.6006 12.4511 29.0539 12.7457C29.4568 13.0894 29.8598 13.4331 29.759 13.5804C29.6583 13.7277 29.1546 13.6295 28.651 13.2367C28.3991 13.0403 28.1977 12.7948 28.1473 12.5984C28.0466 12.402 28.0466 12.2547 28.1473 12.2056Z" fill="#BEE38D"/>
<path d="M31.6731 10.1927C31.8746 10.2418 31.925 10.5855 32.0761 10.9292C32.2271 11.3219 32.3279 11.7147 32.1768 11.8129C32.0257 11.9111 31.6228 11.6656 31.4717 11.1255C31.3709 10.8801 31.3709 10.5855 31.4213 10.4382C31.4717 10.2418 31.5724 10.1927 31.6731 10.1927Z" fill="#BEE38D"/>
<path d="M34.4435 8.52328C34.645 8.57237 34.6954 8.86696 34.6954 9.21064C34.6954 9.55432 34.5443 9.89801 34.3428 9.89801C34.1413 9.89801 33.9902 9.60342 34.0406 9.16154C34.0406 8.81786 34.2421 8.52328 34.4435 8.52328Z" fill="#BEE38D"/>
<path d="M38.3722 7.63956C38.5233 7.73775 38.4225 8.17963 38.1203 8.62151C37.8685 9.06338 37.6167 9.35797 37.4152 9.35797C37.2641 9.35797 37.2641 8.8179 37.5663 8.32692C37.8685 7.83595 38.2211 7.59046 38.3722 7.63956Z" fill="#BEE38D"/>
<path d="M41.6456 9.70178C41.696 9.84907 41.3938 10.0946 40.9405 10.2909C40.4872 10.4873 39.9836 10.4382 39.9836 10.2418C39.9836 10.0455 40.2857 9.89817 40.6887 9.70178C41.142 9.50539 41.5953 9.50539 41.6456 9.70178Z" fill="#BEE38D"/>
<path d="M43.0059 13.6295C43.0059 13.8258 42.7037 13.9731 42.3008 13.924C41.8979 13.924 41.5453 13.7277 41.5957 13.5313C41.646 13.3349 41.9482 13.2858 42.3008 13.2858C42.6534 13.2858 43.0059 13.4331 43.0059 13.6295Z" fill="#BEE38D"/>
<path d="M43.5093 16.3789C43.3582 16.4771 43.2071 16.4771 43.0057 16.428C42.8546 16.3789 42.6531 16.2807 42.5524 16.1334C42.502 15.9861 42.7538 15.7406 43.1064 15.7897C43.3079 15.8388 43.459 15.937 43.5093 16.0843C43.6101 16.2316 43.5597 16.3789 43.5093 16.3789Z" fill="#BEE38D"/>
<path d="M43.0558 20.7486C42.9047 20.8959 42.6529 20.7977 42.4011 20.6014C42.1492 20.405 41.9981 20.1595 42.0485 20.0122C42.0989 19.8649 42.5018 19.8649 42.804 20.0613C43.1062 20.3068 43.2069 20.6014 43.0558 20.7486Z" fill="#BEE38D"/>
<path d="M43.0054 25.7074C42.9047 25.7074 42.8543 25.6092 42.7536 25.462C42.6529 25.3147 42.5521 25.1674 42.401 24.971C42.2499 24.7746 42.0988 24.5782 41.9981 24.3818C41.8974 24.1854 41.8974 24.0381 41.9981 23.989C42.1492 23.8908 42.5018 24.0872 42.9047 24.5782C43.1062 24.8237 43.2069 25.1183 43.2069 25.3638C43.1565 25.6092 43.0558 25.7565 43.0054 25.7074Z" fill="#BEE38D"/>
<path d="M41.7967 28.4078C41.5952 28.4569 41.3937 28.2605 41.293 27.9659C41.1923 27.6713 41.1923 27.4258 41.3434 27.3276C41.4945 27.2295 41.7463 27.4258 41.8974 27.7204C42.0485 28.0641 41.9981 28.4078 41.7967 28.4078Z" fill="#BEE38D"/>
<path d="M40.135 29.9791C39.9839 30.0282 39.7321 29.8318 39.4803 29.5372C39.2788 29.1936 39.1781 28.8499 39.3795 28.7517C39.5306 28.6535 39.8328 28.8499 40.0343 29.1936C40.2861 29.5372 40.2861 29.93 40.135 29.9791Z" fill="#BEE38D"/>
<path d="M38.2711 32.434C38.0696 32.434 37.9689 32.1394 37.8178 31.8448C37.717 31.5502 37.5659 31.3047 37.6667 31.1574C37.717 31.1083 37.8681 31.0592 38.0192 31.1574C38.1703 31.2065 38.3214 31.4029 38.4222 31.6484C38.6236 32.0903 38.4725 32.434 38.2711 32.434Z" fill="#BEE38D"/>
<path d="M37.1129 34.3977C36.9618 34.4468 36.7604 34.2995 36.6596 34.1032C36.6093 33.8577 36.6596 33.6613 36.8611 33.6122C37.0122 33.5631 37.2137 33.7104 37.3144 33.9068C37.4151 34.1032 37.264 34.3486 37.1129 34.3977Z" fill="#BEE38D"/>
<path d="M35.1988 37.4417C34.9973 37.4417 34.7959 37.1962 34.6951 36.7543C34.5944 36.3125 34.7455 35.9197 34.947 35.9688C35.1484 35.9688 35.2995 36.2634 35.3499 36.6561C35.4506 37.0489 35.3499 37.3926 35.1988 37.4417Z" fill="#BEE38D"/>
<path d="M28.6513 17.1156C28.5506 17.2628 28.198 17.2628 27.7951 17.1647C27.3418 17.0665 27.0396 16.821 27.0899 16.6246C27.1403 16.4773 27.5432 16.3791 27.9965 16.5264C28.3995 16.6737 28.7017 16.9683 28.6513 17.1156Z" fill="#BEE38D"/>
<path d="M28.9534 19.1774C28.9534 19.3738 28.6512 19.5211 28.2483 19.5211C27.8453 19.5211 27.5432 19.3738 27.5432 19.1774C27.5432 18.981 27.8453 18.8337 28.2483 18.8337C28.6512 18.8337 28.9534 19.0301 28.9534 19.1774Z" fill="#BEE38D"/>
<path d="M28.7015 21.2886C28.7518 21.4359 28.4496 21.6814 28.0467 21.6814C27.6438 21.6814 27.3919 21.485 27.3919 21.2886C27.4423 21.0922 27.6941 21.0431 28.0467 21.0431C28.3993 21.0431 28.6511 21.1413 28.7015 21.2886Z" fill="#BEE38D"/>
<path d="M38.6237 9.99633C38.7748 10.1436 38.5733 10.4873 38.3719 10.7819C38.12 11.0765 37.9186 11.322 37.7171 11.322C37.5156 11.2729 37.5156 10.831 37.8178 10.4382C38.12 10.0454 38.4726 9.89814 38.6237 9.99633Z" fill="#BEE38D"/>
<path d="M39.732 13.2858C39.8327 13.4331 39.6816 13.7276 39.3794 13.9731C39.0772 14.2186 38.775 14.3168 38.6239 14.1695C38.4728 14.0222 38.6239 13.7276 38.9261 13.4331C39.2283 13.2367 39.5809 13.1385 39.732 13.2858Z" fill="#BEE38D"/>
<path d="M39.9834 19.0794C39.933 19.2267 39.5805 19.2758 39.2279 19.1776C38.825 19.0794 38.5228 18.9321 38.5731 18.7357C38.6235 18.5394 38.9257 18.4412 39.379 18.5394C39.7316 18.6866 40.0338 18.9321 39.9834 19.0794Z" fill="#BEE38D"/>
<path d="M38.7748 22.958C38.7748 23.1053 38.5229 23.3017 38.0696 23.1544C37.8682 23.0562 37.7171 22.8598 37.7171 22.7125C37.7171 22.5653 37.7674 22.4671 37.8682 22.4671C37.9689 22.4671 38.0696 22.4671 38.12 22.5162C38.2207 22.5162 38.2711 22.5653 38.3718 22.5653C38.5229 22.6144 38.7748 22.7616 38.7748 22.958Z" fill="#BEE38D"/>
<path d="M37.7171 26.6404C37.6164 26.7877 37.3645 26.8368 37.1127 26.7877C36.8609 26.7386 36.6594 26.6404 36.6091 26.4931C36.5587 26.3459 36.8609 26.1004 37.2134 26.1495C37.6164 26.1986 37.7675 26.4931 37.7171 26.6404Z" fill="#BEE38D"/>
<path d="M37.0118 29.3897C36.8607 29.4879 36.6593 29.4388 36.5082 29.2915C36.3571 29.1442 36.3067 28.9969 36.3571 28.8005C36.4074 28.6041 36.76 28.6041 36.9615 28.8005C37.1629 29.046 37.1629 29.3406 37.0118 29.3897Z" fill="#BEE38D"/>
<path d="M35.249 32.2866C35.0476 32.2866 34.9468 32.0411 34.8461 31.7956C34.7454 31.5011 34.7454 31.3047 34.8461 31.1574C34.9468 31.0101 35.3498 31.2065 35.4505 31.5992C35.6016 31.9429 35.4505 32.2866 35.249 32.2866Z" fill="#BEE38D"/>
<path d="M40.8899 22.7127C40.8395 22.7618 40.7388 22.8109 40.638 22.8109C40.5877 22.86 40.5373 22.86 40.4869 22.9091C40.3862 22.9091 40.1344 23.0072 39.9833 22.9091C39.9329 22.86 39.8825 22.7618 39.9329 22.6636C39.9833 22.5654 40.084 22.4181 40.2855 22.3199C40.4869 22.2708 40.7388 22.369 40.8395 22.4672C40.9906 22.5163 40.9402 22.6636 40.8899 22.7127Z" fill="#BEE38D"/>
<path d="M41.1423 26.444C41.0919 26.5913 40.6386 26.5913 40.1853 26.3458C39.732 26.1495 39.4298 25.8549 39.5305 25.7076C39.6313 25.5603 40.0342 25.5603 40.4875 25.8058C40.8904 26.0022 41.1926 26.2968 41.1423 26.444Z" fill="#BEE38D"/>
<path d="M34.4433 11.2238C34.5944 11.1256 34.9469 11.2729 35.0477 11.7148C35.1988 12.1076 34.9973 12.5004 34.8462 12.4513C34.6447 12.4513 34.544 12.2058 34.4433 11.9112C34.3425 11.6657 34.2922 11.3711 34.4433 11.2238Z" fill="#BEE38D"/>
<path d="M31.5723 13.2859C31.7234 13.1877 32.076 13.335 32.3278 13.7278C32.5797 14.1206 32.5797 14.5624 32.4286 14.6115C32.2271 14.6606 32.0256 14.4151 31.7738 14.1206C31.522 13.7769 31.4212 13.3841 31.5723 13.2859Z" fill="#BEE38D"/>
<path d="M30.5652 15.6425C30.5652 15.4461 30.8674 15.2989 31.2199 15.4461C31.5725 15.5934 31.7236 15.9371 31.5725 16.0353C31.4214 16.1335 31.2199 16.1335 30.9681 16.0353C30.7667 15.9862 30.5652 15.8389 30.5652 15.6425Z" fill="#BEE38D"/>
<path d="M30.4643 18.2937C30.565 18.1464 30.8169 18.0973 31.0687 18.1464C31.3205 18.1955 31.5724 18.3428 31.5724 18.5392C31.5724 18.7356 31.2702 18.8829 30.9176 18.7847C30.565 18.6865 30.3636 18.441 30.4643 18.2937Z" fill="#BEE38D"/>
<path d="M30.817 22.1234C30.7666 21.9761 31.0688 21.6815 31.5221 21.6324C31.9754 21.5833 32.2776 21.6815 32.328 21.8779C32.3783 22.0743 32.0258 22.2707 31.6228 22.2707C31.2199 22.3198 30.8673 22.3198 30.817 22.1234Z" fill="#BEE38D"/>
<path d="M30.9684 25.9529C30.8676 25.8056 30.9684 25.4619 31.3209 25.1183C31.6735 24.7746 32.1771 24.7255 32.2275 24.8728C32.2779 25.0201 32.0764 25.3146 31.7742 25.6092C31.472 25.9038 31.1195 26.1002 30.9684 25.9529Z" fill="#BEE38D"/>
<path d="M34.4934 14.7587C34.4934 14.5623 34.8963 14.5132 35.2489 14.7096C35.6015 14.9551 35.6518 15.2988 35.5007 15.397C35.3496 15.4952 35.0978 15.397 34.8963 15.2497C34.6949 15.1024 34.4934 14.9551 34.4934 14.7587Z" fill="#BEE38D"/>
<path d="M33.4363 17.8029C33.4866 17.6556 33.6881 17.5083 33.8896 17.6556C33.9903 17.7538 34.0407 17.852 34.0407 17.9502C34.0407 18.0484 33.9399 18.0975 33.8896 18.1466C33.7385 18.1957 33.537 18.1957 33.537 18.1957C33.4363 18.1466 33.3355 17.9502 33.4363 17.8029Z" fill="#BEE38D"/>
<path d="M32.983 21.4852C33.1341 21.387 33.3859 21.4361 33.6377 21.4852C33.8896 21.5343 34.1414 21.6325 34.1918 21.8289C34.2421 21.9761 33.9399 22.2216 33.4866 22.1234C33.2852 22.0743 33.0837 21.927 33.0333 21.7798C32.9326 21.6325 32.9326 21.5343 32.983 21.4852Z" fill="#BEE38D"/>
<path d="M33.436 25.4129C33.2849 25.3147 33.3353 25.0201 33.5871 24.8728C33.8389 24.7255 34.1411 24.7746 34.1915 24.9219C34.2419 25.1183 34.1411 25.2656 33.99 25.4129C33.7886 25.5111 33.5367 25.5111 33.436 25.4129Z" fill="#BEE38D"/>
<path d="M33.1841 29.3407C33.033 29.2425 33.1338 28.8989 33.3352 28.6043C33.5367 28.3097 33.8893 28.1624 34.0404 28.2606C34.1915 28.3588 34.0907 28.7025 33.8893 28.997C33.6374 29.2916 33.3352 29.4389 33.1841 29.3407Z" fill="#BEE38D"/>
<path d="M36.4581 17.2137C36.5588 17.361 36.5084 17.5574 36.307 17.7538C36.1559 17.9011 35.904 17.9993 35.7529 17.9011C35.6018 17.8029 35.6018 17.5083 35.8033 17.3119C36.0551 17.0664 36.3573 17.0664 36.4581 17.2137Z" fill="#BEE38D"/>
<path d="M36.458 20.7977C36.3572 20.8468 36.3069 20.8468 36.2061 20.8959C36.2061 20.8959 36.1558 20.8959 36.1558 20.945V21.0431C36.1054 21.0431 35.8536 21.0922 35.7528 20.945C35.6521 20.8468 35.6017 20.5522 36.0047 20.4049C36.1054 20.3558 36.2061 20.3558 36.3069 20.4049C36.4076 20.454 36.458 20.5031 36.5083 20.5522C36.5587 20.6995 36.5083 20.7977 36.458 20.7977Z" fill="#BEE38D"/>
<path d="M35.7528 25.4129C35.6521 25.5602 35.2995 25.5111 35.098 25.1183C34.8966 24.7255 35.098 24.3818 35.2491 24.4309C35.4506 24.4309 35.5513 24.6764 35.6521 24.8237C35.7528 25.0201 35.8535 25.2656 35.7528 25.4129Z" fill="#BEE38D"/>
<path d="M25.4278 2.72984C25.5789 2.68074 25.8307 2.92623 26.0826 3.31901C26.284 3.71179 26.3848 4.15367 26.1833 4.20276C26.0322 4.25186 25.73 4.05547 25.4782 3.61359C25.2767 3.22081 25.2767 2.77894 25.4278 2.72984Z" fill="#BEE38D"/>
<path d="M28.45 3.56454C28.6011 3.66273 28.6514 3.90822 28.7018 4.2028C28.7522 4.49739 28.8025 4.79197 28.7018 4.89017C28.5507 4.98836 28.1981 4.84107 28.047 4.3501C27.9967 4.10461 28.047 3.90822 28.1478 3.76093C28.2485 3.56454 28.3996 3.51544 28.45 3.56454Z" fill="#BEE38D"/>
<path d="M30.9684 4.84106C31.1195 4.98835 30.9684 5.28294 30.7165 5.52843C30.4143 5.77391 30.0618 5.87211 29.961 5.72482C29.8603 5.57752 30.0114 5.28294 30.2632 5.03745C30.5151 4.84106 30.8676 4.74287 30.9684 4.84106Z" fill="#BEE38D"/>
<path d="M32.2273 6.31393C32.2777 6.46123 32.0762 6.70671 31.774 6.854C31.4718 7.0013 31.1192 6.9522 31.0689 6.80491C30.9681 6.65761 31.1696 6.41213 31.5222 6.26484C31.8244 6.16664 32.1769 6.16664 32.2273 6.31393Z" fill="#BEE38D"/>
<path d="M32.8314 8.96518C32.8818 9.11247 32.5796 9.35796 32.1767 9.30886C31.9752 9.25977 31.7737 9.16157 31.673 9.01428C31.5723 8.86699 31.5723 8.76879 31.673 8.7197C31.8241 8.6215 32.0256 8.6215 32.2774 8.6706C32.5292 8.6706 32.781 8.76879 32.8314 8.96518Z" fill="#BEE38D"/>
<path d="M27.4423 5.57743C27.6438 5.57743 27.7949 5.77382 27.7949 6.01931C27.7949 6.2648 27.6438 6.46119 27.4423 6.46119C27.2409 6.46119 27.0898 6.2648 27.0898 6.01931C27.0898 5.77382 27.2912 5.57743 27.4423 5.57743Z" fill="#BEE38D"/>
<path d="M30.2126 6.75586C30.3133 6.90316 30.2126 7.14864 30.1119 7.29594C30.0111 7.44323 29.8097 7.59052 29.6082 7.59052C29.4067 7.54142 29.3564 7.24684 29.5578 6.95225C29.8097 6.60857 30.1119 6.60857 30.2126 6.75586Z" fill="#BEE38D"/>
<path d="M31.2197 8.76892C31.2701 8.91621 31.0686 9.1617 30.7161 9.25989C30.3635 9.35809 30.0613 9.25989 30.0109 9.0635C29.9606 8.86711 30.2124 8.71982 30.5146 8.62163C30.8672 8.57253 31.1694 8.62163 31.2197 8.76892Z" fill="#BEE38D"/>
<path d="M25.9315 7.63976C25.8811 7.44337 26.1833 7.24698 26.6366 7.29608C27.0395 7.34518 27.2914 7.63976 27.1906 7.78705C27.0899 7.93435 26.8381 7.98345 26.5359 7.93435C26.2337 7.93435 25.9819 7.83615 25.9315 7.63976Z" fill="#BEE38D"/>
<path d="M27.2916 9.75087C27.1405 9.65267 27.1909 9.35809 27.5434 9.2108C27.896 9.1126 28.1478 9.25989 28.0974 9.45628C28.0974 9.65267 27.896 9.75087 27.7449 9.84906C27.6441 9.84906 27.4427 9.89816 27.2916 9.75087Z" fill="#BEE38D"/>
<path d="M27.6945 11.7146C27.5434 11.6164 27.5938 11.2236 27.9464 10.7817C28.0975 10.5854 28.3493 10.4381 28.5508 10.389C28.7522 10.3399 28.853 10.389 28.9033 10.4872C28.9537 10.6836 28.7019 10.8799 28.5004 11.2236C28.1982 11.5673 27.8456 11.8619 27.6945 11.7146Z" fill="#BEE38D"/>
<path d="M42.2502 7.54138C42.4013 7.44319 42.7035 7.68867 42.905 8.08145C43.1065 8.47423 43.0561 8.86701 42.905 8.91611C42.7539 8.96521 42.5021 8.71972 42.3006 8.32694C42.1495 8.03236 42.0488 7.63958 42.2502 7.54138Z" fill="#BEE38D"/>
<path d="M46.5818 7.2469C46.7329 7.34509 46.6825 7.73787 46.4307 8.08155C46.1789 8.42524 45.927 8.62163 45.7256 8.57253C45.5745 8.47433 45.5745 8.08155 45.8767 7.73787C46.1285 7.34509 46.4307 7.1487 46.5818 7.2469Z" fill="#BEE38D"/>
<path d="M48.4455 8.76896C48.4455 8.96535 48.1937 9.11264 47.8915 9.25993C47.5389 9.35813 47.2367 9.40722 47.136 9.25993C47.0352 9.11264 47.2367 8.81805 47.69 8.67076C48.0426 8.52347 48.3951 8.62166 48.4455 8.76896Z" fill="#BEE38D"/>
<path d="M48.6468 12.7459C48.5461 12.8932 48.2942 12.8441 48.0928 12.6968C47.8913 12.5495 47.8409 12.304 47.992 12.1567C48.0928 12.0094 48.3446 12.0585 48.5461 12.2058C48.7475 12.3531 48.7475 12.5986 48.6468 12.7459Z" fill="#BEE38D"/>
<path d="M45.0704 14.6115C44.9193 14.5624 44.8185 14.2678 44.8185 13.9732C44.8185 13.6295 44.9696 13.384 45.1711 13.384C45.3726 13.384 45.5237 13.6786 45.4733 14.0223C45.4733 14.366 45.2718 14.6606 45.0704 14.6115Z" fill="#BEE38D"/>
<path d="M43.2576 9.45622C43.459 9.40712 43.6101 9.45622 43.7109 9.65261C43.8116 9.7999 43.7612 10.0454 43.6101 10.1436C43.459 10.2418 43.2576 10.1927 43.1568 9.99629C43.0057 9.7508 43.0561 9.50532 43.2576 9.45622Z" fill="#BEE38D"/>
<path d="M46.33 9.35799C46.4307 9.50528 46.1789 9.79986 45.8767 10.0453C45.6249 10.2908 45.4234 10.4872 45.2219 10.4381C45.1212 10.389 45.0708 10.2908 45.1212 10.1435C45.1212 9.99625 45.2723 9.75076 45.4234 9.60347C45.8263 9.21069 46.2796 9.21069 46.33 9.35799Z" fill="#BEE38D"/>
<path d="M47.8405 10.4381C47.9412 10.5854 47.7901 10.88 47.4879 11.0763C47.1857 11.2727 46.8331 11.3218 46.7324 11.1745C46.6317 11.0272 46.7828 10.7327 47.085 10.5363C47.3872 10.3399 47.7397 10.2908 47.8405 10.4381Z" fill="#BEE38D"/>
<path d="M44.2648 11.813C44.2144 11.813 44.164 11.813 44.1137 11.813C44.1137 11.813 44.1137 11.813 44.0633 11.813C44.0129 11.813 44.0129 11.813 43.9626 11.8621C43.9626 11.8621 43.9626 11.8621 43.9122 11.8621C43.9122 11.813 43.9122 11.6657 44.0633 11.5675C44.2144 11.4202 44.3655 11.3711 44.4159 11.4693C44.4662 11.5184 44.4662 11.6166 44.4159 11.7148C44.4159 11.813 44.3151 11.813 44.2648 11.813Z" fill="#BEE38D"/>
<path d="M43.4088 1.99343C43.6103 1.94434 43.7614 2.23892 43.9125 2.53351C44.0132 2.82809 44.114 3.07358 44.0132 3.22087C43.9125 3.36816 43.5096 3.22087 43.3081 2.77899C43.1067 2.38621 43.2074 2.04253 43.4088 1.99343Z" fill="#BEE38D"/>
<path d="M46.5311 2.97549C46.6318 3.12279 46.5311 3.36827 46.2792 3.56466C46.0274 3.76105 45.7756 3.81015 45.6245 3.71195C45.4734 3.56466 45.5741 3.27008 45.8763 3.07369C46.0778 2.8773 46.38 2.8282 46.5311 2.97549Z" fill="#BEE38D"/>
<path d="M47.0853 5.08652C47.1357 5.28291 46.9846 5.4302 46.7831 5.5284C46.5817 5.57749 46.3298 5.5284 46.2795 5.33201C46.2291 5.18471 46.3802 4.98832 46.5817 4.89013C46.8335 4.84103 47.035 4.93923 47.0853 5.08652Z" fill="#BEE38D"/>
<path d="M44.8188 4.69374C44.8691 4.84103 44.7684 5.03742 44.5166 5.08652C44.2647 5.08652 44.164 4.93922 44.164 4.79193C44.164 4.59554 44.3151 4.44825 44.4662 4.44825C44.6173 4.44825 44.7684 4.54644 44.8188 4.69374Z" fill="#BEE38D"/>
<path d="M50.9634 5.67587C51.1145 5.77406 51.0642 6.11775 50.9634 6.41233C50.8627 6.70692 50.762 6.9524 50.6109 7.0015C50.5101 7.0015 50.4094 6.9524 50.359 6.80511C50.3087 6.65782 50.2583 6.46143 50.359 6.21594C50.4598 5.77406 50.8123 5.57767 50.9634 5.67587Z" fill="#BEE38D"/>
<path d="M52.978 7.4924C52.9277 7.63969 52.7262 7.73789 52.5247 7.83608C52.2729 7.93428 52.0211 7.93428 51.9203 7.78698C51.8196 7.63969 51.9203 7.34511 52.3233 7.19781C52.5247 7.14872 52.7262 7.14872 52.8269 7.19781C52.9277 7.29601 52.978 7.3942 52.978 7.4924Z" fill="#BEE38D"/>
<path d="M51.7189 9.5054C51.6181 9.65269 51.2656 9.60359 50.9634 9.35811C50.6612 9.16172 50.4597 8.81803 50.5604 8.67074C50.6612 8.52345 51.0137 8.57255 51.3159 8.81803C51.6685 9.06352 51.8196 9.4072 51.7189 9.5054Z" fill="#BEE38D"/>
<path d="M11.577 6.01941C11.7784 6.01941 11.8792 6.314 12.0303 6.65768C12.131 7.00136 12.2317 7.29595 12.0806 7.44324C11.9295 7.54144 11.577 7.34505 11.3755 6.90317C11.2244 6.41219 11.4259 6.01941 11.577 6.01941Z" fill="#BEE38D"/>
<path d="M15.2037 6.41218C15.3045 6.55947 15.1534 6.85406 14.8512 7.09955C14.5993 7.34503 14.3475 7.49233 14.1964 7.44323C14.0957 7.39413 14.0453 7.29594 14.0957 7.14864C14.1461 7.00135 14.2468 6.80496 14.3979 6.65767C14.7504 6.36308 15.103 6.26489 15.2037 6.41218Z" fill="#BEE38D"/>
<path d="M13.0883 8.0325C13.2394 8.1307 13.2394 8.37618 13.2394 8.47438C13.1891 8.62167 13.0883 8.76896 12.9372 8.81806C12.7861 8.86716 12.5343 8.67077 12.5847 8.32709C12.6854 8.0325 12.9372 7.93431 13.0883 8.0325Z" fill="#BEE38D"/>
<path d="M15.3543 8.71982C15.4047 8.91621 15.1528 9.0635 14.9514 9.21079C14.6995 9.35808 14.4981 9.40718 14.347 9.35808C14.2462 9.30899 14.2462 9.21079 14.2462 9.0635C14.2966 8.91621 14.3973 8.76892 14.5988 8.67072C15.0017 8.42523 15.3543 8.52343 15.3543 8.71982Z" fill="#BEE38D"/>
<path d="M15.0525 11.1746C15.0525 11.371 14.5992 11.4201 14.0956 11.2728C13.6423 11.0764 13.3401 10.7818 13.4408 10.6345C13.5415 10.4873 13.9445 10.5364 14.3474 10.6836C14.7503 10.7818 15.0525 10.9782 15.0525 11.1746Z" fill="#BEE38D"/>
<path d="M11.5264 9.75069C11.476 9.89798 11.1739 9.94708 10.8717 9.84889C10.5695 9.75069 10.368 9.5052 10.4184 9.30881C10.5191 9.16152 10.7709 9.11242 11.0731 9.21062C11.3753 9.35791 11.5768 9.6034 11.5264 9.75069Z" fill="#BEE38D"/>
<path d="M5.12993 16.8208C5.07956 16.9681 4.62627 16.9681 4.2737 16.6735C3.87077 16.379 3.82041 15.9371 3.97151 15.8389C4.1226 15.7407 4.4248 15.9371 4.67663 16.1826C4.97883 16.379 5.23066 16.6244 5.12993 16.8208Z" fill="#BEE38D"/>
<path d="M6.99394 17.0664C6.79247 17.0664 6.64137 16.821 6.43991 16.4773C6.28881 16.1336 6.23844 15.7899 6.38954 15.6917C6.54064 15.5935 6.84284 15.839 7.0443 16.2318C7.24577 16.6246 7.14504 17.0173 6.99394 17.0664Z" fill="#BEE38D"/>
<path d="M3.77025 19.8158C3.61916 19.7667 3.61916 19.2757 4.02209 18.8338C4.37465 18.392 4.87831 18.2938 4.97905 18.4411C5.07978 18.5884 4.82795 18.932 4.52575 19.2757C4.22355 19.6194 3.97172 19.914 3.77025 19.8158Z" fill="#BEE38D"/>
<path d="M6.23834 18.1957C6.08724 18.1466 5.93614 17.9011 6.18798 17.7048C6.28871 17.6066 6.43981 17.6066 6.54054 17.6557C6.64127 17.7048 6.69164 17.8029 6.69164 17.852C6.69164 17.9502 6.64127 17.9993 6.64127 18.0975C6.64127 18.1466 6.64127 18.1957 6.64127 18.1957C6.59091 18.1957 6.38944 18.2448 6.23834 18.1957Z" fill="#BEE38D"/>
<path d="M7.24548 19.5211C7.09438 19.4229 7.14475 19.1283 7.24548 18.8337C7.34621 18.5392 7.54768 18.3428 7.74914 18.3428C7.95061 18.3919 8.00097 18.6865 7.84987 19.0792C7.69878 19.472 7.34621 19.6193 7.24548 19.5211Z" fill="#BEE38D"/>
</svg>
