<svg width="245" height="319" viewBox="0 0 245 319" fill="none" xmlns="http://www.w3.org/2000/svg">
<g clip-path="url(#clip0)">
<path d="M239.815 105.81C239.107 103.201 237.222 100.83 234.865 99.4067C236.986 96.7981 237.929 93.7151 236.986 90.395C235.572 83.9919 228.972 81.3832 223.079 82.8061C220.25 77.8259 213.886 76.403 208.936 79.0117C205.636 80.6718 205.4 82.569 201.864 82.569C199.271 82.569 194.793 86.1262 193.143 85.8891C193.85 79.0117 193.85 71.8972 192.907 65.0198C192.436 61.9368 191.728 58.8538 190.55 56.008C191.493 52.9251 191.493 49.6049 190.078 46.7591C187.486 42.0161 181.828 40.356 176.878 42.2532C176.171 42.0161 174.757 38.2217 174.05 37.5102C171.457 34.4273 167.214 33.2415 163.443 34.4273C158.728 35.8502 161.085 34.6644 157.314 32.53C154.485 30.87 154.485 30.1585 152.835 27.3127C154.721 17.8267 144.35 17.8267 144.114 11.8979C143.878 7.15485 140.342 3.36043 135.864 2.41183C134.449 2.17467 132.799 2.17467 131.385 2.41183C125.964 3.36043 125.964 4.78334 120.778 1.46322C114.178 -2.8055 109.464 2.41183 103.806 4.54619C99.3278 6.20625 95.792 2.64898 90.842 5.25764C88.2491 6.68055 86.3634 9.05206 85.4205 11.6607C83.2991 16.6409 85.6562 13.5579 81.1776 15.6923C75.5204 18.301 74.8133 25.6527 71.749 30.3957C67.0346 29.4471 62.3203 31.5814 60.4346 36.0873C57.606 42.4904 65.6204 49.6049 60.6703 53.1622C59.0203 54.348 57.8417 55.7709 56.8989 57.6681C54.306 58.1424 55.2488 55.5337 53.8345 53.6365C50.0631 48.6563 42.9916 48.4192 38.513 52.4508C34.7415 45.0991 24.8415 38.4588 19.1843 48.182C16.3557 53.1622 19.6557 58.3795 15.8842 61.4625C13.9985 62.8854 13.5271 64.7826 12.1128 66.4427C9.51991 66.4427 6.92703 67.1541 4.80559 68.8142C1.97699 70.9486 0.562695 74.5058 1.03413 78.0631C1.26984 80.6718 7.39846 87.0748 4.56987 89.4464C0.562695 92.5293 -1.08732 98.221 1.26984 102.727C2.68414 105.573 10.9342 108.656 8.57704 112.45C5.74845 116.956 5.98417 123.122 10.4628 126.679C12.1128 128.102 14.4699 128.813 16.5914 129.051C18.0057 131.896 16.12 133.319 15.8842 136.402C15.6485 141.857 19.42 146.837 24.8415 147.548C25.0772 152.529 32.8558 155.849 27.9058 158.457C19.42 162.726 16.5914 168.892 17.0628 178.141C17.77 190.947 17.77 203.753 18.2414 216.797C18.9486 239.326 19.42 262.093 21.7771 284.622C25.0772 297.665 24.1343 305.728 37.5701 313.317C55.7203 323.515 78.5847 325.412 99.0921 326.361C124.314 327.546 150.242 326.835 174.993 322.092C184.893 320.195 196.443 318.297 204.457 311.657C209.879 307.388 211.057 300.985 212.472 294.819C216.243 277.507 216.714 259.247 216.95 241.698C216.95 239.089 216.95 237.429 216.95 233.16C216.95 223.674 216.479 214.188 216.007 204.702C215.3 191.896 218.364 168.181 204.693 161.066C211.057 158.695 209.171 152.054 214.357 150.869C223.786 148.734 219.779 141.145 223.55 135.691C226.85 130.948 234.629 133.082 236.279 125.019C236.986 120.987 234.157 119.565 237.222 116.719C239.815 113.636 240.757 109.604 239.815 105.81C240.522 108.893 239.107 103.201 239.815 105.81Z" fill="url(#paint0_linear)" fill-opacity="0.14"/>
<path d="M116.063 157.508C49.5913 157.034 24.8411 165.334 26.0197 174.109C27.1982 182.883 27.6697 290.313 33.7983 298.139C56.1913 326.597 194.792 318.771 200.685 300.985C212.471 265.412 204.928 172.923 203.043 171.026C201.157 169.128 184.892 158.22 116.063 157.508Z" fill="#ABE6FF"/>
<path d="M29.5566 267.073C30.4995 283.199 31.9138 295.768 33.7995 298.377C56.1926 326.835 194.794 319.009 200.687 301.223C203.751 292.211 205.401 279.642 206.344 265.887C147.65 291.262 60.9069 279.879 29.5566 267.073Z" fill="#96685A"/>
<path d="M203.985 174.583C203.75 172.686 203.514 171.5 203.278 171.263C201.392 169.366 184.892 158.22 116.063 157.508C49.5913 157.034 24.8411 165.334 26.0197 174.109C26.0197 174.583 26.0197 175.057 26.2554 175.769C32.6197 188.575 79.0558 193.792 119.128 193.792C152.835 193.792 195.735 184.306 203.985 174.583Z" fill="#D9F4FF"/>
<path d="M75.9923 115.533C58.5493 55.0592 78.3495 27.0753 104.75 14.7435C131.15 2.41158 188.665 39.6444 130.207 178.141C109.935 184.544 92.021 172.923 92.021 172.923L75.9923 115.533Z" fill="#8FC745"/>
<path d="M63.501 176.48C22.7221 133.556 -0.613833 84.9399 24.3721 68.1021C49.358 51.2644 95.0869 90.8687 98.3869 173.397C94.8512 181.461 66.801 182.409 63.501 176.48Z" fill="#ADD676"/>
<path d="M130.206 175.295C119.363 131.896 145.292 48.6557 172.399 51.0272C199.507 53.3987 176.642 144.465 151.421 174.583C142.228 183.832 129.028 181.935 130.206 175.295Z" fill="#ADD676"/>
<path d="M151.894 177.428C154.487 146.598 193.852 88.9705 215.537 94.4249C236.752 99.8794 223.787 133.318 170.987 174.108C163.444 181.222 151.894 177.428 151.894 177.428Z" fill="#8FC745"/>
<path d="M46.5278 178.851C54.7779 170.55 68.2137 177.665 68.2137 177.665C75.2852 162.25 92.2567 172.922 92.2567 172.922C104.043 161.776 113.471 167.704 115.357 176.479C124.078 169.364 134.214 178.139 134.214 178.139C142.936 167.942 157.079 176.479 157.079 176.479C170.043 169.839 182.536 171.025 182.536 178.139C176.643 184.305 69.628 189.048 46.5278 178.851Z" fill="#96685A"/>
<path d="M184.892 169.601C184.892 169.601 185.599 169.601 186.542 170.076C187.014 170.313 187.721 170.55 188.428 171.024C189.135 171.499 190.078 172.21 190.314 173.633C190.314 175.293 189.135 176.242 187.957 176.953C186.778 177.665 185.364 178.376 183.949 178.85C181.121 180.036 177.585 180.748 173.814 181.459C158.728 184.305 137.749 185.728 114.649 185.728C91.5486 185.728 70.5699 184.305 55.484 181.696C51.7126 180.985 48.4125 180.273 45.3482 179.325C43.9339 178.85 42.5196 178.376 41.3411 177.665C40.1625 176.953 38.9839 176.242 38.5125 175.056C38.2768 174.344 38.2768 173.633 38.7482 173.159C38.9839 172.684 39.4553 172.447 39.9268 172.21C40.6339 171.736 41.3411 171.499 41.8125 171.261C42.9911 170.787 43.4625 170.787 43.4625 170.787C43.4625 170.787 42.9911 171.261 42.0482 171.736C41.5768 171.973 41.1053 172.447 40.3982 172.922C39.691 173.396 39.2196 174.107 39.691 174.819C39.9268 175.53 41.1053 176.005 42.0482 176.716C43.2268 177.19 44.4054 177.665 45.8197 178.139C48.6483 178.85 51.9483 179.562 55.7197 180.036C70.5699 182.17 91.5486 183.119 114.649 183.119C137.749 183.119 158.728 182.17 173.578 179.799C177.349 179.087 180.649 178.613 183.478 177.665C184.892 177.19 186.071 176.716 187.249 176.242C188.428 175.767 189.135 174.819 189.135 174.344C189.135 173.633 188.428 172.922 187.957 172.447C187.249 171.973 186.778 171.499 186.306 171.261C185.364 170.076 184.892 169.839 184.892 169.601Z" fill="#7EB0C4"/>
<path d="M27.434 211.105C27.9054 231.263 28.8483 255.216 30.0269 273.239C75.2843 299.8 173.814 292.685 205.871 274.425C207.993 253.793 207.757 228.655 206.814 208.497C166.742 229.366 36.3912 223.437 27.434 211.105Z" fill="#F7B76D"/>
<path d="M27.434 211.105C27.9054 231.263 28.8483 255.216 30.0269 273.239C75.2843 299.8 173.814 292.685 205.871 274.425C207.993 253.793 207.757 228.655 206.814 208.497C166.742 229.366 36.3912 223.437 27.434 211.105Z" fill="url(#paint1_radial)"/>
<path d="M87.3075 237.902C87.5432 237.902 88.0147 240.748 85.8932 244.78C84.9504 246.677 82.8289 249.049 80.236 250.471C77.6432 251.894 74.1074 252.606 70.5717 252.369C67.0359 252.132 63.9716 250.946 61.3787 249.049C59.0216 247.151 57.3716 244.78 56.6644 242.408C56.193 240.037 56.4287 238.14 56.6644 236.954C57.1359 235.768 57.3716 235.294 57.6073 235.294C58.0787 235.294 57.3716 238.14 58.7859 241.697C59.493 243.357 60.9073 245.254 63.0288 246.677C65.1502 248.1 67.7431 249.049 70.8074 249.286C73.636 249.523 76.4646 249.049 78.8218 247.863C81.1789 246.677 82.8289 245.254 84.0075 243.594C86.3647 240.511 86.8361 237.902 87.3075 237.902Z" fill="#B06D2E"/>
<path d="M128.088 243.593C128.323 243.593 128.323 244.304 128.559 245.253C128.559 245.727 128.559 246.439 128.559 247.387C128.323 248.099 128.323 249.047 128.088 249.996C127.852 250.945 127.145 251.893 126.673 253.079C126.438 253.553 125.966 254.027 125.495 254.502C125.259 254.739 125.023 254.976 124.788 255.213L124.08 255.925C121.959 257.822 118.895 259.008 115.595 258.77C112.295 258.533 109.466 257.11 107.345 255.45C105.223 253.79 103.809 251.656 102.866 249.759C102.159 247.862 101.687 246.439 101.687 245.253C101.687 244.067 101.687 243.593 101.923 243.593C102.159 243.593 102.395 244.067 102.866 245.016C103.102 245.964 104.045 247.387 104.752 248.81C106.638 251.656 110.409 255.213 115.595 255.688C120.78 256.162 124.552 252.367 125.731 249.047C125.966 248.336 126.438 247.387 126.673 246.913C126.909 246.201 127.145 245.727 127.145 245.016C127.616 244.304 127.852 243.593 128.088 243.593Z" fill="#B06D2E"/>
<path d="M58.315 242.409C58.7864 243.121 57.1364 245.018 54.3078 245.966C52.8935 246.441 51.4792 246.678 50.3006 246.441C49.1221 246.204 48.4149 245.492 48.8863 245.018C49.1221 244.544 49.5935 244.544 50.3006 244.069C51.0078 243.832 51.9507 243.358 53.365 242.884C55.4864 242.172 57.8436 241.461 58.315 242.409Z" fill="#B06D2E"/>
<path d="M62.0865 247.626C62.558 248.337 61.1437 250.234 58.7865 251.894C56.4293 253.555 53.8365 254.029 53.6007 253.08C53.365 252.369 54.7793 250.946 57.1365 249.286C59.2579 247.863 61.3794 246.914 62.0865 247.626Z" fill="#B06D2E"/>
<path d="M62.3209 256.638C61.8495 255.926 63.0281 254.266 64.6781 252.843C66.3281 251.42 67.271 250.235 67.9781 250.235C68.4495 250.235 68.6853 250.946 68.4495 251.895C68.2138 252.843 67.7424 254.029 66.7995 254.978C64.9138 257.112 62.7924 257.349 62.3209 256.638Z" fill="#B06D2E"/>
<path d="M144.823 237.902C145.295 237.665 145.766 240.511 148.123 243.594C149.302 245.254 150.952 246.677 153.309 247.863C155.666 249.049 158.495 249.523 161.323 249.286C164.152 249.049 166.981 248.1 169.102 246.677C171.224 245.254 172.638 243.357 173.345 241.697C174.759 238.14 173.816 235.294 174.524 235.294C174.759 235.294 174.995 235.768 175.466 236.954C175.702 238.14 176.174 240.037 175.466 242.408C174.995 244.78 173.345 247.151 170.752 249.049C168.395 250.946 165.095 252.132 161.559 252.369C158.023 252.606 154.723 251.894 151.895 250.471C149.302 249.049 147.18 246.914 146.238 244.78C144.116 240.748 144.352 237.902 144.823 237.902Z" fill="#B06D2E"/>
<path d="M173.815 242.409C174.287 241.697 176.408 242.172 179.001 243.12C180.18 243.594 181.358 244.069 182.065 244.306C182.773 244.543 183.244 244.78 183.48 245.255C183.715 245.492 183.244 246.44 182.065 246.677C180.887 246.915 179.473 246.677 178.058 246.203C174.994 244.78 173.344 243.12 173.815 242.409Z" fill="#B06D2E"/>
<path d="M170.044 247.626C170.516 246.914 172.873 247.863 174.994 249.286C177.351 250.946 178.766 252.369 178.53 253.08C178.294 254.029 175.466 253.555 173.344 251.894C170.987 250.234 169.573 248.337 170.044 247.626Z" fill="#B06D2E"/>
<path d="M169.572 256.638C169.1 257.349 166.979 256.875 165.093 254.978C164.15 254.029 163.443 252.843 163.443 251.895C163.208 250.946 163.679 250.235 163.915 250.235C164.858 250.235 165.8 251.183 167.215 252.843C168.865 254.503 170.043 255.926 169.572 256.638Z" fill="#B06D2E"/>
<path d="M27.6715 52.6863C28.1429 52.6863 28.6143 53.3978 29.0858 54.3464C29.5572 55.5321 30.5001 56.9551 31.2072 58.6151C31.9144 60.2752 32.6215 62.1724 32.6215 63.5953C32.6215 65.0182 32.3858 65.9668 31.9144 65.9668C31.4429 65.9668 30.9715 65.2553 30.5001 64.3067C30.0286 63.121 29.0858 61.6981 28.3786 60.038C27.6715 58.378 26.9643 56.4808 26.9643 55.0578C26.9643 53.6349 27.2 52.6863 27.6715 52.6863Z" fill="#BEE38D"/>
<path d="M46.0577 59.0885C46.7648 59.5628 46.2934 61.6971 45.5862 63.8315C44.8791 66.203 44.1719 68.1002 43.2291 68.1002C42.2862 68.1002 41.5791 65.7287 42.5219 62.8829C43.4648 60.2742 45.3505 58.6142 46.0577 59.0885Z" fill="#BEE38D"/>
<path d="M59.4923 66.9146C60.1994 67.3889 59.4923 69.5233 58.3137 71.8948C57.1351 74.2663 55.7208 75.9264 54.7779 75.6892C54.0708 75.4521 54.0708 72.8434 55.4851 70.4719C56.8994 67.8632 58.7851 66.4403 59.4923 66.9146Z" fill="#BEE38D"/>
<path d="M71.2792 82.3308C71.7507 83.0422 70.3364 84.4652 69.1578 86.5995C67.9792 88.4967 67.2721 90.394 66.5649 90.394C66.0935 90.394 65.622 89.9197 65.622 88.7339C65.622 87.7853 65.8578 86.3624 66.5649 84.9395C67.2721 83.5165 68.4506 82.8051 69.3935 82.3308C70.3364 81.8565 71.0435 82.0936 71.2792 82.3308Z" fill="#BEE38D"/>
<path d="M81.4131 97.508C82.1203 98.2195 80.9417 100.117 79.2917 102.251C77.6417 104.148 75.7559 105.571 75.0488 105.097C74.3416 104.623 75.0488 102.251 76.9345 100.117C78.8203 97.9824 80.9417 96.7966 81.4131 97.508Z" fill="#BEE38D"/>
<path d="M86.5986 114.347C87.3058 114.822 86.8343 116.482 85.8915 117.905C84.7129 119.328 83.2986 120.039 82.5914 119.565C81.8843 119.09 82.12 117.43 83.2986 116.008C84.4772 114.585 85.8915 113.873 86.5986 114.347Z" fill="#BEE38D"/>
<path d="M92.9634 128.339C93.4348 129.05 92.2562 130.473 90.6062 130.947C88.9562 131.422 87.7776 131.184 87.3061 130.473C87.0704 129.761 88.0133 128.576 89.6633 128.101C91.0776 127.39 92.4919 127.627 92.9634 128.339Z" fill="#BEE38D"/>
<path d="M96.0285 143.753C96.4999 144.464 95.3213 145.887 93.6713 145.887C92.0213 146.124 90.8427 145.176 90.8427 144.464C90.8427 143.516 92.0213 143.041 93.1999 142.804C94.6142 142.804 95.557 143.041 96.0285 143.753Z" fill="#BEE38D"/>
<path d="M99.0921 165.332C99.0921 166.281 97.442 166.992 95.5563 166.518C93.6706 166.281 92.492 164.858 92.7277 164.147C92.9634 163.435 94.6134 163.198 96.0277 163.435C97.9135 163.909 99.0921 164.621 99.0921 165.332Z" fill="#BEE38D"/>
<path d="M21.7794 69.0509C22.2509 68.3395 24.608 69.0509 26.9652 71.1853C29.3223 73.3196 29.7938 76.1655 28.8509 76.4026C28.1438 76.6398 26.4937 75.2168 24.608 73.3196C22.7223 71.4224 21.308 69.7624 21.7794 69.0509Z" fill="#BEE38D"/>
<path d="M39.4583 70.9489C40.1654 71.1861 40.4011 72.8461 40.1654 74.269C39.9297 75.9291 39.2226 77.1149 38.2797 77.1149C37.3368 77.1149 36.6297 75.4548 37.1011 73.5576C37.3368 71.8975 38.7511 70.7118 39.4583 70.9489Z" fill="#BEE38D"/>
<path d="M49.5919 76.1647C50.299 76.639 49.5919 78.7734 48.4133 81.1449C47.4704 83.2792 46.7633 85.1764 46.0561 85.4136C45.5847 85.4136 45.1133 84.9393 45.1133 83.7535C44.8775 82.8049 45.1133 81.382 45.8204 79.9591C46.999 76.8761 48.8847 75.6904 49.5919 76.1647Z" fill="#BEE38D"/>
<path d="M55.4862 86.8369C56.1933 87.5483 55.7219 88.7341 55.0147 90.157C54.3076 91.3427 53.6004 92.2913 52.8933 92.5285C52.4218 92.5285 51.9504 92.0542 51.9504 91.3427C51.7147 90.6313 51.9504 89.6827 52.4218 88.7341C53.3647 86.5998 55.0147 86.1254 55.4862 86.8369Z" fill="#BEE38D"/>
<path d="M63.4984 98.9314C64.2055 99.4057 63.9698 101.066 62.7912 102.252C61.6127 103.437 60.1984 103.912 59.7269 103.2C59.0198 102.489 59.4912 101.066 60.6698 100.117C61.3769 99.1686 62.7912 98.4571 63.4984 98.9314Z" fill="#BEE38D"/>
<path d="M68.9226 117.903C69.1583 118.614 68.6869 119.8 67.9797 120.512C67.2726 121.223 66.094 121.697 65.3868 121.223C64.6797 120.749 64.6797 119.326 65.8583 118.14C67.0369 117.191 68.4512 117.191 68.9226 117.903Z" fill="#BEE38D"/>
<path d="M77.643 134.505C77.8787 135.454 76.7002 136.402 75.0501 136.402C73.4001 136.402 72.2215 135.691 72.2215 134.98C72.2215 134.031 73.4001 133.319 74.8144 133.319C76.2287 133.319 77.1716 133.794 77.643 134.505Z" fill="#BEE38D"/>
<path d="M85.4225 151.104C85.6583 151.815 84.244 153.001 82.3583 153.001C80.4725 153.001 79.2939 152.053 79.2939 151.104C79.5297 150.155 80.7082 149.918 82.3583 149.918C83.7725 149.918 85.1868 150.393 85.4225 151.104Z" fill="#BEE38D"/>
<path d="M85.4213 165.095C85.657 165.807 83.7712 166.992 81.6498 166.518C79.5284 165.807 78.3498 164.384 78.8212 163.672C79.2926 162.961 80.9427 163.198 82.357 163.435C83.7713 163.672 85.1855 164.146 85.4213 165.095Z" fill="#BEE38D"/>
<path d="M34.2691 82.3304C34.9763 82.5676 35.212 84.4648 35.4477 86.8363C35.6834 89.2078 34.9763 91.5793 34.2691 91.5793C33.3263 91.5793 32.6191 89.6821 32.3834 87.0734C32.3834 85.6505 32.3834 84.4648 32.8548 83.5162C33.3263 82.8047 33.7977 82.3304 34.2691 82.3304Z" fill="#BEE38D"/>
<path d="M42.9924 98.9325C43.6996 99.1697 43.9353 100.593 43.6996 102.253C43.4639 103.676 42.7567 104.861 41.8138 104.861C40.871 104.861 40.1638 103.438 40.6353 101.541C40.871 99.8811 42.2853 98.6954 42.9924 98.9325Z" fill="#BEE38D"/>
<path d="M50.0632 113.161C51.0061 113.161 51.7132 114.347 51.7132 115.77C51.7132 117.193 51.2418 118.141 50.5346 118.378C49.5918 118.615 48.6489 117.43 48.6489 116.007C48.4132 114.347 49.1203 113.161 50.0632 113.161Z" fill="#BEE38D"/>
<path d="M57.6073 122.409C58.3145 122.884 58.5502 123.832 58.5502 124.544C58.3145 125.492 57.8431 126.441 56.9002 126.441C55.9573 126.441 55.2502 125.492 55.4859 124.069C55.4859 122.646 56.9002 121.698 57.6073 122.409Z" fill="#BEE38D"/>
<path d="M64.9156 145.175C64.4442 145.887 63.0299 145.887 61.8513 144.701C61.1441 143.99 60.9084 143.278 60.6727 142.567C60.6727 141.855 60.9084 141.381 61.3798 141.381C62.3227 141.381 63.0299 141.618 63.9727 142.567C64.9156 143.278 65.387 144.464 64.9156 145.175Z" fill="#BEE38D"/>
<path d="M70.5702 162.25C69.863 162.725 68.4487 161.776 67.5059 160.116C66.563 158.456 66.563 156.559 67.5059 156.322C68.213 156.084 69.3916 157.033 70.3345 158.693C71.0416 160.116 71.2773 161.776 70.5702 162.25Z" fill="#BEE38D"/>
<path d="M71.9853 171.262C71.2782 171.736 70.3353 171.499 70.0996 170.788C69.8639 170.076 70.0996 169.365 70.8067 168.89C71.5139 168.416 72.4568 168.653 72.6925 169.365C73.1639 170.076 72.6925 171.025 71.9853 171.262Z" fill="#BEE38D"/>
<path d="M10.4638 76.4032C10.6995 75.6918 13.2924 75.6918 16.3567 76.6404C19.1853 77.589 21.5425 79.0119 21.071 79.9605C20.8353 80.672 18.2424 80.672 15.1781 79.7234C12.1138 78.7747 9.99237 77.3518 10.4638 76.4032Z" fill="#BEE38D"/>
<path d="M22.4837 99.4059C21.7766 98.9316 22.248 97.0344 24.3694 96.0858C25.3123 95.6115 26.4909 95.8486 27.198 96.0858C27.9052 96.3229 28.1409 96.7972 28.1409 97.2715C27.9052 98.2201 26.7266 98.4573 25.7837 98.9316C24.6052 99.4059 23.1909 100.117 22.4837 99.4059Z" fill="#BEE38D"/>
<path d="M28.3792 114.346C27.672 113.871 28.3792 111.974 29.7935 110.314C31.2078 108.654 32.8578 107.705 33.5649 108.417C34.2721 108.891 33.5649 110.788 32.1507 112.449C30.7364 114.109 29.0863 115.057 28.3792 114.346Z" fill="#BEE38D"/>
<path d="M34.037 126.204C33.0941 125.967 33.3298 123.833 34.2727 121.935C35.2156 120.038 36.3941 118.852 37.337 119.09C38.2799 119.327 38.2799 121.461 37.1013 123.358C35.9227 125.256 34.7441 126.441 34.037 126.204Z" fill="#BEE38D"/>
<path d="M40.6346 136.877C39.9274 136.403 40.1631 134.743 40.8703 133.083C41.5774 131.422 42.5203 130.237 43.4632 130.237C44.406 130.237 44.6418 132.371 43.9346 134.268C42.756 136.403 41.3417 137.351 40.6346 136.877Z" fill="#BEE38D"/>
<path d="M46.9998 150.391C46.0569 150.154 46.0569 148.02 47.4712 146.122C48.6498 144.225 50.2998 143.277 51.007 143.751C51.7141 144.225 51.2427 146.122 50.0641 147.782C48.8855 149.442 47.7069 150.628 46.9998 150.391Z" fill="#BEE38D"/>
<path d="M58.3147 165.096C57.3719 165.096 56.6647 162.962 56.429 160.353C56.1933 157.744 56.6647 155.373 57.3719 155.373C58.3147 155.373 59.2576 157.27 59.4933 160.116C59.729 162.724 59.0219 165.096 58.3147 165.096Z" fill="#BEE38D"/>
<path d="M9.5208 98.2218C9.28508 97.7475 9.5208 97.2732 10.2279 96.7989C10.9351 96.3246 12.1137 95.8503 13.2923 95.8503C15.8851 96.0875 17.2994 97.2732 17.0637 98.2218C16.828 99.1704 14.9423 99.1704 13.2923 98.9333C11.4065 98.9333 9.99223 98.9333 9.5208 98.2218Z" fill="#BEE38D"/>
<path d="M16.3572 119.089C16.1214 118.852 16.1214 118.14 16.5929 117.429C17.0643 116.717 18.2429 115.769 19.4215 115.294C22.0143 114.346 23.9001 114.82 24.1358 115.532C24.3715 116.48 22.4858 117.429 20.3643 118.14C19.4215 118.615 18.4786 118.852 17.7715 119.089C17.0643 119.326 16.5929 119.563 16.3572 119.089Z" fill="#BEE38D"/>
<path d="M25.7845 137.824C25.0774 137.35 25.3131 135.453 26.7274 133.793C28.1417 131.895 30.2631 131.421 30.4989 132.37C30.9703 133.081 30.2631 134.267 29.0846 135.927C27.906 137.113 26.4917 138.299 25.7845 137.824Z" fill="#BEE38D"/>
<path d="M34.7424 147.547C34.0352 147.073 34.2709 145.413 34.9781 143.753C35.9209 142.093 37.0995 140.907 37.8067 141.144C38.5138 141.381 38.7495 143.279 37.8067 145.176C36.8638 147.073 35.4495 148.022 34.7424 147.547Z" fill="#BEE38D"/>
<path d="M39.9265 155.609C39.2193 155.372 38.9836 153.475 39.9265 151.578C40.8693 149.681 42.2836 148.495 42.9908 148.969C43.6979 149.443 43.4622 151.103 42.7551 153.001C41.8122 154.424 40.6336 155.846 39.9265 155.609Z" fill="#BEE38D"/>
<path d="M46.0582 168.654C45.1154 168.417 44.8797 166.757 45.5868 165.097C46.294 163.2 47.7083 162.251 48.4154 162.725C49.1226 163.2 49.1226 164.623 48.4154 166.283C47.944 167.468 47.0011 168.654 46.0582 168.654Z" fill="#BEE38D"/>
<path d="M69.3923 39.6437C70.0994 39.1694 71.7494 40.5923 73.3994 42.2524C75.0494 44.1496 75.9923 46.284 75.2852 46.7583C74.578 47.2326 72.928 46.284 71.0423 44.3867C69.1565 42.4895 68.4494 40.118 69.3923 39.6437Z" fill="#BEE38D"/>
<path d="M85.4206 24.2287C86.3635 23.9915 87.0706 25.8888 87.5421 28.0231C88.0135 29.9203 88.2492 31.5804 87.5421 32.2918C86.8349 32.7661 84.9492 31.3432 84.4777 28.9717C84.0063 26.3631 84.4778 24.4658 85.4206 24.2287Z" fill="#BEE38D"/>
<path d="M96.4989 13.5557C96.9704 14.2671 96.7347 15.9272 96.7347 18.5359C96.7347 21.1445 96.0275 23.516 95.0846 23.516C94.3775 23.516 93.4346 21.3817 93.4346 18.2987C93.4346 16.8758 93.906 15.4529 94.6132 14.5043C95.3203 13.7928 96.0275 13.3185 96.4989 13.5557Z" fill="#BEE38D"/>
<path d="M116.065 9.76257C116.536 10.474 115.593 12.1341 114.65 14.2684C113.707 16.4028 113 18.5372 112.057 18.3C111.35 18.3 110.643 15.9285 111.822 12.8455C112.293 11.4226 113.236 10.2369 114.179 9.76257C115.122 9.28827 115.829 9.28827 116.065 9.76257Z" fill="#BEE38D"/>
<path d="M134.921 12.3706C135.157 13.3192 133.978 14.2678 132.564 15.6907C131.15 17.1136 129.5 18.2994 128.792 17.8251C128.085 17.3508 128.557 15.4536 130.442 13.5564C131.385 12.6078 132.564 12.1335 133.507 11.8963C134.214 11.8963 134.685 12.1335 134.921 12.3706Z" fill="#BEE38D"/>
<path d="M143.879 25.1779C144.115 26.1265 142.936 26.8379 141.758 27.5494C140.579 28.0237 139.165 28.2608 138.693 27.5494C138.222 26.8379 138.693 25.415 140.343 24.7035C142.229 23.7549 143.879 24.2292 143.879 25.1779Z" fill="#BEE38D"/>
<path d="M153.309 41.3041C153.544 42.2527 151.894 43.2013 149.537 44.1499C147.18 45.0985 144.587 44.8614 144.587 43.9128C144.587 42.9641 146.001 42.0155 148.358 41.0669C150.716 40.3555 153.073 40.3555 153.309 41.3041Z" fill="#BEE38D"/>
<path d="M156.136 61.4606C156.607 62.1721 154.957 63.8321 152.364 64.0693C149.771 64.5436 147.65 63.3578 147.885 62.6464C148.121 61.6978 149.771 61.4606 151.893 60.9863C153.778 60.7492 155.664 60.7492 156.136 61.4606Z" fill="#BEE38D"/>
<path d="M120.308 25.1771C120.544 26.1257 119.365 27.0743 118.187 28.2601C116.773 29.4458 115.594 30.3944 114.887 29.9201C114.18 29.4458 114.415 27.5486 116.301 25.8886C117.951 24.2285 120.073 24.2285 120.308 25.1771Z" fill="#BEE38D"/>
<path d="M131.384 39.6444C131.62 40.593 130.442 41.3045 128.792 42.0159C127.377 42.4902 125.963 42.7274 125.492 42.0159C125.02 41.3045 125.963 39.6444 127.849 39.1701C129.499 38.4587 131.149 38.933 131.384 39.6444Z" fill="#BEE38D"/>
<path d="M133.036 59.091C133.507 59.8025 132.564 60.9882 131.15 61.4625C129.736 61.9368 128.557 61.4625 128.321 60.5139C128.086 59.5653 129.028 58.8539 130.207 58.3796C131.386 58.1424 132.564 58.3795 133.036 59.091Z" fill="#BEE38D"/>
<path d="M133.744 74.0303C133.744 74.9789 133.037 75.6903 131.859 75.6903C130.68 75.6903 129.973 74.9789 129.973 74.0303C129.973 73.0817 130.68 72.3702 131.859 72.3702C133.037 72.3702 133.744 73.3188 133.744 74.0303Z" fill="#BEE38D"/>
<path d="M134.452 89.9194C133.981 90.6309 132.802 90.868 131.388 90.1566C129.973 89.4451 129.266 88.2593 129.738 87.5479C130.209 86.8364 131.388 86.5993 132.802 87.3107C134.216 88.0222 134.923 89.208 134.452 89.9194Z" fill="#BEE38D"/>
<path d="M129.5 111.738C128.793 112.449 127.614 111.975 126.435 111.026C125.493 110.078 125.021 108.892 125.493 108.18C125.964 107.469 127.378 107.706 128.557 108.655C129.735 109.603 129.971 111.026 129.5 111.738Z" fill="#BEE38D"/>
<path d="M125.965 128.336C125.258 129.048 124.079 128.811 123.136 127.862C122.193 127.151 121.486 125.965 121.958 125.253C122.429 124.542 123.843 124.542 125.022 125.491C126.201 126.202 126.436 127.625 125.965 128.336Z" fill="#BEE38D"/>
<path d="M124.787 146.125C124.079 146.599 122.665 146.125 121.722 144.702C120.779 143.279 120.779 141.619 121.486 141.382C122.194 140.908 123.372 141.619 124.315 143.042C125.022 143.991 125.258 145.414 124.787 146.125Z" fill="#BEE38D"/>
<path d="M123.843 160.591C123.136 161.302 121.957 160.828 121.014 159.642C120.072 158.456 120.072 156.796 120.779 156.559C121.486 156.322 122.665 156.796 123.372 157.745C124.079 158.693 124.55 160.116 123.843 160.591Z" fill="#BEE38D"/>
<path d="M119.13 169.841C118.659 170.553 117.009 170.316 116.066 168.893C115.123 167.707 115.123 166.047 116.066 165.81C116.773 165.335 117.952 166.047 118.659 166.996C119.366 167.944 119.602 169.13 119.13 169.841Z" fill="#BEE38D"/>
<path d="M103.806 30.6339C104.513 30.871 104.513 33.0054 103.57 35.1398C102.627 37.2741 101.448 38.697 100.741 38.4599C99.7985 38.2227 99.7985 36.0884 100.741 33.954C101.684 31.8196 103.098 30.3967 103.806 30.6339Z" fill="#BEE38D"/>
<path d="M115.592 46.7592C115.828 47.4706 114.649 48.8935 113.235 50.3164C111.821 51.7394 110.407 53.1623 109.699 52.688C108.992 52.4508 109.228 50.0793 111.114 48.1821C112.999 46.2849 115.357 46.0477 115.592 46.7592Z" fill="#BEE38D"/>
<path d="M118.422 69.7617C118.422 70.7103 117.479 71.4218 116.3 71.4218C115.122 71.4218 114.179 70.7103 114.179 69.7617C114.179 68.8131 115.122 68.1016 116.3 68.1016C117.479 68.1016 118.422 68.8131 118.422 69.7617Z" fill="#BEE38D"/>
<path d="M117.716 89.2093C117.009 89.6836 115.595 88.735 114.652 87.3121C113.709 85.8892 113.237 84.4663 113.709 83.7548C114.18 83.0434 116.066 83.7548 117.009 85.4149C118.187 87.0749 118.423 88.735 117.716 89.2093Z" fill="#BEE38D"/>
<path d="M113.709 105.335C113.002 105.81 111.587 104.624 111.352 102.964C110.88 101.304 111.352 99.8808 112.294 99.6436C113.237 99.4065 113.944 100.592 114.416 102.015C114.652 103.675 114.416 104.861 113.709 105.335Z" fill="#BEE38D"/>
<path d="M111.822 121.936C110.879 122.173 109.936 120.75 109.7 118.853C109.464 116.956 110.172 115.296 111.114 115.296C112.057 115.296 112.764 116.719 113 118.379C113 120.276 112.529 121.699 111.822 121.936Z" fill="#BEE38D"/>
<path d="M108.992 139.249C108.049 139.249 107.106 137.589 106.871 135.217C106.399 132.608 107.342 130.474 108.285 130.711C109.228 130.948 109.463 132.608 109.935 134.98C110.171 137.114 109.935 139.249 108.992 139.249Z" fill="#BEE38D"/>
<path d="M107.814 160.356C106.871 160.356 106.164 158.221 106.164 155.613C106.164 153.004 106.871 150.87 107.814 150.87C108.757 150.87 109.464 153.004 109.464 155.613C109.228 158.221 108.521 160.356 107.814 160.356Z" fill="#BEE38D"/>
<path d="M105.457 169.365C104.514 169.365 103.807 168.653 104.043 167.468C104.043 166.282 105.221 165.57 105.928 165.807C106.636 166.045 107.107 166.993 107.107 167.705C106.871 168.653 106.4 169.365 105.457 169.365Z" fill="#BEE38D"/>
<path d="M88.4854 35.8489C88.4854 35.3746 89.1925 35.1374 90.1354 35.3746C91.0783 35.3746 92.4926 36.086 93.4354 36.7975C95.7926 38.6947 96.4997 40.829 95.7926 41.3033C95.0854 41.7776 93.4354 40.5919 91.5497 39.169C89.8997 37.7461 88.4854 36.5603 88.4854 35.8489Z" fill="#BEE38D"/>
<path d="M90.8438 56.7188C91.0795 56.0073 92.2581 55.533 93.6724 55.7702C95.0867 56.2445 96.0296 57.4302 95.5581 58.1417C95.0867 58.8531 93.9081 59.0903 92.7295 58.616C91.5509 58.3788 90.6081 57.6674 90.8438 56.7188Z" fill="#BEE38D"/>
<path d="M87.3081 69.7617C87.3081 68.8131 88.9581 68.1016 90.8439 68.1016C92.7296 68.1016 94.3796 68.8131 94.3796 69.7617C94.3796 70.7103 92.7296 71.4218 90.8439 71.4218C88.9581 71.4218 87.3081 70.7103 87.3081 69.7617Z" fill="#BEE38D"/>
<path d="M89.4279 81.62C89.1922 80.9086 90.3708 79.7228 92.2565 79.0113C94.1422 78.2999 96.028 78.7742 96.028 79.7228C96.028 80.6714 94.8494 81.3829 93.1994 82.0943C91.3136 82.5686 89.6636 82.5686 89.4279 81.62Z" fill="#BEE38D"/>
<path d="M88.4858 94.6626C88.2501 94.4255 88.4858 93.714 89.1929 93.0026C89.9001 92.2911 91.0787 91.5796 92.493 91.1053C95.0858 90.3939 97.2073 90.3939 97.6787 91.1053C98.1501 91.8168 96.0287 93.2397 93.4358 94.1883C91.0787 94.8998 89.1929 95.3741 88.4858 94.6626Z" fill="#BEE38D"/>
<path d="M90.1344 110.789C89.4272 110.552 89.8987 107.469 92.0201 104.623C94.1416 101.777 96.7344 100.591 97.2059 101.303C97.6773 102.014 96.263 104.149 94.3773 106.52C92.4916 109.129 90.8415 111.263 90.1344 110.789Z" fill="#BEE38D"/>
<path d="M90.6077 123.122C90.1362 122.411 89.9005 121.462 90.372 120.988C90.6077 120.513 91.3148 120.039 92.2577 120.039C92.7291 120.039 93.2005 120.276 93.2005 120.751C93.4363 121.225 93.4363 121.936 92.9648 122.411C92.2577 123.596 91.0791 123.834 90.6077 123.122Z" fill="#BEE38D"/>
<path d="M72.9292 51.2627C72.6935 50.5513 74.5792 48.8912 77.6436 49.3655C79.0578 49.6027 80.4721 50.077 81.1793 50.7884C81.8864 51.4999 82.1221 52.2113 81.6507 52.4485C80.9436 53.1599 79.5293 52.4485 77.4078 52.4485C75.0507 51.9742 73.1649 51.9742 72.9292 51.2627Z" fill="#BEE38D"/>
<path d="M65.8568 61.4621C65.8568 60.5134 67.7426 60.0391 70.0997 60.2763C72.2212 60.7506 73.6355 61.4621 73.8712 62.1735C73.8712 63.1221 71.9855 63.8336 69.6283 63.3593C67.2711 63.1221 65.8568 62.4107 65.8568 61.4621Z" fill="#BEE38D"/>
<path d="M71.7492 75.6903C71.5135 74.9788 72.2206 73.7931 73.3992 73.5559C74.5778 73.3188 75.7564 74.0302 75.7564 74.7417C75.7564 75.6903 75.0492 76.4017 74.1064 76.6389C72.9278 76.876 71.9849 76.4017 71.7492 75.6903Z" fill="#BEE38D"/>
<path d="M75.2866 88.7342C74.8151 88.0227 75.2866 86.837 76.4652 86.1255C77.408 85.4141 78.5866 85.1769 79.2938 85.6512C80.0009 86.3627 79.5295 87.5484 78.3509 88.497C76.9366 89.4456 75.5223 89.4456 75.2866 88.7342Z" fill="#BEE38D"/>
<path d="M99.0913 71.4222C98.6198 70.7107 99.327 69.2878 100.741 68.5764C102.156 67.865 103.806 68.1021 103.806 69.0507C104.041 69.7621 103.334 70.7107 102.156 71.4222C100.977 71.8965 99.5627 71.8965 99.0913 71.4222Z" fill="#BEE38D"/>
<path d="M99.5638 84.703C98.8566 84.2287 99.3281 82.5686 100.271 81.3829C101.45 80.1971 102.628 79.4857 103.335 79.96C104.042 80.4343 103.571 82.0943 102.628 83.2801C101.45 84.703 100.271 85.1773 99.5638 84.703Z" fill="#BEE38D"/>
<path d="M102.393 98.9323C101.686 98.458 101.921 96.798 102.864 95.3751C103.571 93.9522 104.75 93.0036 105.693 93.2407C106.4 93.4779 106.636 95.1379 105.693 96.798C104.514 98.6952 102.864 99.6438 102.393 98.9323Z" fill="#BEE38D"/>
<path d="M167.214 43.6768C167.921 44.1511 167.921 45.8112 167.685 47.7084C167.45 49.8428 166.978 51.5028 166.035 51.5028C165.093 51.5028 164.385 49.8428 164.621 47.2341C164.621 44.8626 166.271 43.2025 167.214 43.6768Z" fill="#BEE38D"/>
<path d="M182.064 51.2658C182.771 51.9773 181.828 53.6373 180.414 55.5346C178.999 57.4318 177.349 58.8547 176.642 58.3804C175.935 57.9061 176.406 55.7717 178.056 53.6373C179.471 51.503 181.357 50.5544 182.064 51.2658Z" fill="#BEE38D"/>
<path d="M183.244 71.4219C183.008 72.1333 182.065 72.8448 180.651 73.5563C179.237 74.2677 177.351 74.2677 177.115 73.5563C176.88 72.8448 177.823 71.659 179.473 70.7104C180.415 70.2361 181.358 70.2361 182.301 70.4733C183.008 70.4733 183.244 70.9476 183.244 71.4219Z" fill="#BEE38D"/>
<path d="M182.773 85.1764C183.009 85.8879 182.066 87.0736 180.416 87.7851C178.766 88.4965 177.116 88.0222 176.88 87.0736C176.644 86.125 177.823 85.4136 179.237 84.7021C180.887 84.2278 182.537 84.465 182.773 85.1764Z" fill="#BEE38D"/>
<path d="M178.53 102.962C178.059 103.674 177.116 103.911 175.937 103.911C174.759 103.911 173.58 103.2 173.58 102.251C173.58 101.302 174.759 100.591 176.409 100.828C177.823 100.828 179.001 102.251 178.53 102.962Z" fill="#BEE38D"/>
<path d="M174.995 119.564C174.759 120.275 173.345 120.513 171.931 120.038C170.517 119.564 169.338 118.615 169.574 117.904C169.809 116.955 171.224 116.481 172.874 116.955C174.288 117.667 175.231 118.853 174.995 119.564Z" fill="#BEE38D"/>
<path d="M167.923 134.505C167.452 135.217 166.273 135.454 165.095 134.742C163.916 134.031 163.445 132.845 163.916 132.134C164.387 131.422 165.566 131.422 166.745 131.897C167.687 132.608 168.159 133.794 167.923 134.505Z" fill="#BEE38D"/>
<path d="M162.028 147.548C161.556 148.259 160.378 148.496 158.963 148.022C157.549 147.548 156.37 146.362 156.842 145.65C157.313 144.939 158.492 144.702 159.906 145.176C161.321 145.65 162.499 146.836 162.028 147.548Z" fill="#BEE38D"/>
<path d="M157.313 161.064C156.842 161.776 155.428 161.776 154.013 161.064C152.599 160.353 151.656 159.167 151.892 158.456C152.128 157.744 153.778 157.507 155.428 158.219C156.842 158.93 157.785 160.353 157.313 161.064Z" fill="#BEE38D"/>
<path d="M149.77 174.108C149.063 174.582 147.648 173.633 145.998 171.973C144.348 170.313 143.641 168.179 144.348 167.705C145.056 167.23 146.47 168.179 148.12 169.839C149.77 171.499 150.477 173.633 149.77 174.108Z" fill="#BEE38D"/>
<path d="M172.638 63.3597C173.109 64.0711 171.695 65.7312 170.045 67.8655C168.395 69.7628 166.745 71.4228 166.038 70.9485C165.331 70.4742 165.802 68.1027 167.924 65.7312C169.809 63.5968 172.166 62.6482 172.638 63.3597Z" fill="#BEE38D"/>
<path d="M171.457 81.6206C171.457 82.5692 170.514 83.2807 169.1 83.9921C167.921 84.7036 166.743 85.1779 165.8 84.7036C165.093 84.2293 165.564 82.332 167.45 81.1463C169.572 80.1977 171.457 80.672 171.457 81.6206Z" fill="#BEE38D"/>
<path d="M167.921 98.6953C168.157 99.6439 167.45 100.355 166.036 100.83C164.621 101.067 163.443 100.355 163.443 99.6439C163.443 98.6953 164.386 97.9839 165.329 97.7467C166.507 97.2724 167.686 97.7467 167.921 98.6953Z" fill="#BEE38D"/>
<path d="M163.917 111.973C163.917 112.922 162.974 113.633 161.795 113.633C160.617 113.633 159.674 112.922 159.674 111.973C159.674 111.025 160.617 110.313 161.795 110.313C162.974 110.55 163.917 111.262 163.917 111.973Z" fill="#BEE38D"/>
<path d="M160.85 122.408C160.379 123.119 158.965 122.882 157.786 122.645C156.372 122.408 155.193 121.934 154.957 121.222C154.722 120.511 156.372 119.325 158.257 119.562C160.379 120.036 161.322 121.697 160.85 122.408Z" fill="#BEE38D"/>
<path d="M157.314 134.505C156.843 135.216 155.428 134.979 154.014 134.505C152.6 134.031 151.421 133.319 151.421 132.371C151.421 131.422 153.071 130.711 154.957 131.422C156.843 132.371 157.785 134.031 157.314 134.505Z" fill="#BEE38D"/>
<path d="M154.485 146.124C154.013 146.836 152.835 147.073 151.42 146.362C150.006 145.65 149.299 144.464 149.77 143.753C150.242 143.041 151.42 143.041 152.835 143.516C154.013 143.99 154.956 145.176 154.485 146.124Z" fill="#BEE38D"/>
<path d="M143.644 152.764C142.937 153.001 141.994 152.527 141.523 151.815C141.051 151.104 141.287 150.155 141.994 149.681C142.701 149.206 143.644 149.444 144.351 150.392C144.823 151.578 144.351 152.527 143.644 152.764Z" fill="#BEE38D"/>
<path d="M137.278 170.077C136.335 170.077 135.628 168.654 135.628 166.757C135.392 164.86 136.1 162.963 137.042 162.963C137.985 162.963 138.692 164.386 138.692 166.283C138.692 168.417 138.221 170.077 137.278 170.077Z" fill="#BEE38D"/>
<path d="M147.179 70.2345C147.887 69.7602 149.537 70.946 150.715 72.8432C152.129 74.7404 152.837 76.4005 152.129 77.1119C151.658 77.8234 149.537 76.8748 148.122 74.7404C146.708 72.606 146.472 70.7088 147.179 70.2345Z" fill="#BEE38D"/>
<path d="M140.342 83.2793C140.813 82.5678 142.227 82.805 143.642 83.9907C144.82 85.1765 145.056 86.8365 144.349 87.3108C143.642 87.7851 142.463 87.3109 141.52 86.3622C140.342 85.1765 139.87 83.9907 140.342 83.2793Z" fill="#BEE38D"/>
<path d="M136.098 101.777C136.57 101.065 137.984 101.065 139.163 101.777C140.341 102.488 140.813 103.911 140.341 104.622C139.87 105.334 138.456 105.334 137.277 104.385C136.334 103.674 135.627 102.488 136.098 101.777Z" fill="#BEE38D"/>
<path d="M131.386 118.378C131.621 117.667 133.271 117.43 134.686 117.667C136.336 117.904 137.514 118.615 137.514 119.564C137.514 120.513 136.1 121.224 133.979 120.75C132.093 120.513 130.914 119.09 131.386 118.378Z" fill="#BEE38D"/>
<path d="M125.963 134.268C125.728 133.557 127.142 131.897 129.735 131.185C132.328 130.237 134.685 130.948 134.685 131.897C134.685 132.845 133.035 133.557 130.678 134.268C128.32 134.743 126.199 134.98 125.963 134.268Z" fill="#BEE38D"/>
<path d="M126.2 148.497C125.493 148.022 126.907 145.414 129.736 143.754C132.565 141.857 135.393 141.857 135.629 142.568C135.865 143.517 133.743 144.702 131.386 146.362C129.029 147.785 126.907 148.971 126.2 148.497Z" fill="#BEE38D"/>
<path d="M124.786 162.964C124.078 162.727 124.314 160.118 126.2 158.221C128.086 156.323 130.207 155.849 130.679 156.561C131.15 157.272 129.971 158.932 128.321 160.355C126.671 162.015 125.493 163.438 124.786 162.964Z" fill="#BEE38D"/>
<path d="M152.599 86.8363C152.599 85.8877 154.485 85.6505 156.606 86.1248C158.492 86.5992 159.906 87.5478 159.67 88.4964C159.67 89.445 157.785 89.6821 155.663 89.2078C153.777 88.4964 152.363 87.5478 152.599 86.8363Z" fill="#BEE38D"/>
<path d="M146.236 101.775C146.707 101.064 148.121 101.538 149.064 102.724C150.007 103.909 149.771 105.332 149.064 105.807C148.357 106.281 147.179 105.569 146.471 104.621C146 103.672 145.764 102.486 146.236 101.775Z" fill="#BEE38D"/>
<path d="M138.456 122.647C138.22 122.41 138.22 121.698 138.692 120.75C139.399 120.038 140.577 119.327 141.992 119.09C143.406 118.853 144.349 118.853 145.056 118.853C145.763 118.853 146.47 119.09 146.706 119.564C146.942 120.038 146.47 120.513 145.763 120.987C145.056 121.461 143.877 121.936 142.699 122.173C141.756 122.41 140.813 122.647 140.106 122.647C139.399 122.884 138.692 123.121 138.456 122.647Z" fill="#BEE38D"/>
<path d="M139.636 133.793C139.165 133.556 138.929 133.082 139.165 132.133C139.4 131.185 139.872 130.236 140.815 129.288C141.758 128.576 142.936 128.102 143.643 128.102C144.586 128.102 145.058 128.339 145.058 128.813C145.058 129.762 143.879 130.473 142.7 131.659C141.522 132.845 140.343 134.031 139.636 133.793Z" fill="#BEE38D"/>
<path d="M136.807 147.31C136.1 146.836 136.572 144.701 138.457 143.041C140.343 141.144 142.464 140.67 142.7 141.381C143.172 142.092 141.993 143.753 140.579 145.175C139.164 146.598 137.514 147.784 136.807 147.31Z" fill="#BEE38D"/>
<path d="M191.023 95.1383C191.73 95.3754 191.966 97.9841 191.966 101.304C191.966 104.624 191.495 107.47 190.552 107.47C189.609 107.47 188.902 104.861 188.902 101.304C188.902 97.7469 190.316 94.9011 191.023 95.1383Z" fill="#BEE38D"/>
<path d="M202.571 92.2924C203.278 92.7667 202.807 94.4268 202.099 96.0869C201.392 97.7469 200.685 98.9327 199.978 98.9327C199.035 98.9327 198.328 96.7983 199.271 94.664C199.978 92.7667 201.864 91.8181 202.571 92.2924Z" fill="#BEE38D"/>
<path d="M215.065 87.5486C215.536 88.26 214.357 90.1572 213.179 92.0544C212 93.9516 211.293 95.8488 210.35 95.8488C209.879 95.8488 209.407 95.3745 209.407 94.1888C209.407 93.2402 209.643 91.5801 210.35 90.3944C212.236 87.7857 214.593 86.8371 215.065 87.5486Z" fill="#BEE38D"/>
<path d="M228.03 92.7677C228.266 93.7163 226.852 94.6649 225.202 95.8507C223.551 96.7993 222.137 97.7479 221.43 97.2736C220.723 96.7993 221.43 94.6649 223.552 93.242C225.673 91.5819 227.794 91.8191 228.03 92.7677Z" fill="#BEE38D"/>
<path d="M230.858 108.417C231.094 109.128 230.151 110.314 228.501 110.314C227.087 110.314 226.144 109.603 226.144 108.891C226.144 107.943 227.322 107.231 228.501 107.231C229.444 107.231 230.387 107.706 230.858 108.417Z" fill="#BEE38D"/>
<path d="M226.85 122.646C226.85 123.595 225.2 124.306 223.315 124.306C221.429 124.306 219.779 123.595 219.779 122.646C219.779 121.698 221.429 120.986 223.315 120.986C225.2 120.986 226.85 121.935 226.85 122.646Z" fill="#BEE38D"/>
<path d="M213.181 140.434C212.71 141.145 211.767 141.382 210.824 140.908C209.881 140.671 208.938 139.485 209.41 138.774C209.645 138.062 210.824 137.588 212.003 138.062C212.945 138.537 213.653 139.722 213.181 140.434Z" fill="#BEE38D"/>
<path d="M201.629 151.58C200.922 152.292 199.508 151.817 198.565 150.631C197.622 149.446 197.387 148.26 198.094 147.548C198.801 146.837 200.215 147.311 201.158 148.497C202.101 149.683 202.337 150.869 201.629 151.58Z" fill="#BEE38D"/>
<path d="M189.845 161.776C189.138 162.251 187.959 161.776 187.252 161.539C186.545 161.065 185.602 160.354 185.602 159.405C185.602 158.931 185.837 158.456 186.545 158.456C187.252 158.219 187.959 158.219 188.902 158.694C190.316 159.642 190.552 161.539 189.845 161.776Z" fill="#BEE38D"/>
<path d="M180.414 172.213C179.942 172.924 178.528 172.687 177.821 171.027C177.35 169.367 178.057 168.181 179 168.418C179.942 168.418 180.414 169.367 180.885 170.078C180.885 170.553 181.121 171.501 180.414 172.213Z" fill="#BEE38D"/>
<path d="M216.245 98.9303C216.717 99.6417 215.303 101.539 213.653 103.436C211.767 105.333 209.881 106.993 209.174 106.519C208.467 106.045 209.174 103.673 211.295 101.302C213.181 99.1674 215.774 98.2188 216.245 98.9303Z" fill="#BEE38D"/>
<path d="M216.952 112.923C216.952 113.872 215.774 114.583 214.124 115.295C212.474 115.769 210.588 115.532 210.588 114.583C210.352 113.635 211.531 112.686 213.181 112.212C215.302 111.5 216.952 111.975 216.952 112.923Z" fill="#BEE38D"/>
<path d="M209.645 126.678C209.174 127.39 208.231 127.627 207.052 127.39C205.874 127.153 204.931 126.441 204.931 125.493C204.931 124.544 206.109 123.833 207.759 124.307C209.174 124.544 210.117 125.967 209.645 126.678Z" fill="#BEE38D"/>
<path d="M201.393 136.164C201.393 137.113 199.979 137.824 198.329 137.587C196.443 137.587 195.029 136.164 195.5 135.216C195.972 134.504 197.15 134.267 198.564 134.267C199.979 134.741 201.393 135.216 201.393 136.164Z" fill="#BEE38D"/>
<path d="M193.38 146.837C193.144 147.549 191.73 148.023 190.08 148.023C188.43 147.786 186.78 146.837 187.016 146.126C187.251 145.177 188.666 144.94 190.316 144.94C192.201 144.94 193.616 145.889 193.38 146.837Z" fill="#BEE38D"/>
<path d="M180.886 157.507C180.179 158.219 179.236 157.982 178.529 157.27C177.821 156.559 177.821 155.136 178.529 154.662C179.236 154.424 180.179 154.424 180.886 155.136C181.357 155.847 181.357 156.796 180.886 157.507Z" fill="#BEE38D"/>
<path d="M170.987 167.705C170.516 168.417 169.101 168.18 167.687 167.468C166.509 166.757 165.566 165.808 165.801 165.097C165.801 164.148 167.687 163.911 169.337 164.859C170.987 165.808 171.459 166.994 170.987 167.705Z" fill="#BEE38D"/>
<path d="M196.208 103.438C197.151 103.201 198.33 105.098 198.801 107.469C199.273 109.841 199.273 111.738 198.566 112.212C197.858 112.687 196.208 110.79 195.737 108.181C195.266 105.572 195.266 103.675 196.208 103.438Z" fill="#BEE38D"/>
<path d="M185.128 116.006C185.836 115.294 187.486 116.48 188.193 118.852C188.9 120.986 188.193 122.646 187.486 122.883C186.543 123.12 185.836 121.46 185.364 119.8C184.893 117.903 184.421 116.717 185.128 116.006Z" fill="#BEE38D"/>
<path d="M176.644 128.339C177.116 127.627 178.766 127.864 179.944 129.05C181.123 130.236 181.594 131.659 180.887 132.133C180.18 132.845 178.766 132.37 177.823 131.184C176.644 130.236 175.937 129.05 176.644 128.339Z" fill="#BEE38D"/>
<path d="M169.102 139.011C169.338 138.299 170.988 138.062 172.638 138.299C174.288 138.536 175.702 139.248 175.702 140.196C175.702 141.145 174.052 141.856 171.931 141.382C170.045 141.145 168.631 139.722 169.102 139.011Z" fill="#BEE38D"/>
<path d="M162.028 155.61C161.321 154.899 162.5 153.239 164.621 153.002C166.742 152.527 168.157 153.713 167.921 154.425C167.685 155.373 166.507 155.61 165.092 155.847C163.678 156.085 162.499 156.085 162.028 155.61Z" fill="#BEE38D"/>
<path d="M203.987 114.109C203.987 115.058 203.044 115.769 201.865 116.481C200.687 117.192 199.508 117.666 198.801 117.192C198.094 116.718 198.33 114.821 200.215 113.872C202.101 112.686 203.987 113.161 203.987 114.109Z" fill="#BEE38D"/>
<path d="M195.735 129.051C195.264 129.762 194.321 129.999 193.142 130.474C191.728 130.948 190.314 130.948 189.842 130.236C189.371 129.525 190.314 128.102 192.199 127.391C193.142 127.153 194.321 127.153 195.028 127.628C195.735 128.102 195.971 128.576 195.735 129.051Z" fill="#BEE38D"/>
<path d="M186.778 139.01C186.071 139.484 185.364 139.722 184.892 139.722C184.656 139.484 183.949 139.01 183.714 138.299C183.478 137.824 183.714 137.35 183.949 137.113C184.421 136.876 184.892 136.639 185.599 136.639C187.249 136.876 187.485 138.299 186.778 139.01Z" fill="#BEE38D"/>
<path d="M181.357 150.394C181.357 151.342 179.707 152.054 178.057 151.342C176.407 150.631 175.464 148.971 176.171 148.496C176.878 148.022 177.821 148.022 179.235 148.496C180.178 148.734 181.121 149.445 181.357 150.394Z" fill="#BEE38D"/>
</g>
<defs>
<linearGradient id="paint0_linear" x1="120.178" y1="-0.167725" x2="120.178" y2="326.864" gradientUnits="userSpaceOnUse">
<stop stop-color="white"/>
<stop offset="1" stop-color="white" stop-opacity="0"/>
</linearGradient>
<radialGradient id="paint1_radial" cx="0" cy="0" r="1" gradientUnits="userSpaceOnUse" gradientTransform="translate(62.4745 249.805) rotate(29.5346) scale(47.7995 40.1308)">
<stop stop-color="#FF9900"/>
<stop offset="1" stop-color="#FF9900" stop-opacity="0"/>
</radialGradient>
<clipPath id="clip0">
<rect width="244.909" height="329.878" fill="white" transform="translate(0.0909119 0.040802)"/>
</clipPath>
</defs>
</svg>
