<svg width="25" height="23" viewBox="0 0 25 23" fill="none" xmlns="http://www.w3.org/2000/svg">
<g opacity="0.2">
<path opacity="0.4" d="M12.3557 22.8032C9.59201 21.0962 7.02291 19.0834 4.69538 16.8016C3.05224 15.1725 1.79735 13.1832 1.02661 10.9858C-0.35052 6.70054 1.25255 1.80305 5.72823 0.349112C8.09059 -0.392778 10.6598 0.0626502 12.6354 1.57348C14.6117 0.0643398 17.1801 -0.39094 19.5426 0.349112C24.0183 1.80305 25.6321 6.70054 24.255 10.9858C23.4905 13.1811 22.2431 15.1702 20.6077 16.8016C18.2781 19.0809 15.7093 21.0935 12.9474 22.8032L12.6462 23L12.3557 22.8032Z" fill="white"/>
<path d="M12.64 22.9995L12.3556 22.8027C9.58854 21.0959 7.01586 19.0831 4.68457 16.8011C3.03363 15.1742 1.77127 13.1848 0.994279 10.9854C-0.372096 6.70006 1.23097 1.80257 5.70666 0.348632C8.06901 -0.393257 10.6722 0.0625197 12.64 1.586V22.9995Z" fill="white"/>
</g>
</svg>
