<svg width="23" height="23" viewBox="0 0 23 23" fill="none" xmlns="http://www.w3.org/2000/svg">
<g filter="url(#filter0_i)">
<path d="M22.5215 11.4984V17.1234C22.5215 18.6152 21.9283 20.046 20.8724 21.1009C19.8165 22.1557 18.3844 22.7484 16.8912 22.7484H5.63039C4.13712 22.7484 2.705 22.1557 1.6491 21.1009C0.593197 20.046 1.74662e-06 18.6152 1.74662e-06 17.1234V11.4984C-0.000609287 10.7233 0.159108 9.95648 0.469155 9.24599C0.779201 8.5355 1.23288 7.8967 1.80171 7.36965L8.19784 1.45214C9.03076 0.680406 10.1248 0.251587 11.2608 0.251587C12.3968 0.251587 13.4908 0.680406 14.3237 1.45214L20.7198 7.36965C21.2887 7.8967 21.7423 8.5355 22.0524 9.24599C22.3624 9.95648 22.5222 10.7233 22.5215 11.4984Z" fill="#F2F5FF"/>
<path d="M22.5215 11.4984V17.1234C22.5215 18.6152 21.9283 20.046 20.8724 21.1009C19.8165 22.1557 18.3844 22.7484 16.8912 22.7484H5.63039C4.13712 22.7484 2.705 22.1557 1.6491 21.1009C0.593197 20.046 1.74662e-06 18.6152 1.74662e-06 17.1234V11.4984C-0.000609287 10.7233 0.159108 9.95648 0.469155 9.24599C0.779201 8.5355 1.23288 7.8967 1.80171 7.36965L8.19784 1.45214C9.03076 0.680406 10.1248 0.251587 11.2608 0.251587C12.3968 0.251587 13.4908 0.680406 14.3237 1.45214L20.7198 7.36965C21.2887 7.8967 21.7423 8.5355 22.0524 9.24599C22.3624 9.95648 22.5222 10.7233 22.5215 11.4984Z" fill="url(#paint0_radial)"/>
<path d="M22.5215 11.4984V17.1234C22.5215 18.6152 21.9283 20.046 20.8724 21.1009C19.8165 22.1557 18.3844 22.7484 16.8912 22.7484H5.63039C4.13712 22.7484 2.705 22.1557 1.6491 21.1009C0.593197 20.046 1.74662e-06 18.6152 1.74662e-06 17.1234V11.4984C-0.000609287 10.7233 0.159108 9.95648 0.469155 9.24599C0.779201 8.5355 1.23288 7.8967 1.80171 7.36965L8.19784 1.45214C9.03076 0.680406 10.1248 0.251587 11.2608 0.251587C12.3968 0.251587 13.4908 0.680406 14.3237 1.45214L20.7198 7.36965C21.2887 7.8967 21.7423 8.5355 22.0524 9.24599C22.3624 9.95648 22.5222 10.7233 22.5215 11.4984Z" fill="url(#paint1_radial)"/>
</g>
<path d="M15.1795 14.8846C15.1766 15.1075 15.0867 15.3204 14.929 15.478C14.7712 15.6356 14.5581 15.7254 14.335 15.7283H8.20912C7.98513 15.7283 7.77031 15.6394 7.61192 15.4812C7.45354 15.323 7.36456 15.1084 7.36456 14.8846C7.36456 14.6608 7.45354 14.4462 7.61192 14.288C7.77031 14.1297 7.98513 14.0408 8.20912 14.0408H14.335C14.559 14.0408 14.7738 14.1297 14.9322 14.288C15.0906 14.4462 15.1795 14.6608 15.1795 14.8846Z" fill="#6F6F6F"/>
<defs>
<filter id="filter0_i" x="0" y="0.251587" width="22.5215" height="26.4968" filterUnits="userSpaceOnUse" color-interpolation-filters="sRGB">
<feFlood flood-opacity="0" result="BackgroundImageFix"/>
<feBlend mode="normal" in="SourceGraphic" in2="BackgroundImageFix" result="shape"/>
<feColorMatrix in="SourceAlpha" type="matrix" values="0 0 0 0 0 0 0 0 0 0 0 0 0 0 0 0 0 0 127 0" result="hardAlpha"/>
<feOffset dy="4"/>
<feGaussianBlur stdDeviation="2"/>
<feComposite in2="hardAlpha" operator="arithmetic" k2="-1" k3="1"/>
<feColorMatrix type="matrix" values="0 0 0 0 1 0 0 0 0 1 0 0 0 0 1 0 0 0 1 0"/>
<feBlend mode="normal" in2="shape" result="effect1_innerShadow"/>
</filter>
<radialGradient id="paint0_radial" cx="0" cy="0" r="1" gradientUnits="userSpaceOnUse" gradientTransform="translate(4.5 12) rotate(66.0375) scale(4.92443 4.92984)">
<stop stop-color="#E6ECFF"/>
<stop offset="1" stop-color="#E6ECFF" stop-opacity="0"/>
</radialGradient>
<radialGradient id="paint1_radial" cx="0" cy="0" r="1" gradientUnits="userSpaceOnUse" gradientTransform="translate(18 19.5) rotate(-124.992) scale(6.10328 3.67842)">
<stop stop-color="#E9EEFF"/>
<stop offset="1" stop-color="#E9EEFF" stop-opacity="0"/>
</radialGradient>
</defs>
</svg>
